<svg width="68" height="89" viewBox="0 0 68 89" fill="none" xmlns="http://www.w3.org/2000/svg">
<g clip-path="url(#clip0_474_2)">
<path d="M0 0H68V37.2954C67.9044 40.1067 67.6689 42.9169 67.1422 45.6826C66.7211 48.2291 66.1567 50.7556 65.3511 53.2098C64.0378 57.1903 62.2733 61.0262 60.0644 64.5884C57.9611 67.8948 55.6444 71.0832 52.94 73.9267C51.4044 75.6111 49.7844 77.2197 48.0656 78.7183C46.64 79.9665 45.2022 81.2036 43.7011 82.3617C40.6244 84.7736 37.2933 86.8251 34.0489 88.9967C32.0478 87.6839 30.0133 86.4223 28.0389 85.0706C25.0744 82.9969 22.1878 80.7987 19.5144 78.3567C18.0267 76.9605 16.5078 75.5933 15.1167 74.0981C13.48 72.3737 11.9667 70.5314 10.5878 68.5945C9.40444 66.9425 8.34111 65.2092 7.26667 63.4848C4.92333 59.6434 3.18333 55.4425 2.06667 51.0849C1.09889 47.744 0.417778 44.3142 0.165556 40.8432C0.0755556 39.7763 0.0477778 38.705 0 37.6359V0ZM1.04333 1.01126C1.04444 12.0951 1.04333 23.1789 1.04333 34.2628C1.04778 36.045 1.01556 37.8283 1.13889 39.6072C1.33111 43.2351 1.96 46.8329 2.93 50.3306C3.58667 52.8226 4.39222 55.2779 5.42444 57.6408C6.90222 61.0696 8.86667 64.2636 10.9733 67.3374C13.3378 70.7617 16.14 73.8678 19.2033 76.6791C22.0478 79.3936 25.1589 81.8133 28.3711 84.0727C30.2189 85.3677 32.1456 86.5458 34.0267 87.7907C37.26 85.6803 40.5289 83.6055 43.5478 81.188C46.5367 78.7962 49.4344 76.2697 52.0122 73.4306C54.8567 70.4313 57.3222 67.0849 59.4778 63.5605C61.8389 59.6701 63.6789 55.4592 64.8878 51.0693C66.1233 46.5014 66.8778 41.7866 66.941 37.0485C66.9399 25.0346 66.9443 13.0207 66.9388 1.00681C44.9733 1.01794 23.0089 1.01015 1.04333 1.01126Z" fill="black"/>
<path d="M3.14551 3.02566C23.7111 3.02233 44.2755 3.02344 64.8399 3.02455C64.8366 12.8446 64.8399 22.6657 64.8388 32.4858C64.8244 35.2337 64.9177 37.9893 64.6388 40.7283C64.2133 45.2306 63.2966 49.6995 61.7744 53.9615C60.3366 57.9887 58.3033 61.7879 55.88 65.3045C51.5244 71.7225 45.7966 77.1026 39.5366 81.6327C37.8866 82.8208 36.1877 83.9434 34.4566 85.0091C34.1799 85.2005 33.8044 85.2027 33.5299 85.0069C29.9855 82.8197 26.5977 80.3733 23.41 77.6911C20.1255 74.872 17.0111 71.826 14.3544 68.3984C12.2855 65.7251 10.4322 62.8826 8.85106 59.8933C6.42217 55.2987 4.85773 50.2813 3.92217 45.1783C3.44329 42.4938 3.19773 39.7682 3.14884 37.0415C3.14551 25.7029 3.15217 14.3643 3.14551 3.02566ZM3.93329 3.77994C3.9444 14.2408 3.9344 24.7016 3.93773 35.1636C3.81773 43.2971 5.55329 51.4862 9.18773 58.7764C11.0922 62.6212 13.4988 66.2101 16.2666 69.4842C21.2766 75.4205 27.4233 80.3066 33.9955 84.4017C35.7122 83.3259 37.4022 82.2079 39.0466 81.0242C45.4355 76.4395 51.2333 70.9149 55.5911 64.3344C57.8433 60.9413 59.6977 57.2812 61.0677 53.4442C62.5866 49.2067 63.5122 44.7611 63.8788 40.2755C64.1522 37.3552 64.0266 34.4204 64.0544 31.4923C64.0533 22.2497 64.0555 13.007 64.0533 3.76547C56.2233 3.76547 48.3933 3.76547 40.5633 3.76547C28.3533 3.77437 16.1433 3.74545 3.93329 3.77994Z" fill="black"/>
<path d="M33.5154 6.16924C33.7698 6.11362 34.0298 5.99124 34.2932 6.07134C41.0043 7.79015 47.7187 9.49339 54.4298 11.2144C54.421 23.1738 54.4276 35.1332 54.4265 47.0914C55.2054 47.0414 55.9843 46.988 56.7654 46.9579C56.7287 47.0792 56.6921 47.2016 56.6565 47.3251C58.1776 47.3317 59.6998 47.3228 61.2221 47.3284C59.501 48.6667 57.7743 49.9962 56.0521 51.3323C55.6621 51.6427 55.2176 51.9075 54.9543 52.3458C56.1054 54.0379 57.2432 55.7378 58.3832 57.4366C56.7076 57.1084 55.0276 56.8102 53.3521 56.4854C53.9665 58.232 54.6021 59.9708 55.2298 61.713C53.021 61.8009 50.811 61.8443 48.6021 61.9155C49.241 64.2607 49.8643 66.6114 50.4998 68.9587C48.6065 67.9653 46.7121 66.9718 44.8187 65.9795C44.8176 68.17 44.8232 70.3605 44.8154 72.551C43.3043 71.1615 41.7854 69.7787 40.2598 68.4036C38.141 72.126 36.0398 75.8574 33.9098 79.5731C31.7987 75.8462 29.6843 72.1216 27.5665 68.3992C26.051 69.7775 24.5398 71.1615 23.0198 72.5343C23.0276 70.3516 23.0187 68.17 23.0243 65.9873C21.1176 66.9551 19.2343 67.9697 17.3365 68.9554C17.961 66.6069 18.5998 64.2629 19.2254 61.9155C17.0165 61.8387 14.8054 61.8109 12.5976 61.7052C13.2454 59.9708 13.851 58.2209 14.491 56.4832C12.811 56.808 11.1276 57.1117 9.44763 57.4344C10.5787 55.7445 11.7265 54.0646 12.8476 52.368C12.7143 52.0031 12.3543 51.7784 12.0598 51.5459C10.2465 50.1419 8.42651 48.7468 6.62207 47.3317C8.13651 47.3206 9.65207 47.3317 11.1665 47.3273C11.1387 47.2338 11.0843 47.0481 11.0565 46.9546C11.7432 46.9902 12.431 47.0225 13.1176 47.0781C13.3321 47.1003 13.5476 47.0736 13.7587 47.0258C13.7421 35.0887 13.7554 23.1516 13.751 11.2144C20.3376 9.52788 26.9287 7.85579 33.5154 6.16924ZM15.8532 13.0245C15.8454 13.5129 15.8387 14.0001 15.8421 14.4874C16.061 14.4874 16.2798 14.4885 16.4998 14.4885C16.4987 14.1203 16.4976 13.752 16.4998 13.3838C22.221 11.3757 27.941 9.36434 33.6632 7.36073C27.7165 9.21527 21.7954 11.1532 15.8532 13.0245ZM34.4198 7.48755C36.2187 8.05048 37.981 8.72688 39.7676 9.32763C43.6454 10.6782 47.5221 12.0299 51.3976 13.3894C51.3943 13.7554 51.3943 14.1214 51.3943 14.4885C51.6054 14.4874 51.8176 14.4874 52.031 14.4885C52.0298 14.0001 52.0332 13.5129 52.0276 13.0256C46.5687 11.3079 41.1187 9.56014 35.6632 7.83243C35.2521 7.70449 34.8465 7.55208 34.4198 7.48755ZM33.1243 8.07829C33.1321 10.7483 33.1332 13.4172 33.1243 16.0861C33.2232 16.0883 33.421 16.0916 33.5198 16.0939C33.5176 13.3727 33.5187 10.6515 33.5187 7.93144C33.4198 7.96815 33.2232 8.04158 33.1243 8.07829ZM34.2654 16.0894C34.3965 16.0894 34.5276 16.0894 34.6598 16.0894C34.6632 13.4239 34.6365 10.7561 34.6743 8.09053C34.5387 8.03602 34.4032 7.98039 34.2687 7.92699C34.2654 10.6482 34.2721 13.3682 34.2654 16.0894ZM16.9376 13.8766C16.9465 25.193 16.9554 36.5082 16.9576 47.8235C17.3821 47.8235 17.8076 47.8257 18.2332 47.8168C19.0543 39.5988 19.911 31.3829 20.7287 23.1638C19.7487 22.2927 18.7821 21.4072 17.8076 20.5305C17.8043 19.2967 17.8054 18.0641 17.8065 16.8314C18.1432 16.6534 18.4554 16.4265 18.8076 16.2841C19.7654 16.2618 20.7243 16.283 21.6821 16.2763C21.6821 17.0072 21.6843 17.7381 21.681 18.469C21.5176 18.5658 21.3565 18.6648 21.1987 18.7716C22.2598 18.7817 23.321 18.7783 24.3821 18.7828C24.3832 18.1186 24.3754 17.4544 24.3876 16.7903C24.8143 16.6123 25.1743 16.1995 25.6698 16.2518C26.5321 16.2563 27.3943 16.2529 28.2565 16.2541C28.2521 16.9861 28.2621 17.7181 28.251 18.4501C28.0432 18.5658 27.8398 18.6893 27.6365 18.8139C29.0798 18.805 30.5232 18.8262 31.9654 18.8217C31.9665 18.1553 31.9676 17.49 31.9654 16.8248C32.1787 16.6979 32.3921 16.5722 32.6065 16.4476C32.6132 13.7164 32.6065 10.9853 32.611 8.25407C27.3865 10.1309 22.1632 12.0065 16.9376 13.8766ZM35.1776 8.25184C35.1787 10.9218 35.1787 13.5918 35.1776 16.2618C35.4021 16.263 35.6265 16.263 35.851 16.2652C35.8454 17.0217 35.8521 17.7793 35.8465 18.5358C35.6798 18.6337 35.5132 18.7316 35.3498 18.8328C36.8676 18.8417 38.3854 18.8273 39.9043 18.8195C39.9054 18.1486 39.9021 17.4778 39.9065 16.8081C40.3398 16.6156 40.7132 16.1995 41.2221 16.2607C42.071 16.2663 42.921 16.2596 43.7698 16.2652C43.7643 16.9994 43.7676 17.7337 43.7676 18.4679C43.5832 18.5703 43.3998 18.6737 43.2187 18.7772C44.1665 18.8351 45.1187 18.7694 46.0687 18.785C46.0676 18.1264 46.0643 17.4689 46.0698 16.8114C46.3932 16.639 46.6976 16.4321 47.0298 16.2774C47.9987 16.2418 48.971 16.2741 49.9421 16.263C49.9398 17.6925 49.9443 19.121 49.9398 20.5505C49.0743 21.5206 48.2121 22.493 47.3498 23.4653C48.1565 31.4319 48.9754 39.3963 49.771 47.3629C50.1243 47.3874 50.4776 47.4107 50.8321 47.423C50.8132 42.1864 50.8487 36.9477 50.8376 31.71C50.8476 25.7693 50.8354 19.8296 50.8532 13.89C45.6287 12.0088 40.401 10.1364 35.1776 8.25184ZM14.8843 11.2389C14.5787 11.3168 14.2698 11.388 13.9732 11.4959C13.9932 12.4938 13.9776 13.4917 13.9821 14.4896C14.1987 14.4874 14.4154 14.4863 14.6321 14.4841C14.6243 13.5674 14.6276 12.6507 14.6332 11.734C18.231 10.6471 21.8487 9.62133 25.441 8.5155C21.9221 9.42219 18.4032 10.3333 14.8843 11.2389ZM42.5332 8.58559C46.1387 9.64024 49.751 10.6738 53.3521 11.7418C53.3354 12.6562 53.3554 13.5718 53.3176 14.4863C53.4143 14.4874 53.6076 14.4885 53.7043 14.4885C53.701 13.4806 53.7065 12.4716 53.701 11.4636C49.9743 10.5236 46.2676 9.49895 42.5332 8.58559ZM14.9121 12.13C14.901 12.9143 14.9121 13.6986 14.8976 14.483C15.1087 14.4863 15.3187 14.4874 15.5298 14.4907C15.5276 13.8689 15.5332 13.2481 15.5265 12.6273C18.8265 11.4236 22.1487 10.2844 25.4432 9.06619C21.9332 10.0875 18.4265 11.121 14.9121 12.13ZM42.4987 9.15408C45.7576 10.2833 48.9998 11.4647 52.2476 12.6273C52.2465 13.247 52.2576 13.8677 52.2565 14.4885C52.4698 14.4874 52.6832 14.4874 52.8976 14.4863C52.9121 13.6998 52.8676 12.9143 52.8721 12.1289C49.7265 11.2278 46.5876 10.3011 43.4465 9.3877C43.1343 9.29537 42.8221 9.19858 42.4987 9.15408ZM13.9821 15.1382C13.9943 21.7342 13.9843 28.3302 13.9876 34.9263C13.9765 38.9602 14.041 42.993 13.9943 47.0269C14.2221 47.028 14.4498 47.028 14.6776 47.0269C14.6387 36.3981 14.661 25.7682 14.6576 15.1382C14.4321 15.1371 14.2065 15.1382 13.9821 15.1382ZM14.9087 15.116C14.8921 25.7537 14.9187 36.3903 14.9043 47.028C15.1287 47.0291 15.3532 47.0291 15.5776 47.0303C15.5776 36.4003 15.5765 25.7715 15.5754 15.1416C15.3521 15.1304 15.131 15.1215 14.9087 15.116ZM15.8354 15.1371C15.8321 25.7682 15.8476 36.3992 15.841 47.0303C16.0654 47.0291 16.2898 47.0291 16.5154 47.028C16.511 36.3981 16.5121 25.7682 16.5143 15.1382C16.2876 15.1382 16.061 15.1371 15.8354 15.1371ZM51.3976 15.2283C51.3854 25.8994 51.371 36.5705 51.3787 47.2416C51.5976 47.2416 51.8176 47.2416 52.0376 47.2416C52.0232 36.5705 52.0354 25.8994 52.0287 15.2283C51.8176 15.2283 51.6076 15.2283 51.3976 15.2283ZM52.2476 15.2294C52.2365 25.9005 52.2554 36.5705 52.2376 47.2416C52.4565 47.2394 52.6765 47.235 52.8965 47.2338C52.9232 36.5661 52.9032 25.8972 52.9132 15.2283C52.691 15.2283 52.4687 15.2283 52.2476 15.2294ZM53.1821 15.2261C53.1754 25.8972 53.1854 36.5683 53.1776 47.2394C53.3965 47.2405 53.6176 47.2416 53.8376 47.2416C53.8343 36.5739 53.8365 25.905 53.8376 15.2361C53.6187 15.2306 53.3998 15.2283 53.1821 15.2261ZM18.2076 16.9271C18.2087 17.46 18.2087 17.994 18.2076 18.528C18.9132 18.5313 19.6187 18.5325 20.3243 18.5269C20.3154 17.9929 20.3187 17.4589 20.321 16.9249C19.6165 16.9238 18.9121 16.9204 18.2076 16.9271ZM24.7932 16.8826C24.7954 17.4222 24.7965 17.9617 24.7921 18.5024C25.4965 18.5024 26.201 18.5035 26.9054 18.5013C26.9032 17.9617 26.9043 17.4222 26.9043 16.8826C26.201 16.8815 25.4965 16.8815 24.7932 16.8826ZM32.3832 16.8826C32.3843 17.4222 32.3843 17.9617 32.3821 18.5024C33.0843 18.5024 33.7865 18.5024 34.4887 18.5024C34.4865 17.9617 34.4876 17.4222 34.4876 16.8826C33.7865 16.8815 33.0843 16.8815 32.3832 16.8826ZM40.3076 16.8815C40.3065 17.4222 40.3076 17.9617 40.3065 18.5024C41.011 18.5024 41.7143 18.5024 42.4187 18.5024C42.4154 17.9629 42.4154 17.4222 42.4198 16.8826C41.7154 16.8804 41.011 16.8826 40.3076 16.8815ZM46.4754 16.8826C46.4787 17.4222 46.4798 17.9617 46.4754 18.5024C47.1798 18.5035 47.8843 18.5024 48.5887 18.5024C48.5865 17.9617 48.5876 17.4222 48.5876 16.8815C47.8832 16.8815 47.1798 16.8815 46.4754 16.8826ZM18.1776 19.0375C18.1776 19.3991 18.1776 19.7607 18.1787 20.1233C28.3143 20.1211 38.451 20.1211 48.5865 20.1233C48.5876 19.7607 48.5876 19.3991 48.5876 19.0364C38.451 19.0375 28.3143 19.0364 18.1776 19.0375ZM21.4865 22.9947C21.4232 23.6266 21.3643 24.2596 21.2865 24.8904C22.7076 24.9037 24.1276 24.8948 25.5476 24.896C25.5443 24.2607 25.5421 23.6266 25.5487 22.9936C24.1943 22.9914 22.8398 22.988 21.4865 22.9947ZM26.0454 24.896C31.3065 24.8982 36.5665 24.896 41.8265 24.8971C41.8265 24.2618 41.8243 23.6266 41.8276 22.9914C36.5665 22.9914 31.3065 22.9914 26.0454 22.9914C26.0487 23.6266 26.0476 24.2618 26.0454 24.896ZM42.3154 22.9925C42.3165 23.6266 42.3154 24.2618 42.3154 24.896C43.7265 24.8971 45.1376 24.8993 46.5487 24.8948C46.4887 24.2596 46.4143 23.6266 46.3565 22.9914C45.0087 22.9914 43.6621 22.9902 42.3154 22.9925ZM21.2421 25.4099C21.1443 26.2521 21.0754 27.0965 20.9754 27.9386C25.1998 27.9386 29.4232 27.9386 33.6476 27.9386C33.6543 27.0965 33.6443 26.2543 33.6532 25.411C29.5165 25.4077 25.3787 25.411 21.2421 25.4099ZM34.1987 25.4144C34.2043 26.2554 34.1987 27.0965 34.201 27.9386C38.421 27.9398 42.641 27.9375 46.861 27.9398C46.7821 27.0965 46.6865 26.2543 46.6043 25.411C42.4698 25.411 38.3343 25.4055 34.1987 25.4144ZM20.9276 28.4315C20.8432 29.2725 20.751 30.1125 20.6721 30.9546C22.2965 30.9557 23.9221 30.9546 25.5465 30.9546C25.551 30.1136 25.5287 29.2725 25.5598 28.4326C24.0165 28.4248 22.4721 28.4281 20.9276 28.4315ZM26.0465 30.9557C31.3065 30.9535 36.5665 30.9546 41.8265 30.9546C41.8265 30.1125 41.8243 29.2703 41.8276 28.4281C36.5665 28.4293 31.3065 28.4293 26.0454 28.4281C26.0487 29.2703 26.0465 30.1125 26.0465 30.9557ZM42.3154 28.4293C42.3154 29.2703 42.3154 30.1125 42.3154 30.9546C43.9354 30.9557 45.5565 30.9535 47.1765 30.9546C47.0865 30.1125 46.9998 29.2714 46.9154 28.4281C45.3821 28.4293 43.8487 28.4281 42.3154 28.4293ZM20.6187 31.4341C20.5343 32.2763 20.4454 33.1173 20.3587 33.9595C24.6543 33.9606 28.951 33.9573 33.2476 33.9606C33.3798 33.7982 33.5121 33.6358 33.6454 33.4733C33.6465 32.7936 33.6398 32.115 33.6487 31.4352C29.3054 31.4319 24.9621 31.4341 20.6187 31.4341ZM34.1943 31.4341C34.1976 32.1461 34.1921 32.8592 34.1976 33.5723C34.3054 33.7014 34.4121 33.8316 34.5187 33.9617C38.8421 33.9562 43.1643 33.9606 47.4876 33.9595C47.3965 33.1184 47.3065 32.2774 47.2298 31.4352C42.8854 31.4308 38.5398 31.4341 34.1943 31.4341ZM29.4854 39.2194C26.7987 38.138 24.0987 37.089 21.401 36.0343C23.1621 38.7277 24.8932 41.4422 26.6654 44.1289C26.6121 44.1311 26.5054 44.1366 26.4521 44.1389C26.5265 44.269 26.601 44.3992 26.6765 44.5305C25.0465 44.5294 23.4176 44.5282 21.7876 44.5305C22.5476 45.1257 23.291 45.7453 24.0632 46.3249C24.3132 46.3661 24.5721 46.3205 24.8254 46.3149C24.2076 45.7932 23.5732 45.2925 22.9454 44.7841C24.5865 44.7763 26.2287 44.7875 27.871 44.7786C26.2576 42.3177 24.6676 39.8413 23.061 37.376C25.2798 38.2437 27.5021 39.107 29.7132 39.9981C31.1143 38.2593 32.4921 36.5027 33.8832 34.756C35.2721 36.5038 36.6487 38.2615 38.0532 39.997C40.2476 39.1115 42.4554 38.2582 44.6576 37.3916C43.0943 39.8546 41.5387 42.3222 39.9687 44.7808C41.601 44.7841 43.2332 44.7797 44.8654 44.783C44.0687 45.4093 43.2421 45.9967 42.4443 46.622C42.7176 46.6264 42.9932 46.6309 43.2676 46.6398C44.1698 45.9445 45.0554 45.228 45.9587 44.5338C44.3165 44.526 42.6743 44.5271 41.0321 44.5338C41.3732 43.6705 41.9565 42.9385 42.4287 42.1453C43.7132 40.1161 45.0021 38.0891 46.2854 36.0588C43.6187 37.1157 40.9398 38.1436 38.2798 39.2194C36.7976 37.3916 35.3454 35.5381 33.8832 33.6936C32.4187 35.5359 30.9665 37.3904 29.4854 39.2194ZM20.0454 36.9766C20.5721 36.9766 21.0998 36.9788 21.6276 36.9755C21.2676 36.4381 20.9143 35.8964 20.5698 35.349C21.8598 35.8719 23.1598 36.3681 24.4532 36.8854C24.7965 37.04 25.181 36.961 25.5454 36.9755C25.5387 36.1344 25.5398 35.2934 25.5443 34.4523C23.7987 34.4512 22.0532 34.4523 20.3065 34.4523C20.2221 35.2934 20.1365 36.1355 20.0454 36.9766ZM26.0387 36.9777C27.6465 36.9755 29.2543 36.9799 30.8621 36.9755C31.531 36.1333 32.1921 35.2856 32.871 34.4523C30.5943 34.4501 28.3176 34.4546 26.0398 34.4501C26.0398 35.2923 26.0421 36.1344 26.0387 36.9777ZM34.8932 34.4523C35.5721 35.2867 36.2332 36.1355 36.9043 36.9766C38.5432 36.9777 40.1821 36.9777 41.821 36.9766C41.8187 36.1355 41.8187 35.2934 41.821 34.4523C39.511 34.4512 37.2021 34.4512 34.8932 34.4523ZM42.311 34.4512C42.311 35.2934 42.3121 36.1344 42.3098 36.9766C42.6332 36.9632 42.9754 37.03 43.2821 36.8965C44.2465 36.5105 45.2165 36.1367 46.1821 35.7517C46.4443 35.6516 46.7021 35.5103 46.9932 35.5315C46.7165 36.0276 46.3965 36.4971 46.0921 36.9766C46.661 36.9777 47.231 36.9777 47.7998 36.9766C47.701 36.1355 47.6287 35.2923 47.5343 34.4512C45.7932 34.4523 44.0521 34.4523 42.311 34.4512ZM30.0232 41.0417C28.4454 40.4198 26.8665 39.7968 25.2865 39.1793C26.6798 41.3142 28.0632 43.4547 29.4487 45.5929C30.3487 45.6085 31.2476 45.5996 32.1465 45.6018C31.1565 44.6851 30.1565 43.7773 29.1587 42.8684C29.061 42.766 28.9276 42.6481 28.9687 42.489C29.0065 42.1842 29.4265 42.0607 29.6365 42.2743C30.7087 43.2489 31.7776 44.2301 32.8487 45.208C32.9743 45.3114 33.0621 45.4483 33.1276 45.5962C33.261 45.5996 33.3932 45.604 33.5265 45.6085C33.5276 43.4936 33.5198 41.3788 33.5298 39.265C33.5087 38.8245 34.2232 38.7477 34.2976 39.1805C34.3232 41.3298 34.2987 43.4803 34.3087 45.6296C34.4032 45.6263 34.591 45.6174 34.6854 45.6129C34.7887 45.4639 34.8732 45.297 35.0165 45.1802C36.0921 44.2179 37.1398 43.2244 38.2187 42.2654C38.4965 41.9751 39.051 42.3455 38.8232 42.7104C37.7965 43.7072 36.7121 44.6439 35.6687 45.6229C36.5698 45.6207 37.471 45.6285 38.3721 45.6307C39.7487 43.4903 41.1065 41.3376 42.4632 39.1838C40.8887 39.8023 39.3154 40.4187 37.7432 41.0417C36.4543 39.4219 35.1632 37.8032 33.8832 36.1767C32.5987 37.7998 31.3098 39.4196 30.0232 41.0417ZM19.9854 37.5017C19.9154 38.3394 19.8232 39.1738 19.731 40.0082C21.0187 40.0104 22.3054 40.0104 23.5921 40.0082C23.0865 39.2461 22.5932 38.4751 22.0965 37.7075C22.0143 37.6107 21.9521 37.4294 21.7887 37.4783C21.1876 37.4839 20.5854 37.4561 19.9854 37.5017ZM25.991 37.4772C27.1176 37.9422 28.2565 38.3772 29.391 38.8222C29.7465 38.375 30.1076 37.9333 30.451 37.4783C28.9643 37.4783 27.4776 37.4794 25.991 37.4772ZM37.3143 37.4783C37.6532 37.9356 38.0187 38.3728 38.3698 38.8222C39.5076 38.3783 40.6476 37.94 41.7765 37.4761C40.2898 37.4806 38.8021 37.4772 37.3143 37.4783ZM45.6943 37.6118C45.1854 38.4106 44.6832 39.2127 44.171 40.0104C45.4832 40.007 46.7954 40.0126 48.1076 40.007C48.0187 39.1638 47.9387 38.3205 47.8421 37.4783C47.2643 37.4794 46.6865 37.4783 46.1087 37.4761C45.9621 37.4883 45.7587 37.4361 45.6943 37.6118ZM19.6865 40.5099C19.5987 41.3053 19.5198 42.1019 19.4398 42.8984C21.4487 42.9029 23.4587 42.904 25.4687 42.8984C24.9354 42.1074 24.4343 41.2964 23.9021 40.5054C22.4965 40.5166 21.091 40.5054 19.6865 40.5099ZM43.8376 40.5221C43.3532 41.3231 42.8443 42.1097 42.3376 42.8973C44.361 42.9051 46.3854 42.9018 48.4087 42.8995C48.321 42.103 48.241 41.3064 48.1598 40.5099C46.7187 40.5166 45.2787 40.4943 43.8376 40.5221ZM19.2865 43.5392C19.1943 44.5716 19.0832 45.6018 18.9998 46.6353C20.4765 46.6375 21.9521 46.6353 23.4287 46.6364C22.2698 45.7253 21.1198 44.8019 19.9621 43.8886C21.8321 43.8774 23.7021 43.8897 25.571 43.8819C25.5176 43.7962 25.411 43.6249 25.3576 43.5392C23.3332 43.5381 21.3098 43.5392 19.2865 43.5392ZM42.3587 43.5381C42.2832 43.6516 42.2087 43.7662 42.1354 43.8819C44.0198 43.8897 45.9043 43.8774 47.7887 43.8874C46.6287 44.8075 45.4632 45.7208 44.2998 46.6364C45.8143 46.6364 47.3298 46.6353 48.8443 46.6364C48.7432 45.604 48.6465 44.5727 48.5487 43.5403C46.4854 43.5359 44.4221 43.5415 42.3587 43.5381ZM25.4054 45.6508C25.6721 45.8688 25.9432 46.0824 26.2065 46.3038C26.5843 46.711 27.1865 46.3928 27.6687 46.4629C27.9765 46.1881 28.2854 45.9155 28.6021 45.6519C27.5365 45.6396 26.471 45.6419 25.4054 45.6508ZM40.2076 45.6407C40.5854 45.8777 40.901 46.2081 41.0576 46.6331C41.411 46.2459 41.8621 45.9712 42.2743 45.6519C41.5854 45.6363 40.8965 45.6519 40.2076 45.6407ZM28.3354 47.0136C27.3521 47.077 26.3687 47.1226 25.3843 47.146C25.2865 47.3584 25.1976 47.5732 25.1076 47.7901C27.8332 47.9748 30.561 48.1138 33.2854 48.3018C33.2965 49.0962 33.3521 49.8894 33.3654 50.6848C33.7276 50.6848 34.091 50.6848 34.4543 50.6859C34.481 49.8927 34.5154 49.1006 34.531 48.3085C37.7976 48.0771 41.0698 47.9002 44.3398 47.6955C44.9732 47.6432 45.6143 47.6699 46.241 47.5476C44.3254 47.5465 42.4087 47.4563 40.4921 47.4296C40.501 47.285 40.5098 47.1393 40.5187 46.9958C36.4576 46.9935 32.3965 47.0069 28.3354 47.0136ZM19.1976 47.4007C20.8287 47.5598 22.4665 47.641 24.1032 47.7156C24.1354 47.5643 24.1676 47.4141 24.201 47.2639C22.5321 47.2394 20.8654 47.3629 19.1976 47.4007ZM8.51429 47.9692C9.90651 49.0739 11.3221 50.1508 12.7276 51.2388C12.4143 50.1497 12.1143 49.0583 11.8087 47.967C10.7098 47.9681 9.61207 47.9625 8.51429 47.9692ZM56.0087 47.9714C55.7098 49.0672 55.3998 50.1597 55.0932 51.2522C56.5054 50.1575 57.921 49.0639 59.3343 47.9692C58.2254 47.9659 57.1165 47.9625 56.0087 47.9714ZM12.4498 48.036C12.7165 49.0049 12.991 49.9728 13.2598 50.9407C13.3587 51.3223 13.6121 51.6338 13.8721 51.9186C15.2154 50.7249 16.5876 49.5645 17.9287 48.3697C16.1032 48.2596 14.2754 48.1583 12.4498 48.036ZM49.8787 48.3708C51.2421 49.5445 52.5898 50.7371 53.9532 51.9097C54.2121 51.6327 54.4621 51.3245 54.5587 50.9496C54.8332 49.9784 55.0987 49.0049 55.3765 48.0348C53.5443 48.1594 51.711 48.2573 49.8787 48.3708ZM48.3665 48.4264C48.2465 49.6802 48.1221 50.934 48.0132 52.1889C49.2721 52.3269 50.5343 52.4415 51.7887 52.6206C52.2054 52.674 52.6232 52.5872 53.0254 52.4804C52.4832 51.9475 51.8832 51.4769 51.3198 50.9674C50.3287 50.1275 49.3798 49.2386 48.3665 48.4264ZM18.5576 49.1774C17.3087 50.2865 16.0165 51.3501 14.7932 52.4882C15.1865 52.5772 15.591 52.6717 15.9976 52.6239C17.2654 52.4459 18.5421 52.328 19.8154 52.1878C19.6921 50.9351 19.5765 49.6813 19.4587 48.4276C19.1387 48.6534 18.8521 48.9204 18.5576 49.1774ZM20.511 48.5255C20.6298 49.7036 20.7354 50.8828 20.8476 52.0621C22.6443 51.8774 24.4421 51.6894 26.2354 51.468C24.6154 50.5502 23.0043 49.6157 21.3898 48.6879C21.1332 48.5043 20.8054 48.5577 20.511 48.5255ZM23.4376 48.7001C24.8754 49.5345 26.3198 50.3577 27.7598 51.1888C27.9632 51.3367 28.221 51.2511 28.451 51.2411C29.7432 51.0898 31.0376 50.9685 32.3287 50.8061C32.3054 50.2832 32.291 49.7592 32.2754 49.2363C29.3287 49.0539 26.3832 48.8826 23.4376 48.7001ZM41.5821 51.4602C43.3721 51.6983 45.1721 51.8707 46.9676 52.0643C47.0932 50.8862 47.191 49.7058 47.3076 48.5277C47.0632 48.5566 46.7987 48.5143 46.5698 48.6145C44.901 49.5523 43.2587 50.538 41.5821 51.4602ZM35.541 49.2397C35.5321 49.7626 35.5121 50.2854 35.491 50.8083C36.9476 50.9685 38.4054 51.1565 39.8654 51.2722C41.3921 50.4568 42.881 49.5567 44.3865 48.6957C41.4387 48.8915 38.4887 49.0483 35.541 49.2397ZM32.1121 51.844C30.6454 52.0065 29.1776 52.1611 27.7121 52.328C27.661 52.4737 27.6098 52.6195 27.5587 52.7652C32.4943 52.6984 37.4321 52.6617 42.3665 52.5705C39.7621 52.279 37.1543 52.0098 34.5498 51.7139C33.7343 51.6215 32.921 51.7584 32.1121 51.844ZM54.0621 52.7129C53.6665 52.8431 53.281 53.0044 52.8787 53.1123C51.9165 53.3804 50.9432 53.0166 49.9754 52.9788C49.7365 53.2769 49.5421 53.6229 49.2343 53.8588C48.9398 54.0423 48.6021 54.1414 48.2821 54.2704C48.3054 54.5063 48.2976 54.7877 48.071 54.9279C47.061 55.5865 45.821 55.7378 44.641 55.7667C45.6832 59.0742 46.6943 62.3917 47.7332 65.7002C46.1121 64.8636 44.4832 64.0426 42.8621 63.2038C42.8254 64.8392 42.7776 66.4745 42.731 68.1099C41.4598 66.9685 40.181 65.8371 38.9043 64.7023C37.2321 67.6182 35.5465 70.5251 33.8765 73.4421C32.201 70.5351 30.521 67.6315 28.8576 64.719C27.5476 65.8093 26.3076 66.9818 25.0187 68.0988C24.9521 66.4701 24.9432 64.8392 24.8798 63.2105C23.2576 64.037 21.6376 64.8692 20.0154 65.698C21.0321 62.4484 22.0343 59.1943 23.0465 55.9425C22.7965 55.938 22.5465 55.9325 22.2976 55.9336C22.171 55.9892 22.0443 56.066 21.8998 56.0493C21.3454 56.0537 20.7921 56.0482 20.2387 56.0471C20.6454 54.8934 21.0421 53.7375 21.4465 52.5827C19.631 52.7963 17.8087 52.9543 15.9976 53.2057C15.2076 53.2925 14.4676 52.9577 13.7398 52.7062C13.7076 52.6384 13.6432 52.5026 13.6121 52.4348C12.691 53.7898 11.7843 55.1537 10.8654 56.5088C12.4132 56.2351 13.9554 55.9314 15.501 55.6477C14.8343 57.4644 14.1987 59.2911 13.5254 61.1056C15.711 61.1746 17.8965 61.2491 20.0832 61.2903C19.5198 63.4252 18.941 65.5567 18.3654 67.6883C20.141 66.7571 21.9187 65.8282 23.6932 64.8937C23.6898 66.9451 23.6932 68.9955 23.6921 71.0469C25.0398 69.8143 26.3932 68.5872 27.7443 67.3578C29.801 70.9801 31.8487 74.6102 33.9198 78.2259C35.9787 74.6024 38.0332 70.9768 40.0932 67.3556C41.4376 68.5916 42.7932 69.8154 44.1432 71.0469C44.1454 68.9966 44.1321 66.9451 44.1487 64.8937C45.9132 65.8382 47.6943 66.7504 49.461 67.6894C48.9087 65.5534 48.2876 63.4341 47.7676 61.2914C49.9476 61.2502 52.1265 61.1679 54.3065 61.1112C53.6376 59.2945 52.9954 57.4688 52.3321 55.6499C53.8776 55.9314 55.4198 56.2317 56.9643 56.5132C56.051 55.1482 55.1321 53.7865 54.2154 52.4248C54.1632 52.5193 54.1121 52.6161 54.0621 52.7129ZM23.5721 52.7752C23.3932 52.8197 23.1332 52.7496 23.0421 52.961C23.9632 52.9788 24.8854 52.9599 25.8076 52.971C25.8654 52.8208 25.9232 52.6706 25.981 52.5204C25.1765 52.595 24.3754 52.6962 23.5721 52.7752ZM26.4998 52.5972C26.0798 53.7364 25.6921 54.8878 25.2743 56.0282C25.491 56.0293 25.7087 56.0293 25.9265 56.0304C26.3098 54.8867 26.6899 53.742 27.0787 52.6005C26.8854 52.5994 26.6932 52.5983 26.4998 52.5972ZM21.0676 55.4819C21.2821 55.4786 21.4976 55.4764 21.7132 55.473C21.9865 54.6142 22.2665 53.7575 22.5543 52.9043C22.3587 52.9143 22.1643 52.9265 21.9687 52.9387C21.6421 53.7765 21.3754 54.6364 21.0676 55.4819ZM27.3998 53.2636C27.2898 53.5762 27.1854 53.8899 27.0787 54.2025C33.1643 54.2025 39.2498 54.2025 45.3365 54.2025C46.2732 54.2003 47.2065 54.0312 48.0876 53.713C48.4065 53.5907 48.7565 53.5117 49.0176 53.2758C47.9032 53.1913 46.7932 52.9921 45.6732 53.0366C39.5821 53.1156 33.491 53.1913 27.3998 53.2636ZM22.9165 53.4605C22.7087 54.0935 22.4987 54.7254 22.2765 55.354C22.4987 55.3607 22.721 55.3662 22.9432 55.3718C23.201 54.7332 23.451 54.0924 23.7165 53.4572C23.4498 53.4561 23.1832 53.4572 22.9165 53.4605ZM23.3054 55.3751C23.5232 55.3796 23.7421 55.384 23.9598 55.3862C24.2143 54.7421 24.4698 54.098 24.7365 53.4594C24.5121 53.4572 24.2876 53.4549 24.0643 53.4516C23.7998 54.088 23.5643 54.7365 23.3054 55.3751ZM25.0754 53.4549C24.8265 54.1069 24.561 54.7521 24.3254 55.4085C24.5332 55.4141 24.741 55.4196 24.9498 55.4285C25.2198 54.7833 25.4221 54.1113 25.6776 53.4605C25.4765 53.4572 25.2765 53.4561 25.0754 53.4549ZM47.6921 54.4784C46.9598 54.6765 46.2043 54.7988 45.4443 54.7933C39.2576 54.7933 33.071 54.7933 26.8854 54.7944C26.8321 54.9401 26.781 55.0859 26.7287 55.2316C32.0065 55.2082 37.2843 55.2038 42.5621 55.1849C44.2765 55.0959 46.151 55.4319 47.6921 54.4784ZM26.6332 55.8034C26.5421 56.0704 26.451 56.3385 26.3565 56.6055C25.7176 56.5944 25.0787 56.6078 24.4398 56.5966C24.5143 56.3942 24.5898 56.1917 24.6643 55.9903C24.3298 55.9792 23.9954 55.9736 23.661 55.9703C22.7798 58.8283 21.8843 61.6819 21.0065 64.541C22.4887 63.7745 23.981 63.0258 25.4621 62.2582C25.4932 63.7789 25.5376 65.2997 25.5776 66.8205C26.7176 65.807 27.8598 64.7947 28.9976 63.7767C30.6187 66.6047 32.2443 69.4304 33.8776 72.2506C35.4998 69.4238 37.1287 66.6002 38.7565 63.7767C39.8865 64.8013 41.0332 65.807 42.1721 66.8216C42.1987 65.3008 42.2587 63.7801 42.2898 62.2593C43.7721 63.0224 45.2565 63.7823 46.7432 64.5377C45.8498 61.6541 44.9532 58.7716 44.0587 55.888C43.3332 55.8413 42.6087 55.7634 41.8821 55.7578C36.7987 55.7723 31.7165 55.7901 26.6332 55.8034Z" fill="black"/>
<path d="M1.04368 1.01031C23.0092 1.0092 44.9737 1.01698 66.9392 1.00586C66.9448 13.0197 66.9403 25.0336 66.9415 37.0475C66.8781 41.7857 66.1237 46.5004 64.8882 51.0684C63.6793 55.4583 61.8393 59.6691 59.4782 63.5595C57.3227 67.0839 54.8571 70.4303 52.0127 73.4296C49.4349 76.2687 46.5371 78.7952 43.5482 81.1871C40.5293 83.6045 37.2605 85.6794 34.0271 87.7898C32.146 86.5449 30.2193 85.3667 28.3716 84.0718C25.1593 81.8123 22.0482 79.3926 19.2038 76.6781C16.1405 73.8668 13.3382 70.7607 10.9738 67.3365C8.86712 64.2626 6.90268 61.0686 5.4249 57.6399C4.39268 55.277 3.58712 52.8217 2.93046 50.3297C1.96046 46.832 1.33157 43.2341 1.13934 39.6063C1.0159 37.8274 1.04812 36.0441 1.04368 34.2618C1.04368 23.178 1.04479 12.0941 1.04368 1.01031ZM3.1459 3.02393C3.15257 14.3625 3.1459 25.7011 3.14923 37.0397C3.19812 39.7665 3.44368 42.4921 3.92257 45.1766C4.85812 50.2796 6.42257 55.297 8.85146 59.8916C10.4326 62.8809 12.2859 65.7233 14.3548 68.3967C17.0115 71.8243 20.1259 74.8703 23.4103 77.6894C26.5981 80.3716 29.9859 82.818 33.5303 85.0052C33.8048 85.201 34.1803 85.1988 34.457 85.0074C36.1881 83.9416 37.887 82.8191 39.537 81.631C45.797 77.1009 51.5248 71.7208 55.8803 65.3028C58.3037 61.7862 60.337 57.987 61.7748 53.9598C63.297 49.6978 64.2137 45.2289 64.6392 40.7266C64.9181 37.9876 64.8248 35.2319 64.8392 32.484C64.8403 22.664 64.837 12.8429 64.8403 3.02282C44.2759 3.02171 23.7115 3.0206 3.1459 3.02393Z" fill="#56BBE6"/>
<path d="M3.93302 3.77915C16.143 3.74466 28.353 3.77358 40.563 3.76468C48.393 3.76468 56.223 3.76468 64.053 3.76468C64.0552 13.0062 64.053 22.2489 64.0541 31.4915C64.0264 34.4196 64.1519 37.3544 63.8786 40.2747C63.5119 44.7603 62.5864 49.2059 61.0675 53.4434C59.6975 57.2804 57.843 60.9405 55.5908 64.3336C51.233 70.9141 45.4352 76.4387 39.0464 81.0234C37.4019 82.2071 35.7119 83.3251 33.9952 84.4009C27.423 80.3058 21.2763 75.4197 16.2663 69.4834C13.4986 66.2093 11.0919 62.6204 9.18746 58.7756C5.55302 51.4854 3.81746 43.2963 3.93746 35.1628C3.93413 24.7008 3.94413 14.24 3.93302 3.77915ZM33.5152 6.16991C26.9286 7.85646 20.3375 9.52854 13.7508 11.2151C13.7552 23.1522 13.7419 35.0893 13.7586 47.0265C13.5475 47.0743 13.3319 47.101 13.1175 47.0788C12.4308 47.0231 11.743 46.9909 11.0563 46.9553C11.0841 47.0487 11.1386 47.2345 11.1663 47.328C9.6519 47.3324 8.13635 47.3213 6.6219 47.3324C8.42635 48.7475 10.2463 50.1426 12.0597 51.5466C12.3541 51.7791 12.7141 52.0038 12.8475 52.3687C11.7263 54.0653 10.5786 55.7451 9.44746 57.435C11.1275 57.1124 12.8108 56.8087 14.4908 56.4838C13.8508 58.2216 13.2452 59.9715 12.5975 61.7059C14.8052 61.8116 17.0163 61.8394 19.2252 61.9162C18.5997 64.2635 17.9608 66.6076 17.3363 68.9561C19.2341 67.9704 21.1175 66.9558 23.0241 65.9879C23.0186 68.1706 23.0275 70.3523 23.0197 72.535C24.5397 71.1622 26.0508 69.7782 27.5664 68.3998C29.6841 72.1222 31.7986 75.8469 33.9097 79.5738C36.0397 75.858 38.1408 72.1267 40.2597 68.4043C41.7852 69.7793 43.3041 71.1622 44.8152 72.5517C44.823 70.3612 44.8175 68.1706 44.8186 65.9801C46.7119 66.9725 48.6064 67.9659 50.4997 68.9594C49.8641 66.612 49.2408 64.2613 48.6019 61.9162C50.8108 61.845 53.0208 61.8016 55.2297 61.7137C54.6019 59.9715 53.9664 58.2327 53.3519 56.4861C55.0275 56.8109 56.7075 57.1091 58.383 57.4372C57.243 55.7385 56.1052 54.0386 54.9541 52.3464C55.2175 51.9081 55.6619 51.6433 56.0519 51.333C57.7741 49.9968 59.5008 48.6674 61.2219 47.3291C59.6997 47.3235 58.1775 47.3324 56.6564 47.3257C56.6919 47.2022 56.7286 47.0799 56.7652 46.9586C55.9841 46.9886 55.2052 47.042 54.4264 47.0921C54.4275 35.1338 54.4208 23.1745 54.4297 11.2151C47.7186 9.49406 41.0041 7.79082 34.293 6.07201C34.0297 5.99191 33.7697 6.11428 33.5152 6.16991Z" fill="#F44C0E"/>
<path d="M15.8538 13.0251C21.796 11.1538 27.7171 9.21587 33.6638 7.36133C27.9416 9.36494 22.2216 11.3763 16.5005 13.3844C16.4982 13.7526 16.4993 14.1209 16.5005 14.4891C16.2805 14.4891 16.0616 14.488 15.8427 14.488C15.8393 14.0007 15.846 13.5135 15.8538 13.0251Z" fill="white"/>
<path d="M34.4199 7.48828C34.8466 7.55281 35.2521 7.70522 35.6633 7.83316C41.1188 9.56087 46.5688 11.3086 52.0277 13.0263C52.0333 13.5136 52.0299 14.0009 52.031 14.4892C51.8177 14.4881 51.6055 14.4881 51.3944 14.4892C51.3944 14.1221 51.3944 13.7561 51.3977 13.3901C47.5221 12.0306 43.6455 10.6789 39.7677 9.32836C37.981 8.72761 36.2188 8.05121 34.4199 7.48828Z" fill="white"/>
<path d="M33.125 8.07849C33.2239 8.04178 33.4206 7.96835 33.5194 7.93164C33.5194 10.6517 33.5183 13.3729 33.5206 16.0941C33.4217 16.0918 33.2239 16.0885 33.125 16.0863C33.1339 13.4174 33.1328 10.7485 33.125 8.07849Z" fill="white"/>
<path d="M34.2656 16.0901C34.2723 13.369 34.2656 10.6489 34.269 7.92773C34.4034 7.98113 34.539 8.03676 34.6745 8.09127C34.6367 10.7568 34.6634 13.4246 34.6601 16.0901C34.5278 16.0901 34.3967 16.0901 34.2656 16.0901Z" fill="white"/>
<path d="M16.9375 13.8765C22.1631 12.0064 27.3864 10.1307 32.6108 8.25391C32.6064 10.9851 32.6131 13.7163 32.6064 16.4475C32.3919 16.5721 32.1786 16.6978 31.9653 16.8246C31.9675 17.4899 31.9664 18.1552 31.9653 18.8215C30.5231 18.826 29.0797 18.8049 27.6364 18.8138C27.8397 18.6892 28.0431 18.5657 28.2508 18.45C28.2619 17.7179 28.2519 16.9859 28.2564 16.2539C27.3942 16.2528 26.5319 16.2561 25.6697 16.2517C25.1742 16.1994 24.8142 16.6121 24.3875 16.7901C24.3753 17.4543 24.3831 18.1184 24.3819 18.7826C23.3208 18.7782 22.2597 18.7815 21.1986 18.7715C21.3564 18.6647 21.5175 18.5657 21.6808 18.4689C21.6842 17.738 21.6819 17.0071 21.6819 16.2761C20.7242 16.2828 19.7653 16.2617 18.8075 16.2839C18.4553 16.4263 18.1431 16.6533 17.8064 16.8313C17.8053 18.0639 17.8042 19.2966 17.8075 20.5303C18.7819 21.407 19.7486 22.2925 20.7286 23.1636C19.9108 31.3828 19.0542 39.5986 18.2331 47.8166C17.8075 47.8255 17.3819 47.8233 16.9575 47.8233C16.9553 36.5081 16.9464 25.1928 16.9375 13.8765Z" fill="white"/>
<path d="M35.1777 8.25195C40.4011 10.1365 45.6288 12.0089 50.8533 13.8901C50.8355 19.8297 50.8477 25.7694 50.8377 31.7101C50.8488 36.9478 50.8133 42.1865 50.8322 47.4231C50.4777 47.4108 50.1244 47.3875 49.7711 47.363C48.9755 39.3964 48.1566 31.432 47.35 23.4654C48.2122 22.4931 49.0744 21.5207 49.94 20.5506C49.9444 19.1211 49.94 17.6926 49.9422 16.2631C48.9711 16.2742 47.9988 16.2419 47.03 16.2775C46.6977 16.4322 46.3933 16.6391 46.07 16.8115C46.0644 17.469 46.0677 18.1265 46.0688 18.7851C45.1188 18.7695 44.1666 18.8352 43.2188 18.7773C43.4 18.6739 43.5833 18.5704 43.7677 18.468C43.7677 17.7338 43.7644 16.9995 43.77 16.2653C42.9211 16.2597 42.0711 16.2664 41.2222 16.2608C40.7133 16.1997 40.34 16.6157 39.9066 16.8082C39.9022 17.4779 39.9055 18.1488 39.9044 18.8196C38.3855 18.8274 36.8677 18.8418 35.35 18.8329C35.5133 18.7317 35.68 18.6338 35.8466 18.5359C35.8522 17.7794 35.8455 17.0218 35.8511 16.2653C35.6266 16.2631 35.4022 16.2631 35.1777 16.262C35.1788 13.592 35.1788 10.922 35.1777 8.25195Z" fill="white"/>
<path d="M14.8847 11.239C18.4036 10.3334 21.9225 9.42231 25.4414 8.51562C21.8492 9.62145 18.2314 10.6472 14.6336 11.7341C14.6281 12.6508 14.6247 13.5675 14.6325 14.4842C14.4159 14.4864 14.1992 14.4875 13.9825 14.4897C13.9781 13.4918 13.9936 12.4939 13.9736 11.496C14.2703 11.3881 14.5792 11.3169 14.8847 11.239Z" fill="white"/>
<path d="M42.5332 8.58594C46.2676 9.4993 49.9743 10.5239 53.701 11.464C53.7065 12.4719 53.701 13.4809 53.7043 14.4889C53.6076 14.4889 53.4143 14.4878 53.3176 14.4866C53.3554 13.5722 53.3354 12.6566 53.3521 11.7421C49.751 10.6741 46.1388 9.64059 42.5332 8.58594Z" fill="white"/>
<path d="M14.9129 12.1302C18.4273 11.1212 21.934 10.0877 25.444 9.06641C22.1495 10.2846 18.8273 11.4238 15.5273 12.6275C15.534 13.2483 15.5284 13.8691 15.5307 14.491C15.3195 14.4876 15.1095 14.4865 14.8984 14.4832C14.9129 13.6989 14.9018 12.9145 14.9129 12.1302Z" fill="white"/>
<path d="M42.499 9.1543C42.8224 9.1988 43.1346 9.29558 43.4468 9.38792C46.5879 10.3013 49.7268 11.228 52.8724 12.1291C52.8679 12.9145 52.9124 13.7 52.8979 14.4865C52.6835 14.4876 52.4701 14.4876 52.2568 14.4887C52.2579 13.868 52.2468 13.2472 52.2479 12.6275C49.0001 11.465 45.7579 10.2835 42.499 9.1543Z" fill="white"/>
<path d="M13.9824 15.1392C14.2069 15.1392 14.4324 15.1381 14.658 15.1392C14.6613 25.7691 14.6391 36.399 14.678 47.0279C14.4502 47.029 14.2224 47.029 13.9946 47.0279C14.0413 42.9939 13.9769 38.9611 13.988 34.9272C13.9846 28.3312 13.9946 21.7352 13.9824 15.1392Z" fill="white"/>
<path d="M14.909 15.1172C15.1312 15.1228 15.3524 15.1316 15.5757 15.1428C15.5768 25.7727 15.5779 36.4015 15.5779 47.0315C15.3535 47.0304 15.129 47.0304 14.9046 47.0293C14.919 36.3915 14.8924 25.7549 14.909 15.1172Z" fill="white"/>
<path d="M15.8354 15.1387C16.061 15.1387 16.2877 15.1398 16.5143 15.1398C16.5121 25.7697 16.511 36.3997 16.5154 47.0296C16.2899 47.0307 16.0654 47.0307 15.841 47.0318C15.8477 36.4008 15.8321 25.7697 15.8354 15.1387Z" fill="white"/>
<path d="M51.398 15.2285C51.608 15.2285 51.818 15.2285 52.0292 15.2285C52.0358 25.8996 52.0236 36.5707 52.038 47.2418C51.818 47.2418 51.598 47.2418 51.3791 47.2418C51.3714 36.5707 51.3858 25.8996 51.398 15.2285Z" fill="white"/>
<path d="M52.2483 15.2296C52.4694 15.2285 52.6916 15.2285 52.9138 15.2285C52.9038 25.8974 52.9238 36.5663 52.8972 47.234C52.6772 47.2351 52.4572 47.2396 52.2383 47.2418C52.2561 36.5707 52.2372 25.9007 52.2483 15.2296Z" fill="white"/>
<path d="M53.1822 15.2266C53.4 15.2288 53.6188 15.231 53.8377 15.2366C53.8366 25.9055 53.8344 36.5743 53.8377 47.2421C53.6177 47.2421 53.3966 47.241 53.1777 47.2399C53.1855 36.5688 53.1755 25.8977 53.1822 15.2266Z" fill="white"/>
<path d="M18.208 16.9279C18.9125 16.9212 19.6169 16.9245 20.3213 16.9257C20.3191 17.4597 20.3158 17.9936 20.3247 18.5276C19.6191 18.5332 18.9136 18.5321 18.208 18.5288C18.2091 17.9948 18.2091 17.4608 18.208 16.9279Z" fill="white"/>
<path d="M24.7931 16.8836C25.4964 16.8825 26.2009 16.8825 26.9042 16.8836C26.9042 17.4232 26.9031 17.9628 26.9053 18.5023C26.2009 18.5046 25.4964 18.5034 24.792 18.5034C24.7964 17.9628 24.7953 17.4232 24.7931 16.8836Z" fill="white"/>
<path d="M32.3839 16.8836C33.085 16.8825 33.7873 16.8825 34.4884 16.8836C34.4884 17.4232 34.4873 17.9628 34.4895 18.5034C33.7873 18.5034 33.085 18.5034 32.3828 18.5034C32.385 17.9628 32.385 17.4232 32.3839 16.8836Z" fill="white"/>
<path d="M40.3077 16.8828C41.0111 16.8839 41.7155 16.8817 42.42 16.8839C42.4155 17.4235 42.4155 17.9642 42.4189 18.5037C41.7144 18.5037 41.0111 18.5037 40.3066 18.5037C40.3078 17.9631 40.3066 17.4235 40.3077 16.8828Z" fill="white"/>
<path d="M46.4756 16.8839C47.18 16.8828 47.8834 16.8828 48.5878 16.8828C48.5878 17.4235 48.5867 17.9631 48.5889 18.5037C47.8845 18.5037 47.18 18.5048 46.4756 18.5037C46.48 17.9631 46.4789 17.4235 46.4756 16.8839Z" fill="white"/>
<path d="M18.1777 19.0382C28.3144 19.0371 38.4511 19.0382 48.5877 19.0371C48.5877 19.3998 48.5877 19.7613 48.5866 20.124C38.4511 20.1218 28.3144 20.1218 18.1788 20.124C18.1777 19.7613 18.1777 19.3998 18.1777 19.0382Z" fill="white"/>
<path d="M21.4871 22.9961C22.8404 22.9895 24.1949 22.9928 25.5493 22.995C25.5427 23.628 25.5449 24.2622 25.5482 24.8974C24.1282 24.8963 22.7082 24.9052 21.2871 24.8918C21.3649 24.261 21.4238 23.628 21.4871 22.9961Z" fill="white"/>
<path d="M26.0459 24.8968C26.0481 24.2627 26.0492 23.6274 26.0459 22.9922C31.307 22.9922 36.567 22.9922 41.8281 22.9922C41.8248 23.6274 41.827 24.2627 41.827 24.8979C36.567 24.8968 31.307 24.899 26.0459 24.8968Z" fill="white"/>
<path d="M42.3154 22.9936C43.6621 22.9914 45.0088 22.9925 46.3565 22.9925C46.4143 23.6277 46.4888 24.2607 46.5488 24.896C45.1377 24.9004 43.7265 24.8982 42.3154 24.8971C42.3154 24.2629 42.3165 23.6277 42.3154 22.9936Z" fill="white"/>
<path d="M21.2423 25.4106C25.3789 25.4117 29.5167 25.4083 33.6534 25.4117C33.6445 26.255 33.6545 27.0971 33.6478 27.9393C29.4234 27.9393 25.2 27.9393 20.9756 27.9393C21.0756 27.0971 21.1445 26.2527 21.2423 25.4106Z" fill="white"/>
<path d="M34.1992 25.4152C38.3348 25.4063 42.4703 25.4119 46.6048 25.4119C46.687 26.2551 46.7826 27.0973 46.8614 27.9406C42.6414 27.9384 38.4214 27.9406 34.2014 27.9395C34.1992 27.0973 34.2048 26.2563 34.1992 25.4152Z" fill="white"/>
<path d="M20.9284 28.4314C22.4729 28.4281 24.0173 28.4247 25.5606 28.4325C25.5295 29.2724 25.5517 30.1135 25.5473 30.9545C23.9229 30.9545 22.2973 30.9557 20.6729 30.9545C20.7517 30.1124 20.844 29.2724 20.9284 28.4314Z" fill="white"/>
<path d="M26.047 30.9573C26.047 30.114 26.0492 29.2719 26.0459 28.4297C31.307 28.4308 36.567 28.4308 41.8281 28.4297C41.8248 29.2719 41.827 30.114 41.827 30.9562C36.567 30.9562 31.307 30.9551 26.047 30.9573Z" fill="white"/>
<path d="M42.3154 28.4308C43.8488 28.4297 45.3821 28.4308 46.9154 28.4297C46.9999 29.273 47.0865 30.114 47.1765 30.9562C45.5565 30.9551 43.9354 30.9573 42.3154 30.9562C42.3154 30.114 42.3154 29.2719 42.3154 28.4308Z" fill="white"/>
<path d="M20.6194 31.4343C24.9627 31.4343 29.306 31.4321 33.6494 31.4354C33.6405 32.1152 33.6472 32.7938 33.646 33.4735C33.5127 33.636 33.3805 33.7984 33.2483 33.9608C28.9516 33.9575 24.6549 33.9608 20.3594 33.9597C20.446 33.1175 20.5349 32.2765 20.6194 31.4343Z" fill="white"/>
<path d="M34.1943 31.4348C38.5399 31.4348 42.8854 31.4315 47.2299 31.4359C47.3066 32.2781 47.3966 33.1191 47.4877 33.9602C43.1643 33.9613 38.8421 33.9568 34.5188 33.9624C34.4121 33.8322 34.3054 33.7021 34.1977 33.573C34.1921 32.8599 34.1977 32.1468 34.1943 31.4348Z" fill="white"/>
<path d="M20.0459 36.9779C20.137 36.1368 20.2226 35.2947 20.307 34.4536C22.0537 34.4536 23.7992 34.4525 25.5448 34.4536C25.5403 35.2947 25.5392 36.1357 25.5459 36.9768C25.1815 36.9623 24.797 37.0413 24.4537 36.8867C23.1603 36.3693 21.8603 35.8732 20.5703 35.3503C20.9148 35.8976 21.2681 36.4394 21.6281 36.9768C21.1003 36.9801 20.5726 36.9779 20.0459 36.9779Z" fill="white"/>
<path d="M26.0391 36.9788C26.0424 36.1355 26.0402 35.2933 26.0402 34.4512C28.318 34.4556 30.5946 34.4512 32.8713 34.4534C32.1924 35.2867 31.5313 36.1344 30.8624 36.9765C29.2546 36.981 27.6468 36.9765 26.0391 36.9788Z" fill="white"/>
<path d="M34.8936 34.452C37.2024 34.4509 39.5113 34.4509 41.8213 34.452C41.8191 35.2931 41.8191 36.1352 41.8213 36.9763C40.1824 36.9774 38.5436 36.9774 36.9047 36.9763C36.2336 36.1352 35.5724 35.2864 34.8936 34.452Z" fill="white"/>
<path d="M42.3117 34.4512C44.0528 34.4523 45.7939 34.4523 47.535 34.4512C47.6294 35.2922 47.7017 36.1355 47.8005 36.9765C47.2317 36.9777 46.6617 36.9777 46.0928 36.9765C46.3972 36.4971 46.7172 36.0276 46.9939 35.5314C46.7028 35.5103 46.445 35.6516 46.1828 35.7517C45.2172 36.1366 44.2472 36.5104 43.2828 36.8964C42.9761 37.0299 42.6339 36.9632 42.3105 36.9765C42.3128 36.1344 42.3117 35.2933 42.3117 34.4512Z" fill="white"/>
<path d="M30.0238 41.0427C31.3104 39.4207 32.5993 37.8009 33.8838 36.1777C35.1638 37.8042 36.4549 39.4229 37.7438 41.0427C39.316 40.4197 40.8893 39.8034 42.4638 39.1848C41.1071 41.3386 39.7493 43.4913 38.3727 45.6318C37.4716 45.6295 36.5704 45.6217 35.6693 45.624C36.7127 44.645 37.7971 43.7082 38.8238 42.7114C39.0516 42.3465 38.4971 41.9761 38.2193 42.2664C37.1404 43.2254 36.0927 44.2189 35.0171 45.1812C34.8738 45.298 34.7893 45.4649 34.686 45.614C34.5916 45.6184 34.4038 45.6273 34.3093 45.6306C34.2993 43.4813 34.3238 41.3308 34.2982 39.1815C34.2238 38.7487 33.5093 38.8255 33.5304 39.266C33.5204 41.3798 33.5282 43.4946 33.5271 45.6095C33.3938 45.6051 33.2616 45.6006 33.1282 45.5973C33.0627 45.4493 32.9749 45.3125 32.8493 45.209C31.7782 44.2311 30.7093 43.2499 29.6371 42.2753C29.4271 42.0617 29.0071 42.1852 28.9693 42.4901C28.9282 42.6491 29.0616 42.7671 29.1593 42.8694C30.1571 43.7783 31.1571 44.6861 32.1471 45.6028C31.2482 45.6006 30.3493 45.6095 29.4493 45.5939C28.0638 43.4557 26.6804 41.3153 25.2871 39.1804C26.8671 39.7978 28.446 40.4208 30.0238 41.0427Z" fill="white"/>
<path d="M19.9859 37.5023C20.5859 37.4567 21.1881 37.4845 21.7892 37.4789C21.9526 37.43 22.0148 37.6113 22.097 37.7081C22.5937 38.4757 23.087 39.2467 23.5926 40.0088C22.3059 40.011 21.0192 40.011 19.7314 40.0088C19.8237 39.1744 19.9159 38.34 19.9859 37.5023Z" fill="white"/>
<path d="M25.9912 37.4785C27.4779 37.4807 28.9645 37.4796 30.4512 37.4796C30.1079 37.9346 29.7468 38.3763 29.3912 38.8235C28.2568 38.3785 27.1179 37.9435 25.9912 37.4785Z" fill="white"/>
<path d="M37.3145 37.4788C38.8022 37.4777 40.29 37.481 41.7767 37.4766C40.6478 37.9405 39.5078 38.3788 38.37 38.8227C38.0189 38.3732 37.6533 37.936 37.3145 37.4788Z" fill="white"/>
<path d="M45.6942 37.6123C45.7587 37.4365 45.962 37.4888 46.1087 37.4766C46.6865 37.4788 47.2642 37.4799 47.842 37.4788C47.9387 38.321 48.0187 39.1642 48.1076 40.0075C46.7953 40.0131 45.4831 40.0075 44.1709 40.0108C44.6831 39.2132 45.1853 38.4111 45.6942 37.6123Z" fill="white"/>
<path d="M19.6871 40.5103C21.0915 40.5059 22.4971 40.517 23.9027 40.5059C24.4349 41.2968 24.936 42.1079 25.4693 42.8988C23.4593 42.9044 21.4493 42.9033 19.4404 42.8988C19.5204 42.1023 19.5993 41.3057 19.6871 40.5103Z" fill="white"/>
<path d="M43.8379 40.5222C45.279 40.4944 46.719 40.5167 48.1601 40.51C48.2412 41.3065 48.3212 42.1031 48.409 42.8996C46.3857 42.9019 44.3612 42.9052 42.3379 42.8974C42.8446 42.1098 43.3534 41.3232 43.8379 40.5222Z" fill="white"/>
<path d="M19.2867 43.5396C21.31 43.5396 23.3333 43.5384 25.3578 43.5396C25.4111 43.6252 25.5178 43.7965 25.5711 43.8822C23.7022 43.89 21.8322 43.8778 19.9622 43.8889C21.12 44.8022 22.27 45.7256 23.4289 46.6368C21.9522 46.6356 20.4767 46.6379 19 46.6356C19.0833 45.6021 19.1944 44.572 19.2867 43.5396Z" fill="white"/>
<path d="M42.3591 43.5391C44.4224 43.5424 46.4857 43.5368 48.5491 43.5413C48.6469 44.5737 48.7435 45.605 48.8446 46.6374C47.3302 46.6363 45.8146 46.6374 44.3002 46.6374C45.4635 45.7218 46.6291 44.8084 47.7891 43.8884C45.9046 43.8784 44.0202 43.8906 42.1357 43.8828C42.2091 43.7671 42.2835 43.6525 42.3591 43.5391Z" fill="white"/>
<path d="M25.4053 45.6519C26.4708 45.643 27.5364 45.6408 28.6019 45.653C28.2853 45.9167 27.9764 46.1892 27.6686 46.464C27.1864 46.3939 26.5842 46.7121 26.2064 46.3049C25.9431 46.0836 25.6719 45.87 25.4053 45.6519Z" fill="white"/>
<path d="M40.208 45.6406C40.8969 45.6517 41.5858 45.6362 42.2747 45.6517C41.8625 45.971 41.4113 46.2458 41.058 46.633C40.9013 46.208 40.5858 45.8776 40.208 45.6406Z" fill="white"/>
<path d="M28.3362 47.0141C32.3973 47.0075 36.4584 46.9941 40.5195 46.9963C40.5106 47.1399 40.5017 47.2856 40.4928 47.4302C42.4095 47.4569 44.3262 47.547 46.2417 47.5481C45.6151 47.6705 44.974 47.6438 44.3406 47.6961C41.0706 47.9008 37.7984 48.0777 34.5317 48.3091C34.5162 49.1012 34.4817 49.8933 34.4551 50.6865C34.0917 50.6854 33.7284 50.6854 33.3662 50.6854C33.3528 49.89 33.2973 49.0967 33.2862 48.3024C30.5617 48.1144 27.834 47.9753 25.1084 47.7907C25.1984 47.5737 25.2873 47.359 25.3851 47.1465C26.3695 47.1232 27.3528 47.0776 28.3362 47.0141Z" fill="white"/>
<path d="M19.1982 47.4017C20.866 47.3639 22.5327 47.2404 24.2016 47.2649C24.1682 47.4151 24.136 47.5653 24.1038 47.7166C22.4671 47.642 20.8294 47.5608 19.1982 47.4017Z" fill="white"/>
<path d="M12.4502 48.0371C14.2758 48.1595 16.1035 48.2607 17.9291 48.3709C16.588 49.5657 15.2158 50.726 13.8724 51.9197C13.6124 51.6349 13.3591 51.3234 13.2602 50.9418C12.9913 49.974 12.7169 49.0061 12.4502 48.0371Z" fill="white"/>
<path d="M49.8789 48.3711C51.7111 48.2577 53.5445 48.1598 55.3767 48.0352C55.0989 49.0053 54.8334 49.9787 54.5589 50.9499C54.4622 51.3248 54.2122 51.633 53.9533 51.91C52.59 50.7374 51.2422 49.5448 49.8789 48.3711Z" fill="white"/>
<path d="M48.367 48.4277C49.3803 49.2399 50.3292 50.1287 51.3203 50.9687C51.8837 51.4782 52.4837 51.9488 53.0259 52.4817C52.6237 52.5885 52.2059 52.6753 51.7892 52.6219C50.5348 52.4427 49.2726 52.3282 48.0137 52.1902C48.1226 50.9353 48.247 49.6815 48.367 48.4277Z" fill="white"/>
<path d="M18.5584 49.1776C18.8528 48.9206 19.1395 48.6536 19.4595 48.4277C19.5773 49.6815 19.6928 50.9353 19.8162 52.188C18.5428 52.3282 17.2662 52.4461 15.9984 52.6241C15.5917 52.6719 15.1873 52.5774 14.7939 52.4884C16.0173 51.3503 17.3095 50.2867 18.5584 49.1776Z" fill="white"/>
<path d="M20.5117 48.5254C20.8062 48.5577 21.1339 48.5043 21.3906 48.6878C23.0051 49.6156 24.6162 50.5501 26.2362 51.468C24.4428 51.6893 22.6451 51.8774 20.8484 52.062C20.7362 50.8828 20.6306 49.7035 20.5117 48.5254Z" fill="white"/>
<path d="M23.4375 48.7012C26.3831 48.8836 29.3286 49.0549 32.2753 49.2374C32.2908 49.7603 32.3053 50.2843 32.3286 50.8071C31.0375 50.9696 29.7431 51.0908 28.4508 51.2421C28.2208 51.2521 27.9631 51.3378 27.7597 51.1898C26.3197 50.3588 24.8753 49.5355 23.4375 48.7012Z" fill="white"/>
<path d="M41.582 51.4599C43.2587 50.5376 44.9009 49.552 46.5698 48.6141C46.7987 48.514 47.0631 48.5563 47.3076 48.5273C47.1909 49.7055 47.0931 50.8858 46.9676 52.064C45.172 51.8704 43.372 51.698 41.582 51.4599Z" fill="white"/>
<path d="M35.5412 49.2393C38.489 49.048 41.439 48.8911 44.3868 48.6953C42.8812 49.5564 41.3923 50.4564 39.8657 51.2719C38.4057 51.1562 36.9479 50.9681 35.4912 50.8079C35.5123 50.2851 35.5323 49.7622 35.5412 49.2393Z" fill="white"/>
<path d="M32.1129 51.8445C32.9218 51.7589 33.7351 51.622 34.5507 51.7144C37.1551 52.0103 39.7629 52.2795 42.3673 52.571C37.4329 52.6622 32.4951 52.6989 27.5596 52.7657C27.6107 52.6199 27.6618 52.4742 27.7129 52.3285C29.1785 52.1616 30.6462 52.0069 32.1129 51.8445Z" fill="white"/>
<path d="M23.572 52.7762C24.3753 52.6973 25.1764 52.596 25.9809 52.5215C25.9231 52.6717 25.8653 52.8219 25.8075 52.972C24.8853 52.9609 23.9631 52.9798 23.042 52.962C23.1331 52.7507 23.3931 52.8207 23.572 52.7762Z" fill="white"/>
<path d="M26.5 52.5977C26.6933 52.5988 26.8855 52.5999 27.0789 52.601C26.69 53.7424 26.31 54.8872 25.9266 56.0308C25.7089 56.0297 25.4911 56.0297 25.2744 56.0286C25.6922 54.8883 26.08 53.7369 26.5 52.5977Z" fill="white"/>
<path d="M21.0684 55.482C21.3761 54.6365 21.6428 53.7765 21.9695 52.9388C22.165 52.9265 22.3595 52.9143 22.555 52.9043C22.2672 53.7576 21.9872 54.6142 21.7139 55.4731C21.4984 55.4764 21.2828 55.4786 21.0684 55.482Z" fill="white"/>
<path d="M27.4002 53.2646C33.4913 53.1923 39.5824 53.1166 45.6735 53.0377C46.7935 52.9932 47.9035 53.1923 49.018 53.2768C48.7569 53.5127 48.4069 53.5917 48.088 53.7141C47.2069 54.0322 46.2735 54.2013 45.3369 54.2036C39.2502 54.2036 33.1647 54.2036 27.0791 54.2036C27.1858 53.8909 27.2902 53.5772 27.4002 53.2646Z" fill="white"/>
<path d="M22.9173 53.4608C23.184 53.4574 23.4507 53.4563 23.7173 53.4574C23.4518 54.0927 23.2018 54.7335 22.944 55.3721C22.7218 55.3665 22.4996 55.3609 22.2773 55.3543C22.4996 54.7257 22.7096 54.0938 22.9173 53.4608Z" fill="white"/>
<path d="M23.3057 55.3766C23.5646 54.7381 23.8001 54.0895 24.0646 53.4531C24.2879 53.4565 24.5123 53.4587 24.7368 53.4609C24.4701 54.0995 24.2146 54.7436 23.9601 55.3878C23.7423 55.3855 23.5234 55.3811 23.3057 55.3766Z" fill="white"/>
<path d="M25.0762 53.4551C25.2773 53.4562 25.4773 53.4573 25.6784 53.4606C25.4228 54.1115 25.2206 54.7834 24.9506 55.4287C24.7417 55.4198 24.5339 55.4142 24.3262 55.4086C24.5617 54.7523 24.8273 54.107 25.0762 53.4551Z" fill="white"/>
<path d="M47.6928 54.4785C46.1517 55.4319 44.2773 55.096 42.5628 55.185C37.285 55.2039 32.0073 55.2083 26.7295 55.2317C26.7817 55.0859 26.8328 54.9402 26.8862 54.7945C33.0717 54.7934 39.2584 54.7934 45.445 54.7934C46.205 54.7989 46.9606 54.6765 47.6928 54.4785Z" fill="white"/>
<path d="M26.6335 55.8034C31.7168 55.7901 36.7991 55.7723 41.8824 55.7578C42.6091 55.7634 43.3335 55.8412 44.0591 55.888C44.9535 58.7716 45.8502 61.6541 46.7435 64.5377C45.2568 63.7823 43.7724 63.0224 42.2902 62.2593C42.2591 63.78 42.1991 65.3008 42.1724 66.8216C41.0335 65.807 39.8868 64.8013 38.7568 63.7767C37.1291 66.6002 35.5002 69.4238 33.8779 72.2506C32.2446 69.4304 30.6191 66.6047 28.9979 63.7767C27.8602 64.7947 26.7179 65.807 25.5779 66.8205C25.5379 65.2997 25.4935 63.7789 25.4624 62.2581C23.9813 63.0258 22.4891 63.7745 21.0068 64.541C21.8846 61.6819 22.7802 58.8283 23.6613 55.9703C23.9957 55.9736 24.3302 55.9792 24.6646 55.9903C24.5902 56.1917 24.5146 56.3942 24.4402 56.5966C25.0791 56.6078 25.7179 56.5944 26.3568 56.6055C26.4513 56.3385 26.5424 56.0704 26.6335 55.8034Z" fill="white"/>
<path d="M29.4858 39.2191C30.9669 37.3902 32.4191 35.5357 33.8836 33.6934C35.3458 35.5379 36.798 37.3913 38.2803 39.2191C40.9403 38.1434 43.6191 37.1154 46.2858 36.0585C45.0025 38.0888 43.7136 40.1158 42.4291 42.145C41.9569 42.9382 41.3736 43.6703 41.0325 44.5336C42.6747 44.5269 44.3169 44.5258 45.9591 44.5336C45.0558 45.2278 44.1703 45.9442 43.268 46.6395C42.9936 46.6306 42.718 46.6262 42.4447 46.6217C43.2425 45.9965 44.0691 45.4091 44.8658 44.7828C43.2336 44.7794 41.6014 44.7839 39.9691 44.7805C41.5391 42.3219 43.0947 39.8544 44.658 37.3913C42.4558 38.2579 40.248 39.1112 38.0536 39.9968C36.6491 38.2613 35.2725 36.5035 33.8836 34.7558C32.4925 36.5024 31.1147 38.2591 29.7136 39.9979C27.5025 39.1068 25.2803 38.2435 23.0614 37.3757C24.668 39.841 26.258 42.3175 27.8714 44.7783C26.2291 44.7872 24.5869 44.7761 22.9458 44.7839C23.5736 45.2923 24.208 45.7929 24.8258 46.3147C24.5725 46.3202 24.3136 46.3658 24.0636 46.3247C23.2914 45.7451 22.548 45.1254 21.788 44.5302C23.418 44.528 25.0469 44.5291 26.6769 44.5302C26.6014 44.3989 26.5269 44.2688 26.4525 44.1386C26.5058 44.1364 26.6125 44.1308 26.6658 44.1286C24.8936 41.4419 23.1625 38.7274 21.4014 36.0341C24.0991 37.0887 26.7991 38.1378 29.4858 39.2191Z" fill="#FFFF01"/>
<path d="M8.51465 47.9682C9.61243 47.9615 10.7102 47.9671 11.8091 47.966C12.1146 49.0573 12.4146 50.1487 12.728 51.2378C11.3224 50.1498 9.90687 49.0729 8.51465 47.9682Z" fill="#FFFF01"/>
<path d="M56.0093 47.9706C57.1171 47.9617 58.226 47.965 59.3349 47.9683C57.9215 49.063 56.506 50.1566 55.0938 51.2513C55.4004 50.1588 55.7104 49.0664 56.0093 47.9706Z" fill="#FFFF01"/>
<path d="M54.0629 52.712C54.1129 52.6152 54.164 52.5184 54.2162 52.4238C55.1329 53.7855 56.0518 55.1472 56.9651 56.5123C55.4207 56.2308 53.8784 55.9304 52.3329 55.649C52.9962 57.4679 53.6384 59.2935 54.3073 61.1102C52.1273 61.167 49.9484 61.2493 47.7684 61.2905C48.2884 63.4331 48.9095 65.5524 49.4618 67.6884C47.6951 66.7495 45.914 65.8372 44.1495 64.8927C44.1329 66.9442 44.1462 68.9956 44.144 71.046C42.794 69.8144 41.4384 68.5907 40.094 67.3547C38.034 70.9759 35.9795 74.6015 33.9207 78.2249C31.8495 74.6093 29.8018 70.9792 27.7451 67.3569C26.394 68.5862 25.0407 69.8133 23.6929 71.046C23.694 68.9945 23.6907 66.9442 23.694 64.8927C21.9195 65.8272 20.1418 66.7562 18.3662 67.6873C18.9418 65.5558 19.5207 63.4242 20.084 61.2893C17.8973 61.2482 15.7118 61.1736 13.5262 61.1047C14.1995 59.2902 14.8351 57.4635 15.5018 55.6467C13.9562 55.9304 12.414 56.2341 10.8662 56.5078C11.7851 55.1528 12.6918 53.7889 13.6129 52.4338C13.644 52.5017 13.7084 52.6374 13.7407 52.7053C14.4684 52.9567 15.2084 53.2916 15.9984 53.2048C17.8095 52.9534 19.6318 52.7954 21.4473 52.5818C21.0429 53.7366 20.6462 54.8925 20.2395 56.0461C20.7929 56.0472 21.3462 56.0528 21.9007 56.0484C22.0451 56.065 22.1718 55.9883 22.2984 55.9327C22.5473 55.9315 22.7973 55.9371 23.0473 55.9416C22.0351 59.1934 21.0329 62.4475 20.0162 65.6971C21.6384 64.8683 23.2584 64.0361 24.8807 63.2095C24.944 64.8382 24.9529 66.4691 25.0195 68.0978C26.3084 66.9809 27.5484 65.8083 28.8584 64.7181C30.5218 67.6306 32.2018 70.5342 33.8773 73.4412C35.5473 70.5242 37.2329 67.6172 38.9051 64.7014C40.1818 65.8361 41.4607 66.9675 42.7318 68.109C42.7784 66.4736 42.8262 64.8382 42.8629 63.2028C44.484 64.0417 46.1129 64.8627 47.734 65.6993C46.6951 62.3907 45.684 59.0732 44.6418 55.7658C45.8218 55.7369 47.0618 55.5856 48.0718 54.927C48.2984 54.7868 48.3062 54.5053 48.2829 54.2695C48.6029 54.1404 48.9407 54.0414 49.2351 53.8578C49.5429 53.622 49.7373 53.276 49.9762 52.9779C50.944 53.0157 51.9173 53.3795 52.8795 53.1114C53.2818 53.0034 53.6673 52.8421 54.0629 52.712Z" fill="#FFFF01"/>
</g>
<defs>
<clipPath id="clip0_474_2">
<rect width="68" height="89" fill="white"/>
</clipPath>
</defs>
</svg>
