<svg width="52" height="52" viewBox="0 0 52 52" fill="none" xmlns="http://www.w3.org/2000/svg">
<path d="M13.6778 45.6319C12.5428 45.6319 11.5716 45.227 10.7641 44.4172C9.9566 43.6073 9.55216 42.6327 9.55078 41.4931V12.5217C9.55078 11.3835 9.95523 10.4095 10.7641 9.59972C11.573 8.7899 12.5442 8.3843 13.6778 8.38292H15.7413V6.31353C15.7413 5.72721 15.9394 5.23607 16.3355 4.84013C16.7317 4.44419 17.2215 4.24553 17.8047 4.24415C18.388 4.24277 18.8785 4.44143 19.276 4.84013C19.6736 5.23883 19.871 5.72997 19.8682 6.31353V8.38292H36.3762V6.31353C36.3762 5.72721 36.5743 5.23607 36.9705 4.84013C37.3667 4.44419 37.8564 4.24553 38.4397 4.24415C39.0229 4.24277 39.5134 4.44143 39.9109 4.84013C40.3085 5.23883 40.5059 5.72997 40.5032 6.31353V8.38292H42.5667C43.7016 8.38292 44.6735 8.78852 45.4824 9.59972C46.2913 10.4109 46.695 11.3849 46.6936 12.5217V41.4931C46.6936 42.6313 46.2899 43.606 45.4824 44.4172C44.6749 45.2284 43.7029 45.6333 42.5667 45.6319H13.6778ZM12.6671 42.5067H43.5773V19.7857H12.6671V42.5067ZM12.6671 16.6605H43.5773V11.5081H12.6671V16.6605ZM28.1222 29.0768C27.5376 29.0768 27.0478 28.8781 26.653 28.4808C26.2582 28.0835 26.0601 27.5924 26.0587 27.0074C26.0573 26.4225 26.2554 25.9313 26.653 25.534C27.0506 25.1367 27.5403 24.938 28.1222 24.938C28.7041 24.938 29.1945 25.1367 29.5935 25.534C29.9924 25.9313 30.1898 26.4225 30.1857 27.0074C30.1816 27.5924 29.9835 28.0842 29.5914 28.4829C29.1994 28.8816 28.7096 29.0796 28.1222 29.0768ZM19.8682 29.0768C19.2836 29.0768 18.7938 28.8781 18.399 28.4808C18.0042 28.0835 17.8061 27.5924 17.8047 27.0074C17.8034 26.4225 18.0015 25.9313 18.399 25.534C18.7966 25.1367 19.2863 24.938 19.8682 24.938C20.4501 24.938 20.9406 25.1367 21.3395 25.534C21.7385 25.9313 21.9359 26.4225 21.9317 27.0074C21.9276 27.5924 21.7295 28.0842 21.3374 28.4829C20.9454 28.8816 20.4556 29.0796 19.8682 29.0768ZM36.3762 29.0768C35.7915 29.0768 35.3018 28.8781 34.907 28.4808C34.5122 28.0835 34.3141 27.5924 34.3127 27.0074C34.3113 26.4225 34.5094 25.9313 34.907 25.534C35.3045 25.1367 35.7943 24.938 36.3762 24.938C36.9581 24.938 37.4485 25.1367 37.8474 25.534C38.2464 25.9313 38.4438 26.4225 38.4397 27.0074C38.4355 27.5924 38.2374 28.0842 37.8454 28.4829C37.4533 28.8816 36.9636 29.0796 36.3762 29.0768ZM28.1222 37.3543C27.5376 37.3543 27.0478 37.1557 26.653 36.7584C26.2582 36.361 26.0601 35.8699 26.0587 35.285C26.0573 34.7 26.2554 34.2089 26.653 33.8116C27.0506 33.4142 27.5403 33.2156 28.1222 33.2156C28.7041 33.2156 29.1945 33.4142 29.5935 33.8116C29.9924 34.2089 30.1898 34.7 30.1857 35.285C30.1816 35.8699 29.9835 36.3617 29.5914 36.7604C29.1994 37.1591 28.7096 37.3571 28.1222 37.3543ZM19.8682 37.3543C19.2836 37.3543 18.7938 37.1557 18.399 36.7584C18.0042 36.361 17.8061 35.8699 17.8047 35.285C17.8034 34.7 18.0015 34.2089 18.399 33.8116C18.7966 33.4142 19.2863 33.2156 19.8682 33.2156C20.4501 33.2156 20.9406 33.4142 21.3395 33.8116C21.7385 34.2089 21.9359 34.7 21.9317 35.285C21.9276 35.8699 21.7295 36.3617 21.3374 36.7604C20.9454 37.1591 20.4556 37.3571 19.8682 37.3543ZM36.3762 37.3543C35.7915 37.3543 35.3018 37.1557 34.907 36.7584C34.5122 36.361 34.3141 35.8699 34.3127 35.285C34.3113 34.7 34.5094 34.2089 34.907 33.8116C35.3045 33.4142 35.7943 33.2156 36.3762 33.2156C36.9581 33.2156 37.4485 33.4142 37.8474 33.8116C38.2464 34.2089 38.4438 34.7 38.4397 35.285C38.4355 35.8699 38.2374 36.3617 37.8454 36.7604C37.4533 37.1591 36.9636 37.3571 36.3762 37.3543Z" fill="#D9D9D9"/>
</svg>
