<svg width="42" height="42" viewBox="0 0 42 42" fill="none" xmlns="http://www.w3.org/2000/svg">
<path d="M17.8277 22.2285L21.1454 20.2233L24.4631 22.2285L23.5881 18.4368L26.5048 15.9212L22.6766 15.5931L21.1454 12.0202L19.6141 15.5931L15.786 15.9212L18.7027 18.4368L17.8277 22.2285ZM18.5204 31.7077H26.6871C26.5169 32.3396 26.2253 32.85 25.8121 33.2389C25.3989 33.6278 24.8642 33.8709 24.2079 33.9681L8.31207 35.9004C7.50998 36.0219 6.78665 35.8338 6.14207 35.336C5.49748 34.8382 5.12707 34.1878 5.03082 33.3848L3.09852 17.4525C3.0013 16.6504 3.19575 15.9334 3.68186 15.3014C4.16797 14.6695 4.81207 14.3049 5.61415 14.2077L7.29123 13.9889V16.9056L5.97873 17.0879L7.94748 33.0202L18.5204 31.7077ZM13.1246 28.791C12.3225 28.791 11.6361 28.5057 11.0654 27.935C10.4947 27.3643 10.2089 26.6774 10.2079 25.8743V9.83268C10.2079 9.0306 10.4937 8.34421 11.0654 7.77352C11.6371 7.20282 12.3235 6.91699 13.1246 6.91602H29.1662C29.9683 6.91602 30.6552 7.20185 31.2269 7.77352C31.7985 8.34518 32.0839 9.03157 32.0829 9.83268V25.8743C32.0829 26.6764 31.7976 27.3633 31.2269 27.935C30.6562 28.5066 29.9693 28.792 29.1662 28.791H13.1246ZM13.1246 25.8743H29.1662V9.83268H13.1246V25.8743Z" fill="#D9D9D9"/>
</svg>
