<svg width="35" height="35" viewBox="0 0 35 35" fill="none" xmlns="http://www.w3.org/2000/svg">
<g clip-path="url(#clip0_441_5805)">
<path d="M1.34473 0.5C1.56 0.5 1.77278 0.590139 1.93359 0.759766C2.09517 0.930287 2.19043 1.16695 2.19043 1.41895V22.2002L3.02051 21.4697L7.73242 17.3252L7.73145 17.3242C9.16471 16.0661 10.5041 15.3311 11.8809 15.3262L12.1572 15.335C13.5366 15.4274 14.7628 16.2438 15.9922 17.4863L16.2383 17.7402L16.249 17.751V17.752C17.4886 19.0577 18.4311 19.5809 19.2539 19.6514L19.417 19.6592C20.2349 19.6707 21.1494 19.2436 22.3525 18.1826L22.5967 17.9619L33.082 8.28711L33.0918 8.27832C33.1758 8.19662 33.2731 8.13419 33.377 8.09473C33.4805 8.05544 33.5897 8.03884 33.6982 8.04492C33.807 8.05104 33.9147 8.07967 34.0146 8.13086C34.1147 8.18214 34.2062 8.25519 34.2822 8.34668C34.3583 8.4383 34.4177 8.54708 34.4551 8.66602C34.4924 8.78491 34.5065 8.91134 34.4971 9.03711C34.4876 9.16285 34.4545 9.28436 34.4004 9.39453C34.3598 9.47714 34.3081 9.55174 34.248 9.61621L34.1855 9.67773L34.1758 9.68652L23.6904 19.3633C22.2701 20.6754 20.888 21.519 19.3945 21.499L19.1143 21.4854C17.8133 21.3734 16.5945 20.6063 15.3428 19.3496L15.0732 19.0723L15.0605 19.0596C13.8424 17.7746 12.9118 17.2272 12.0527 17.1709H12.0518C11.2547 17.1182 10.3203 17.4747 9.05176 18.5352L8.79395 18.7568L2.36035 24.4102L2.19043 24.5596V27.5273C2.17785 28.3258 2.19239 29.1246 2.23535 29.9219V29.9229L2.23633 29.9336C2.27963 30.5036 2.36235 30.8353 2.4834 31.0859V31.0869C2.70993 31.5571 3.05707 31.9546 3.4873 32.2334L3.67676 32.3447L3.67871 32.3457C3.92522 32.4771 4.2455 32.5659 4.79297 32.6123V32.6133C5.34969 32.663 6.06536 32.6621 7.0791 32.6621H33.6289C33.8441 32.6621 34.056 32.7524 34.2168 32.9219C34.3785 33.0924 34.4736 33.329 34.4736 33.5811C34.4736 33.8331 34.3785 34.0697 34.2168 34.2402C34.056 34.4098 33.8441 34.5 33.6289 34.5H7.02344C6.06271 34.5 5.28714 34.4998 4.66016 34.4473H4.66113C4.01337 34.3896 3.4481 34.2717 2.92773 33.9932H2.92676C2.1997 33.6011 1.58809 33.0032 1.16016 32.2656L0.988281 31.9414V31.9404L0.893555 31.7295C0.719053 31.3018 0.626657 30.8455 0.575195 30.3447L0.552734 30.0908V30.0898L0.522461 29.5596C0.500464 29 0.5 28.348 0.5 27.584V1.41895L0.504883 1.3252C0.522408 1.13957 0.590717 0.965897 0.699219 0.826172L0.756836 0.759766C0.917537 0.590252 1.1296 0.50012 1.34473 0.5Z" fill="#D9D9D9" stroke="#D9D9D9"/>
</g>
<defs>
<clipPath id="clip0_441_5805">
<rect width="35" height="35" fill="white"/>
</clipPath>
</defs>
</svg>
