<svg width="35" height="27" viewBox="0 0 35 27" fill="none" xmlns="http://www.w3.org/2000/svg">
<path d="M33.25 15.0646H29.75C29.2542 15.0646 28.8388 14.8966 28.504 14.5606C28.1692 14.2246 28.0012 13.8092 28 13.3146C27.9988 12.8199 28.1668 12.4046 28.504 12.0686C28.8412 11.7326 29.2565 11.5646 29.75 11.5646H33.25C33.7458 11.5646 34.1617 11.7326 34.4977 12.0686C34.8337 12.4046 35.0012 12.8199 35 13.3146C34.9988 13.8092 34.8308 14.2252 34.496 14.5623C34.1612 14.8995 33.7458 15.0669 33.25 15.0646ZM25.55 21.7146C25.8417 21.3062 26.2208 21.0729 26.6875 21.0146C27.1542 20.9563 27.5917 21.0729 28 21.3646L30.8 23.4646C31.2083 23.7562 31.4417 24.1354 31.5 24.6021C31.5583 25.0688 31.4417 25.5063 31.15 25.9146C30.8583 26.3229 30.4792 26.5563 30.0125 26.6146C29.5458 26.6729 29.1083 26.5563 28.7 26.2646L25.9 24.1646C25.4917 23.8729 25.2583 23.4937 25.2 23.0271C25.1417 22.5604 25.2583 22.1229 25.55 21.7146ZM30.8 3.16458L28 5.26458C27.5917 5.55625 27.1542 5.67292 26.6875 5.61458C26.2208 5.55625 25.8417 5.32292 25.55 4.91458C25.2583 4.50625 25.1417 4.06875 25.2 3.60208C25.2583 3.13542 25.4917 2.75625 25.9 2.46458L28.7 0.364583C29.1083 0.0729164 29.5458 -0.04375 30.0125 0.0145834C30.4792 0.0729167 30.8583 0.30625 31.15 0.714584C31.4417 1.12292 31.5583 1.56042 31.5 2.02708C31.4417 2.49375 31.2083 2.87292 30.8 3.16458ZM5.25 18.5646H3.5C2.5375 18.5646 1.71383 18.2222 1.029 17.5373C0.344167 16.8525 0.00116667 16.0283 0 15.0646V11.5646C0 10.6021 0.343 9.77842 1.029 9.09358C1.715 8.40875 2.53867 8.06575 3.5 8.06458H10.5L16.5813 4.38958C17.1646 4.03958 17.7555 4.03958 18.354 4.38958C18.9525 4.73958 19.2512 5.25 19.25 5.92083V20.7083C19.25 21.3792 18.9508 21.8896 18.3523 22.2396C17.7538 22.5896 17.1634 22.5896 16.5813 22.2396L10.5 18.5646H8.75V23.8146C8.75 24.3104 8.582 24.7263 8.246 25.0623C7.91 25.3983 7.49467 25.5657 7 25.5646C6.50533 25.5634 6.09 25.3954 5.754 25.0606C5.418 24.7257 5.25 24.3104 5.25 23.8146V18.5646ZM15.75 17.6021V9.02708L11.4625 11.5646H3.5V15.0646H11.4625L15.75 17.6021ZM21 19.1771V7.45208C21.7875 8.15208 22.4222 9.0055 22.904 10.0123C23.3858 11.0192 23.6262 12.1199 23.625 13.3146C23.6238 14.5092 23.3829 15.6106 22.9023 16.6186C22.4216 17.6266 21.7875 18.4794 21 19.1771Z" fill="#D9D9D9"/>
</svg>
