<svg width="43" height="43" viewBox="0 0 43 43" fill="none" xmlns="http://www.w3.org/2000/svg">
<g clip-path="url(#clip0_441_5817)">
<path d="M21.499 3.85156C21.9171 3.85156 22.3359 3.92589 22.7539 4.0752L33.5039 8.10645C34.1906 8.37519 34.751 8.80816 35.1846 9.40527C35.6181 10.0024 35.8341 10.6746 35.833 11.4209V19.8867C35.833 24.0672 34.6379 27.9719 32.249 31.6006C29.8601 35.2293 26.6504 37.7151 22.6191 39.0576C22.4401 39.1173 22.2611 39.1625 22.082 39.1924C21.9029 39.2222 21.7081 39.2373 21.499 39.2373C21.2901 39.2373 21.0961 39.2222 20.917 39.1924C20.7379 39.1625 20.559 39.1173 20.3799 39.0576C16.3486 37.7139 13.1379 35.2274 10.749 31.5986C8.36034 27.97 7.16602 24.0659 7.16602 19.8867V11.4209C7.1661 10.6746 7.38291 10.0024 7.81641 9.40527C8.24996 8.80821 8.80962 8.37515 9.49512 8.10645L20.2451 4.0752C20.663 3.92594 21.0811 3.8516 21.499 3.85156ZM10.749 11.4209V19.8867C10.749 23.4999 11.7644 26.785 13.7949 29.7412C15.8254 32.6973 18.3936 34.6679 21.499 35.6533C24.6045 34.6679 27.1726 32.6973 29.2031 29.7412C31.2337 26.785 32.249 23.4999 32.249 19.8867V11.4209L21.499 7.38965L10.749 11.4209ZM21.499 19.708C22.0055 19.7092 22.4314 19.8808 22.7754 20.2236C23.1192 20.5663 23.2909 20.9916 23.291 21.499V28.666C23.2922 29.1725 23.1204 29.5974 22.7764 29.9414C22.4324 30.2854 22.0067 30.458 21.499 30.458C20.9927 30.4591 20.5676 30.2873 20.2236 29.9434C19.8797 29.5994 19.708 29.1736 19.708 28.666V21.499C19.7081 20.994 19.8797 20.5687 20.2236 20.2236C20.5675 19.8786 20.9928 19.7069 21.499 19.708ZM21.499 12.541C22.0067 12.541 22.4326 12.7136 22.7754 13.0576C23.1179 13.4015 23.2898 13.8268 23.291 14.333C23.2922 14.8394 23.1203 15.2644 22.7764 15.6084C22.4324 15.9523 22.0066 16.124 21.499 16.124C20.9939 16.1263 20.5688 15.9555 20.2236 15.6104C19.8785 15.2652 19.7069 14.8394 19.708 14.333C19.7092 13.8267 19.881 13.4016 20.2236 13.0576C20.5664 12.7137 20.9915 12.5411 21.499 12.541Z" fill="#D9D9D9"/>
</g>
<defs>
<clipPath id="clip0_441_5817">
<rect width="43" height="43" fill="white"/>
</clipPath>
</defs>
</svg>
