<svg width="30" height="29" viewBox="0 0 30 29" fill="none" xmlns="http://www.w3.org/2000/svg">
<path d="M4.3245 25.1618L9.45482 20.0315M9.45482 20.0315C8.57726 19.1539 7.88114 18.1121 7.40621 16.9655C6.93127 15.8189 6.68683 14.59 6.68683 13.349C6.68683 12.1079 6.93127 10.879 7.4062 9.73241C7.88114 8.58582 8.57726 7.544 9.45482 6.66643C10.3324 5.78887 11.3742 5.09275 12.5208 4.61782C13.6674 4.14288 14.8963 3.89844 16.1374 3.89844C17.3784 3.89844 18.6073 4.14288 19.7539 4.61782C20.9005 5.09275 21.9423 5.78887 22.8199 6.66643C24.5922 8.43875 25.5879 10.8425 25.5879 13.349C25.5879 15.8554 24.5922 18.2592 22.8199 20.0315C21.0476 21.8038 18.6438 22.7995 16.1374 22.7995C13.6309 22.7995 11.2271 21.8038 9.45482 20.0315Z" stroke="#D9D9D9" stroke-width="2" stroke-linecap="round" stroke-linejoin="round"/>
</svg>
