<svg width="42" height="43" viewBox="0 0 42 43" fill="none" xmlns="http://www.w3.org/2000/svg">
<path d="M32.7023 29.3471L33.7216 30.957L30.8413 33.6755L27.6947 35.3132L24.4651 36.3377L23.2906 34.5889L25.2321 32.3155L29.1414 30.2036L32.7023 29.3471Z" fill="#D9D9D9" stroke="#D9D9D9" stroke-width="3"/>
<path d="M28.7717 29.9259L24.0141 21.9691M30.6779 33.1138L32.8814 36.7989C32.8814 36.7989 34.6758 36.9475 35.0872 37.7126C35.6142 38.6926 34.6208 39.5968 33.5595 40.1027C32.4764 40.619 30.9423 40.8761 30.4051 39.8756C30.0468 39.2083 30.7586 38.0216 30.7586 38.0216L28.0039 34.5069M25.9489 32.3242L20.5039 25.8743M20.5039 16.0987L15.2898 7.37859C15.2898 7.37859 8.45695 2.02118 6.74263 2.08373C5.02831 2.14628 7.75633 10.7741 7.75633 10.7741L16.8526 21.5491" stroke="#D9D9D9" stroke-width="3"/>
<path d="M8.37974 29.3471L7.3604 30.957L10.2407 33.6755L13.3874 35.3132L16.6169 36.3377L17.7914 34.5889L15.8499 32.3155L15 31.8563L13.6511 31.1276L12.3022 30.3989L11.9406 30.2036L8.37974 29.3471Z" fill="#D9D9D9" stroke="#D9D9D9" stroke-width="3"/>
<path d="M12.3103 29.9259L25.7923 7.37859C25.7923 7.37859 32.6251 2.02118 34.3394 2.08373C36.0537 2.14628 33.3257 10.7741 33.3257 10.7741L15.1331 32.3242M10.4041 33.1138L8.20067 36.7989C8.20067 36.7989 6.4062 36.9475 5.9948 37.7126C5.46785 38.6926 6.46128 39.5968 7.52251 40.1027C8.60559 40.619 10.1397 40.8761 10.6769 39.8756C11.0352 39.2083 10.3234 38.0216 10.3234 38.0216L13.0781 34.5069" stroke="#D9D9D9" stroke-width="3"/>
</svg>
