<svg width="69" height="24" viewBox="0 0 69 24" fill="none" xmlns="http://www.w3.org/2000/svg">
<path d="M8.608 21.208C8.608 18.0933 8.66133 14.584 8.768 10.68H2.848C2.50667 10.68 1.74933 10.4987 0.576 10.136C0.704 8.36533 0.992 6.50933 1.44 4.568L3.616 4.184L4.192 4.824C4.384 5.05867 4.55467 5.208 4.704 5.272C4.87467 5.31467 5.17333 5.336 5.6 5.336H16.32L15.488 10.68H12.896L13.216 22.744L9.856 23.384H8.608V21.208ZM19.6975 11.544C20.4868 9.88 20.9668 8.83467 21.1375 8.408C21.3295 7.96 21.4255 7.608 21.4255 7.352C21.4255 7.16 21.3722 6.97867 21.2655 6.808C21.1588 6.616 20.9775 6.40267 20.7215 6.168L19.0575 4.696C20.0815 3.224 21.1802 1.88 22.3535 0.664C23.1002 1.176 23.6975 1.64533 24.1455 2.072C24.6148 2.47733 24.9668 2.84 25.2015 3.16C25.4575 3.48 25.6282 3.81067 25.7135 4.152C26.6948 2.78666 27.6655 1.624 28.6255 0.664C29.4362 1.26133 30.0228 1.73067 30.3855 2.072C30.9828 2.56267 31.4095 3.01067 31.6655 3.416C31.9215 3.8 32.0495 4.216 32.0495 4.664C32.0495 5.70933 30.8548 7.928 28.4655 11.32L25.9375 11.544C26.7268 9.88 27.2068 8.83467 27.3775 8.408C27.5695 7.96 27.6655 7.608 27.6655 7.352C27.6655 7.16 27.6122 6.97867 27.5055 6.808C27.4202 6.616 27.2495 6.40267 26.9935 6.168L25.7455 5.08C25.4895 6.27467 24.3055 8.35467 22.1935 11.32L19.6975 11.544ZM36.7633 23.416C36.3366 20.152 36.0059 16.6533 35.7713 12.92C35.7286 12.152 35.6753 11.608 35.6113 11.288C35.5686 10.968 35.4939 10.7227 35.3873 10.552C35.3019 10.36 35.1313 10.1467 34.8753 9.912L34.1713 9.208C34.2139 8.824 34.3526 8.216 34.5872 7.384C34.8433 6.552 35.1419 5.67733 35.4833 4.76L36.4753 4.568L37.7873 5.08C38.0006 5.16533 38.2353 5.21867 38.4913 5.24C38.7473 5.26133 39.4086 5.272 40.4753 5.272L44.2513 5.24C45.3393 5.24 46.1073 5.25067 46.5553 5.272C48.2833 5.31467 49.5206 5.73067 50.2673 6.52C51.0139 7.288 51.3873 8.568 51.3873 10.36C51.3873 11.7893 51.1846 13.4427 50.7793 15.32C50.3739 17.176 49.8619 18.776 49.2433 20.12C46.9393 21.7413 43.4193 22.8293 38.6833 23.384L36.7633 23.416ZM39.9953 17.656C41.8086 17.4853 43.1633 17.272 44.0593 17.016C45.3179 16.6747 46.1926 16.1733 46.6833 15.512C47.1953 14.8293 47.4513 13.8693 47.4513 12.632C47.4513 11.864 47.3446 11.352 47.1313 11.096C46.9393 10.84 46.5126 10.68 45.8513 10.616C45.5313 10.5733 44.5073 10.552 42.7793 10.552C41.0513 10.552 40.0273 10.5627 39.7073 10.584L39.9953 17.656ZM53.684 17.656H62.356V15.416C62.356 14.84 62.3453 14.296 62.324 13.784C62.2813 13.016 62.2067 12.4293 62.1 12.024C62.0147 11.6187 61.812 11.2987 61.492 11.064C61.1933 10.808 60.7133 10.68 60.052 10.68H56.18C55.8387 10.68 55.0813 10.4987 53.908 10.136C54.0573 8.17333 54.3453 6.31733 54.772 4.568L56.948 4.184L57.524 4.824C57.716 5.05867 57.8867 5.208 58.036 5.272C58.2067 5.31467 58.5053 5.336 58.932 5.336H61.108C62.516 5.336 63.5933 5.53867 64.34 5.944C65.108 6.34933 65.652 7.02133 65.972 7.96C66.292 8.89867 66.452 10.2427 66.452 11.992C66.452 13.336 66.3667 15.224 66.196 17.656H68.436L68.148 23H53.396L53.684 17.656Z" fill="#E4279E"/>
</svg>
