<svg xmlns="http://www.w3.org/2000/svg" xmlns:xlink="http://www.w3.org/1999/xlink" width="536" zoomAndPan="magnify" viewBox="0 0 402 92.249997" height="123" preserveAspectRatio="xMidYMid meet" version="1.2"><defs><clipPath id="9d7cd394ba"><path d="M 1.621094 0 L 45.515625 0 L 45.515625 43.894531 L 1.621094 43.894531 Z M 1.621094 0 "/></clipPath><clipPath id="df8047e3df"><path d="M 1.621094 47.617188 L 45.515625 47.617188 L 45.515625 91.507812 L 1.621094 91.507812 Z M 1.621094 47.617188 "/></clipPath></defs><g id="189a8d0a5d"><g clip-rule="nonzero" clip-path="url(#9d7cd394ba)"><path style=" stroke:none;fill-rule:nonzero;fill:#e4279e;fill-opacity:1;" d="M 45.28125 21.832031 C 45.28125 22.546875 45.246094 23.257812 45.175781 23.96875 C 45.105469 24.679688 45 25.386719 44.863281 26.089844 C 44.722656 26.789062 44.550781 27.484375 44.339844 28.167969 C 44.132812 28.851562 43.894531 29.523438 43.621094 30.183594 C 43.347656 30.84375 43.039062 31.492188 42.703125 32.121094 C 42.367188 32.75 42 33.363281 41.601562 33.957031 C 41.207031 34.554688 40.78125 35.125 40.328125 35.679688 C 39.871094 36.230469 39.394531 36.761719 38.886719 37.265625 C 38.382812 37.773438 37.851562 38.25 37.300781 38.707031 C 36.746094 39.160156 36.175781 39.585938 35.578125 39.980469 C 34.984375 40.378906 34.371094 40.746094 33.742188 41.082031 C 33.113281 41.421875 32.464844 41.726562 31.804688 42 C 31.144531 42.273438 30.472656 42.511719 29.789062 42.71875 C 29.105469 42.929688 28.410156 43.101562 27.710938 43.242188 C 27.007812 43.378906 26.300781 43.484375 25.589844 43.554688 C 24.878906 43.625 24.167969 43.660156 23.453125 43.660156 C 22.738281 43.660156 22.023438 43.625 21.3125 43.554688 C 20.601562 43.484375 19.894531 43.378906 19.191406 43.242188 C 18.492188 43.101562 17.796875 42.929688 17.113281 42.71875 C 16.429688 42.511719 15.757812 42.273438 15.097656 42 C 14.4375 41.726562 13.792969 41.421875 13.160156 41.082031 C 12.53125 40.746094 11.917969 40.378906 11.324219 39.980469 C 10.730469 39.585938 10.15625 39.160156 9.601562 38.707031 C 9.050781 38.25 8.519531 37.773438 8.015625 37.265625 C 7.507812 36.761719 7.03125 36.230469 6.578125 35.679688 C 6.121094 35.125 5.695312 34.554688 5.300781 33.957031 C 4.902344 33.363281 4.535156 32.75 4.199219 32.121094 C 3.863281 31.492188 3.554688 30.84375 3.28125 30.183594 C 3.007812 29.523438 2.769531 28.851562 2.5625 28.167969 C 2.351562 27.484375 2.179688 26.789062 2.039062 26.089844 C 1.902344 25.386719 1.796875 24.679688 1.726562 23.96875 C 1.65625 23.257812 1.621094 22.546875 1.621094 21.832031 C 1.621094 21.117188 1.65625 20.402344 1.726562 19.691406 C 1.796875 18.980469 1.902344 18.273438 2.039062 17.570312 C 2.179688 16.871094 2.351562 16.175781 2.5625 15.492188 C 2.769531 14.808594 3.007812 14.136719 3.28125 13.476562 C 3.554688 12.816406 3.863281 12.171875 4.199219 11.539062 C 4.535156 10.910156 4.902344 10.296875 5.300781 9.703125 C 5.695312 9.109375 6.121094 8.535156 6.578125 7.980469 C 7.03125 7.429688 7.507812 6.898438 8.015625 6.394531 C 8.519531 5.886719 9.050781 5.410156 9.601562 4.957031 C 10.15625 4.5 10.730469 4.078125 11.324219 3.679688 C 11.917969 3.28125 12.53125 2.914062 13.160156 2.578125 C 13.792969 2.242188 14.4375 1.933594 15.097656 1.660156 C 15.757812 1.386719 16.429688 1.148438 17.113281 0.941406 C 17.796875 0.734375 18.492188 0.558594 19.191406 0.417969 C 19.894531 0.28125 20.601562 0.175781 21.3125 0.105469 C 22.023438 0.0351562 22.738281 0 23.453125 0 C 24.167969 0 24.878906 0.0351562 25.589844 0.105469 C 26.300781 0.175781 27.007812 0.28125 27.710938 0.417969 C 28.410156 0.558594 29.105469 0.734375 29.789062 0.941406 C 30.472656 1.148438 31.144531 1.386719 31.804688 1.660156 C 32.464844 1.933594 33.113281 2.242188 33.742188 2.578125 C 34.371094 2.914062 34.984375 3.28125 35.578125 3.679688 C 36.175781 4.078125 36.746094 4.5 37.300781 4.957031 C 37.851562 5.410156 38.382812 5.886719 38.886719 6.394531 C 39.394531 6.898438 39.871094 7.429688 40.328125 7.980469 C 40.78125 8.535156 41.207031 9.109375 41.601562 9.703125 C 42 10.296875 42.367188 10.910156 42.703125 11.539062 C 43.039062 12.171875 43.347656 12.816406 43.621094 13.476562 C 43.894531 14.136719 44.132812 14.808594 44.339844 15.492188 C 44.550781 16.175781 44.722656 16.871094 44.863281 17.570312 C 45 18.273438 45.105469 18.980469 45.175781 19.691406 C 45.246094 20.402344 45.28125 21.117188 45.28125 21.832031 Z M 45.28125 21.832031 "/></g><path style=" stroke:none;fill-rule:nonzero;fill:#dde2e1;fill-opacity:1;" d="M 19.132812 10.867188 C 19.046875 10.652344 18.921875 10.464844 18.765625 10.296875 C 18.609375 10.128906 18.425781 9.992188 18.21875 9.894531 C 18.011719 9.792969 17.792969 9.730469 17.566406 9.707031 C 17.335938 9.6875 17.109375 9.707031 16.886719 9.769531 L 12.71875 10.90625 C 12.308594 11.019531 11.972656 11.246094 11.710938 11.585938 C 11.453125 11.925781 11.324219 12.308594 11.324219 12.734375 C 11.324219 24.457031 20.828125 33.957031 32.546875 33.957031 C 32.972656 33.957031 33.355469 33.828125 33.695312 33.566406 C 34.035156 33.308594 34.261719 32.972656 34.375 32.5625 L 35.511719 28.390625 C 35.574219 28.171875 35.59375 27.945312 35.570312 27.714844 C 35.550781 27.488281 35.488281 27.269531 35.386719 27.0625 C 35.285156 26.855469 35.152344 26.675781 34.984375 26.515625 C 34.816406 26.359375 34.628906 26.234375 34.414062 26.148438 L 29.867188 24.253906 C 29.480469 24.089844 29.085938 24.058594 28.679688 24.160156 C 28.273438 24.261719 27.9375 24.476562 27.671875 24.800781 L 25.757812 27.136719 C 24.085938 26.34375 22.597656 25.296875 21.292969 23.988281 C 19.984375 22.683594 18.9375 21.195312 18.144531 19.523438 L 20.480469 17.613281 C 20.804688 17.351562 21.015625 17.015625 21.117188 16.609375 C 21.21875 16.203125 21.191406 15.808594 21.03125 15.421875 L 19.132812 10.875 Z M 19.132812 10.867188 "/><g style="fill:#e4279e;fill-opacity:1;"><g transform="translate(58.990147, 25.620973)"><path style="stroke:none" d="M 6.515625 0.421875 C 4.617188 0.421875 3.1875 -0.09375 2.21875 -1.125 C 1.25 -2.164062 0.765625 -3.691406 0.765625 -5.703125 C 0.765625 -6.859375 1.050781 -7.894531 1.625 -8.8125 C 2.195312 -9.738281 2.988281 -10.457031 4 -10.96875 C 5.019531 -11.476562 6.171875 -11.734375 7.453125 -11.734375 C 9.347656 -11.734375 10.785156 -11.210938 11.765625 -10.171875 C 12.742188 -9.128906 13.234375 -7.59375 13.234375 -5.5625 C 13.234375 -4.40625 12.945312 -3.375 12.375 -2.46875 C 11.800781 -1.5625 11.003906 -0.851562 9.984375 -0.34375 C 8.972656 0.164062 7.816406 0.421875 6.515625 0.421875 Z M 7.25 -2.21875 C 7.84375 -2.21875 8.410156 -2.328125 8.953125 -2.546875 C 9.066406 -2.859375 9.160156 -3.273438 9.234375 -3.796875 C 9.304688 -4.316406 9.34375 -4.847656 9.34375 -5.390625 C 9.34375 -6.566406 9.117188 -7.460938 8.671875 -8.078125 C 8.234375 -8.691406 7.585938 -9 6.734375 -9 C 6.296875 -9 5.71875 -8.9375 5 -8.8125 C 4.769531 -8.445312 4.65625 -7.523438 4.65625 -6.046875 C 4.65625 -4.816406 4.878906 -3.867188 5.328125 -3.203125 C 5.773438 -2.546875 6.414062 -2.21875 7.25 -2.21875 Z M 7.25 -2.21875 "/></g></g><g style="fill:#e4279e;fill-opacity:1;"><g transform="translate(72.992755, 25.620973)"><path style="stroke:none" d="M 3.828125 3.328125 C 2.484375 3.328125 1.40625 3.046875 0.59375 2.484375 L 1.734375 -0.421875 L 2.59375 -0.421875 C 3.34375 -0.0234375 4.300781 0.171875 5.46875 0.171875 C 6.3125 0.171875 6.910156 0.00390625 7.265625 -0.328125 C 7.273438 -1.078125 7.113281 -1.648438 6.78125 -2.046875 C 6.445312 -2.453125 5.929688 -2.6875 5.234375 -2.75 C 5.578125 -2.726562 4.75 -2.785156 2.75 -2.921875 L 1.5625 -3 L 1.09375 -8.53125 C 1.070312 -8.945312 1.101562 -9.414062 1.1875 -9.9375 C 1.28125 -10.46875 1.394531 -10.988281 1.53125 -11.5 L 6.28125 -11.5 C 6.613281 -11.5 6.828125 -11.515625 6.921875 -11.546875 C 7.023438 -11.585938 7.160156 -11.707031 7.328125 -11.90625 L 7.734375 -12.421875 L 9.40625 -11.96875 C 9.300781 -10.800781 9.148438 -9.507812 8.953125 -8.09375 L 3.875 -8.09375 L 3.875 -6.3125 L 4.484375 -6.265625 C 5.453125 -6.203125 6.257812 -6.117188 6.90625 -6.015625 C 7.5625 -5.910156 8.117188 -5.710938 8.578125 -5.421875 C 9.597656 -4.816406 10.109375 -3.828125 10.109375 -2.453125 C 10.109375 -1.367188 9.832031 -0.390625 9.28125 0.484375 C 8.738281 1.367188 7.988281 2.0625 7.03125 2.5625 C 6.070312 3.070312 5.003906 3.328125 3.828125 3.328125 Z M 3.828125 3.328125 "/></g></g><g style="fill:#e4279e;fill-opacity:1;"><g transform="translate(83.72453, 25.620973)"><path style="stroke:none" d="M 2.953125 3.328125 C 2.328125 3.328125 1.722656 3.253906 1.140625 3.109375 C 0.566406 2.960938 0.0664062 2.757812 -0.359375 2.5 L 0.875 -0.484375 L 1.8125 -0.484375 C 2.613281 -0.109375 3.570312 0.078125 4.6875 0.078125 C 5.613281 0.078125 6.238281 -0.078125 6.5625 -0.390625 C 6.570312 -1.148438 6.398438 -1.726562 6.046875 -2.125 C 5.691406 -2.519531 5.132812 -2.753906 4.375 -2.828125 L 2.953125 -2.953125 C 2.441406 -2.984375 2.054688 -3.007812 1.796875 -3.03125 C 1.910156 -4.082031 2.0625 -4.929688 2.25 -5.578125 C 3.21875 -5.691406 3.859375 -5.773438 4.171875 -5.828125 C 4.484375 -5.890625 4.742188 -5.972656 4.953125 -6.078125 C 5.066406 -6.503906 5.132812 -6.90625 5.15625 -7.28125 C 5.132812 -7.757812 4.984375 -8.085938 4.703125 -8.265625 C 4.429688 -8.453125 3.945312 -8.546875 3.25 -8.546875 C 2.425781 -8.546875 1.539062 -8.441406 0.59375 -8.234375 L 0.625 -9.21875 L 1.046875 -11.265625 C 2.078125 -11.578125 3.160156 -11.734375 4.296875 -11.734375 C 5.578125 -11.734375 6.613281 -11.460938 7.40625 -10.921875 C 8.195312 -10.390625 8.59375 -9.675781 8.59375 -8.78125 C 8.59375 -8.28125 8.476562 -7.78125 8.25 -7.28125 C 8.019531 -6.789062 7.671875 -6.257812 7.203125 -5.6875 C 8.003906 -5.457031 8.585938 -5.085938 8.953125 -4.578125 C 9.328125 -4.078125 9.515625 -3.398438 9.515625 -2.546875 C 9.515625 -1.441406 9.222656 -0.441406 8.640625 0.453125 C 8.066406 1.347656 7.273438 2.050781 6.265625 2.5625 C 5.265625 3.070312 4.160156 3.328125 2.953125 3.328125 Z M 2.953125 3.328125 "/></g></g><g style="fill:#e4279e;fill-opacity:1;"><g transform="translate(93.408708, 25.620973)"><path style="stroke:none" d="M 1.875 -7.25 L 7.09375 -7.953125 L 8.203125 -7.953125 L 8.203125 -5.125 L 1.875 -5.125 Z M 1.875 -7.25 "/></g></g><g style="fill:#e4279e;fill-opacity:1;"><g transform="translate(103.499144, 25.620973)"><path style="stroke:none" d="M 3.828125 3.328125 C 2.484375 3.328125 1.40625 3.046875 0.59375 2.484375 L 1.734375 -0.421875 L 2.59375 -0.421875 C 3.34375 -0.0234375 4.300781 0.171875 5.46875 0.171875 C 6.3125 0.171875 6.910156 0.00390625 7.265625 -0.328125 C 7.273438 -1.078125 7.113281 -1.648438 6.78125 -2.046875 C 6.445312 -2.453125 5.929688 -2.6875 5.234375 -2.75 C 5.578125 -2.726562 4.75 -2.785156 2.75 -2.921875 L 1.5625 -3 L 1.09375 -8.53125 C 1.070312 -8.945312 1.101562 -9.414062 1.1875 -9.9375 C 1.28125 -10.46875 1.394531 -10.988281 1.53125 -11.5 L 6.28125 -11.5 C 6.613281 -11.5 6.828125 -11.515625 6.921875 -11.546875 C 7.023438 -11.585938 7.160156 -11.707031 7.328125 -11.90625 L 7.734375 -12.421875 L 9.40625 -11.96875 C 9.300781 -10.800781 9.148438 -9.507812 8.953125 -8.09375 L 3.875 -8.09375 L 3.875 -6.3125 L 4.484375 -6.265625 C 5.453125 -6.203125 6.257812 -6.117188 6.90625 -6.015625 C 7.5625 -5.910156 8.117188 -5.710938 8.578125 -5.421875 C 9.597656 -4.816406 10.109375 -3.828125 10.109375 -2.453125 C 10.109375 -1.367188 9.832031 -0.390625 9.28125 0.484375 C 8.738281 1.367188 7.988281 2.0625 7.03125 2.5625 C 6.070312 3.070312 5.003906 3.328125 3.828125 3.328125 Z M 3.828125 3.328125 "/></g></g><g style="fill:#e4279e;fill-opacity:1;"><g transform="translate(114.230919, 25.620973)"><path style="stroke:none" d="M 2.953125 3.328125 C 2.328125 3.328125 1.722656 3.253906 1.140625 3.109375 C 0.566406 2.960938 0.0664062 2.757812 -0.359375 2.5 L 0.875 -0.484375 L 1.8125 -0.484375 C 2.613281 -0.109375 3.570312 0.078125 4.6875 0.078125 C 5.613281 0.078125 6.238281 -0.078125 6.5625 -0.390625 C 6.570312 -1.148438 6.398438 -1.726562 6.046875 -2.125 C 5.691406 -2.519531 5.132812 -2.753906 4.375 -2.828125 L 2.953125 -2.953125 C 2.441406 -2.984375 2.054688 -3.007812 1.796875 -3.03125 C 1.910156 -4.082031 2.0625 -4.929688 2.25 -5.578125 C 3.21875 -5.691406 3.859375 -5.773438 4.171875 -5.828125 C 4.484375 -5.890625 4.742188 -5.972656 4.953125 -6.078125 C 5.066406 -6.503906 5.132812 -6.90625 5.15625 -7.28125 C 5.132812 -7.757812 4.984375 -8.085938 4.703125 -8.265625 C 4.429688 -8.453125 3.945312 -8.546875 3.25 -8.546875 C 2.425781 -8.546875 1.539062 -8.441406 0.59375 -8.234375 L 0.625 -9.21875 L 1.046875 -11.265625 C 2.078125 -11.578125 3.160156 -11.734375 4.296875 -11.734375 C 5.578125 -11.734375 6.613281 -11.460938 7.40625 -10.921875 C 8.195312 -10.390625 8.59375 -9.675781 8.59375 -8.78125 C 8.59375 -8.28125 8.476562 -7.78125 8.25 -7.28125 C 8.019531 -6.789062 7.671875 -6.257812 7.203125 -5.6875 C 8.003906 -5.457031 8.585938 -5.085938 8.953125 -4.578125 C 9.328125 -4.078125 9.515625 -3.398438 9.515625 -2.546875 C 9.515625 -1.441406 9.222656 -0.441406 8.640625 0.453125 C 8.066406 1.347656 7.273438 2.050781 6.265625 2.5625 C 5.265625 3.070312 4.160156 3.328125 2.953125 3.328125 Z M 2.953125 3.328125 "/></g></g><g style="fill:#e4279e;fill-opacity:1;"><g transform="translate(124.342721, 25.620973)"><path style="stroke:none" d="M 6.515625 0.421875 C 4.617188 0.421875 3.1875 -0.09375 2.21875 -1.125 C 1.25 -2.164062 0.765625 -3.691406 0.765625 -5.703125 C 0.765625 -6.859375 1.050781 -7.894531 1.625 -8.8125 C 2.195312 -9.738281 2.988281 -10.457031 4 -10.96875 C 5.019531 -11.476562 6.171875 -11.734375 7.453125 -11.734375 C 9.347656 -11.734375 10.785156 -11.210938 11.765625 -10.171875 C 12.742188 -9.128906 13.234375 -7.59375 13.234375 -5.5625 C 13.234375 -4.40625 12.945312 -3.375 12.375 -2.46875 C 11.800781 -1.5625 11.003906 -0.851562 9.984375 -0.34375 C 8.972656 0.164062 7.816406 0.421875 6.515625 0.421875 Z M 7.25 -2.21875 C 7.84375 -2.21875 8.410156 -2.328125 8.953125 -2.546875 C 9.066406 -2.859375 9.160156 -3.273438 9.234375 -3.796875 C 9.304688 -4.316406 9.34375 -4.847656 9.34375 -5.390625 C 9.34375 -6.566406 9.117188 -7.460938 8.671875 -8.078125 C 8.234375 -8.691406 7.585938 -9 6.734375 -9 C 6.296875 -9 5.71875 -8.9375 5 -8.8125 C 4.769531 -8.445312 4.65625 -7.523438 4.65625 -6.046875 C 4.65625 -4.816406 4.878906 -3.867188 5.328125 -3.203125 C 5.773438 -2.546875 6.414062 -2.21875 7.25 -2.21875 Z M 7.25 -2.21875 "/></g></g><g style="fill:#e4279e;fill-opacity:1;"><g transform="translate(138.34533, 25.620973)"><path style="stroke:none" d="M 0.40625 -2.5 C 0.632812 -2.695312 0.984375 -2.976562 1.453125 -3.34375 C 1.921875 -3.707031 2.304688 -4.003906 2.609375 -4.234375 C 3.941406 -5.253906 4.78125 -5.914062 5.125 -6.21875 C 5.195312 -6.53125 5.234375 -6.832031 5.234375 -7.125 C 5.234375 -7.613281 5.09375 -7.972656 4.8125 -8.203125 C 4.539062 -8.429688 4.101562 -8.546875 3.5 -8.546875 C 2.75 -8.546875 1.867188 -8.476562 0.859375 -8.34375 L 0.75 -9.171875 L 1 -11.328125 C 2.070312 -11.597656 3.15625 -11.734375 4.25 -11.734375 C 5.550781 -11.734375 6.582031 -11.445312 7.34375 -10.875 C 8.101562 -10.3125 8.484375 -9.53125 8.484375 -8.53125 C 8.484375 -7.5 8.21875 -6.59375 7.6875 -5.8125 C 7.164062 -5.03125 6.300781 -4.160156 5.09375 -3.203125 L 4.1875 -2.546875 L 7.765625 -3.359375 L 8.640625 -3.359375 L 8.40625 0 L 0.46875 0 Z M 0.40625 -2.5 "/></g></g><g style="fill:#e4279e;fill-opacity:1;"><g transform="translate(147.815829, 25.620973)"><path style="stroke:none" d="M 0.40625 -2.5 C 0.632812 -2.695312 0.984375 -2.976562 1.453125 -3.34375 C 1.921875 -3.707031 2.304688 -4.003906 2.609375 -4.234375 C 3.941406 -5.253906 4.78125 -5.914062 5.125 -6.21875 C 5.195312 -6.53125 5.234375 -6.832031 5.234375 -7.125 C 5.234375 -7.613281 5.09375 -7.972656 4.8125 -8.203125 C 4.539062 -8.429688 4.101562 -8.546875 3.5 -8.546875 C 2.75 -8.546875 1.867188 -8.476562 0.859375 -8.34375 L 0.75 -9.171875 L 1 -11.328125 C 2.070312 -11.597656 3.15625 -11.734375 4.25 -11.734375 C 5.550781 -11.734375 6.582031 -11.445312 7.34375 -10.875 C 8.101562 -10.3125 8.484375 -9.53125 8.484375 -8.53125 C 8.484375 -7.5 8.21875 -6.59375 7.6875 -5.8125 C 7.164062 -5.03125 6.300781 -4.160156 5.09375 -3.203125 L 4.1875 -2.546875 L 7.765625 -3.359375 L 8.640625 -3.359375 L 8.40625 0 L 0.46875 0 Z M 0.40625 -2.5 "/></g></g><g style="fill:#e4279e;fill-opacity:1;"><g transform="translate(157.072517, 25.620973)"><path style="stroke:none" d="M 6.515625 0.421875 C 4.617188 0.421875 3.1875 -0.09375 2.21875 -1.125 C 1.25 -2.164062 0.765625 -3.691406 0.765625 -5.703125 C 0.765625 -6.859375 1.050781 -7.894531 1.625 -8.8125 C 2.195312 -9.738281 2.988281 -10.457031 4 -10.96875 C 5.019531 -11.476562 6.171875 -11.734375 7.453125 -11.734375 C 9.347656 -11.734375 10.785156 -11.210938 11.765625 -10.171875 C 12.742188 -9.128906 13.234375 -7.59375 13.234375 -5.5625 C 13.234375 -4.40625 12.945312 -3.375 12.375 -2.46875 C 11.800781 -1.5625 11.003906 -0.851562 9.984375 -0.34375 C 8.972656 0.164062 7.816406 0.421875 6.515625 0.421875 Z M 7.25 -2.21875 C 7.84375 -2.21875 8.410156 -2.328125 8.953125 -2.546875 C 9.066406 -2.859375 9.160156 -3.273438 9.234375 -3.796875 C 9.304688 -4.316406 9.34375 -4.847656 9.34375 -5.390625 C 9.34375 -6.566406 9.117188 -7.460938 8.671875 -8.078125 C 8.234375 -8.691406 7.585938 -9 6.734375 -9 C 6.296875 -9 5.71875 -8.9375 5 -8.8125 C 4.769531 -8.445312 4.65625 -7.523438 4.65625 -6.046875 C 4.65625 -4.816406 4.878906 -3.867188 5.328125 -3.203125 C 5.773438 -2.546875 6.414062 -2.21875 7.25 -2.21875 Z M 7.25 -2.21875 "/></g></g><g style="fill:#e4279e;fill-opacity:1;"><g transform="translate(171.075125, 25.620973)"><path style="stroke:none" d="M 2.671875 2.515625 L 6.859375 -2.328125 L 4.953125 -1.90625 C 3.703125 -2.0625 2.695312 -2.523438 1.9375 -3.296875 C 1.1875 -4.066406 0.8125 -5.023438 0.8125 -6.171875 C 0.8125 -7.210938 1.046875 -8.15625 1.515625 -9 C 1.984375 -9.851562 2.625 -10.519531 3.4375 -11 C 4.25 -11.488281 5.15625 -11.734375 6.15625 -11.734375 C 7.175781 -11.734375 8.070312 -11.523438 8.84375 -11.109375 C 9.613281 -10.703125 10.207031 -10.117188 10.625 -9.359375 C 11.050781 -8.609375 11.265625 -7.726562 11.265625 -6.71875 C 11.265625 -5.84375 11.148438 -5.03125 10.921875 -4.28125 C 10.691406 -3.53125 10.28125 -2.601562 9.6875 -1.5 C 9.414062 -0.988281 9.066406 -0.414062 8.640625 0.21875 C 8.210938 0.851562 7.519531 1.8125 6.5625 3.09375 L 2.859375 3.328125 Z M 6.625 -4.578125 C 7.0625 -4.578125 7.445312 -4.601562 7.78125 -4.65625 C 7.789062 -4.800781 7.796875 -5.054688 7.796875 -5.421875 C 7.796875 -6.535156 7.601562 -7.398438 7.21875 -8.015625 C 6.832031 -8.628906 6.289062 -8.9375 5.59375 -8.9375 C 5.101562 -8.9375 4.675781 -8.894531 4.3125 -8.8125 C 4.300781 -8.675781 4.296875 -8.425781 4.296875 -8.0625 C 4.296875 -6.863281 4.484375 -5.984375 4.859375 -5.421875 C 5.234375 -4.859375 5.820312 -4.578125 6.625 -4.578125 Z M 6.625 -4.578125 "/></g></g><g style="fill:#e4279e;fill-opacity:1;"><g transform="translate(58.995618, 76.265627)"><path style="stroke:none" d="M 6.171875 4.359375 C 5.429688 3.816406 4.648438 3.039062 3.828125 2.03125 C 3.003906 1.03125 2.285156 -0.203125 1.671875 -1.671875 C 1.054688 -3.140625 0.75 -4.734375 0.75 -6.453125 C 0.75 -8.179688 1.054688 -9.75 1.671875 -11.15625 C 2.285156 -12.570312 3.003906 -13.742188 3.828125 -14.671875 C 4.648438 -15.609375 5.429688 -16.316406 6.171875 -16.796875 L 6.171875 -14.703125 C 5.453125 -13.691406 4.835938 -12.488281 4.328125 -11.09375 C 3.816406 -9.695312 3.5625 -8.148438 3.5625 -6.453125 C 3.5625 -4.742188 3.816406 -3.15625 4.328125 -1.6875 C 4.847656 -0.21875 5.460938 1.046875 6.171875 2.109375 Z M 6.171875 4.359375 "/></g></g><g style="fill:#e4279e;fill-opacity:1;"><g transform="translate(65.925333, 76.265627)"><path style="stroke:none" d="M 7.5625 0.296875 C 5.195312 0.296875 3.429688 -0.300781 2.265625 -1.5 C 1.109375 -2.695312 0.53125 -4.515625 0.53125 -6.953125 C 0.53125 -8.523438 0.820312 -9.890625 1.40625 -11.046875 C 1.988281 -12.210938 2.820312 -13.109375 3.90625 -13.734375 C 4.988281 -14.367188 6.28125 -14.6875 7.78125 -14.6875 C 12.539062 -14.6875 14.921875 -12.253906 14.921875 -7.390625 C 14.921875 -5.796875 14.628906 -4.421875 14.046875 -3.265625 C 13.460938 -2.109375 12.617188 -1.222656 11.515625 -0.609375 C 10.410156 -0.00390625 9.09375 0.296875 7.5625 0.296875 Z M 8.015625 -2.65625 C 8.828125 -2.65625 9.601562 -2.859375 10.34375 -3.265625 C 10.5 -3.710938 10.617188 -4.265625 10.703125 -4.921875 C 10.796875 -5.585938 10.84375 -6.238281 10.84375 -6.875 C 10.84375 -8.457031 10.546875 -9.65625 9.953125 -10.46875 C 9.359375 -11.28125 8.492188 -11.6875 7.359375 -11.6875 C 6.546875 -11.6875 5.757812 -11.539062 5 -11.25 C 4.84375 -10.976562 4.722656 -10.53125 4.640625 -9.90625 C 4.554688 -9.289062 4.515625 -8.582031 4.515625 -7.78125 C 4.515625 -6.125 4.8125 -4.851562 5.40625 -3.96875 C 6.007812 -3.09375 6.878906 -2.65625 8.015625 -2.65625 Z M 8.015625 -2.65625 "/></g></g><g style="fill:#e4279e;fill-opacity:1;"><g transform="translate(82.386563, 76.265627)"><path style="stroke:none" d="M 4.40625 0.296875 C 3.257812 0.296875 2.410156 -0.0390625 1.859375 -0.71875 C 1.304688 -1.394531 1.03125 -2.414062 1.03125 -3.78125 L 1.03125 -7.609375 C 1.03125 -7.921875 1.003906 -8.125 0.953125 -8.21875 C 0.898438 -8.3125 0.773438 -8.414062 0.578125 -8.53125 L -0.390625 -9.046875 L -0.28125 -10.640625 C -0.0820312 -10.671875 0.0625 -10.703125 0.15625 -10.734375 C 0.3125 -10.753906 0.867188 -10.847656 1.828125 -11.015625 C 2.785156 -11.191406 3.585938 -11.296875 4.234375 -11.328125 C 4.390625 -10.972656 4.507812 -10.5625 4.59375 -10.09375 L 4.59375 -4.703125 C 4.59375 -4.078125 4.609375 -3.632812 4.640625 -3.375 C 4.679688 -3.125 4.796875 -2.929688 4.984375 -2.796875 C 5.179688 -2.660156 5.515625 -2.59375 5.984375 -2.59375 C 6.671875 -2.59375 7.332031 -2.710938 7.96875 -2.953125 L 7.96875 -7.609375 C 7.96875 -7.921875 7.945312 -8.125 7.90625 -8.21875 C 7.863281 -8.3125 7.75 -8.414062 7.5625 -8.53125 L 6.625 -9.046875 L 6.71875 -10.640625 C 7.863281 -10.859375 8.757812 -11.023438 9.40625 -11.140625 C 10.0625 -11.253906 10.660156 -11.316406 11.203125 -11.328125 C 11.359375 -10.972656 11.476562 -10.5625 11.5625 -10.09375 L 11.5625 -3.078125 C 11.5625 -2.816406 11.582031 -2.632812 11.625 -2.53125 C 11.664062 -2.4375 11.765625 -2.34375 11.921875 -2.25 L 12.78125 -1.75 L 12.71875 -0.421875 C 12.101562 -0.265625 11.394531 -0.125 10.59375 0 C 9.800781 0.113281 9.0625 0.1875 8.375 0.21875 C 8.320312 0.0390625 8.257812 -0.171875 8.1875 -0.421875 C 8.175781 -0.535156 8.140625 -0.671875 8.078125 -0.828125 L 8.015625 -0.828125 C 7.429688 -0.492188 6.8125 -0.222656 6.15625 -0.015625 C 5.507812 0.191406 4.925781 0.296875 4.40625 0.296875 Z M 4.40625 0.296875 "/></g></g><g style="fill:#e4279e;fill-opacity:1;"><g transform="translate(95.983072, 76.265627)"><path style="stroke:none" d="M 4.75 0.28125 C 3.488281 0.28125 2.554688 -0.0234375 1.953125 -0.640625 C 1.359375 -1.265625 1.0625 -2.210938 1.0625 -3.484375 L 1.0625 -8.671875 L -0.421875 -8.671875 L -0.421875 -10.234375 L 3.421875 -13.75 L 4.65625 -13.59375 L 4.65625 -11.171875 L 8.25 -11.171875 L 8.25 -8.65625 L 4.65625 -8.65625 L 4.65625 -4.25 C 4.65625 -3.570312 4.75 -3.117188 4.9375 -2.890625 C 5.132812 -2.660156 5.515625 -2.546875 6.078125 -2.546875 C 6.546875 -2.546875 7.195312 -2.609375 8.03125 -2.734375 L 8.296875 -0.5625 C 7.785156 -0.3125 7.210938 -0.109375 6.578125 0.046875 C 5.941406 0.203125 5.332031 0.28125 4.75 0.28125 Z M 4.75 0.28125 "/></g></g><g style="fill:#e4279e;fill-opacity:1;"><g transform="translate(104.619763, 76.265627)"><path style="stroke:none" d="M 0.53125 -1.96875 L 2.03125 -2.421875 L 2.03125 -12.65625 C 2.03125 -12.96875 2.003906 -13.171875 1.953125 -13.265625 C 1.898438 -13.359375 1.773438 -13.460938 1.578125 -13.578125 L 0.640625 -14.0625 L 0.75 -15.6875 C 1.03125 -15.75 1.25 -15.785156 1.40625 -15.796875 C 3.289062 -16.140625 4.601562 -16.328125 5.34375 -16.359375 C 5.488281 -16.023438 5.582031 -15.648438 5.625 -15.234375 L 5.625 -3.125 C 5.625 -2.820312 5.644531 -2.617188 5.6875 -2.515625 C 5.726562 -2.421875 5.847656 -2.316406 6.046875 -2.203125 L 7.09375 -1.609375 L 7.015625 0 L 0.59375 0 Z M 0.53125 -1.96875 "/></g></g><g style="fill:#e4279e;fill-opacity:1;"><g transform="translate(112.037959, 76.265627)"><path style="stroke:none" d="M 5.703125 0.28125 C 3.898438 0.28125 2.550781 -0.179688 1.65625 -1.109375 C 0.769531 -2.035156 0.328125 -3.453125 0.328125 -5.359375 C 0.328125 -6.585938 0.550781 -7.65625 1 -8.5625 C 1.445312 -9.476562 2.085938 -10.175781 2.921875 -10.65625 C 3.765625 -11.144531 4.757812 -11.390625 5.90625 -11.390625 C 9.59375 -11.390625 11.4375 -9.484375 11.4375 -5.671875 C 11.4375 -3.796875 10.929688 -2.332031 9.921875 -1.28125 C 8.921875 -0.238281 7.515625 0.28125 5.703125 0.28125 Z M 6.046875 -2.21875 C 6.335938 -2.21875 6.585938 -2.242188 6.796875 -2.296875 C 7.015625 -2.347656 7.242188 -2.429688 7.484375 -2.546875 C 7.566406 -2.867188 7.632812 -3.285156 7.6875 -3.796875 C 7.75 -4.316406 7.78125 -4.8125 7.78125 -5.28125 C 7.78125 -6.4375 7.597656 -7.3125 7.234375 -7.90625 C 6.867188 -8.507812 6.332031 -8.8125 5.625 -8.8125 C 5.15625 -8.8125 4.675781 -8.742188 4.1875 -8.609375 C 4.09375 -8.398438 4.015625 -8.054688 3.953125 -7.578125 C 3.898438 -7.097656 3.875 -6.550781 3.875 -5.9375 C 3.875 -4.738281 4.0625 -3.816406 4.4375 -3.171875 C 4.8125 -2.535156 5.347656 -2.21875 6.046875 -2.21875 Z M 6.046875 -2.21875 "/></g></g><g style="fill:#e4279e;fill-opacity:1;"><g transform="translate(124.651105, 76.265627)"><path style="stroke:none" d="M 5.703125 0.28125 C 3.898438 0.28125 2.550781 -0.179688 1.65625 -1.109375 C 0.769531 -2.035156 0.328125 -3.453125 0.328125 -5.359375 C 0.328125 -6.585938 0.550781 -7.65625 1 -8.5625 C 1.445312 -9.476562 2.085938 -10.175781 2.921875 -10.65625 C 3.765625 -11.144531 4.757812 -11.390625 5.90625 -11.390625 C 9.59375 -11.390625 11.4375 -9.484375 11.4375 -5.671875 C 11.4375 -3.796875 10.929688 -2.332031 9.921875 -1.28125 C 8.921875 -0.238281 7.515625 0.28125 5.703125 0.28125 Z M 6.046875 -2.21875 C 6.335938 -2.21875 6.585938 -2.242188 6.796875 -2.296875 C 7.015625 -2.347656 7.242188 -2.429688 7.484375 -2.546875 C 7.566406 -2.867188 7.632812 -3.285156 7.6875 -3.796875 C 7.75 -4.316406 7.78125 -4.8125 7.78125 -5.28125 C 7.78125 -6.4375 7.597656 -7.3125 7.234375 -7.90625 C 6.867188 -8.507812 6.332031 -8.8125 5.625 -8.8125 C 5.15625 -8.8125 4.675781 -8.742188 4.1875 -8.609375 C 4.09375 -8.398438 4.015625 -8.054688 3.953125 -7.578125 C 3.898438 -7.097656 3.875 -6.550781 3.875 -5.9375 C 3.875 -4.738281 4.0625 -3.816406 4.4375 -3.171875 C 4.8125 -2.535156 5.347656 -2.21875 6.046875 -2.21875 Z M 6.046875 -2.21875 "/></g></g><g style="fill:#e4279e;fill-opacity:1;"><g transform="translate(136.088295, 76.265627)"><path style="stroke:none" d="M 0.5625 -2.03125 L 1.875 -2.421875 L 1.875 -12.65625 C 1.875 -12.96875 1.851562 -13.171875 1.8125 -13.265625 C 1.769531 -13.359375 1.65625 -13.460938 1.46875 -13.578125 L 0.53125 -14.0625 L 0.59375 -15.6875 L 1.265625 -15.796875 C 3.140625 -16.140625 4.457031 -16.328125 5.21875 -16.359375 C 5.34375 -16.015625 5.4375 -15.640625 5.5 -15.234375 L 5.5 -6.546875 L 7.859375 -8.84375 C 7.929688 -8.914062 7.96875 -8.992188 7.96875 -9.078125 C 7.96875 -9.148438 7.945312 -9.207031 7.90625 -9.25 L 7.3125 -10 L 7.546875 -11.171875 L 12.296875 -11.171875 C 12.421875 -10.703125 12.503906 -10.195312 12.546875 -9.65625 L 9 -6.625 L 13.125 -0.9375 L 13.125 0 L 9.359375 0 L 5.5 -5.5625 L 5.5 -3.125 C 5.5 -2.820312 5.519531 -2.617188 5.5625 -2.515625 C 5.601562 -2.421875 5.71875 -2.316406 5.90625 -2.203125 L 6.953125 -1.609375 L 6.859375 0 L 0.65625 0 Z M 0.5625 -2.03125 "/></g></g><g style="fill:#e4279e;fill-opacity:1;"><g transform="translate(149.332537, 76.265627)"><path style="stroke:none" d="M 0.796875 -3.5625 L 6.578125 -3.5625 L 6.578125 -5.0625 C 6.578125 -5.445312 6.570312 -5.8125 6.5625 -6.15625 C 6.53125 -6.664062 6.484375 -7.054688 6.421875 -7.328125 C 6.359375 -7.597656 6.222656 -7.816406 6.015625 -7.984375 C 5.804688 -8.148438 5.484375 -8.234375 5.046875 -8.234375 L 2.453125 -8.234375 C 2.222656 -8.234375 1.71875 -8.351562 0.9375 -8.59375 C 1.039062 -9.90625 1.234375 -11.144531 1.515625 -12.3125 L 2.96875 -12.5625 L 3.359375 -12.140625 C 3.484375 -11.984375 3.597656 -11.882812 3.703125 -11.84375 C 3.816406 -11.8125 4.015625 -11.796875 4.296875 -11.796875 L 5.75 -11.796875 C 6.6875 -11.796875 7.40625 -11.660156 7.90625 -11.390625 C 8.414062 -11.117188 8.773438 -10.671875 8.984375 -10.046875 C 9.203125 -9.421875 9.3125 -8.523438 9.3125 -7.359375 C 9.3125 -6.453125 9.257812 -5.1875 9.15625 -3.5625 L 10.640625 -3.5625 L 10.453125 0 L 0.59375 0 Z M 0.796875 -3.5625 "/></g></g><g style="fill:#e4279e;fill-opacity:1;"><g transform="translate(160.363603, 76.265627)"><path style="stroke:none" d="M 0.75 2.109375 C 1.457031 1.046875 2.066406 -0.21875 2.578125 -1.6875 C 3.097656 -3.15625 3.359375 -4.742188 3.359375 -6.453125 C 3.359375 -8.148438 3.101562 -9.695312 2.59375 -11.09375 C 2.09375 -12.488281 1.476562 -13.691406 0.75 -14.703125 L 0.75 -16.796875 C 1.488281 -16.316406 2.269531 -15.609375 3.09375 -14.671875 C 3.925781 -13.742188 4.644531 -12.570312 5.25 -11.15625 C 5.863281 -9.75 6.171875 -8.179688 6.171875 -6.453125 C 6.171875 -4.734375 5.863281 -3.140625 5.25 -1.671875 C 4.644531 -0.203125 3.925781 1.03125 3.09375 2.03125 C 2.269531 3.039062 1.488281 3.816406 0.75 4.359375 Z M 0.75 2.109375 "/></g></g><g style="fill:#e4279e;fill-opacity:1;"><g transform="translate(167.290088, 76.265627)"><path style="stroke:none" d=""/></g></g><g style="fill:#e4279e;fill-opacity:1;"><g transform="translate(171.69396, 76.265627)"><path style="stroke:none" d="M 4.140625 -6.171875 L 4.296875 -0.21875 L 2.03125 0.15625 L 1.046875 0.15625 L 1.046875 -1.0625 C 1.160156 -3.289062 1.335938 -5.273438 1.578125 -7.015625 C 1.640625 -7.367188 1.671875 -7.660156 1.671875 -7.890625 C 1.671875 -8.078125 1.640625 -8.234375 1.578125 -8.359375 C 1.523438 -8.484375 1.421875 -8.65625 1.265625 -8.875 L 0.8125 -9.484375 C 1.289062 -10.753906 1.703125 -11.660156 2.046875 -12.203125 L 2.921875 -12.328125 L 4.59375 -10.578125 L 8.875 -6.140625 C 9.15625 -7.304688 9.296875 -7.984375 9.296875 -8.171875 C 9.296875 -8.285156 9.265625 -8.375 9.203125 -8.4375 C 9.148438 -8.507812 9.039062 -8.601562 8.875 -8.71875 L 7.484375 -9.640625 C 7.492188 -9.796875 7.679688 -10.210938 8.046875 -10.890625 C 8.421875 -11.578125 8.707031 -12.054688 8.90625 -12.328125 L 9.53125 -12.328125 C 9.65625 -12.273438 10.003906 -12.082031 10.578125 -11.75 C 11.191406 -11.414062 11.632812 -11.046875 11.90625 -10.640625 C 12.175781 -10.234375 12.3125 -9.765625 12.3125 -9.234375 C 12.3125 -8.453125 11.765625 -6.789062 10.671875 -4.25 L 12.09375 -2.796875 C 11.738281 -1.734375 11.34375 -0.722656 10.90625 0.234375 L 10.09375 0.234375 Z M 4.140625 -6.171875 "/></g></g><g style="fill:#e4279e;fill-opacity:1;"><g transform="translate(184.606262, 76.265627)"><path style="stroke:none" d="M 1.171875 -7.65625 C 1.703125 -8.757812 2.023438 -9.457031 2.140625 -9.75 C 2.265625 -10.050781 2.328125 -10.285156 2.328125 -10.453125 C 2.328125 -10.578125 2.289062 -10.703125 2.21875 -10.828125 C 2.144531 -10.953125 2.023438 -11.09375 1.859375 -11.25 L 0.75 -12.21875 C 1.4375 -13.207031 2.171875 -14.109375 2.953125 -14.921875 C 3.453125 -14.578125 3.847656 -14.265625 4.140625 -13.984375 C 4.453125 -13.710938 4.691406 -13.46875 4.859375 -13.25 C 5.023438 -13.039062 5.132812 -12.820312 5.1875 -12.59375 C 5.84375 -13.5 6.492188 -14.273438 7.140625 -14.921875 C 7.679688 -14.523438 8.070312 -14.210938 8.3125 -13.984375 C 8.707031 -13.648438 8.988281 -13.351562 9.15625 -13.09375 C 9.332031 -12.832031 9.421875 -12.550781 9.421875 -12.25 C 9.421875 -11.550781 8.625 -10.066406 7.03125 -7.796875 L 5.34375 -7.65625 C 5.875 -8.757812 6.195312 -9.457031 6.3125 -9.75 C 6.4375 -10.050781 6.5 -10.285156 6.5 -10.453125 C 6.5 -10.578125 6.46875 -10.703125 6.40625 -10.828125 C 6.34375 -10.953125 6.222656 -11.09375 6.046875 -11.25 L 5.21875 -11.96875 C 5.039062 -11.164062 4.25 -9.773438 2.84375 -7.796875 Z M 1.171875 -7.65625 "/></g></g><g style="fill:#e4279e;fill-opacity:1;"><g transform="translate(195.423638, 76.265627)"><path style="stroke:none" d="M 1.453125 0.1875 C 1.378906 -0.5625 1.34375 -1.226562 1.34375 -1.8125 C 1.34375 -2.539062 1.378906 -3.171875 1.453125 -3.703125 C 2.835938 -4.441406 3.976562 -5.101562 4.875 -5.6875 C 5.769531 -6.28125 6.359375 -6.75 6.640625 -7.09375 C 6.660156 -7.4375 6.648438 -7.6875 6.609375 -7.84375 C 6.578125 -8 6.503906 -8.101562 6.390625 -8.15625 C 6.285156 -8.21875 6.113281 -8.25 5.875 -8.25 C 3.75 -8.25 2.507812 -8.269531 2.15625 -8.3125 C 1.582031 -8.375 1.171875 -8.578125 0.921875 -8.921875 C 0.679688 -9.273438 0.53125 -9.859375 0.46875 -10.671875 C 0.4375 -11.179688 0.421875 -11.6875 0.421875 -12.1875 C 0.421875 -13.539062 0.457031 -14.644531 0.53125 -15.5 C 0.945312 -15.65625 1.429688 -15.789062 1.984375 -15.90625 C 2.546875 -16.03125 2.953125 -16.09375 3.203125 -16.09375 C 3.265625 -15.75 3.34375 -14.96875 3.4375 -13.75 L 3.5 -12.875 C 3.53125 -12.550781 3.570312 -12.328125 3.625 -12.203125 C 3.675781 -12.078125 3.757812 -11.992188 3.875 -11.953125 C 4 -11.910156 4.210938 -11.878906 4.515625 -11.859375 L 5.34375 -11.84375 C 5.738281 -11.84375 6.28125 -11.828125 6.96875 -11.796875 C 7.769531 -11.753906 8.375 -11.484375 8.78125 -10.984375 C 9.1875 -10.484375 9.390625 -9.769531 9.390625 -8.84375 C 9.390625 -5.914062 6.960938 -2.90625 2.109375 0.1875 Z M 1.453125 0.1875 "/></g></g><g style="fill:#e4279e;fill-opacity:1;"><g transform="translate(205.343031, 76.265627)"><path style="stroke:none" d="M 0.921875 -3.46875 L 8 -3.46875 C 8.007812 -4.476562 7.972656 -5.582031 7.890625 -6.78125 C 7.859375 -7.207031 7.804688 -7.519531 7.734375 -7.71875 C 7.660156 -7.925781 7.539062 -8.082031 7.375 -8.1875 C 7.207031 -8.289062 6.929688 -8.375 6.546875 -8.4375 C 5.429688 -8.625 4.546875 -8.753906 3.890625 -8.828125 L 3.90625 -8.40625 C 3.925781 -8.039062 3.960938 -7.804688 4.015625 -7.703125 C 4.078125 -7.609375 4.210938 -7.515625 4.421875 -7.421875 L 5.296875 -7.046875 C 5.242188 -6.648438 5.15625 -6.179688 5.03125 -5.640625 C 4.914062 -5.097656 4.785156 -4.609375 4.640625 -4.171875 C 3.671875 -4.441406 2.957031 -4.675781 2.5 -4.875 C 2.039062 -5.082031 1.71875 -5.320312 1.53125 -5.59375 C 1.351562 -5.863281 1.242188 -6.25 1.203125 -6.75 C 1.171875 -7.15625 1.203125 -7.789062 1.296875 -8.65625 C 1.398438 -9.519531 1.5625 -10.679688 1.78125 -12.140625 L 2.78125 -12.390625 C 4.519531 -12.234375 6.085938 -12.046875 7.484375 -11.828125 C 8.378906 -11.660156 9.039062 -11.410156 9.46875 -11.078125 C 9.90625 -10.742188 10.207031 -10.226562 10.375 -9.53125 C 10.550781 -8.84375 10.640625 -7.832031 10.640625 -6.5 C 10.640625 -5.46875 10.601562 -4.304688 10.53125 -3.015625 C 10.46875 -1.734375 10.390625 -0.726562 10.296875 0 L 0.75 0 Z M 0.921875 -3.46875 "/></g></g><g style="fill:#e4279e;fill-opacity:1;"><g transform="translate(217.015437, 76.265627)"><path style="stroke:none" d=""/></g></g><g style="fill:#e4279e;fill-opacity:1;"><g transform="translate(221.419309, 76.265627)"><path style="stroke:none" d="M 5.75 -1.203125 C 5.75 -3.273438 5.785156 -5.617188 5.859375 -8.234375 L 1.90625 -8.234375 C 1.675781 -8.234375 1.171875 -8.351562 0.390625 -8.59375 C 0.472656 -9.769531 0.664062 -11.007812 0.96875 -12.3125 L 2.421875 -12.5625 L 2.796875 -12.140625 C 2.929688 -11.984375 3.050781 -11.882812 3.15625 -11.84375 C 3.257812 -11.8125 3.453125 -11.796875 3.734375 -11.796875 L 10.90625 -11.796875 L 10.34375 -8.234375 L 8.609375 -8.234375 L 8.828125 -0.171875 L 6.578125 0.25 L 5.75 0.25 Z M 5.75 -1.203125 "/></g></g><g style="fill:#e4279e;fill-opacity:1;"><g transform="translate(233.391103, 76.265627)"><path style="stroke:none" d="M 1.171875 -7.65625 C 1.703125 -8.757812 2.023438 -9.457031 2.140625 -9.75 C 2.265625 -10.050781 2.328125 -10.285156 2.328125 -10.453125 C 2.328125 -10.578125 2.289062 -10.703125 2.21875 -10.828125 C 2.144531 -10.953125 2.023438 -11.09375 1.859375 -11.25 L 0.75 -12.21875 C 1.4375 -13.207031 2.171875 -14.109375 2.953125 -14.921875 C 3.453125 -14.578125 3.847656 -14.265625 4.140625 -13.984375 C 4.453125 -13.710938 4.691406 -13.46875 4.859375 -13.25 C 5.023438 -13.039062 5.132812 -12.820312 5.1875 -12.59375 C 5.84375 -13.5 6.492188 -14.273438 7.140625 -14.921875 C 7.679688 -14.523438 8.070312 -14.210938 8.3125 -13.984375 C 8.707031 -13.648438 8.988281 -13.351562 9.15625 -13.09375 C 9.332031 -12.832031 9.421875 -12.550781 9.421875 -12.25 C 9.421875 -11.550781 8.625 -10.066406 7.03125 -7.796875 L 5.34375 -7.65625 C 5.875 -8.757812 6.195312 -9.457031 6.3125 -9.75 C 6.4375 -10.050781 6.5 -10.285156 6.5 -10.453125 C 6.5 -10.578125 6.46875 -10.703125 6.40625 -10.828125 C 6.34375 -10.953125 6.222656 -11.09375 6.046875 -11.25 L 5.21875 -11.96875 C 5.039062 -11.164062 4.25 -9.773438 2.84375 -7.796875 Z M 1.171875 -7.65625 "/></g></g><g style="fill:#e4279e;fill-opacity:1;"><g transform="translate(243.567042, 76.265627)"><path style="stroke:none" d="M 0.859375 -0.8125 C 0.972656 -1.695312 1.265625 -3.398438 1.734375 -5.921875 C 1.847656 -6.460938 1.929688 -6.914062 1.984375 -7.28125 C 2.023438 -7.539062 2.046875 -7.734375 2.046875 -7.859375 C 2.046875 -7.972656 2.015625 -8.0625 1.953125 -8.125 C 1.898438 -8.195312 1.769531 -8.296875 1.5625 -8.421875 L 0.8125 -8.875 C 0.925781 -10.082031 1.140625 -11.195312 1.453125 -12.21875 L 1.9375 -12.375 L 2.90625 -12.015625 C 3.457031 -11.796875 3.832031 -11.660156 4.03125 -11.609375 C 4.238281 -11.566406 4.445312 -11.546875 4.65625 -11.546875 C 4.851562 -11.546875 5.367188 -11.601562 6.203125 -11.71875 C 6.335938 -11.726562 6.632812 -11.757812 7.09375 -11.8125 C 7.550781 -11.875 7.898438 -11.90625 8.140625 -11.90625 C 8.941406 -11.90625 9.617188 -11.75 10.171875 -11.4375 C 10.734375 -11.132812 11.125 -10.691406 11.34375 -10.109375 C 11.53125 -9.648438 11.648438 -9.097656 11.703125 -8.453125 C 11.765625 -7.816406 11.796875 -6.992188 11.796875 -5.984375 C 11.796875 -4.773438 11.773438 -3.6875 11.734375 -2.71875 L 11.5 0 L 5.703125 0 L 5.859375 -3.5625 L 9.234375 -3.5625 C 9.234375 -4.289062 9.179688 -5.253906 9.078125 -6.453125 C 9.035156 -7.003906 8.960938 -7.414062 8.859375 -7.6875 C 8.753906 -7.957031 8.582031 -8.148438 8.34375 -8.265625 C 8.113281 -8.378906 7.757812 -8.4375 7.28125 -8.4375 C 6.613281 -8.4375 5.789062 -8.394531 4.8125 -8.3125 C 4.726562 -7.488281 4.648438 -6.703125 4.578125 -5.953125 C 4.515625 -5.203125 4.457031 -4.554688 4.40625 -4.015625 L 4.0625 -0.234375 C 3.25 -0.0234375 2.519531 0.101562 1.875 0.15625 L 0.875 0.15625 Z M 0.859375 -0.8125 "/></g></g><g style="fill:#e4279e;fill-opacity:1;"><g transform="translate(256.415232, 76.265627)"><path style="stroke:none" d="M 6.625 0.25 C 6.625 -0.425781 6.617188 -1.007812 6.609375 -1.5 C 6.609375 -3.875 6.585938 -5.519531 6.546875 -6.4375 C 6.523438 -7.132812 6.40625 -7.609375 6.1875 -7.859375 C 5.976562 -8.109375 5.601562 -8.234375 5.0625 -8.234375 L 2.046875 -8.234375 C 1.816406 -8.234375 1.3125 -8.351562 0.53125 -8.59375 C 0.632812 -9.90625 0.828125 -11.144531 1.109375 -12.3125 L 2.5625 -12.5625 L 2.953125 -12.140625 C 3.078125 -11.984375 3.191406 -11.882812 3.296875 -11.84375 C 3.410156 -11.8125 3.609375 -11.796875 3.890625 -11.796875 L 5.734375 -11.796875 C 6.710938 -11.796875 7.46875 -11.664062 8 -11.40625 C 8.539062 -11.144531 8.921875 -10.691406 9.140625 -10.046875 C 9.359375 -9.398438 9.472656 -8.488281 9.484375 -7.3125 C 9.484375 -6.300781 9.453125 -5.097656 9.390625 -3.703125 C 9.335938 -2.304688 9.269531 -1.128906 9.1875 -0.171875 L 7.546875 0.25 Z M 6.625 0.25 "/></g></g><g style="fill:#e4279e;fill-opacity:1;"><g transform="translate(266.975977, 76.265627)"><path style="stroke:none" d=""/></g></g><g style="fill:#e4279e;fill-opacity:1;"><g transform="translate(271.379849, 76.265627)"><path style="stroke:none" d="M 1.875 -7.25 L 7.09375 -7.953125 L 8.203125 -7.953125 L 8.203125 -5.125 L 1.875 -5.125 Z M 1.875 -7.25 "/></g></g><g style="fill:#e4279e;fill-opacity:1;"><g transform="translate(281.470285, 76.265627)"><path style="stroke:none" d="M 9.46875 0.25 C 9.46875 -3.050781 9.445312 -5.25 9.40625 -6.34375 C 9.375 -6.925781 9.328125 -7.34375 9.265625 -7.59375 C 9.210938 -7.84375 9.101562 -8.007812 8.9375 -8.09375 C 8.78125 -8.1875 8.507812 -8.234375 8.125 -8.234375 L 5.125 -8.234375 C 5.65625 -5.492188 5.921875 -3.882812 5.921875 -3.40625 C 5.921875 -3.175781 5.882812 -2.644531 5.8125 -1.8125 L 5.59375 0 L 0.75 0 L 0.9375 -3.5625 L 3.15625 -3.5625 C 2.882812 -4.757812 2.46875 -6.320312 1.90625 -8.25 C 1.769531 -8.28125 1.347656 -8.394531 0.640625 -8.59375 C 0.742188 -9.90625 0.9375 -11.144531 1.21875 -12.3125 L 2.671875 -12.5625 L 3.0625 -12.140625 C 3.1875 -11.984375 3.300781 -11.882812 3.40625 -11.84375 C 3.507812 -11.8125 3.707031 -11.796875 4 -11.796875 L 8.90625 -11.796875 C 9.789062 -11.796875 10.476562 -11.648438 10.96875 -11.359375 C 11.46875 -11.066406 11.816406 -10.585938 12.015625 -9.921875 C 12.222656 -9.265625 12.328125 -8.34375 12.328125 -7.15625 C 12.328125 -4.476562 12.25 -2.15625 12.09375 -0.1875 L 10.328125 0.25 Z M 9.46875 0.25 "/></g></g><g style="fill:#e4279e;fill-opacity:1;"><g transform="translate(294.874312, 76.265627)"><path style="stroke:none" d="M 1.375 -3.84375 L 2.109375 -6.796875 C 2.210938 -7.109375 2.265625 -7.375 2.265625 -7.59375 C 2.265625 -7.71875 2.21875 -7.832031 2.125 -7.9375 C 2.03125 -8.039062 1.84375 -8.1875 1.5625 -8.375 L 0.21875 -9.28125 C 0.5625 -10.257812 1.023438 -11.269531 1.609375 -12.3125 L 2.078125 -12.46875 C 2.242188 -12.375 2.367188 -12.300781 2.453125 -12.25 C 2.941406 -12.007812 3.347656 -11.785156 3.671875 -11.578125 C 4.390625 -11.148438 4.890625 -10.738281 5.171875 -10.34375 C 5.453125 -9.957031 5.59375 -9.488281 5.59375 -8.9375 C 5.59375 -8.375 5.484375 -7.773438 5.265625 -7.140625 C 4.972656 -6.203125 4.613281 -5.203125 4.1875 -4.140625 L 1.96875 -3.609375 Z M 1.375 -3.84375 "/></g></g><g style="fill:#e4279e;fill-opacity:1;"><g transform="translate(301.629839, 76.265627)"><path style="stroke:none" d="M 2.953125 0.25 C 2.910156 -0.0195312 2.8125 -0.816406 2.65625 -2.140625 C 2.382812 -4.554688 2.25 -6.34375 2.25 -7.5 L 2.25 -8.125 C 1.363281 -8.269531 0.726562 -8.425781 0.34375 -8.59375 C 0.375 -9.914062 0.570312 -11.15625 0.9375 -12.3125 L 2.390625 -12.5625 L 2.78125 -12.140625 C 2.90625 -11.984375 3.019531 -11.882812 3.125 -11.84375 C 3.238281 -11.8125 3.4375 -11.796875 3.71875 -11.796875 L 3.953125 -11.796875 C 4.609375 -11.796875 5.613281 -11.832031 6.96875 -11.90625 L 7.6875 -11.953125 C 7.6875 -11.734375 7.628906 -11.210938 7.515625 -10.390625 C 7.410156 -9.578125 7.289062 -8.859375 7.15625 -8.234375 C 6.769531 -8.171875 6.191406 -8.113281 5.421875 -8.0625 L 4.859375 -8.015625 C 4.878906 -7.640625 4.953125 -7.175781 5.078125 -6.625 C 5.203125 -6.070312 5.273438 -5.71875 5.296875 -5.5625 C 5.328125 -5.40625 5.414062 -4.957031 5.5625 -4.21875 C 5.71875 -3.488281 5.835938 -2.785156 5.921875 -2.109375 C 5.929688 -1.972656 5.9375 -1.757812 5.9375 -1.46875 L 5.921875 -0.25 C 5.773438 -0.1875 5.484375 -0.101562 5.046875 0 C 4.617188 0.101562 4.148438 0.1875 3.640625 0.25 Z M 2.953125 0.25 "/></g></g><g style="fill:#e4279e;fill-opacity:1;"><g transform="translate(309.603823, 76.265627)"><path style="stroke:none" d="M 0.21875 0.390625 C 0.238281 -0.921875 0.285156 -2.21875 0.359375 -3.5 L 4.140625 -4.3125 L 3.9375 -5.921875 C 3.851562 -6.503906 3.773438 -6.910156 3.703125 -7.140625 C 3.640625 -7.367188 3.546875 -7.539062 3.421875 -7.65625 C 3.304688 -7.769531 3.09375 -7.90625 2.78125 -8.0625 L 0.96875 -8.90625 C 1.28125 -10.082031 1.632812 -11.1875 2.03125 -12.21875 L 2.59375 -12.390625 C 3.71875 -11.960938 4.5 -11.640625 4.9375 -11.421875 C 5.375 -11.191406 5.710938 -10.953125 5.953125 -10.703125 C 6.191406 -10.453125 6.363281 -10.125 6.46875 -9.71875 C 6.582031 -9.3125 6.671875 -8.738281 6.734375 -8 C 6.859375 -6.582031 6.976562 -4.046875 7.09375 -0.390625 L 5.34375 0.234375 L 4.75 0.234375 C 4.632812 -0.578125 4.554688 -1.144531 4.515625 -1.46875 C 3.566406 -0.90625 2.382812 -0.285156 0.96875 0.390625 Z M 0.21875 0.390625 "/></g></g><g style="fill:#e4279e;fill-opacity:1;"><g transform="translate(317.406802, 76.265627)"><path style="stroke:none" d=""/></g></g><g style="fill:#e4279e;fill-opacity:1;"><g transform="translate(321.810674, 76.265627)"><path style="stroke:none" d="M 1.375 -3.84375 L 2.109375 -6.796875 C 2.210938 -7.109375 2.265625 -7.375 2.265625 -7.59375 C 2.265625 -7.71875 2.21875 -7.832031 2.125 -7.9375 C 2.03125 -8.039062 1.84375 -8.1875 1.5625 -8.375 L 0.21875 -9.28125 C 0.5625 -10.257812 1.023438 -11.269531 1.609375 -12.3125 L 2.078125 -12.46875 C 2.242188 -12.375 2.367188 -12.300781 2.453125 -12.25 C 2.941406 -12.007812 3.347656 -11.785156 3.671875 -11.578125 C 4.390625 -11.148438 4.890625 -10.738281 5.171875 -10.34375 C 5.453125 -9.957031 5.59375 -9.488281 5.59375 -8.9375 C 5.59375 -8.375 5.484375 -7.773438 5.265625 -7.140625 C 4.972656 -6.203125 4.613281 -5.203125 4.1875 -4.140625 L 1.96875 -3.609375 Z M 1.375 -3.84375 "/></g></g><g style="fill:#e4279e;fill-opacity:1;"><g transform="translate(328.416526, 76.265627)"><path style="stroke:none" d="M 6.625 0.25 C 6.625 -0.425781 6.617188 -1.007812 6.609375 -1.5 C 6.609375 -3.875 6.585938 -5.519531 6.546875 -6.4375 C 6.523438 -7.132812 6.40625 -7.609375 6.1875 -7.859375 C 5.976562 -8.109375 5.601562 -8.234375 5.0625 -8.234375 L 2.046875 -8.234375 C 1.816406 -8.234375 1.3125 -8.351562 0.53125 -8.59375 C 0.632812 -9.90625 0.828125 -11.144531 1.109375 -12.3125 L 2.5625 -12.5625 L 2.953125 -12.140625 C 3.078125 -11.984375 3.191406 -11.882812 3.296875 -11.84375 C 3.410156 -11.8125 3.609375 -11.796875 3.890625 -11.796875 L 5.734375 -11.796875 C 6.710938 -11.796875 7.46875 -11.664062 8 -11.40625 C 8.539062 -11.144531 8.921875 -10.691406 9.140625 -10.046875 C 9.359375 -9.398438 9.472656 -8.488281 9.484375 -7.3125 C 9.484375 -6.300781 9.453125 -5.097656 9.390625 -3.703125 C 9.335938 -2.304688 9.269531 -1.128906 9.1875 -0.171875 L 7.546875 0.25 Z M 6.625 0.25 "/></g></g><g style="fill:#e4279e;fill-opacity:1;"><g transform="translate(338.97727, 76.265627)"><path style="stroke:none" d="M 2.890625 -6.140625 C 2.890625 -6.703125 2.875 -7.078125 2.84375 -7.265625 C 2.8125 -7.460938 2.742188 -7.609375 2.640625 -7.703125 C 2.546875 -7.804688 2.335938 -7.945312 2.015625 -8.125 L 0.34375 -8.90625 C 0.582031 -10.257812 0.859375 -11.34375 1.171875 -12.15625 L 1.796875 -12.421875 C 2.972656 -11.960938 3.8125 -11.59375 4.3125 -11.3125 C 4.914062 -11 5.332031 -10.59375 5.5625 -10.09375 C 5.789062 -9.601562 5.90625 -8.90625 5.90625 -8 C 5.90625 -6.914062 5.8125 -4.304688 5.625 -0.171875 L 3.71875 0.28125 L 2.890625 0.28125 Z M 2.890625 -6.140625 "/></g></g><g style="fill:#e4279e;fill-opacity:1;"><g transform="translate(345.903755, 76.265627)"><path style="stroke:none" d="M 4.140625 -6.171875 L 4.296875 -0.21875 L 2.03125 0.15625 L 1.046875 0.15625 L 1.046875 -1.0625 C 1.160156 -3.289062 1.335938 -5.273438 1.578125 -7.015625 C 1.640625 -7.367188 1.671875 -7.660156 1.671875 -7.890625 C 1.671875 -8.078125 1.640625 -8.234375 1.578125 -8.359375 C 1.523438 -8.484375 1.421875 -8.65625 1.265625 -8.875 L 0.8125 -9.484375 C 1.289062 -10.753906 1.703125 -11.660156 2.046875 -12.203125 L 2.921875 -12.328125 L 4.59375 -10.578125 L 8.875 -6.140625 C 9.15625 -7.304688 9.296875 -7.984375 9.296875 -8.171875 C 9.296875 -8.285156 9.265625 -8.375 9.203125 -8.4375 C 9.148438 -8.507812 9.039062 -8.601562 8.875 -8.71875 L 7.484375 -9.640625 C 7.492188 -9.796875 7.679688 -10.210938 8.046875 -10.890625 C 8.421875 -11.578125 8.707031 -12.054688 8.90625 -12.328125 L 9.53125 -12.328125 C 9.65625 -12.273438 10.003906 -12.082031 10.578125 -11.75 C 11.191406 -11.414062 11.632812 -11.046875 11.90625 -10.640625 C 12.175781 -10.234375 12.3125 -9.765625 12.3125 -9.234375 C 12.3125 -8.453125 11.765625 -6.789062 10.671875 -4.25 L 12.09375 -2.796875 C 11.738281 -1.734375 11.34375 -0.722656 10.90625 0.234375 L 10.09375 0.234375 Z M 4.140625 -6.171875 "/></g></g><g clip-rule="nonzero" clip-path="url(#df8047e3df)"><path style=" stroke:none;fill-rule:nonzero;fill:#e4279e;fill-opacity:1;" d="M 23.453125 47.617188 C 11.394531 47.617188 1.621094 57.390625 1.621094 69.445312 C 1.621094 81.503906 11.394531 91.277344 23.453125 91.277344 C 35.507812 91.277344 45.28125 81.503906 45.28125 69.445312 C 45.28125 57.390625 35.507812 47.617188 23.453125 47.617188 Z M 10.144531 59.003906 L 36.730469 59.003906 C 36.796875 59.003906 36.839844 59.035156 36.867188 59.097656 C 36.890625 59.160156 36.878906 59.210938 36.832031 59.257812 L 27.894531 67.738281 L 27.878906 67.753906 L 25.210938 70.285156 C 24.953125 70.53125 24.660156 70.71875 24.328125 70.851562 C 24 70.984375 23.65625 71.046875 23.300781 71.046875 C 22.945312 71.042969 22.601562 70.976562 22.273438 70.839844 C 21.945312 70.707031 21.652344 70.515625 21.398438 70.265625 L 18.929688 67.871094 C 18.925781 67.867188 18.921875 67.863281 18.914062 67.859375 L 10.042969 59.257812 C 9.996094 59.210938 9.984375 59.15625 10.007812 59.097656 C 10.035156 59.035156 10.078125 59.003906 10.144531 59.003906 Z M 8.894531 78.421875 L 8.894531 60.179688 C 8.894531 60.113281 8.921875 60.070312 8.984375 60.042969 C 9.042969 60.019531 9.09375 60.027344 9.140625 60.074219 L 17.574219 68.25 C 17.640625 68.3125 17.640625 68.378906 17.582031 68.449219 L 9.152344 78.515625 C 9.109375 78.570312 9.054688 78.585938 8.988281 78.5625 C 8.925781 78.535156 8.894531 78.492188 8.894531 78.421875 Z M 37.003906 79.890625 L 9.898438 79.890625 C 9.835938 79.890625 9.792969 79.859375 9.765625 79.804688 C 9.742188 79.746094 9.746094 79.695312 9.789062 79.648438 L 18.445312 69.3125 C 18.511719 69.230469 18.582031 69.226562 18.660156 69.300781 L 20.550781 71.136719 C 21.316406 71.878906 22.230469 72.25 23.292969 72.253906 L 23.316406 72.253906 C 24.371094 72.257812 25.28125 71.894531 26.046875 71.164062 L 28.140625 69.175781 C 28.21875 69.105469 28.289062 69.109375 28.355469 69.1875 L 37.113281 79.648438 C 37.15625 79.695312 37.160156 79.746094 37.136719 79.804688 C 37.109375 79.859375 37.066406 79.886719 37.003906 79.890625 Z M 38.007812 78.421875 C 38.007812 78.492188 37.976562 78.535156 37.914062 78.558594 C 37.847656 78.582031 37.792969 78.570312 37.75 78.515625 L 29.226562 68.335938 C 29.167969 68.265625 29.171875 68.199219 29.238281 68.136719 L 37.761719 60.046875 C 37.808594 60 37.863281 59.992188 37.921875 60.019531 C 37.980469 60.042969 38.007812 60.089844 38.007812 60.152344 Z M 38.007812 78.421875 "/></g></g></svg>