<svg xmlns="http://www.w3.org/2000/svg" xmlns:xlink="http://www.w3.org/1999/xlink" width="205" zoomAndPan="magnify" viewBox="0 0 153.75 155.999997" height="208" preserveAspectRatio="xMidYMid meet" version="1.0"><defs><g/><clipPath id="5ba65900d2"><path d="M 34.28125 0.125 L 118.894531 0.125 L 118.894531 83.242188 L 34.28125 83.242188 Z M 34.28125 0.125 " clip-rule="nonzero"/></clipPath></defs><g clip-path="url(#5ba65900d2)"><path fill="#e4279e" d="M 115.496094 35.332031 L 108.855469 37.453125 C 108.71875 37.503906 108.578125 37.527344 108.433594 37.523438 C 108.09375 37.523438 107.789062 37.410156 107.53125 37.1875 C 107.269531 36.964844 107.113281 36.6875 107.058594 36.347656 C 107.007812 36.007812 107.066406 35.695312 107.246094 35.402344 C 107.425781 35.109375 107.675781 34.910156 108.003906 34.804688 L 114.671875 32.667969 C 114.851562 32.609375 115.03125 32.589844 115.214844 32.605469 C 115.402344 32.621094 115.574219 32.671875 115.742188 32.757812 C 115.90625 32.84375 116.046875 32.957031 116.167969 33.097656 C 116.289062 33.238281 116.375 33.398438 116.433594 33.574219 C 116.488281 33.75 116.507812 33.933594 116.492188 34.117188 C 116.476562 34.300781 116.429688 34.476562 116.34375 34.640625 C 116.257812 34.808594 116.144531 34.949219 116.003906 35.070312 C 115.859375 35.1875 115.703125 35.277344 115.523438 35.332031 Z M 107.542969 30.128906 L 111.15625 23.148438 C 111.242188 22.984375 111.292969 22.808594 111.308594 22.625 C 111.324219 22.441406 111.304688 22.257812 111.246094 22.082031 C 111.191406 21.90625 111.101562 21.746094 110.984375 21.605469 C 110.863281 21.464844 110.722656 21.351562 110.554688 21.265625 C 110.390625 21.179688 110.21875 21.128906 110.03125 21.113281 C 109.847656 21.097656 109.667969 21.117188 109.488281 21.175781 C 109.3125 21.230469 109.152344 21.320312 109.011719 21.4375 C 108.871094 21.558594 108.757812 21.699219 108.671875 21.863281 L 105.058594 28.84375 C 104.972656 29.007812 104.921875 29.183594 104.90625 29.367188 C 104.890625 29.550781 104.910156 29.734375 104.964844 29.910156 C 105.023438 30.085938 105.109375 30.246094 105.230469 30.386719 C 105.351562 30.53125 105.492188 30.644531 105.65625 30.726562 C 105.863281 30.8125 106.078125 30.847656 106.300781 30.839844 C 106.554688 30.84375 106.796875 30.78125 107.019531 30.65625 C 107.242188 30.527344 107.414062 30.351562 107.542969 30.128906 Z M 118.21875 45.144531 L 111.238281 41.53125 C 111.074219 41.445312 110.902344 41.394531 110.714844 41.378906 C 110.53125 41.363281 110.351562 41.386719 110.175781 41.441406 C 110 41.496094 109.839844 41.585938 109.699219 41.707031 C 109.554688 41.824219 109.441406 41.964844 109.359375 42.132812 C 109.273438 42.296875 109.222656 42.46875 109.207031 42.65625 C 109.191406 42.839844 109.210938 43.019531 109.269531 43.195312 C 109.324219 43.371094 109.410156 43.53125 109.53125 43.675781 C 109.648438 43.816406 109.792969 43.929688 109.957031 44.015625 L 116.933594 47.628906 C 117.136719 47.730469 117.351562 47.785156 117.578125 47.78125 C 117.898438 47.785156 118.1875 47.683594 118.441406 47.484375 C 118.695312 47.289062 118.863281 47.03125 118.9375 46.71875 C 119.015625 46.402344 118.984375 46.101562 118.851562 45.804688 C 118.71875 45.511719 118.507812 45.292969 118.21875 45.144531 Z M 78.386719 18.277344 C 78.386719 18.539062 78.316406 18.785156 78.175781 19.007812 C 78.039062 19.230469 77.851562 19.402344 77.617188 19.519531 L 69.246094 23.707031 C 69.046875 23.808594 68.835938 23.859375 68.617188 23.859375 C 68.351562 23.863281 68.101562 23.792969 67.875 23.652344 C 67.4375 23.378906 67.21875 22.980469 67.21875 22.464844 L 67.21875 14.089844 C 67.222656 13.972656 67.234375 13.855469 67.265625 13.738281 C 67.296875 13.625 67.339844 13.515625 67.398438 13.410156 C 67.457031 13.308594 67.527344 13.214844 67.609375 13.128906 C 67.691406 13.042969 67.785156 12.96875 67.886719 12.90625 C 67.988281 12.84375 68.09375 12.796875 68.207031 12.761719 C 68.324219 12.726562 68.4375 12.707031 68.558594 12.699219 C 68.675781 12.695312 68.792969 12.707031 68.910156 12.730469 C 69.027344 12.757812 69.136719 12.796875 69.246094 12.847656 L 77.617188 17.035156 C 77.851562 17.152344 78.039062 17.324219 78.175781 17.546875 C 78.316406 17.773438 78.386719 18.015625 78.386719 18.277344 Z M 73.863281 18.277344 L 70.011719 16.351562 L 70.011719 20.203125 Z M 53.265625 5.71875 L 42.097656 5.71875 C 41.914062 5.71875 41.734375 5.753906 41.5625 5.824219 C 41.394531 5.894531 41.242188 5.996094 41.113281 6.125 C 40.980469 6.257812 40.878906 6.40625 40.808594 6.578125 C 40.738281 6.75 40.703125 6.925781 40.703125 7.113281 C 40.703125 7.296875 40.738281 7.476562 40.808594 7.648438 C 40.878906 7.816406 40.980469 7.96875 41.113281 8.097656 C 41.242188 8.230469 41.394531 8.332031 41.5625 8.402344 C 41.734375 8.472656 41.914062 8.507812 42.097656 8.507812 L 53.265625 8.507812 C 53.449219 8.507812 53.625 8.472656 53.796875 8.402344 C 53.96875 8.332031 54.121094 8.230469 54.25 8.097656 C 54.382812 7.96875 54.480469 7.816406 54.554688 7.648438 C 54.625 7.476562 54.660156 7.296875 54.660156 7.113281 C 54.660156 6.925781 54.625 6.75 54.554688 6.578125 C 54.480469 6.40625 54.382812 6.257812 54.25 6.125 C 54.121094 5.996094 53.96875 5.894531 53.796875 5.824219 C 53.625 5.753906 53.449219 5.71875 53.265625 5.71875 Z M 53.265625 11.300781 L 42.097656 11.300781 C 41.914062 11.300781 41.734375 11.335938 41.5625 11.40625 C 41.394531 11.476562 41.242188 11.578125 41.113281 11.707031 C 40.980469 11.839844 40.878906 11.988281 40.808594 12.160156 C 40.738281 12.332031 40.703125 12.511719 40.703125 12.695312 C 40.703125 12.878906 40.738281 13.058594 40.808594 13.230469 C 40.878906 13.398438 40.980469 13.550781 41.113281 13.683594 C 41.242188 13.8125 41.394531 13.914062 41.5625 13.984375 C 41.734375 14.054688 41.914062 14.089844 42.097656 14.089844 L 53.265625 14.089844 C 53.449219 14.089844 53.625 14.054688 53.796875 13.984375 C 53.96875 13.914062 54.121094 13.8125 54.25 13.683594 C 54.382812 13.550781 54.480469 13.398438 54.554688 13.230469 C 54.625 13.058594 54.660156 12.878906 54.660156 12.695312 C 54.660156 12.511719 54.625 12.332031 54.554688 12.160156 C 54.480469 11.988281 54.382812 11.839844 54.25 11.707031 C 54.121094 11.578125 53.96875 11.476562 53.796875 11.40625 C 53.625 11.335938 53.449219 11.300781 53.265625 11.300781 Z M 53.265625 16.882812 L 42.097656 16.882812 C 41.914062 16.882812 41.734375 16.917969 41.5625 16.988281 C 41.394531 17.058594 41.242188 17.160156 41.113281 17.292969 C 40.980469 17.421875 40.878906 17.574219 40.808594 17.742188 C 40.738281 17.914062 40.703125 18.09375 40.703125 18.277344 C 40.703125 18.464844 40.738281 18.640625 40.808594 18.8125 C 40.878906 18.984375 40.980469 19.132812 41.113281 19.265625 C 41.242188 19.394531 41.394531 19.496094 41.5625 19.566406 C 41.734375 19.636719 41.914062 19.671875 42.097656 19.671875 L 53.265625 19.671875 C 53.449219 19.671875 53.625 19.636719 53.796875 19.566406 C 53.96875 19.496094 54.121094 19.394531 54.25 19.265625 C 54.382812 19.132812 54.480469 18.984375 54.554688 18.8125 C 54.625 18.640625 54.660156 18.464844 54.660156 18.277344 C 54.660156 18.09375 54.625 17.914062 54.554688 17.742188 C 54.480469 17.574219 54.382812 17.421875 54.25 17.292969 C 54.121094 17.160156 53.96875 17.058594 53.796875 16.988281 C 53.625 16.917969 53.449219 16.882812 53.265625 16.882812 Z M 99.542969 42.84375 L 98.148438 43.246094 L 102.613281 57.941406 C 102.746094 58.382812 102.675781 58.785156 102.40625 59.15625 C 102.140625 59.53125 101.777344 59.726562 101.316406 59.742188 L 95.539062 59.9375 L 58.386719 61.195312 L 62.417969 74.511719 C 62.578125 75.03125 62.671875 75.5625 62.707031 76.105469 C 62.738281 76.648438 62.710938 77.191406 62.617188 77.726562 C 62.523438 78.261719 62.371094 78.78125 62.15625 79.28125 C 61.941406 79.78125 61.671875 80.25 61.347656 80.6875 C 61.023438 81.125 60.652344 81.519531 60.238281 81.871094 C 59.820312 82.222656 59.367188 82.519531 58.882812 82.765625 C 58.398438 83.011719 57.890625 83.195312 57.359375 83.320312 C 56.828125 83.449219 56.292969 83.511719 55.746094 83.511719 C 55 83.511719 54.269531 83.394531 53.5625 83.15625 C 52.851562 82.921875 52.195312 82.582031 51.59375 82.136719 C 50.992188 81.691406 50.476562 81.160156 50.046875 80.550781 C 49.617188 79.9375 49.292969 79.273438 49.078125 78.558594 L 44.890625 64.335938 C 44.253906 64.273438 43.628906 64.15625 43.011719 63.984375 C 42.394531 63.816406 41.796875 63.59375 41.21875 63.320312 C 40.640625 63.046875 40.089844 62.726562 39.566406 62.359375 C 39.046875 61.992188 38.558594 61.582031 38.105469 61.132812 C 37.652344 60.679688 37.242188 60.195312 36.871094 59.671875 C 36.503906 59.148438 36.179688 58.601562 35.90625 58.023438 C 35.632812 57.445312 35.40625 56.847656 35.234375 56.234375 C 35.0625 55.617188 34.945312 54.992188 34.878906 54.355469 C 34.816406 53.71875 34.804688 53.082031 34.847656 52.445312 C 34.894531 51.808594 34.992188 51.179688 35.144531 50.558594 C 35.296875 49.9375 35.503906 49.335938 35.757812 48.75 C 36.015625 48.164062 36.320312 47.601562 36.671875 47.070312 C 37.023438 46.535156 37.417969 46.035156 37.855469 45.570312 C 38.296875 45.105469 38.769531 44.679688 39.28125 44.296875 C 39.792969 43.914062 40.332031 43.574219 40.902344 43.285156 C 41.46875 42.992188 42.058594 42.753906 42.671875 42.5625 L 51.828125 39.769531 L 68.574219 29.386719 L 61.597656 29.386719 C 61.050781 29.382812 60.523438 29.273438 60.019531 29.0625 C 59.515625 28.851562 59.070312 28.550781 58.683594 28.167969 C 58.292969 27.78125 57.996094 27.335938 57.78125 26.832031 C 57.566406 26.328125 57.457031 25.804688 57.449219 25.257812 L 53.640625 25.257812 L 44.191406 30.65625 C 43.976562 30.78125 43.742188 30.839844 43.492188 30.839844 C 43.242188 30.84375 43.007812 30.777344 42.796875 30.644531 C 42.335938 30.378906 42.101562 29.976562 42.097656 29.445312 L 42.097656 25.257812 L 39.308594 25.257812 C 39.03125 25.257812 38.757812 25.230469 38.488281 25.175781 C 38.21875 25.121094 37.957031 25.042969 37.703125 24.9375 C 37.449219 24.832031 37.210938 24.703125 36.980469 24.550781 C 36.753906 24.398438 36.539062 24.222656 36.347656 24.03125 C 36.152344 23.835938 35.976562 23.625 35.824219 23.394531 C 35.671875 23.167969 35.542969 22.925781 35.4375 22.671875 C 35.332031 22.417969 35.253906 22.15625 35.199219 21.886719 C 35.148438 21.617188 35.121094 21.34375 35.121094 21.070312 L 35.121094 4.320312 C 35.121094 4.046875 35.148438 3.773438 35.199219 3.503906 C 35.253906 3.234375 35.332031 2.972656 35.4375 2.71875 C 35.542969 2.464844 35.671875 2.222656 35.824219 1.996094 C 35.976562 1.765625 36.152344 1.554688 36.347656 1.359375 C 36.539062 1.167969 36.753906 0.992188 36.980469 0.839844 C 37.210938 0.6875 37.449219 0.558594 37.703125 0.453125 C 37.957031 0.347656 38.21875 0.269531 38.488281 0.214844 C 38.757812 0.160156 39.03125 0.132812 39.308594 0.132812 L 65.824219 0.132812 C 66.101562 0.132812 66.371094 0.160156 66.640625 0.214844 C 66.910156 0.269531 67.171875 0.347656 67.425781 0.453125 C 67.679688 0.558594 67.921875 0.6875 68.152344 0.839844 C 68.378906 0.992188 68.589844 1.167969 68.785156 1.359375 C 68.980469 1.554688 69.152344 1.765625 69.304688 1.996094 C 69.457031 2.222656 69.589844 2.464844 69.691406 2.71875 C 69.796875 2.972656 69.878906 3.234375 69.929688 3.503906 C 69.984375 3.773438 70.011719 4.046875 70.011719 4.320312 L 70.011719 7.113281 L 81.332031 7.113281 C 81.871094 7.132812 82.390625 7.253906 82.886719 7.472656 C 83.382812 7.695312 83.816406 8 84.191406 8.390625 C 84.570312 8.78125 84.859375 9.230469 85.0625 9.730469 C 85.261719 10.234375 85.363281 10.757812 85.363281 11.300781 L 85.363281 18.988281 L 88.433594 17.089844 C 88.621094 16.976562 88.820312 16.90625 89.035156 16.886719 C 89.253906 16.863281 89.464844 16.890625 89.667969 16.96875 C 89.871094 17.042969 90.046875 17.160156 90.199219 17.320312 C 90.347656 17.480469 90.453125 17.664062 90.515625 17.875 L 94.964844 32.570312 L 96.363281 32.164062 C 96.71875 32.042969 97.082031 31.957031 97.453125 31.90625 C 97.824219 31.855469 98.199219 31.847656 98.574219 31.871094 C 98.949219 31.898438 99.316406 31.960938 99.679688 32.0625 C 100.039062 32.160156 100.390625 32.296875 100.722656 32.46875 C 101.058594 32.636719 101.371094 32.839844 101.667969 33.074219 C 101.960938 33.308594 102.226562 33.570312 102.46875 33.859375 C 102.710938 34.144531 102.917969 34.457031 103.097656 34.785156 C 103.277344 35.117188 103.421875 35.460938 103.53125 35.820312 C 103.636719 36.179688 103.710938 36.546875 103.746094 36.921875 C 103.78125 37.296875 103.777344 37.667969 103.738281 38.042969 C 103.695312 38.414062 103.621094 38.78125 103.503906 39.140625 C 103.390625 39.496094 103.242188 39.839844 103.058594 40.167969 C 102.875 40.496094 102.660156 40.800781 102.414062 41.085938 C 102.171875 41.371094 101.898438 41.628906 101.601562 41.855469 C 101.304688 42.085938 100.988281 42.285156 100.652344 42.449219 C 100.3125 42.617188 99.964844 42.746094 99.601562 42.84375 Z M 57.449219 22.464844 L 57.449219 11.300781 C 57.449219 10.757812 57.550781 10.234375 57.753906 9.730469 C 57.957031 9.230469 58.246094 8.78125 58.621094 8.390625 C 59 8 59.433594 7.695312 59.929688 7.472656 C 60.425781 7.253906 60.941406 7.132812 61.484375 7.113281 L 67.21875 7.113281 L 67.21875 4.320312 C 67.21875 4.136719 67.183594 3.957031 67.113281 3.789062 C 67.042969 3.617188 66.941406 3.464844 66.8125 3.335938 C 66.679688 3.203125 66.53125 3.101562 66.359375 3.03125 C 66.1875 2.960938 66.011719 2.925781 65.824219 2.925781 L 39.308594 2.925781 C 39.121094 2.925781 38.945312 2.960938 38.773438 3.03125 C 38.601562 3.101562 38.449219 3.203125 38.320312 3.335938 C 38.1875 3.464844 38.089844 3.617188 38.015625 3.789062 C 37.945312 3.957031 37.910156 4.136719 37.910156 4.320312 L 37.910156 21.070312 C 37.910156 21.253906 37.945312 21.433594 38.015625 21.601562 C 38.089844 21.773438 38.1875 21.925781 38.320312 22.054688 C 38.449219 22.1875 38.601562 22.289062 38.773438 22.359375 C 38.945312 22.429688 39.121094 22.464844 39.308594 22.464844 L 43.492188 22.464844 C 43.679688 22.464844 43.855469 22.5 44.027344 22.570312 C 44.199219 22.640625 44.351562 22.742188 44.480469 22.875 C 44.613281 23.003906 44.710938 23.15625 44.785156 23.328125 C 44.855469 23.496094 44.890625 23.675781 44.890625 23.859375 L 44.890625 27.042969 L 52.566406 22.644531 C 52.785156 22.527344 53.015625 22.46875 53.265625 22.464844 Z M 73.011719 26.652344 L 82.574219 20.71875 L 82.574219 11.300781 C 82.574219 11.128906 82.542969 10.960938 82.484375 10.796875 C 82.421875 10.636719 82.335938 10.492188 82.21875 10.363281 C 82.105469 10.234375 81.972656 10.128906 81.816406 10.050781 C 81.664062 9.972656 81.503906 9.921875 81.332031 9.902344 L 61.484375 9.902344 C 61.3125 9.921875 61.152344 9.972656 60.996094 10.050781 C 60.84375 10.128906 60.710938 10.234375 60.59375 10.363281 C 60.480469 10.492188 60.394531 10.636719 60.332031 10.796875 C 60.269531 10.960938 60.242188 11.128906 60.242188 11.300781 L 60.242188 25.257812 C 60.242188 25.429688 60.269531 25.597656 60.332031 25.757812 C 60.394531 25.917969 60.480469 26.0625 60.59375 26.191406 C 60.710938 26.320312 60.84375 26.425781 60.996094 26.503906 C 61.152344 26.585938 61.3125 26.632812 61.484375 26.652344 Z M 45.867188 61.667969 C 46.683594 61.664062 47.484375 61.546875 48.265625 61.308594 L 56.277344 58.878906 L 51.40625 42.855469 L 43.410156 45.285156 C 42.933594 45.429688 42.472656 45.617188 42.03125 45.84375 C 41.585938 46.070312 41.167969 46.335938 40.769531 46.636719 C 40.375 46.9375 40.007812 47.273438 39.671875 47.640625 C 39.335938 48.007812 39.035156 48.402344 38.769531 48.824219 C 38.503906 49.246094 38.277344 49.6875 38.089844 50.148438 C 37.902344 50.609375 37.757812 51.085938 37.652344 51.574219 C 37.550781 52.058594 37.492188 52.554688 37.476562 53.050781 C 37.464844 53.550781 37.492188 54.042969 37.566406 54.539062 C 37.640625 55.03125 37.757812 55.511719 37.917969 55.984375 C 38.078125 56.457031 38.277344 56.910156 38.519531 57.347656 C 38.761719 57.78125 39.039062 58.191406 39.351562 58.578125 C 39.667969 58.964844 40.011719 59.320312 40.390625 59.648438 C 40.769531 59.972656 41.171875 60.261719 41.601562 60.511719 C 42.03125 60.765625 42.480469 60.976562 42.945312 61.152344 C 43.414062 61.324219 43.894531 61.453125 44.382812 61.539062 C 44.875 61.628906 45.367188 61.671875 45.867188 61.667969 Z M 59.824219 75.320312 L 55.746094 61.960938 L 49.078125 63.988281 C 48.617188 64.113281 48.167969 64.210938 47.679688 64.292969 L 51.757812 77.746094 C 51.835938 78.011719 51.941406 78.265625 52.070312 78.507812 C 52.199219 78.75 52.351562 78.980469 52.527344 79.191406 C 52.703125 79.40625 52.894531 79.597656 53.109375 79.773438 C 53.324219 79.949219 53.550781 80.101562 53.792969 80.230469 C 54.035156 80.359375 54.289062 80.464844 54.554688 80.542969 C 54.816406 80.625 55.085938 80.675781 55.359375 80.703125 C 55.636719 80.730469 55.910156 80.730469 56.183594 80.703125 C 56.457031 80.675781 56.726562 80.621094 56.988281 80.539062 C 57.253906 80.460938 57.503906 80.355469 57.75 80.226562 C 57.992188 80.09375 58.21875 79.945312 58.429688 79.769531 C 58.644531 79.59375 58.835938 79.402344 59.011719 79.1875 C 59.183594 78.976562 59.335938 78.75 59.464844 78.507812 C 59.597656 78.265625 59.699219 78.011719 59.78125 77.75 C 59.859375 77.484375 59.914062 77.21875 59.941406 76.945312 C 59.96875 76.671875 59.96875 76.398438 59.941406 76.125 C 59.914062 75.851562 59.859375 75.582031 59.78125 75.320312 Z M 93.738281 57.203125 L 83.453125 23.46875 L 53.988281 41.726562 L 59.042969 58.375 Z M 99.53125 57.007812 L 88.363281 20.425781 L 85.910156 21.949219 L 96.53125 57.105469 Z M 98.789062 40.175781 C 99.535156 39.941406 100.082031 39.476562 100.4375 38.78125 C 100.816406 38.097656 100.882812 37.386719 100.648438 36.644531 C 100.539062 36.292969 100.367188 35.972656 100.132812 35.6875 C 99.898438 35.402344 99.617188 35.171875 99.292969 35 C 98.96875 34.824219 98.621094 34.71875 98.253906 34.683594 C 97.886719 34.648438 97.523438 34.683594 97.171875 34.789062 L 95.777344 35.195312 L 97.394531 40.609375 Z M 98.789062 40.175781 " fill-opacity="1" fill-rule="nonzero"/></g><g fill="#e4279e" fill-opacity="1"><g transform="translate(12.62947, 129.399239)"><g><path d="M 3.390625 0.453125 C 3.222656 -1.316406 3.140625 -2.878906 3.140625 -4.234375 C 3.140625 -5.929688 3.222656 -7.398438 3.390625 -8.640625 C 6.617188 -10.367188 9.28125 -11.921875 11.375 -13.296875 C 13.46875 -14.679688 14.847656 -15.769531 15.515625 -16.5625 C 15.554688 -17.363281 15.535156 -17.945312 15.453125 -18.3125 C 15.367188 -18.675781 15.203125 -18.925781 14.953125 -19.0625 C 14.703125 -19.195312 14.289062 -19.265625 13.71875 -19.265625 C 8.757812 -19.265625 5.867188 -19.3125 5.046875 -19.40625 C 3.710938 -19.539062 2.753906 -20.015625 2.171875 -20.828125 C 1.585938 -21.648438 1.226562 -23.007812 1.09375 -24.90625 C 1.03125 -26.101562 1 -27.285156 1 -28.453125 C 1 -31.609375 1.082031 -34.1875 1.25 -36.1875 C 2.207031 -36.550781 3.335938 -36.875 4.640625 -37.15625 C 5.941406 -37.4375 6.890625 -37.578125 7.484375 -37.578125 C 7.617188 -36.773438 7.800781 -34.945312 8.03125 -32.09375 L 8.1875 -30.046875 C 8.25 -29.316406 8.335938 -28.800781 8.453125 -28.5 C 8.578125 -28.195312 8.78125 -27.992188 9.0625 -27.890625 C 9.34375 -27.796875 9.832031 -27.734375 10.53125 -27.703125 L 12.484375 -27.640625 C 13.410156 -27.640625 14.671875 -27.609375 16.265625 -27.546875 C 18.128906 -27.453125 19.535156 -26.820312 20.484375 -25.65625 C 21.429688 -24.488281 21.90625 -22.820312 21.90625 -20.65625 C 21.90625 -13.800781 16.25 -6.765625 4.9375 0.453125 Z M 3.390625 0.453125 "/></g></g></g><g fill="#e4279e" fill-opacity="1"><g transform="translate(36.437086, 129.399239)"><g><path d="M 3.25 -18.171875 C 3.175781 -18.898438 3.082031 -19.410156 2.96875 -19.703125 C 2.851562 -20.003906 2.5625 -20.441406 2.09375 -21.015625 L 1 -22.359375 C 1.695312 -24.679688 2.628906 -26.796875 3.796875 -28.703125 L 5.1875 -28.890625 C 5.882812 -28.597656 6.734375 -28.082031 7.734375 -27.34375 C 8.765625 -26.582031 9.460938 -25.734375 9.828125 -24.796875 C 10.191406 -23.867188 10.359375 -22.40625 10.328125 -20.40625 L 9.984375 -8.234375 C 10.847656 -8.296875 11.84375 -8.425781 12.96875 -8.625 C 14.101562 -8.832031 15.003906 -9.035156 15.671875 -9.234375 C 17.066406 -9.628906 18.117188 -10.09375 18.828125 -10.625 C 19.546875 -11.15625 20.054688 -11.863281 20.359375 -12.75 C 20.660156 -13.632812 20.8125 -14.859375 20.8125 -16.421875 C 20.8125 -17.679688 20.703125 -18.519531 20.484375 -18.9375 C 20.265625 -19.351562 19.789062 -19.628906 19.0625 -19.765625 L 13.53125 -20.8125 C 13.957031 -23.84375 14.519531 -26.519531 15.21875 -28.84375 L 16.71875 -28.84375 C 18.113281 -28.675781 19.84375 -28.34375 21.90625 -27.84375 C 23.664062 -27.445312 24.945312 -26.707031 25.75 -25.625 C 26.550781 -24.539062 26.953125 -23.003906 26.953125 -21.015625 C 26.953125 -18.953125 26.566406 -16 25.796875 -12.15625 C 25.035156 -8.3125 24.304688 -5.609375 23.609375 -4.046875 C 21.910156 -3.015625 19.570312 -2.066406 16.59375 -1.203125 C 13.613281 -0.335938 10.546875 0.28125 7.390625 0.65625 L 4.9375 0.65625 Z M 3.25 -18.171875 "/></g></g></g><g fill="#e4279e" fill-opacity="1"><g transform="translate(65.83476, 129.399239)"><g><path d="M 3.1875 -8.984375 L 4.9375 -15.875 C 5.175781 -16.601562 5.296875 -17.21875 5.296875 -17.71875 C 5.296875 -18.019531 5.1875 -18.296875 4.96875 -18.546875 C 4.75 -18.796875 4.304688 -19.132812 3.640625 -19.5625 L 0.5 -21.65625 C 1.300781 -23.957031 2.382812 -26.320312 3.75 -28.75 L 4.84375 -29.09375 C 5.238281 -28.894531 5.535156 -28.726562 5.734375 -28.59375 C 6.867188 -28.03125 7.816406 -27.515625 8.578125 -27.046875 C 10.242188 -26.046875 11.410156 -25.085938 12.078125 -24.171875 C 12.742188 -23.265625 13.078125 -22.160156 13.078125 -20.859375 C 13.078125 -19.566406 12.8125 -18.171875 12.28125 -16.671875 C 11.613281 -14.472656 10.78125 -12.144531 9.78125 -9.6875 L 4.59375 -8.4375 Z M 3.1875 -8.984375 "/></g></g></g><g fill="#e4279e" fill-opacity="1"><g transform="translate(79.859749, 129.399239)"><g><path d="M 0.5 0.890625 C 0.5625 -2.160156 0.675781 -5.1875 0.84375 -8.1875 L 9.6875 -10.078125 L 9.1875 -13.828125 C 8.988281 -15.191406 8.8125 -16.140625 8.65625 -16.671875 C 8.507812 -17.203125 8.289062 -17.597656 8 -17.859375 C 7.71875 -18.128906 7.210938 -18.445312 6.484375 -18.8125 L 2.25 -20.8125 C 2.976562 -23.539062 3.804688 -26.117188 4.734375 -28.546875 L 6.03125 -28.953125 C 8.664062 -27.953125 10.5 -27.1875 11.53125 -26.65625 C 12.5625 -26.113281 13.347656 -25.550781 13.890625 -24.96875 C 14.441406 -24.394531 14.847656 -23.632812 15.109375 -22.6875 C 15.378906 -21.738281 15.582031 -20.398438 15.71875 -18.671875 C 16.019531 -15.367188 16.300781 -9.441406 16.5625 -0.890625 L 12.484375 0.546875 L 11.078125 0.546875 C 10.816406 -1.347656 10.632812 -2.675781 10.53125 -3.4375 C 8.332031 -2.113281 5.570312 -0.671875 2.25 0.890625 Z M 0.5 0.890625 "/></g></g></g><g fill="#e4279e" fill-opacity="1"><g transform="translate(98.576442, 129.399239)"><g><path d="M 3.1875 -8.984375 L 4.9375 -15.875 C 5.175781 -16.601562 5.296875 -17.21875 5.296875 -17.71875 C 5.296875 -18.019531 5.1875 -18.296875 4.96875 -18.546875 C 4.75 -18.796875 4.304688 -19.132812 3.640625 -19.5625 L 0.5 -21.65625 C 1.300781 -23.957031 2.382812 -26.320312 3.75 -28.75 L 4.84375 -29.09375 C 5.238281 -28.894531 5.535156 -28.726562 5.734375 -28.59375 C 6.867188 -28.03125 7.816406 -27.515625 8.578125 -27.046875 C 10.242188 -26.046875 11.410156 -25.085938 12.078125 -24.171875 C 12.742188 -23.265625 13.078125 -22.160156 13.078125 -20.859375 C 13.078125 -19.566406 12.8125 -18.171875 12.28125 -16.671875 C 11.613281 -14.472656 10.78125 -12.144531 9.78125 -9.6875 L 4.59375 -8.4375 Z M 3.1875 -8.984375 "/></g></g></g><g fill="#e4279e" fill-opacity="1"><g transform="translate(114.348415, 129.399239)"><g><path d="M 13.421875 -2.796875 C 13.421875 -7.648438 13.503906 -13.125 13.671875 -19.21875 L 4.4375 -19.21875 C 3.90625 -19.21875 2.722656 -19.5 0.890625 -20.0625 C 1.097656 -22.820312 1.550781 -25.71875 2.25 -28.75 L 5.640625 -29.34375 L 6.53125 -28.34375 C 6.832031 -27.976562 7.109375 -27.753906 7.359375 -27.671875 C 7.609375 -27.585938 8.066406 -27.546875 8.734375 -27.546875 L 25.453125 -27.546875 L 24.15625 -19.21875 L 20.109375 -19.21875 L 20.609375 -0.40625 L 15.375 0.59375 L 13.421875 0.59375 Z M 13.421875 -2.796875 "/></g></g></g></svg>