<svg xmlns="http://www.w3.org/2000/svg" xmlns:xlink="http://www.w3.org/1999/xlink" width="304" zoomAndPan="magnify" viewBox="0 0 228 85.499998" height="114" preserveAspectRatio="xMidYMid meet" version="1.0"><defs><g/><clipPath id="4a89f93693"><path d="M 0.664062 1.117188 L 81 1.117188 L 81 78 L 0.664062 78 Z M 0.664062 1.117188 " clip-rule="nonzero"/></clipPath><clipPath id="e00b9bda61"><path d="M 50 30 L 87 30 L 87 83.136719 L 50 83.136719 Z M 50 30 " clip-rule="nonzero"/></clipPath></defs><g clip-path="url(#4a89f93693)"><path fill="#e4279e" d="M 44.175781 72.960938 L 19.136719 72.960938 L 19.136719 5.226562 L 62.238281 5.226562 L 62.238281 33.46875 C 62.238281 33.742188 62.292969 34.003906 62.394531 34.253906 C 62.5 34.503906 62.648438 34.726562 62.839844 34.921875 C 63.03125 35.113281 63.253906 35.261719 63.507812 35.363281 C 63.757812 35.46875 64.019531 35.519531 64.292969 35.519531 C 64.5625 35.519531 64.824219 35.46875 65.078125 35.363281 C 65.328125 35.261719 65.550781 35.113281 65.742188 34.921875 C 65.9375 34.726562 66.085938 34.503906 66.1875 34.253906 C 66.292969 34.003906 66.34375 33.742188 66.34375 33.46875 L 66.34375 19.59375 L 76.605469 19.59375 L 76.605469 24.5 C 76.605469 24.769531 76.660156 25.03125 76.761719 25.285156 C 76.867188 25.535156 77.015625 25.757812 77.207031 25.949219 C 77.402344 26.144531 77.621094 26.292969 77.875 26.394531 C 78.125 26.5 78.386719 26.550781 78.660156 26.550781 C 78.933594 26.550781 79.195312 26.5 79.445312 26.394531 C 79.695312 26.292969 79.917969 26.144531 80.109375 25.949219 C 80.304688 25.757812 80.453125 25.535156 80.554688 25.285156 C 80.660156 25.03125 80.710938 24.769531 80.710938 24.5 L 80.710938 11.382812 C 80.710938 10.710938 80.644531 10.042969 80.511719 9.382812 C 80.382812 8.722656 80.1875 8.078125 79.929688 7.457031 C 79.667969 6.835938 79.355469 6.246094 78.980469 5.683594 C 78.605469 5.125 78.179688 4.605469 77.703125 4.128906 C 77.226562 3.652344 76.707031 3.226562 76.148438 2.855469 C 75.589844 2.480469 74.996094 2.164062 74.375 1.90625 C 73.753906 1.648438 73.113281 1.453125 72.449219 1.320312 C 71.789062 1.1875 71.125 1.121094 70.449219 1.121094 L 10.925781 1.121094 C 10.25 1.121094 9.585938 1.1875 8.925781 1.320312 C 8.265625 1.453125 7.621094 1.648438 7 1.90625 C 6.378906 2.164062 5.785156 2.480469 5.226562 2.855469 C 4.667969 3.226562 4.148438 3.652344 3.671875 4.128906 C 3.195312 4.605469 2.769531 5.125 2.394531 5.683594 C 2.023438 6.246094 1.707031 6.835938 1.449219 7.457031 C 1.1875 8.078125 0.992188 8.722656 0.863281 9.382812 C 0.730469 10.042969 0.664062 10.710938 0.664062 11.382812 L 0.664062 66.800781 C 0.664062 67.476562 0.730469 68.144531 0.863281 68.804688 C 0.992188 69.464844 1.1875 70.105469 1.449219 70.726562 C 1.707031 71.351562 2.023438 71.941406 2.394531 72.5 C 2.769531 73.0625 3.195312 73.578125 3.671875 74.054688 C 4.148438 74.53125 4.667969 74.957031 5.226562 75.332031 C 5.785156 75.707031 6.378906 76.023438 7 76.28125 C 7.621094 76.539062 8.265625 76.734375 8.925781 76.867188 C 9.585938 76.996094 10.25 77.0625 10.925781 77.066406 L 44.175781 77.066406 C 44.449219 77.066406 44.710938 77.011719 44.960938 76.910156 C 45.214844 76.804688 45.4375 76.65625 45.628906 76.464844 C 45.820312 76.269531 45.96875 76.050781 46.074219 75.796875 C 46.175781 75.546875 46.230469 75.285156 46.230469 75.011719 C 46.230469 74.738281 46.175781 74.476562 46.074219 74.226562 C 45.96875 73.976562 45.820312 73.753906 45.628906 73.5625 C 45.4375 73.367188 45.214844 73.21875 44.960938 73.117188 C 44.710938 73.011719 44.449219 72.960938 44.175781 72.960938 Z M 70.449219 5.226562 C 70.855469 5.226562 71.253906 5.265625 71.652344 5.34375 C 72.046875 5.421875 72.433594 5.539062 72.804688 5.695312 C 73.179688 5.847656 73.535156 6.039062 73.871094 6.261719 C 74.207031 6.488281 74.519531 6.742188 74.804688 7.027344 C 75.089844 7.316406 75.34375 7.625 75.570312 7.960938 C 75.792969 8.296875 75.984375 8.652344 76.136719 9.027344 C 76.292969 9.398438 76.410156 9.785156 76.488281 10.183594 C 76.566406 10.578125 76.605469 10.980469 76.605469 11.382812 L 76.605469 15.488281 L 66.34375 15.488281 L 66.34375 5.226562 Z M 4.769531 33.960938 L 15.03125 33.960938 L 15.03125 44.222656 L 4.769531 44.222656 Z M 15.03125 29.855469 L 4.769531 29.855469 L 4.769531 19.59375 L 15.03125 19.59375 Z M 4.769531 48.328125 L 15.03125 48.328125 L 15.03125 58.59375 L 4.769531 58.59375 Z M 4.769531 11.382812 C 4.769531 10.980469 4.808594 10.578125 4.886719 10.183594 C 4.964844 9.785156 5.082031 9.398438 5.238281 9.027344 C 5.390625 8.652344 5.582031 8.296875 5.804688 7.960938 C 6.03125 7.625 6.285156 7.316406 6.570312 7.027344 C 6.855469 6.742188 7.167969 6.488281 7.503906 6.261719 C 7.839844 6.039062 8.195312 5.847656 8.570312 5.695312 C 8.941406 5.539062 9.328125 5.421875 9.722656 5.34375 C 10.121094 5.265625 10.519531 5.226562 10.925781 5.226562 L 15.03125 5.226562 L 15.03125 15.488281 L 4.769531 15.488281 Z M 10.925781 72.960938 C 10.519531 72.960938 10.121094 72.921875 9.722656 72.839844 C 9.328125 72.761719 8.941406 72.644531 8.570312 72.492188 C 8.195312 72.335938 7.839844 72.148438 7.503906 71.921875 C 7.167969 71.699219 6.855469 71.441406 6.570312 71.15625 C 6.285156 70.871094 6.03125 70.558594 5.804688 70.222656 C 5.582031 69.886719 5.390625 69.53125 5.238281 69.160156 C 5.082031 68.785156 4.964844 68.398438 4.886719 68.003906 C 4.808594 67.605469 4.769531 67.207031 4.769531 66.800781 L 4.769531 62.695312 L 15.03125 62.695312 L 15.03125 72.960938 Z M 10.925781 72.960938 " fill-opacity="1" fill-rule="nonzero"/></g><path fill="#e4279e" d="M 78.660156 63.988281 C 78.386719 63.988281 78.125 64.042969 77.875 64.144531 C 77.621094 64.25 77.402344 64.398438 77.207031 64.589844 C 77.015625 64.785156 76.867188 65.003906 76.761719 65.257812 C 76.660156 65.507812 76.605469 65.769531 76.605469 66.042969 L 76.605469 66.800781 C 76.609375 67.371094 76.535156 67.933594 76.382812 68.480469 C 76.226562 69.03125 76 69.546875 75.703125 70.03125 C 75.402344 70.515625 75.042969 70.949219 74.621094 71.335938 C 74.199219 71.71875 73.730469 72.035156 73.21875 72.289062 C 72.996094 72.371094 72.789062 72.492188 72.605469 72.648438 C 72.421875 72.808594 72.269531 72.992188 72.152344 73.199219 C 72.03125 73.410156 71.953125 73.636719 71.914062 73.875 C 71.875 74.113281 71.875 74.347656 71.917969 74.585938 C 71.964844 74.824219 72.046875 75.046875 72.167969 75.253906 C 72.292969 75.464844 72.445312 75.644531 72.632812 75.796875 C 72.820312 75.949219 73.027344 76.066406 73.253906 76.148438 C 73.484375 76.226562 73.71875 76.265625 73.960938 76.265625 C 74.265625 76.265625 74.558594 76.199219 74.832031 76.070312 C 75.714844 75.660156 76.523438 75.132812 77.253906 74.492188 C 77.984375 73.851562 78.613281 73.121094 79.132812 72.296875 C 79.65625 71.476562 80.050781 70.597656 80.316406 69.664062 C 80.585938 68.730469 80.71875 67.773438 80.710938 66.800781 L 80.710938 66.042969 C 80.710938 65.769531 80.660156 65.507812 80.554688 65.257812 C 80.453125 65.003906 80.304688 64.785156 80.109375 64.589844 C 79.917969 64.398438 79.695312 64.25 79.445312 64.144531 C 79.195312 64.042969 78.933594 63.988281 78.660156 63.988281 Z M 78.660156 63.988281 " fill-opacity="1" fill-rule="nonzero"/><path fill="#e4279e" d="M 36.582031 24.78125 C 36.113281 24.511719 35.621094 24.304688 35.097656 24.164062 C 34.574219 24.023438 34.042969 23.957031 33.503906 23.957031 C 32.960938 23.957031 32.429688 24.023438 31.910156 24.164062 C 31.386719 24.304688 30.890625 24.511719 30.421875 24.78125 C 29.953125 25.050781 29.53125 25.378906 29.148438 25.761719 C 28.765625 26.144531 28.441406 26.566406 28.167969 27.035156 C 27.898438 27.503906 27.695312 28 27.554688 28.523438 C 27.414062 29.042969 27.34375 29.578125 27.347656 30.117188 L 27.347656 50.128906 C 27.34375 50.671875 27.410156 51.203125 27.550781 51.726562 C 27.6875 52.25 27.894531 52.746094 28.164062 53.214844 C 28.433594 53.683594 28.757812 54.109375 29.140625 54.496094 C 29.523438 54.878906 29.949219 55.203125 30.417969 55.476562 C 30.886719 55.746094 31.382812 55.953125 31.90625 56.089844 C 32.425781 56.230469 32.960938 56.300781 33.5 56.300781 C 34.042969 56.300781 34.574219 56.226562 35.097656 56.085938 C 35.621094 55.945312 36.113281 55.738281 36.582031 55.464844 L 53.914062 45.457031 C 54.382812 45.1875 54.808594 44.859375 55.191406 44.476562 C 55.574219 44.09375 55.898438 43.667969 56.171875 43.199219 C 56.441406 42.734375 56.648438 42.238281 56.789062 41.714844 C 56.929688 41.191406 56.996094 40.660156 56.996094 40.117188 C 56.996094 39.578125 56.929688 39.046875 56.789062 38.523438 C 56.648438 38 56.441406 37.503906 56.171875 37.035156 C 55.898438 36.566406 55.574219 36.144531 55.191406 35.761719 C 54.808594 35.378906 54.382812 35.050781 53.914062 34.78125 Z M 51.859375 41.894531 L 34.53125 51.902344 C 34.375 51.992188 34.210938 52.058594 34.035156 52.105469 C 33.859375 52.152344 33.683594 52.175781 33.503906 52.175781 C 33.324219 52.175781 33.148438 52.152344 32.972656 52.105469 C 32.800781 52.058594 32.632812 51.992188 32.476562 51.902344 C 32.324219 51.8125 32.179688 51.703125 32.054688 51.574219 C 31.925781 51.449219 31.816406 51.304688 31.726562 51.152344 C 31.636719 50.996094 31.566406 50.828125 31.523438 50.65625 C 31.476562 50.480469 31.453125 50.304688 31.449219 50.125 L 31.449219 30.113281 C 31.449219 29.746094 31.539062 29.402344 31.722656 29.082031 C 31.90625 28.765625 32.15625 28.515625 32.476562 28.335938 C 32.796875 28.152344 33.136719 28.058594 33.503906 28.054688 C 33.871094 28.054688 34.214844 28.148438 34.53125 28.335938 L 51.859375 38.339844 C 52.015625 38.429688 52.15625 38.539062 52.285156 38.667969 C 52.414062 38.796875 52.519531 38.9375 52.609375 39.09375 C 52.699219 39.25 52.769531 39.414062 52.816406 39.585938 C 52.863281 39.761719 52.886719 39.9375 52.886719 40.117188 C 52.886719 40.300781 52.863281 40.476562 52.816406 40.648438 C 52.769531 40.824219 52.699219 40.988281 52.609375 41.144531 C 52.519531 41.300781 52.414062 41.441406 52.285156 41.570312 C 52.15625 41.699219 52.015625 41.804688 51.859375 41.894531 Z M 51.859375 41.894531 " fill-opacity="1" fill-rule="nonzero"/><g clip-path="url(#e00b9bda61)"><path fill="#e4279e" d="M 86.730469 37.34375 C 86.4375 36.246094 85.800781 35.414062 84.816406 34.851562 L 77.707031 30.746094 C 77.472656 30.609375 77.230469 30.5 76.976562 30.414062 C 76.71875 30.324219 76.457031 30.265625 76.191406 30.230469 C 75.925781 30.195312 75.65625 30.1875 75.386719 30.203125 C 75.117188 30.21875 74.851562 30.265625 74.59375 30.332031 C 74.332031 30.402344 74.082031 30.496094 73.839844 30.617188 C 73.597656 30.734375 73.371094 30.878906 73.15625 31.042969 C 72.941406 31.207031 72.746094 31.390625 72.570312 31.589844 C 72.390625 31.792969 72.234375 32.011719 72.101562 32.246094 L 51.398438 68.101562 C 50.640625 69.414062 50.273438 70.828125 50.300781 72.34375 L 50.417969 79.183594 C 50.421875 79.539062 50.472656 79.886719 50.570312 80.226562 C 50.664062 80.566406 50.804688 80.890625 50.984375 81.195312 C 51.164062 81.5 51.378906 81.777344 51.628906 82.027344 C 51.882812 82.277344 52.160156 82.492188 52.46875 82.667969 C 52.773438 82.847656 53.101562 82.980469 53.441406 83.074219 C 53.785156 83.167969 54.132812 83.214844 54.484375 83.21875 C 54.839844 83.222656 55.1875 83.179688 55.53125 83.09375 C 55.875 83.003906 56.203125 82.875 56.511719 82.703125 L 62.496094 79.382812 C 63.820312 78.644531 64.863281 77.617188 65.621094 76.304688 L 86.316406 40.460938 C 86.890625 39.476562 87.027344 38.4375 86.730469 37.34375 Z M 62.066406 74.257812 C 61.6875 74.914062 61.167969 75.425781 60.503906 75.792969 L 54.523438 79.117188 L 54.40625 72.277344 C 54.394531 71.519531 54.578125 70.8125 54.953125 70.152344 L 75.65625 34.300781 L 82.765625 38.40625 Z M 62.066406 74.257812 " fill-opacity="1" fill-rule="nonzero"/></g><g fill="#e4279e" fill-opacity="1"><g transform="translate(91.784904, 58.309011)"><g><path d="M 21.328125 0.59375 C 21.328125 -0.632812 21.304688 -1.644531 21.265625 -2.4375 C 21.265625 -7.90625 21.1875 -12.078125 21.03125 -14.953125 C 20.957031 -16.085938 20.796875 -16.953125 20.546875 -17.546875 C 20.296875 -18.140625 19.90625 -18.550781 19.375 -18.78125 C 18.851562 -19.019531 18.078125 -19.140625 17.046875 -19.140625 L 5.765625 -19.140625 C 5.234375 -19.140625 4.054688 -19.421875 2.234375 -19.984375 C 2.460938 -23.023438 2.910156 -25.90625 3.578125 -28.625 L 6.953125 -29.21875 L 7.859375 -28.234375 C 8.148438 -27.867188 8.421875 -27.644531 8.671875 -27.5625 C 8.921875 -27.476562 9.378906 -27.4375 10.046875 -27.4375 L 18.984375 -27.4375 C 21.398438 -27.4375 23.226562 -27.09375 24.46875 -26.40625 C 25.71875 -25.726562 26.585938 -24.570312 27.078125 -22.9375 C 27.578125 -21.300781 27.828125 -18.90625 27.828125 -15.75 C 27.828125 -13.53125 27.773438 -10.945312 27.671875 -8 C 27.578125 -5.050781 27.445312 -2.515625 27.28125 -0.390625 L 23.40625 0.59375 Z M 3.28125 -13.5625 L 8.34375 -14.515625 L 10.390625 -14.5625 L 10.34375 -0.390625 L 5.125 0.59375 L 3.03125 0.59375 Z M 3.28125 -13.5625 "/></g></g></g><g fill="#e4279e" fill-opacity="1"><g transform="translate(122.301693, 58.309011)"><g><path d="M 2.09375 -8.296875 L 16.453125 -8.296875 C 16.453125 -9.523438 16.351562 -11.726562 16.15625 -14.90625 C 16.050781 -16.070312 15.863281 -16.953125 15.59375 -17.546875 C 15.332031 -18.140625 14.894531 -18.550781 14.28125 -18.78125 C 13.675781 -19.019531 12.773438 -19.140625 11.578125 -19.140625 L 5.859375 -19.140625 C 5.328125 -19.140625 4.15625 -19.421875 2.34375 -19.984375 C 2.570312 -23.023438 3.015625 -25.90625 3.671875 -28.625 L 7.0625 -29.21875 L 7.953125 -28.234375 C 8.253906 -27.867188 8.523438 -27.644531 8.765625 -27.5625 C 9.015625 -27.476562 9.472656 -27.4375 10.140625 -27.4375 L 14.609375 -27.4375 C 16.898438 -27.4375 18.625 -26.976562 19.78125 -26.0625 C 20.9375 -25.15625 21.707031 -23.832031 22.09375 -22.09375 C 22.476562 -20.351562 22.671875 -17.992188 22.671875 -15.015625 C 22.671875 -11.234375 22.519531 -7.914062 22.21875 -5.0625 C 22.050781 -3.25 21.851562 -1.5625 21.625 0 L 1.34375 0 Z M 2.09375 -8.296875 "/></g></g></g><g fill="#e4279e" fill-opacity="1"><g transform="translate(147.351304, 58.309011)"><g><path d="M 3.1875 -8.953125 L 4.921875 -15.8125 C 5.148438 -16.539062 5.265625 -17.148438 5.265625 -17.640625 C 5.265625 -17.941406 5.15625 -18.21875 4.9375 -18.46875 C 4.726562 -18.71875 4.289062 -19.054688 3.625 -19.484375 L 0.5 -21.578125 C 1.289062 -23.859375 2.367188 -26.207031 3.734375 -28.625 L 4.828125 -28.984375 C 5.222656 -28.773438 5.519531 -28.609375 5.71875 -28.484375 C 6.84375 -27.921875 7.785156 -27.40625 8.546875 -26.9375 C 10.203125 -25.945312 11.359375 -24.992188 12.015625 -24.078125 C 12.679688 -23.171875 13.015625 -22.070312 13.015625 -20.78125 C 13.015625 -19.488281 12.753906 -18.09375 12.234375 -16.59375 C 11.566406 -14.414062 10.734375 -12.097656 9.734375 -9.640625 L 4.578125 -8.40625 Z M 3.1875 -8.953125 "/></g></g></g><g fill="#e4279e" fill-opacity="1"><g transform="translate(162.709138, 58.309011)"><g><path d="M 15.40625 0.59375 C 15.40625 -1 15.390625 -2.359375 15.359375 -3.484375 C 15.359375 -9.015625 15.304688 -12.835938 15.203125 -14.953125 C 15.171875 -16.578125 14.90625 -17.679688 14.40625 -18.265625 C 13.914062 -18.847656 13.039062 -19.140625 11.78125 -19.140625 L 4.765625 -19.140625 C 4.234375 -19.140625 3.0625 -19.421875 1.25 -19.984375 C 1.476562 -23.023438 1.921875 -25.90625 2.578125 -28.625 L 5.96875 -29.21875 L 6.859375 -28.234375 C 7.160156 -27.867188 7.429688 -27.644531 7.671875 -27.5625 C 7.921875 -27.476562 8.378906 -27.4375 9.046875 -27.4375 L 13.328125 -27.4375 C 15.609375 -27.4375 17.367188 -27.128906 18.609375 -26.515625 C 19.859375 -25.898438 20.738281 -24.847656 21.25 -23.359375 C 21.757812 -21.867188 22.03125 -19.75 22.0625 -17 C 22.0625 -14.644531 21.992188 -11.84375 21.859375 -8.59375 C 21.734375 -5.351562 21.570312 -2.617188 21.375 -0.390625 L 17.546875 0.59375 Z M 15.40625 0.59375 "/></g></g></g><g fill="#e4279e" fill-opacity="1"><g transform="translate(187.261733, 58.309011)"><g><path d="M 20.828125 -27.640625 C 22.546875 -26.972656 23.734375 -26.148438 24.390625 -25.171875 C 25.054688 -24.191406 25.390625 -22.828125 25.390625 -21.078125 C 25.390625 -19.453125 25.007812 -16.882812 24.25 -13.375 C 23.488281 -9.863281 22.726562 -7.195312 21.96875 -5.375 C 20.3125 -3.875 17.675781 -2.285156 14.0625 -0.609375 C 10.445312 1.054688 6.65625 2.4375 2.6875 3.53125 L 0.75 3.53125 L 0.75 -4.375 C 3.832031 -5.269531 6.332031 -6.082031 8.25 -6.8125 L 5.0625 -17.546875 C 4.832031 -18.335938 4.582031 -18.890625 4.3125 -19.203125 C 4.050781 -19.523438 3.394531 -20 2.34375 -20.625 L 0.84375 -21.578125 C 1.632812 -24.054688 2.546875 -26.320312 3.578125 -28.375 L 4.96875 -28.734375 C 5.925781 -28.328125 6.671875 -27.976562 7.203125 -27.6875 C 8.691406 -26.957031 9.757812 -26.09375 10.40625 -25.09375 C 11.050781 -24.101562 11.578125 -22.566406 11.984375 -20.484375 C 12.410156 -18.296875 13.085938 -14.453125 14.015625 -8.953125 C 15.867188 -9.742188 17.109375 -10.75 17.734375 -11.96875 C 18.367188 -13.195312 18.71875 -15.023438 18.78125 -17.453125 C 18.78125 -18.273438 18.707031 -18.828125 18.5625 -19.109375 C 18.414062 -19.390625 18.046875 -19.679688 17.453125 -19.984375 L 14.5625 -21.421875 C 15.550781 -24.335938 16.445312 -26.722656 17.25 -28.578125 L 18.34375 -28.578125 C 19.332031 -28.242188 20.160156 -27.929688 20.828125 -27.640625 Z M 20.828125 -27.640625 "/></g></g></g></svg>