<svg xmlns="http://www.w3.org/2000/svg" xmlns:xlink="http://www.w3.org/1999/xlink" width="250" zoomAndPan="magnify" viewBox="0 0 187.5 147.749995" height="197" preserveAspectRatio="xMidYMid meet" version="1.0"><defs><g/><clipPath id="3666c384a7"><path d="M 76 13 L 111 13 L 111 74.871094 L 76 74.871094 Z M 76 13 " clip-rule="nonzero"/></clipPath><clipPath id="4c5a8eef75"><path d="M 49.890625 0.0703125 L 136.660156 0.0703125 L 136.660156 52 L 49.890625 52 Z M 49.890625 0.0703125 " clip-rule="nonzero"/></clipPath></defs><g clip-path="url(#3666c384a7)"><path fill="#e4279e" d="M 106.925781 47.160156 L 106.925781 34.070312 C 106.921875 32.957031 106.644531 31.921875 106.089844 30.957031 L 97.167969 15.621094 C 97.074219 15.460938 96.96875 15.304688 96.855469 15.15625 C 96.742188 15.007812 96.617188 14.867188 96.484375 14.734375 C 96.351562 14.601562 96.210938 14.480469 96.0625 14.367188 C 95.914062 14.253906 95.757812 14.148438 95.597656 14.054688 C 95.433594 13.960938 95.265625 13.878906 95.09375 13.808594 C 94.917969 13.734375 94.742188 13.675781 94.5625 13.628906 C 94.378906 13.578125 94.195312 13.542969 94.011719 13.519531 C 93.824219 13.492188 93.636719 13.480469 93.449219 13.480469 C 93.265625 13.480469 93.078125 13.492188 92.890625 13.519531 C 92.707031 13.542969 92.523438 13.578125 92.339844 13.628906 C 92.160156 13.675781 91.984375 13.734375 91.808594 13.808594 C 91.636719 13.878906 91.46875 13.960938 91.304688 14.054688 C 91.144531 14.148438 90.988281 14.253906 90.839844 14.367188 C 90.691406 14.480469 90.550781 14.601562 90.417969 14.734375 C 90.285156 14.867188 90.160156 15.007812 90.046875 15.15625 C 89.933594 15.304688 89.828125 15.460938 89.734375 15.621094 L 80.8125 30.957031 C 80.257812 31.921875 79.980469 32.957031 79.976562 34.070312 L 79.976562 47.160156 C 79.496094 47.378906 79.058594 47.660156 78.664062 48.003906 C 78.265625 48.347656 77.921875 48.742188 77.640625 49.183594 C 77.355469 49.625 77.136719 50.097656 76.988281 50.601562 C 76.839844 51.109375 76.765625 51.621094 76.765625 52.148438 L 76.765625 54.632812 C 76.769531 55.21875 76.859375 55.789062 77.046875 56.347656 C 77.230469 56.902344 77.496094 57.417969 77.84375 57.890625 C 78.191406 58.363281 78.601562 58.769531 79.082031 59.109375 C 79.558594 59.449219 80.078125 59.707031 80.636719 59.878906 L 80.636719 69.632812 C 80.636719 69.964844 80.671875 70.296875 80.734375 70.621094 C 80.800781 70.949219 80.898438 71.265625 81.023438 71.574219 C 81.152344 71.882812 81.308594 72.175781 81.496094 72.453125 C 81.679688 72.730469 81.890625 72.988281 82.128906 73.222656 C 82.363281 73.457031 82.621094 73.667969 82.898438 73.855469 C 83.175781 74.039062 83.46875 74.195312 83.773438 74.324219 C 84.082031 74.453125 84.402344 74.550781 84.726562 74.613281 C 85.054688 74.679688 85.386719 74.710938 85.71875 74.714844 L 101.183594 74.714844 C 101.515625 74.710938 101.847656 74.679688 102.175781 74.613281 C 102.5 74.550781 102.820312 74.453125 103.128906 74.324219 C 103.433594 74.195312 103.726562 74.039062 104.003906 73.855469 C 104.28125 73.667969 104.539062 73.457031 104.773438 73.222656 C 105.011719 72.988281 105.222656 72.730469 105.40625 72.453125 C 105.59375 72.175781 105.75 71.882812 105.875 71.574219 C 106.003906 71.265625 106.101562 70.949219 106.167969 70.621094 C 106.230469 70.296875 106.265625 69.964844 106.265625 69.632812 L 106.265625 59.878906 C 106.824219 59.707031 107.34375 59.449219 107.820312 59.109375 C 108.296875 58.769531 108.710938 58.363281 109.058594 57.890625 C 109.40625 57.417969 109.671875 56.902344 109.855469 56.347656 C 110.039062 55.789062 110.132812 55.21875 110.136719 54.632812 L 110.136719 52.148438 C 110.132812 51.621094 110.058594 51.109375 109.914062 50.601562 C 109.765625 50.097656 109.546875 49.625 109.261719 49.183594 C 108.976562 48.742188 108.636719 48.347656 108.238281 48.003906 C 107.84375 47.660156 107.40625 47.378906 106.925781 47.160156 Z M 82.878906 34.070312 C 82.878906 33.480469 83.027344 32.933594 83.324219 32.421875 L 92 17.503906 L 92 38.535156 C 92 38.726562 92.035156 38.914062 92.109375 39.089844 C 92.183594 39.269531 92.289062 39.425781 92.425781 39.5625 C 92.558594 39.699219 92.71875 39.804688 92.894531 39.878906 C 93.074219 39.949219 93.257812 39.988281 93.449219 39.988281 C 93.644531 39.988281 93.828125 39.949219 94.007812 39.878906 C 94.183594 39.804688 94.339844 39.699219 94.476562 39.5625 C 94.613281 39.425781 94.71875 39.269531 94.792969 39.089844 C 94.867188 38.914062 94.902344 38.726562 94.902344 38.535156 L 94.902344 17.503906 L 103.578125 32.421875 C 103.875 32.933594 104.023438 33.480469 104.023438 34.070312 L 104.023438 46.652344 L 82.878906 46.652344 Z M 103.359375 69.632812 C 103.359375 69.921875 103.304688 70.199219 103.195312 70.464844 C 103.085938 70.730469 102.925781 70.96875 102.722656 71.171875 C 102.519531 71.375 102.285156 71.53125 102.015625 71.644531 C 101.75 71.753906 101.472656 71.808594 101.183594 71.808594 L 85.71875 71.808594 C 85.429688 71.808594 85.152344 71.753906 84.886719 71.644531 C 84.617188 71.53125 84.382812 71.375 84.179688 71.171875 C 83.976562 70.96875 83.816406 70.730469 83.707031 70.464844 C 83.597656 70.199219 83.542969 69.921875 83.542969 69.632812 L 83.542969 60.128906 L 103.359375 60.128906 Z M 107.230469 54.632812 C 107.230469 54.976562 107.164062 55.304688 107.03125 55.621094 C 106.898438 55.941406 106.710938 56.21875 106.46875 56.460938 C 106.226562 56.707031 105.945312 56.894531 105.628906 57.023438 C 105.3125 57.15625 104.984375 57.222656 104.640625 57.222656 L 82.261719 57.222656 C 81.917969 57.222656 81.589844 57.15625 81.273438 57.023438 C 80.957031 56.894531 80.675781 56.707031 80.433594 56.460938 C 80.191406 56.21875 80.003906 55.941406 79.871094 55.621094 C 79.738281 55.304688 79.671875 54.976562 79.671875 54.632812 L 79.671875 52.148438 C 79.671875 51.804688 79.738281 51.476562 79.871094 51.15625 C 80.003906 50.839844 80.191406 50.5625 80.433594 50.316406 C 80.675781 50.074219 80.957031 49.886719 81.273438 49.757812 C 81.589844 49.625 81.917969 49.558594 82.261719 49.558594 L 104.640625 49.558594 C 104.984375 49.558594 105.3125 49.625 105.628906 49.757812 C 105.945312 49.886719 106.226562 50.074219 106.46875 50.316406 C 106.710938 50.5625 106.898438 50.839844 107.03125 51.15625 C 107.164062 51.476562 107.230469 51.804688 107.230469 52.148438 Z M 107.230469 54.632812 " fill-opacity="1" fill-rule="nonzero"/></g><g clip-path="url(#4c5a8eef75)"><path fill="#e4279e" d="M 133.636719 42.171875 C 133.566406 40.242188 133.359375 38.324219 133.011719 36.421875 C 132.664062 34.519531 132.183594 32.652344 131.570312 30.820312 C 130.953125 28.984375 130.210938 27.207031 129.339844 25.480469 C 128.46875 23.753906 127.476562 22.101562 126.367188 20.519531 C 125.253906 18.933594 124.039062 17.441406 122.710938 16.03125 C 121.386719 14.625 119.964844 13.320312 118.453125 12.117188 C 116.9375 10.914062 115.347656 9.828125 113.675781 8.851562 C 112.003906 7.878906 110.273438 7.03125 108.480469 6.308594 L 129.390625 6.308594 C 129.511719 6.5 129.65625 6.675781 129.820312 6.835938 C 129.984375 6.996094 130.164062 7.136719 130.359375 7.257812 C 130.550781 7.378906 130.757812 7.476562 130.972656 7.550781 C 131.191406 7.625 131.414062 7.675781 131.640625 7.699219 C 131.867188 7.726562 132.09375 7.726562 132.320312 7.699219 C 132.550781 7.675781 132.769531 7.625 132.988281 7.550781 C 133.203125 7.476562 133.410156 7.382812 133.605469 7.261719 C 133.800781 7.140625 133.980469 7.003906 134.144531 6.84375 C 134.308594 6.683594 134.453125 6.507812 134.578125 6.316406 C 134.703125 6.125 134.804688 5.921875 134.882812 5.707031 C 134.964844 5.492188 135.019531 5.273438 135.050781 5.042969 C 135.082031 4.816406 135.085938 4.589844 135.070312 4.363281 C 135.050781 4.136719 135.003906 3.910156 134.9375 3.695312 C 134.867188 3.476562 134.773438 3.265625 134.660156 3.070312 C 134.546875 2.871094 134.410156 2.6875 134.253906 2.519531 C 134.097656 2.351562 133.925781 2.203125 133.738281 2.074219 C 133.550781 1.945312 133.347656 1.839844 133.136719 1.753906 C 132.925781 1.667969 132.707031 1.605469 132.480469 1.570312 C 132.253906 1.535156 132.027344 1.523438 131.796875 1.535156 C 131.570312 1.550781 131.34375 1.589844 131.125 1.652344 C 130.90625 1.714844 130.695312 1.804688 130.496094 1.914062 C 130.292969 2.023438 130.109375 2.152344 129.9375 2.304688 C 129.765625 2.457031 129.613281 2.625 129.480469 2.8125 C 129.34375 2.996094 129.230469 3.195312 129.140625 3.402344 L 98.226562 3.402344 C 98.253906 3.199219 98.253906 2.992188 98.238281 2.785156 C 98.21875 2.578125 98.175781 2.375 98.117188 2.175781 C 98.054688 1.976562 97.972656 1.785156 97.871094 1.605469 C 97.769531 1.421875 97.652344 1.253906 97.515625 1.097656 C 97.378906 0.941406 97.226562 0.800781 97.058594 0.675781 C 96.894531 0.550781 96.714844 0.445312 96.527344 0.355469 C 96.339844 0.269531 96.144531 0.199219 95.941406 0.15625 C 95.738281 0.109375 95.53125 0.0820312 95.324219 0.078125 L 91.578125 0.078125 C 91.160156 0.09375 90.761719 0.191406 90.386719 0.371094 C 90.007812 0.550781 89.679688 0.796875 89.40625 1.113281 C 89.132812 1.425781 88.929688 1.785156 88.800781 2.183594 C 88.675781 2.582031 88.632812 2.988281 88.675781 3.402344 L 57.425781 3.402344 C 57.320312 3.203125 57.195312 3.011719 57.046875 2.839844 C 56.898438 2.664062 56.734375 2.507812 56.550781 2.371094 C 56.367188 2.230469 56.171875 2.117188 55.964844 2.019531 C 55.757812 1.925781 55.539062 1.855469 55.316406 1.808594 C 55.09375 1.761719 54.867188 1.742188 54.636719 1.746094 C 54.410156 1.75 54.183594 1.777344 53.960938 1.832031 C 53.738281 1.882812 53.523438 1.960938 53.320312 2.0625 C 53.113281 2.164062 52.921875 2.285156 52.746094 2.429688 C 52.566406 2.574219 52.40625 2.734375 52.265625 2.914062 C 52.121094 3.09375 52 3.285156 51.902344 3.492188 C 51.804688 3.699219 51.726562 3.914062 51.675781 4.136719 C 51.625 4.359375 51.597656 4.582031 51.59375 4.8125 C 51.59375 5.042969 51.617188 5.265625 51.664062 5.492188 C 51.714844 5.714844 51.785156 5.929688 51.882812 6.136719 C 51.980469 6.34375 52.097656 6.539062 52.234375 6.71875 C 52.375 6.902344 52.53125 7.066406 52.707031 7.210938 C 52.882812 7.359375 53.074219 7.484375 53.277344 7.585938 C 53.480469 7.691406 53.695312 7.773438 53.914062 7.828125 C 54.136719 7.886719 54.363281 7.917969 54.589844 7.925781 C 54.820312 7.933594 55.046875 7.914062 55.269531 7.871094 C 55.496094 7.828125 55.710938 7.761719 55.921875 7.667969 C 56.132812 7.578125 56.328125 7.464844 56.511719 7.328125 C 56.699219 7.195312 56.863281 7.039062 57.015625 6.867188 C 57.164062 6.695312 57.296875 6.507812 57.40625 6.308594 L 78.351562 6.308594 C 76.554688 7.027344 74.824219 7.871094 73.152344 8.84375 C 71.480469 9.8125 69.886719 10.898438 68.371094 12.101562 C 66.859375 13.304688 65.4375 14.609375 64.113281 16.015625 C 62.789062 17.425781 61.574219 18.917969 60.464844 20.503906 C 59.355469 22.085938 58.371094 23.742188 57.5 25.472656 C 56.632812 27.199219 55.894531 28.980469 55.285156 30.8125 C 54.675781 32.648438 54.203125 34.515625 53.863281 36.421875 C 53.527344 38.324219 53.328125 40.242188 53.265625 42.171875 C 53.265625 42.171875 50.085938 41.921875 49.910156 45.078125 L 49.910156 48.824219 C 49.914062 49.207031 49.988281 49.578125 50.132812 49.933594 C 50.28125 50.289062 50.492188 50.605469 50.765625 50.875 C 51.035156 51.148438 51.351562 51.359375 51.707031 51.503906 C 52.0625 51.652344 52.429688 51.726562 52.816406 51.726562 L 56.5625 51.726562 C 56.945312 51.726562 57.316406 51.652344 57.671875 51.503906 C 58.027344 51.355469 58.339844 51.148438 58.613281 50.875 C 58.886719 50.601562 59.09375 50.289062 59.242188 49.933594 C 59.390625 49.578125 59.464844 49.207031 59.464844 48.824219 L 59.464844 45.078125 C 59.445312 44.664062 59.34375 44.273438 59.164062 43.902344 C 58.984375 43.527344 58.738281 43.207031 58.429688 42.933594 C 58.117188 42.660156 57.765625 42.457031 57.375 42.324219 C 56.984375 42.195312 56.582031 42.144531 56.171875 42.171875 C 56.207031 41.082031 56.292969 39.992188 56.425781 38.90625 C 56.558594 37.824219 56.742188 36.746094 56.96875 35.675781 C 57.199219 34.609375 57.472656 33.550781 57.792969 32.507812 C 58.117188 31.460938 58.484375 30.433594 58.898438 29.421875 C 59.308594 28.410156 59.765625 27.417969 60.265625 26.445312 C 60.765625 25.472656 61.308594 24.527344 61.894531 23.601562 C 62.476562 22.679688 63.101562 21.78125 63.765625 20.914062 C 64.429688 20.046875 65.128906 19.207031 65.867188 18.402344 C 66.605469 17.59375 67.375 16.820312 68.179688 16.082031 C 68.988281 15.34375 69.824219 14.644531 70.691406 13.976562 C 71.558594 13.3125 72.453125 12.6875 73.378906 12.101562 C 74.300781 11.515625 75.246094 10.972656 76.21875 10.472656 C 77.1875 9.96875 78.179688 9.511719 79.191406 9.097656 C 80.203125 8.683594 81.230469 8.316406 82.273438 7.992188 C 83.320312 7.667969 84.375 7.390625 85.445312 7.160156 C 86.511719 6.929688 87.589844 6.75 88.675781 6.613281 C 88.664062 7.007812 88.730469 7.386719 88.875 7.753906 C 89.015625 8.121094 89.226562 8.445312 89.496094 8.726562 C 89.769531 9.011719 90.085938 9.230469 90.445312 9.386719 C 90.808594 9.546875 91.183594 9.628906 91.578125 9.632812 L 95.324219 9.632812 C 95.71875 9.636719 96.097656 9.558594 96.460938 9.40625 C 96.828125 9.25 97.144531 9.03125 97.421875 8.746094 C 97.695312 8.460938 97.902344 8.136719 98.042969 7.765625 C 98.183594 7.398438 98.246094 7.015625 98.226562 6.621094 C 99.3125 6.753906 100.390625 6.9375 101.457031 7.164062 C 102.527344 7.394531 103.585938 7.671875 104.628906 7.992188 C 105.671875 8.316406 106.699219 8.683594 107.710938 9.097656 C 108.722656 9.511719 109.714844 9.96875 110.6875 10.472656 C 111.660156 10.972656 112.605469 11.515625 113.527344 12.101562 C 114.453125 12.6875 115.347656 13.3125 116.214844 13.976562 C 117.082031 14.640625 117.921875 15.339844 118.726562 16.078125 C 119.53125 16.816406 120.304688 17.589844 121.042969 18.398438 C 121.78125 19.203125 122.480469 20.042969 123.144531 20.910156 C 123.808594 21.78125 124.429688 22.675781 125.015625 23.601562 C 125.597656 24.523438 126.140625 25.472656 126.640625 26.445312 C 127.140625 27.414062 127.597656 28.40625 128.011719 29.417969 C 128.421875 30.433594 128.789062 31.460938 129.113281 32.503906 C 129.433594 33.550781 129.707031 34.605469 129.9375 35.675781 C 130.164062 36.746094 130.34375 37.820312 130.476562 38.90625 C 130.609375 39.992188 130.695312 41.082031 130.730469 42.171875 C 130.730469 42.171875 127.675781 41.960938 127.4375 45.078125 L 127.4375 48.824219 C 127.4375 49.207031 127.511719 49.578125 127.660156 49.933594 C 127.808594 50.289062 128.015625 50.601562 128.289062 50.875 C 128.5625 51.148438 128.875 51.355469 129.230469 51.503906 C 129.585938 51.652344 129.957031 51.726562 130.339844 51.726562 L 134.085938 51.726562 C 134.472656 51.726562 134.839844 51.652344 135.195312 51.503906 C 135.550781 51.359375 135.867188 51.148438 136.136719 50.875 C 136.410156 50.605469 136.621094 50.289062 136.769531 49.933594 C 136.914062 49.578125 136.988281 49.207031 136.988281 48.824219 L 136.988281 45.078125 C 136.757812 41.921875 133.636719 42.171875 133.636719 42.171875 Z M 56.5625 45.804688 L 56.5625 48.097656 C 56.5625 48.296875 56.492188 48.46875 56.351562 48.609375 C 56.207031 48.753906 56.035156 48.824219 55.835938 48.824219 L 53.542969 48.824219 C 53.339844 48.824219 53.171875 48.753906 53.027344 48.609375 C 52.886719 48.46875 52.816406 48.296875 52.816406 48.097656 L 52.816406 45.804688 C 52.816406 45.601562 52.886719 45.433594 53.027344 45.289062 C 53.171875 45.148438 53.339844 45.078125 53.542969 45.078125 L 55.835938 45.078125 C 56.035156 45.078125 56.207031 45.148438 56.351562 45.289062 C 56.492188 45.433594 56.5625 45.601562 56.5625 45.804688 Z M 94.597656 6.730469 L 92.304688 6.730469 C 92.105469 6.730469 91.933594 6.660156 91.789062 6.515625 C 91.648438 6.375 91.578125 6.203125 91.578125 6.003906 L 91.578125 3.710938 C 91.578125 3.507812 91.648438 3.335938 91.789062 3.195312 C 91.933594 3.054688 92.105469 2.984375 92.304688 2.984375 L 94.597656 2.984375 C 94.796875 2.984375 94.96875 3.054688 95.113281 3.195312 C 95.253906 3.335938 95.324219 3.507812 95.324219 3.710938 L 95.324219 6.003906 C 95.324219 6.203125 95.253906 6.375 95.113281 6.515625 C 94.96875 6.660156 94.796875 6.730469 94.597656 6.730469 Z M 130.339844 48.097656 L 130.339844 45.804688 C 130.339844 45.601562 130.410156 45.433594 130.550781 45.289062 C 130.695312 45.148438 130.867188 45.078125 131.066406 45.078125 L 133.363281 45.078125 C 133.5625 45.078125 133.734375 45.148438 133.875 45.289062 C 134.015625 45.433594 134.085938 45.601562 134.085938 45.804688 L 134.09375 48.097656 C 134.09375 48.296875 134.019531 48.46875 133.878906 48.609375 C 133.738281 48.753906 133.566406 48.824219 133.367188 48.824219 L 131.066406 48.824219 C 130.867188 48.824219 130.695312 48.753906 130.550781 48.609375 C 130.410156 48.46875 130.339844 48.296875 130.339844 48.097656 Z M 130.339844 48.097656 " fill-opacity="1" fill-rule="nonzero"/></g><g fill="#e4279e" fill-opacity="1"><g transform="translate(12.616362, 120.600308)"><g><path d="M 22.09375 0.59375 C 22.09375 -7.113281 22.039062 -12.25 21.9375 -14.8125 C 21.875 -16.175781 21.773438 -17.144531 21.640625 -17.71875 C 21.503906 -18.300781 21.242188 -18.691406 20.859375 -18.890625 C 20.484375 -19.097656 19.847656 -19.203125 18.953125 -19.203125 L 11.96875 -19.203125 C 13.195312 -12.816406 13.8125 -9.054688 13.8125 -7.921875 C 13.8125 -7.390625 13.726562 -6.160156 13.5625 -4.234375 L 13.0625 0 L 1.75 0 L 2.1875 -8.328125 L 7.375 -8.328125 C 6.75 -11.117188 5.769531 -14.757812 4.4375 -19.25 C 4.132812 -19.3125 3.15625 -19.578125 1.5 -20.046875 C 1.726562 -23.097656 2.175781 -25.988281 2.84375 -28.71875 L 6.234375 -29.3125 L 7.125 -28.3125 C 7.425781 -27.945312 7.703125 -27.722656 7.953125 -27.640625 C 8.203125 -27.554688 8.660156 -27.515625 9.328125 -27.515625 L 20.796875 -27.515625 C 22.847656 -27.515625 24.445312 -27.175781 25.59375 -26.5 C 26.75 -25.820312 27.566406 -24.707031 28.046875 -23.15625 C 28.523438 -21.613281 28.765625 -19.460938 28.765625 -16.703125 C 28.765625 -10.453125 28.582031 -5.035156 28.21875 -0.453125 L 24.078125 0.59375 Z M 22.09375 0.59375 "/></g></g></g><g fill="#e4279e" fill-opacity="1"><g transform="translate(43.878146, 120.600308)"><g><path d="M 6.734375 -14.3125 C 6.734375 -15.632812 6.695312 -16.519531 6.625 -16.96875 C 6.5625 -17.425781 6.410156 -17.769531 6.171875 -18 C 5.941406 -18.226562 5.445312 -18.546875 4.6875 -18.953125 L 0.796875 -20.796875 C 1.359375 -23.953125 2.007812 -26.476562 2.75 -28.375 L 4.1875 -28.96875 C 6.945312 -27.90625 8.910156 -27.039062 10.078125 -26.375 C 11.472656 -25.644531 12.4375 -24.707031 12.96875 -23.5625 C 13.5 -22.414062 13.765625 -20.773438 13.765625 -18.640625 C 13.765625 -16.117188 13.546875 -10.039062 13.109375 -0.40625 L 8.671875 0.640625 L 6.734375 0.640625 Z M 6.734375 -14.3125 "/></g></g></g><g fill="#e4279e" fill-opacity="1"><g transform="translate(60.032565, 120.600308)"><g><path d="M 14.0625 0.09375 C 13.925781 -1.800781 13.859375 -4.007812 13.859375 -6.53125 L 13.859375 -8.625 C 16.347656 -11.1875 18.054688 -12.988281 18.984375 -14.03125 C 19.921875 -15.082031 20.539062 -15.921875 20.84375 -16.546875 C 20.875 -17.648438 20.769531 -18.367188 20.53125 -18.703125 C 20.300781 -19.035156 19.804688 -19.203125 19.046875 -19.203125 L 5.78125 -19.203125 C 5.25 -19.203125 4.070312 -19.484375 2.25 -20.046875 C 2.476562 -23.097656 2.925781 -25.988281 3.59375 -28.71875 L 6.984375 -29.3125 L 7.875 -28.3125 C 8.175781 -27.945312 8.453125 -27.722656 8.703125 -27.640625 C 8.953125 -27.554688 9.410156 -27.515625 10.078125 -27.515625 L 21.046875 -27.46875 C 22.972656 -27.46875 24.46875 -26.882812 25.53125 -25.71875 C 26.59375 -24.5625 27.125 -22.9375 27.125 -20.84375 C 27.125 -17.613281 26.234375 -14.285156 24.453125 -10.859375 C 22.671875 -7.441406 19.921875 -3.789062 16.203125 0.09375 Z M 2.546875 5.390625 C 2.546875 -1.660156 2.660156 -8.359375 2.890625 -14.703125 L 7.734375 -15.25 L 9.171875 -15.25 C 9.609375 -10.164062 9.828125 -4.96875 9.828125 0.34375 C 9.828125 2.175781 9.789062 4.125 9.71875 6.1875 L 4.1875 7.328125 L 2.546875 7.328125 Z M 2.546875 5.390625 "/></g></g></g><g fill="#e4279e" fill-opacity="1"><g transform="translate(89.649036, 120.600308)"><g><path d="M 3.1875 -8.96875 L 4.9375 -15.859375 C 5.164062 -16.585938 5.28125 -17.203125 5.28125 -17.703125 C 5.28125 -18.003906 5.171875 -18.273438 4.953125 -18.515625 C 4.742188 -18.765625 4.304688 -19.109375 3.640625 -19.546875 L 0.5 -21.640625 C 1.289062 -23.929688 2.367188 -26.289062 3.734375 -28.71875 L 4.84375 -29.0625 C 5.238281 -28.863281 5.535156 -28.695312 5.734375 -28.5625 C 6.859375 -28 7.804688 -27.488281 8.578125 -27.03125 C 10.234375 -26.03125 11.394531 -25.070312 12.0625 -24.15625 C 12.726562 -23.238281 13.0625 -22.132812 13.0625 -20.84375 C 13.0625 -19.539062 12.796875 -18.144531 12.265625 -16.65625 C 11.597656 -14.457031 10.765625 -12.128906 9.765625 -9.671875 L 4.59375 -8.421875 Z M 3.1875 -8.96875 "/></g></g></g><g fill="#e4279e" fill-opacity="1"><g transform="translate(104.158085, 120.600308)"><g><path d="M 2.140625 -8.078125 L 18.640625 -8.078125 C 18.679688 -10.441406 18.597656 -13.019531 18.390625 -15.8125 C 18.328125 -16.800781 18.210938 -17.535156 18.046875 -18.015625 C 17.878906 -18.503906 17.597656 -18.863281 17.203125 -19.09375 C 16.804688 -19.320312 16.15625 -19.519531 15.25 -19.6875 C 12.664062 -20.125 10.609375 -20.425781 9.078125 -20.59375 L 9.125 -19.59375 C 9.15625 -18.757812 9.238281 -18.226562 9.375 -18 C 9.507812 -17.769531 9.828125 -17.535156 10.328125 -17.296875 L 12.359375 -16.453125 C 12.234375 -15.523438 12.023438 -14.425781 11.734375 -13.15625 C 11.453125 -11.894531 11.144531 -10.75 10.8125 -9.71875 C 8.550781 -10.351562 6.890625 -10.910156 5.828125 -11.390625 C 4.765625 -11.867188 4.015625 -12.425781 3.578125 -13.0625 C 3.148438 -13.695312 2.890625 -14.59375 2.796875 -15.75 C 2.722656 -16.6875 2.800781 -18.164062 3.03125 -20.1875 C 3.269531 -22.21875 3.640625 -24.925781 4.140625 -28.3125 L 6.484375 -28.921875 C 10.535156 -28.554688 14.191406 -28.109375 17.453125 -27.578125 C 19.546875 -27.210938 21.097656 -26.640625 22.109375 -25.859375 C 23.128906 -25.078125 23.835938 -23.878906 24.234375 -22.265625 C 24.628906 -20.648438 24.828125 -18.28125 24.828125 -15.15625 C 24.828125 -12.757812 24.742188 -10.054688 24.578125 -7.046875 C 24.410156 -4.046875 24.226562 -1.695312 24.03125 0 L 1.75 0 Z M 2.140625 -8.078125 "/></g></g></g><g fill="#e4279e" fill-opacity="1"><g transform="translate(131.381261, 120.600308)"><g><path d="M 15.453125 0.59375 C 15.453125 -1 15.4375 -2.359375 15.40625 -3.484375 C 15.40625 -9.035156 15.351562 -12.875 15.25 -15 C 15.21875 -16.632812 14.953125 -17.742188 14.453125 -18.328125 C 13.960938 -18.910156 13.082031 -19.203125 11.8125 -19.203125 L 4.78125 -19.203125 C 4.25 -19.203125 3.070312 -19.484375 1.25 -20.046875 C 1.476562 -23.097656 1.925781 -25.988281 2.59375 -28.71875 L 5.984375 -29.3125 L 6.875 -28.3125 C 7.175781 -27.945312 7.453125 -27.722656 7.703125 -27.640625 C 7.953125 -27.554688 8.410156 -27.515625 9.078125 -27.515625 L 13.359375 -27.515625 C 15.648438 -27.515625 17.421875 -27.207031 18.671875 -26.59375 C 19.921875 -25.976562 20.800781 -24.921875 21.3125 -23.421875 C 21.832031 -21.929688 22.109375 -19.804688 22.140625 -17.046875 C 22.140625 -14.691406 22.070312 -11.882812 21.9375 -8.625 C 21.800781 -5.363281 21.632812 -2.625 21.4375 -0.40625 L 17.59375 0.59375 Z M 15.453125 0.59375 "/></g></g></g><g fill="#e4279e" fill-opacity="1"><g transform="translate(156.011758, 120.600308)"><g><path d="M 0.5 0.890625 C 0.5625 -2.160156 0.675781 -5.179688 0.84375 -8.171875 L 9.671875 -10.078125 L 9.171875 -13.8125 C 8.972656 -15.175781 8.796875 -16.125 8.640625 -16.65625 C 8.492188 -17.1875 8.28125 -17.582031 8 -17.84375 C 7.71875 -18.113281 7.210938 -18.429688 6.484375 -18.796875 L 2.25 -20.796875 C 2.976562 -23.515625 3.804688 -26.085938 4.734375 -28.515625 L 6.03125 -28.921875 C 8.65625 -27.921875 10.484375 -27.15625 11.515625 -26.625 C 12.546875 -26.09375 13.332031 -25.535156 13.875 -24.953125 C 14.425781 -24.367188 14.832031 -23.601562 15.09375 -22.65625 C 15.363281 -21.707031 15.566406 -20.367188 15.703125 -18.640625 C 16.003906 -15.359375 16.285156 -9.441406 16.546875 -0.890625 L 12.46875 0.546875 L 11.0625 0.546875 C 10.800781 -1.347656 10.617188 -2.675781 10.515625 -3.4375 C 8.328125 -2.113281 5.570312 -0.671875 2.25 0.890625 Z M 0.5 0.890625 "/></g></g></g></svg>