<svg xmlns="http://www.w3.org/2000/svg" xmlns:xlink="http://www.w3.org/1999/xlink" width="400" zoomAndPan="magnify" viewBox="0 0 300 173.999997" height="232" preserveAspectRatio="xMidYMid meet" version="1.0"><defs><g/><clipPath id="b76f5197b4"><path d="M 108.070312 0 L 191.320312 0 L 191.320312 83.25 L 108.070312 83.25 Z M 108.070312 0 " clip-rule="nonzero"/></clipPath></defs><g clip-path="url(#b76f5197b4)"><path fill="#e4279e" d="M 187.46875 16.695312 L 155.058594 16.695312 C 155.074219 16.429688 155.15625 16.191406 155.308594 15.972656 L 156.722656 13.996094 C 157.011719 13.59375 157.222656 13.15625 157.351562 12.679688 C 157.484375 12.203125 157.53125 11.71875 157.488281 11.226562 C 157.449219 10.734375 157.324219 10.261719 157.117188 9.8125 C 156.90625 9.367188 156.628906 8.96875 156.277344 8.617188 L 153.710938 6.050781 C 153.359375 5.699219 152.960938 5.417969 152.511719 5.210938 C 152.066406 5.003906 151.59375 4.878906 151.101562 4.835938 C 150.609375 4.796875 150.125 4.84375 149.648438 4.976562 C 149.171875 5.105469 148.734375 5.316406 148.332031 5.605469 L 146.355469 7.019531 C 145.945312 7.316406 145.503906 7.367188 145.035156 7.175781 C 144.839844 7.089844 144.640625 7.007812 144.441406 6.925781 C 143.972656 6.734375 143.699219 6.386719 143.621094 5.886719 L 143.21875 3.488281 C 143.140625 3 142.976562 2.539062 142.734375 2.109375 C 142.492188 1.679688 142.179688 1.304688 141.804688 0.984375 C 141.425781 0.667969 141.003906 0.421875 140.539062 0.253906 C 140.078125 0.0820312 139.597656 0 139.101562 0 L 135.46875 0 C 134.976562 0 134.496094 0.0820312 134.03125 0.253906 C 133.566406 0.421875 133.148438 0.667969 132.769531 0.984375 C 132.390625 1.304688 132.082031 1.679688 131.839844 2.109375 C 131.59375 2.539062 131.433594 3 131.351562 3.488281 L 130.953125 5.886719 C 130.875 6.386719 130.601562 6.734375 130.128906 6.929688 C 129.929688 7.007812 129.730469 7.089844 129.535156 7.175781 C 129.066406 7.367188 128.628906 7.316406 128.21875 7.015625 L 126.242188 5.605469 C 125.839844 5.316406 125.402344 5.105469 124.925781 4.976562 C 124.449219 4.84375 123.964844 4.796875 123.46875 4.839844 C 122.976562 4.878906 122.507812 5.003906 122.058594 5.210938 C 121.609375 5.421875 121.210938 5.699219 120.863281 6.050781 L 118.292969 8.625 C 117.945312 8.972656 117.664062 9.371094 117.457031 9.820312 C 117.246094 10.269531 117.125 10.738281 117.082031 11.230469 C 117.042969 11.726562 117.085938 12.210938 117.21875 12.6875 C 117.351562 13.160156 117.5625 13.601562 117.847656 14.003906 L 119.261719 15.980469 C 119.414062 16.199219 119.5 16.4375 119.511719 16.703125 L 112.148438 16.703125 C 111.875 16.703125 111.609375 16.734375 111.34375 16.789062 C 111.078125 16.847656 110.824219 16.929688 110.574219 17.035156 C 110.324219 17.140625 110.089844 17.269531 109.867188 17.425781 C 109.644531 17.578125 109.4375 17.75 109.25 17.941406 C 109.058594 18.136719 108.890625 18.347656 108.742188 18.574219 C 108.59375 18.800781 108.46875 19.039062 108.371094 19.289062 C 108.269531 19.539062 108.191406 19.796875 108.140625 20.0625 C 108.09375 20.328125 108.066406 20.597656 108.070312 20.867188 L 108.070312 65.386719 C 108.066406 65.65625 108.089844 65.925781 108.140625 66.191406 C 108.191406 66.457031 108.265625 66.71875 108.367188 66.96875 C 108.46875 67.21875 108.59375 67.457031 108.742188 67.6875 C 108.886719 67.914062 109.058594 68.121094 109.246094 68.316406 C 109.433594 68.511719 109.640625 68.683594 109.863281 68.835938 C 110.089844 68.988281 110.324219 69.121094 110.574219 69.226562 C 110.820312 69.332031 111.078125 69.414062 111.34375 69.472656 C 111.609375 69.527344 111.875 69.558594 112.148438 69.558594 L 139.816406 69.558594 L 138.890625 75.125 L 137.285156 75.125 C 136.824219 75.125 136.453125 75.3125 136.171875 75.683594 L 132 81.246094 C 131.839844 81.457031 131.75 81.695312 131.726562 81.957031 C 131.703125 82.21875 131.75 82.46875 131.867188 82.703125 C 131.984375 82.9375 132.15625 83.125 132.382812 83.265625 C 132.605469 83.402344 132.847656 83.472656 133.113281 83.472656 L 166.5 83.472656 C 166.765625 83.472656 167.007812 83.402344 167.234375 83.265625 C 167.457031 83.125 167.628906 82.9375 167.746094 82.703125 C 167.863281 82.46875 167.910156 82.21875 167.886719 81.957031 C 167.863281 81.695312 167.773438 81.457031 167.613281 81.246094 L 163.441406 75.683594 C 163.164062 75.3125 162.792969 75.125 162.328125 75.125 L 160.722656 75.125 L 159.796875 69.558594 L 187.46875 69.558594 C 187.738281 69.558594 188.003906 69.527344 188.269531 69.472656 C 188.535156 69.414062 188.792969 69.332031 189.042969 69.226562 C 189.289062 69.121094 189.527344 68.988281 189.75 68.835938 C 189.972656 68.683594 190.179688 68.511719 190.367188 68.316406 C 190.558594 68.121094 190.726562 67.914062 190.875 67.6875 C 191.019531 67.457031 191.144531 67.21875 191.246094 66.96875 C 191.347656 66.71875 191.421875 66.457031 191.472656 66.191406 C 191.523438 65.925781 191.546875 65.65625 191.542969 65.386719 L 191.542969 20.867188 C 191.546875 20.597656 191.523438 20.328125 191.472656 20.0625 C 191.421875 19.796875 191.347656 19.539062 191.246094 19.285156 C 191.144531 19.035156 191.019531 18.796875 190.875 18.570312 C 190.726562 18.34375 190.558594 18.132812 190.367188 17.9375 C 190.179688 17.746094 189.972656 17.570312 189.75 17.417969 C 189.527344 17.265625 189.289062 17.136719 189.042969 17.027344 C 188.792969 16.921875 188.535156 16.839844 188.269531 16.785156 C 188.003906 16.726562 187.738281 16.699219 187.46875 16.695312 Z M 120.261719 10.585938 L 122.828125 8.015625 C 123.070312 7.777344 123.359375 7.640625 123.699219 7.613281 C 124.039062 7.585938 124.347656 7.671875 124.625 7.871094 L 126.601562 9.28125 C 127.1875 9.703125 127.84375 9.953125 128.5625 10.03125 C 129.277344 10.109375 129.972656 10.007812 130.636719 9.726562 C 130.804688 9.652344 130.972656 9.589844 131.144531 9.515625 C 131.816406 9.246094 132.378906 8.828125 132.835938 8.265625 C 133.289062 7.699219 133.574219 7.058594 133.691406 6.34375 L 134.09375 3.945312 C 134.148438 3.609375 134.304688 3.328125 134.566406 3.109375 C 134.828125 2.890625 135.128906 2.78125 135.46875 2.78125 L 139.101562 2.78125 C 139.441406 2.78125 139.742188 2.894531 140.003906 3.113281 C 140.261719 3.332031 140.417969 3.609375 140.476562 3.945312 L 140.875 6.34375 C 140.992188 7.058594 141.277344 7.699219 141.730469 8.265625 C 142.183594 8.828125 142.746094 9.246094 143.421875 9.515625 C 143.59375 9.585938 143.761719 9.65625 143.929688 9.726562 C 144.597656 10.007812 145.289062 10.109375 146.007812 10.03125 C 146.722656 9.953125 147.378906 9.703125 147.964844 9.28125 L 149.945312 7.871094 C 150.222656 7.671875 150.53125 7.585938 150.871094 7.613281 C 151.207031 7.644531 151.5 7.777344 151.738281 8.015625 L 154.308594 10.585938 C 154.546875 10.824219 154.683594 11.117188 154.710938 11.453125 C 154.738281 11.792969 154.652344 12.101562 154.457031 12.378906 L 153.046875 14.355469 C 152.625 14.945312 152.375 15.597656 152.296875 16.316406 C 152.214844 17.035156 152.316406 17.726562 152.601562 18.390625 C 152.671875 18.5625 152.738281 18.730469 152.8125 18.902344 C 153.082031 19.574219 153.5 20.140625 154.0625 20.59375 C 154.628906 21.046875 155.269531 21.332031 155.984375 21.449219 L 158.382812 21.851562 C 158.71875 21.90625 158.996094 22.0625 159.214844 22.324219 C 159.4375 22.582031 159.546875 22.882812 159.546875 23.222656 L 159.546875 26.855469 C 159.546875 27.195312 159.433594 27.496094 159.214844 27.753906 C 158.996094 28.015625 158.71875 28.171875 158.382812 28.226562 L 155.984375 28.628906 C 155.269531 28.746094 154.628906 29.03125 154.0625 29.484375 C 153.5 29.9375 153.082031 30.503906 152.8125 31.175781 C 152.742188 31.347656 152.671875 31.515625 152.601562 31.683594 C 152.320312 32.347656 152.21875 33.039062 152.296875 33.757812 C 152.375 34.476562 152.625 35.128906 153.046875 35.71875 L 154.460938 37.703125 C 154.65625 37.980469 154.742188 38.285156 154.714844 38.625 C 154.683594 38.964844 154.550781 39.253906 154.308594 39.492188 L 151.742188 42.0625 C 151.5 42.300781 151.210938 42.4375 150.871094 42.464844 C 150.535156 42.492188 150.226562 42.40625 149.949219 42.210938 L 147.96875 40.800781 C 147.382812 40.378906 146.730469 40.128906 146.011719 40.050781 C 145.292969 39.972656 144.601562 40.074219 143.9375 40.355469 C 143.769531 40.429688 143.597656 40.496094 143.425781 40.566406 C 142.753906 40.835938 142.191406 41.253906 141.738281 41.820312 C 141.285156 42.382812 141 43.023438 140.882812 43.738281 L 140.480469 46.140625 C 140.425781 46.476562 140.265625 46.753906 140.007812 46.972656 C 139.746094 47.191406 139.449219 47.300781 139.109375 47.300781 L 135.46875 47.300781 C 135.128906 47.300781 134.828125 47.191406 134.570312 46.972656 C 134.3125 46.75 134.152344 46.472656 134.097656 46.136719 L 133.695312 43.738281 C 133.578125 43.023438 133.292969 42.386719 132.839844 41.820312 C 132.386719 41.253906 131.824219 40.835938 131.152344 40.566406 C 130.980469 40.5 130.808594 40.429688 130.640625 40.355469 C 130.125 40.132812 129.589844 40.023438 129.027344 40.023438 C 128.136719 40.023438 127.328125 40.285156 126.601562 40.800781 L 124.625 42.214844 C 124.347656 42.410156 124.042969 42.496094 123.703125 42.46875 C 123.363281 42.441406 123.074219 42.304688 122.832031 42.066406 L 120.265625 39.496094 C 120.023438 39.257812 119.890625 38.96875 119.859375 38.628906 C 119.832031 38.289062 119.917969 37.980469 120.117188 37.703125 L 121.527344 35.726562 C 121.949219 35.136719 122.199219 34.484375 122.277344 33.765625 C 122.359375 33.050781 122.257812 32.355469 121.972656 31.691406 C 121.902344 31.523438 121.835938 31.351562 121.765625 31.179688 C 121.496094 30.507812 121.078125 29.941406 120.511719 29.488281 C 119.945312 29.035156 119.304688 28.75 118.589844 28.632812 L 116.1875 28.230469 C 115.851562 28.175781 115.574219 28.015625 115.355469 27.757812 C 115.136719 27.5 115.027344 27.199219 115.027344 26.859375 L 115.027344 23.226562 C 115.027344 22.886719 115.136719 22.585938 115.355469 22.328125 C 115.574219 22.066406 115.851562 21.910156 116.1875 21.851562 L 118.589844 21.453125 C 119.304688 21.335938 119.941406 21.046875 120.507812 20.59375 C 121.074219 20.140625 121.492188 19.578125 121.761719 18.90625 C 121.828125 18.734375 121.902344 18.5625 121.972656 18.398438 C 122.253906 17.730469 122.355469 17.039062 122.277344 16.320312 C 122.195312 15.605469 121.945312 14.949219 121.527344 14.363281 L 120.113281 12.382812 C 119.914062 12.105469 119.828125 11.796875 119.855469 11.457031 C 119.886719 11.117188 120.019531 10.828125 120.261719 10.585938 Z M 112.148438 19.476562 L 114.609375 19.476562 C 113.886719 19.820312 113.3125 20.332031 112.882812 21.007812 C 112.457031 21.683594 112.242188 22.425781 112.246094 23.226562 L 112.246094 26.859375 C 112.242188 27.351562 112.328125 27.832031 112.496094 28.296875 C 112.667969 28.761719 112.910156 29.183594 113.230469 29.558594 C 113.550781 29.9375 113.925781 30.246094 114.355469 30.488281 C 114.785156 30.734375 115.246094 30.894531 115.730469 30.976562 L 118.128906 31.375 C 118.632812 31.453125 118.980469 31.726562 119.171875 32.195312 C 119.25 32.398438 119.332031 32.59375 119.417969 32.792969 C 119.613281 33.261719 119.5625 33.699219 119.261719 34.109375 L 117.847656 36.085938 C 117.5625 36.488281 117.351562 36.925781 117.21875 37.402344 C 117.085938 37.878906 117.042969 38.363281 117.082031 38.859375 C 117.125 39.351562 117.246094 39.820312 117.457031 40.269531 C 117.664062 40.71875 117.945312 41.117188 118.292969 41.464844 L 120.871094 44.035156 C 121.21875 44.386719 121.617188 44.664062 122.066406 44.871094 C 122.515625 45.082031 122.984375 45.207031 123.476562 45.246094 C 123.96875 45.285156 124.453125 45.242188 124.929688 45.109375 C 125.40625 44.976562 125.847656 44.765625 126.25 44.476562 L 128.226562 43.066406 C 128.636719 42.769531 129.074219 42.71875 129.542969 42.910156 C 129.738281 42.992188 129.9375 43.074219 130.136719 43.15625 C 130.609375 43.347656 130.882812 43.695312 130.957031 44.199219 L 131.359375 46.597656 C 131.441406 47.082031 131.601562 47.542969 131.84375 47.972656 C 132.085938 48.402344 132.398438 48.777344 132.773438 49.09375 C 133.148438 49.414062 133.570312 49.660156 134.035156 49.828125 C 134.496094 50 134.976562 50.085938 135.46875 50.082031 L 139.101562 50.082031 C 139.597656 50.085938 140.078125 50 140.539062 49.832031 C 141.003906 49.660156 141.425781 49.417969 141.804688 49.097656 C 142.179688 48.777344 142.492188 48.402344 142.734375 47.972656 C 142.976562 47.542969 143.140625 47.085938 143.21875 46.597656 L 143.621094 44.199219 C 143.699219 43.695312 143.972656 43.347656 144.441406 43.15625 C 144.640625 43.074219 144.839844 42.992188 145.035156 42.910156 C 145.503906 42.714844 145.945312 42.769531 146.355469 43.066406 L 148.332031 44.476562 C 148.734375 44.765625 149.171875 44.976562 149.648438 45.109375 C 150.125 45.242188 150.609375 45.285156 151.101562 45.246094 C 151.59375 45.203125 152.066406 45.082031 152.515625 44.871094 C 152.960938 44.664062 153.359375 44.382812 153.710938 44.035156 L 156.277344 41.464844 C 156.628906 41.117188 156.90625 40.71875 157.117188 40.269531 C 157.324219 39.820312 157.449219 39.351562 157.488281 38.859375 C 157.53125 38.367188 157.484375 37.882812 157.351562 37.40625 C 157.222656 36.929688 157.011719 36.488281 156.722656 36.089844 L 155.308594 34.109375 C 155.011719 33.699219 154.960938 33.257812 155.15625 32.789062 C 155.238281 32.59375 155.320312 32.394531 155.402344 32.195312 C 155.59375 31.726562 155.941406 31.453125 156.441406 31.375 L 158.839844 30.976562 C 159.328125 30.894531 159.785156 30.734375 160.21875 30.488281 C 160.648438 30.246094 161.023438 29.9375 161.339844 29.558594 C 161.660156 29.183594 161.90625 28.761719 162.074219 28.296875 C 162.246094 27.832031 162.328125 27.351562 162.328125 26.859375 L 162.328125 23.226562 C 162.328125 22.425781 162.117188 21.683594 161.6875 21.007812 C 161.261719 20.332031 160.6875 19.820312 159.960938 19.476562 L 187.46875 19.476562 C 187.644531 19.484375 187.8125 19.527344 187.972656 19.601562 C 188.132812 19.679688 188.277344 19.78125 188.394531 19.910156 C 188.515625 20.039062 188.609375 20.1875 188.671875 20.355469 C 188.734375 20.519531 188.765625 20.691406 188.761719 20.867188 L 188.761719 58.429688 L 110.851562 58.429688 L 110.851562 20.867188 C 110.847656 20.691406 110.878906 20.519531 110.941406 20.355469 C 111.003906 20.1875 111.097656 20.039062 111.21875 19.910156 C 111.339844 19.78125 111.480469 19.679688 111.640625 19.601562 C 111.800781 19.527344 111.96875 19.484375 112.148438 19.476562 Z M 163.71875 80.691406 L 135.894531 80.691406 L 137.980469 77.90625 L 161.632812 77.90625 Z M 157.902344 75.125 L 141.710938 75.125 L 142.636719 69.558594 L 156.976562 69.558594 Z M 187.46875 66.777344 L 112.148438 66.777344 C 111.96875 66.769531 111.800781 66.726562 111.640625 66.652344 C 111.480469 66.578125 111.339844 66.476562 111.21875 66.34375 C 111.097656 66.214844 111.003906 66.066406 110.941406 65.902344 C 110.878906 65.734375 110.847656 65.5625 110.851562 65.386719 L 110.851562 61.214844 L 188.761719 61.214844 L 188.761719 65.386719 C 188.765625 65.5625 188.734375 65.734375 188.671875 65.902344 C 188.609375 66.066406 188.515625 66.214844 188.394531 66.34375 C 188.277344 66.476562 188.132812 66.578125 187.972656 66.652344 C 187.8125 66.726562 187.644531 66.769531 187.46875 66.777344 Z M 187.46875 66.777344 " fill-opacity="1" fill-rule="nonzero"/></g><path fill="#e4279e" d="M 161.652344 47.523438 L 162.398438 47.707031 L 162 48.367188 C 161.839844 48.632812 161.730469 48.917969 161.664062 49.222656 C 161.601562 49.523438 161.585938 49.832031 161.625 50.136719 C 161.664062 50.445312 161.75 50.738281 161.886719 51.019531 C 162.023438 51.296875 162.199219 51.546875 162.417969 51.765625 L 164.816406 54.164062 C 165.039062 54.382812 165.285156 54.5625 165.566406 54.695312 C 165.84375 54.832031 166.136719 54.917969 166.445312 54.957031 C 166.753906 54.996094 167.058594 54.980469 167.363281 54.917969 C 167.667969 54.851562 167.949219 54.742188 168.21875 54.582031 L 168.875 54.1875 L 169.0625 54.929688 C 169.136719 55.230469 169.257812 55.511719 169.429688 55.773438 C 169.597656 56.035156 169.804688 56.257812 170.046875 56.449219 C 170.292969 56.640625 170.5625 56.789062 170.855469 56.886719 C 171.148438 56.988281 171.453125 57.039062 171.761719 57.039062 L 175.152344 57.039062 C 175.464844 57.039062 175.765625 56.988281 176.058594 56.886719 C 176.351562 56.785156 176.621094 56.640625 176.867188 56.449219 C 177.109375 56.257812 177.316406 56.035156 177.484375 55.773438 C 177.65625 55.511719 177.777344 55.234375 177.851562 54.933594 L 178.039062 54.1875 L 178.699219 54.582031 C 178.964844 54.742188 179.25 54.855469 179.550781 54.917969 C 179.855469 54.984375 180.160156 54.996094 180.46875 54.957031 C 180.777344 54.921875 181.070312 54.832031 181.347656 54.699219 C 181.628906 54.5625 181.875 54.382812 182.09375 54.164062 L 184.496094 51.765625 C 184.714844 51.546875 184.894531 51.296875 185.03125 51.019531 C 185.164062 50.738281 185.253906 50.445312 185.289062 50.136719 C 185.328125 49.832031 185.316406 49.523438 185.25 49.222656 C 185.1875 48.917969 185.074219 48.632812 184.914062 48.367188 L 184.519531 47.710938 L 185.261719 47.523438 C 185.5625 47.449219 185.84375 47.328125 186.105469 47.160156 C 186.363281 46.988281 186.589844 46.78125 186.78125 46.539062 C 186.972656 46.292969 187.117188 46.023438 187.21875 45.730469 C 187.320312 45.4375 187.371094 45.132812 187.371094 44.824219 L 187.371094 41.433594 C 187.371094 41.121094 187.320312 40.820312 187.21875 40.527344 C 187.117188 40.230469 186.972656 39.964844 186.78125 39.71875 C 186.589844 39.472656 186.363281 39.265625 186.101562 39.097656 C 185.84375 38.929688 185.5625 38.804688 185.261719 38.730469 L 184.519531 38.546875 L 184.914062 37.886719 C 185.074219 37.621094 185.1875 37.335938 185.25 37.03125 C 185.3125 36.730469 185.328125 36.425781 185.289062 36.117188 C 185.25 35.808594 185.164062 35.515625 185.027344 35.238281 C 184.894531 34.957031 184.714844 34.707031 184.496094 34.488281 L 182.097656 32.089844 C 181.878906 31.871094 181.628906 31.695312 181.347656 31.558594 C 181.070312 31.421875 180.777344 31.335938 180.46875 31.296875 C 180.160156 31.257812 179.855469 31.273438 179.550781 31.335938 C 179.246094 31.402344 178.964844 31.515625 178.695312 31.671875 L 178.039062 32.066406 L 177.851562 31.324219 C 177.777344 31.023438 177.65625 30.742188 177.484375 30.484375 C 177.316406 30.222656 177.109375 29.996094 176.867188 29.804688 C 176.621094 29.613281 176.351562 29.46875 176.058594 29.367188 C 175.765625 29.265625 175.464844 29.214844 175.152344 29.214844 L 171.761719 29.214844 C 171.453125 29.214844 171.148438 29.265625 170.855469 29.367188 C 170.5625 29.46875 170.292969 29.613281 170.050781 29.804688 C 169.804688 29.996094 169.597656 30.222656 169.429688 30.480469 C 169.261719 30.742188 169.136719 31.023438 169.0625 31.324219 L 168.875 32.066406 L 168.21875 31.671875 C 167.953125 31.511719 167.667969 31.398438 167.363281 31.335938 C 167.0625 31.269531 166.753906 31.257812 166.445312 31.292969 C 166.140625 31.332031 165.84375 31.417969 165.566406 31.554688 C 165.289062 31.691406 165.039062 31.871094 164.820312 32.089844 L 162.417969 34.488281 C 162.199219 34.707031 162.019531 34.957031 161.886719 35.238281 C 161.75 35.515625 161.664062 35.808594 161.625 36.117188 C 161.585938 36.425781 161.601562 36.730469 161.664062 37.035156 C 161.730469 37.335938 161.839844 37.621094 162 37.886719 L 162.394531 38.542969 L 161.652344 38.730469 C 161.351562 38.804688 161.070312 38.925781 160.8125 39.097656 C 160.550781 39.265625 160.324219 39.472656 160.132812 39.71875 C 159.941406 39.960938 159.796875 40.230469 159.695312 40.527344 C 159.59375 40.820312 159.546875 41.121094 159.546875 41.433594 L 159.546875 44.824219 C 159.546875 45.132812 159.597656 45.4375 159.695312 45.730469 C 159.796875 46.023438 159.945312 46.292969 160.132812 46.535156 C 160.324219 46.78125 160.550781 46.988281 160.8125 47.15625 C 161.070312 47.328125 161.351562 47.449219 161.652344 47.523438 Z M 162.328125 41.433594 L 163.070312 41.246094 C 163.28125 41.191406 163.484375 41.117188 163.675781 41.015625 C 163.867188 40.917969 164.046875 40.796875 164.210938 40.652344 C 164.378906 40.511719 164.523438 40.351562 164.652344 40.175781 C 164.777344 40 164.882812 39.8125 164.96875 39.609375 C 165.050781 39.410156 165.109375 39.203125 165.144531 38.988281 C 165.179688 38.773438 165.1875 38.558594 165.171875 38.339844 C 165.15625 38.125 165.113281 37.910156 165.046875 37.703125 C 164.984375 37.496094 164.894531 37.300781 164.78125 37.113281 L 164.386719 36.457031 L 166.785156 34.058594 L 167.445312 34.453125 C 167.632812 34.566406 167.828125 34.652344 168.035156 34.71875 C 168.242188 34.785156 168.453125 34.824219 168.671875 34.839844 C 168.886719 34.855469 169.101562 34.847656 169.316406 34.8125 C 169.53125 34.777344 169.738281 34.71875 169.9375 34.636719 C 170.140625 34.554688 170.328125 34.449219 170.503906 34.320312 C 170.679688 34.191406 170.839844 34.046875 170.980469 33.882812 C 171.121094 33.71875 171.242188 33.539062 171.34375 33.347656 C 171.441406 33.15625 171.519531 32.953125 171.574219 32.742188 L 171.761719 31.996094 L 175.15625 31.996094 L 175.339844 32.742188 C 175.394531 32.953125 175.46875 33.15625 175.570312 33.347656 C 175.671875 33.539062 175.792969 33.71875 175.933594 33.882812 C 176.074219 34.046875 176.234375 34.195312 176.410156 34.320312 C 176.585938 34.449219 176.773438 34.554688 176.976562 34.636719 C 177.175781 34.71875 177.382812 34.777344 177.597656 34.8125 C 177.8125 34.847656 178.027344 34.855469 178.246094 34.839844 C 178.460938 34.824219 178.671875 34.785156 178.878906 34.71875 C 179.085938 34.652344 179.285156 34.566406 179.46875 34.453125 L 180.128906 34.058594 L 182.527344 36.457031 L 182.132812 37.113281 C 182.019531 37.300781 181.929688 37.496094 181.867188 37.703125 C 181.800781 37.914062 181.757812 38.125 181.742188 38.339844 C 181.726562 38.558594 181.734375 38.773438 181.769531 38.988281 C 181.804688 39.203125 181.863281 39.410156 181.949219 39.609375 C 182.03125 39.8125 182.136719 40 182.261719 40.175781 C 182.390625 40.351562 182.535156 40.511719 182.699219 40.652344 C 182.867188 40.796875 183.042969 40.917969 183.238281 41.015625 C 183.429688 41.117188 183.632812 41.191406 183.84375 41.246094 L 184.585938 41.433594 L 184.585938 44.824219 L 183.84375 45.011719 C 183.632812 45.0625 183.429688 45.140625 183.238281 45.238281 C 183.046875 45.339844 182.867188 45.460938 182.703125 45.601562 C 182.535156 45.742188 182.390625 45.902344 182.261719 46.078125 C 182.136719 46.253906 182.03125 46.445312 181.945312 46.644531 C 181.863281 46.84375 181.804688 47.054688 181.769531 47.269531 C 181.734375 47.480469 181.726562 47.699219 181.742188 47.914062 C 181.757812 48.132812 181.800781 48.34375 181.867188 48.550781 C 181.929688 48.757812 182.019531 48.957031 182.132812 49.140625 L 182.527344 49.796875 L 180.136719 52.195312 L 179.476562 51.800781 C 179.289062 51.691406 179.09375 51.601562 178.886719 51.535156 C 178.679688 51.472656 178.46875 51.429688 178.25 51.414062 C 178.035156 51.398438 177.820312 51.40625 177.605469 51.441406 C 177.390625 51.476562 177.183594 51.535156 176.980469 51.617188 C 176.78125 51.703125 176.59375 51.808594 176.417969 51.933594 C 176.242188 52.0625 176.082031 52.207031 175.941406 52.371094 C 175.796875 52.535156 175.675781 52.714844 175.578125 52.90625 C 175.476562 53.101562 175.402344 53.300781 175.347656 53.511719 L 175.152344 54.257812 L 171.761719 54.257812 L 171.574219 53.511719 C 171.46875 53.085938 171.273438 52.703125 170.984375 52.367188 C 170.699219 52.03125 170.351562 51.78125 169.941406 51.613281 C 169.535156 51.441406 169.109375 51.371094 168.667969 51.402344 C 168.226562 51.4375 167.816406 51.566406 167.4375 51.796875 L 166.78125 52.191406 L 164.386719 49.804688 L 164.785156 49.148438 C 164.894531 48.960938 164.984375 48.765625 165.050781 48.558594 C 165.117188 48.351562 165.15625 48.136719 165.171875 47.921875 C 165.1875 47.703125 165.179688 47.488281 165.144531 47.273438 C 165.109375 47.058594 165.050781 46.851562 164.96875 46.652344 C 164.882812 46.449219 164.78125 46.261719 164.652344 46.085938 C 164.523438 45.910156 164.378906 45.75 164.214844 45.609375 C 164.050781 45.46875 163.871094 45.347656 163.679688 45.246094 C 163.484375 45.144531 163.28125 45.070312 163.070312 45.015625 L 162.328125 44.824219 Z M 162.328125 41.433594 " fill-opacity="1" fill-rule="nonzero"/><path fill="#e4279e" d="M 173.457031 50.082031 C 173.914062 50.082031 174.367188 50.039062 174.816406 49.949219 C 175.261719 49.859375 175.699219 49.730469 176.121094 49.554688 C 176.542969 49.378906 176.941406 49.164062 177.320312 48.910156 C 177.703125 48.65625 178.054688 48.371094 178.375 48.046875 C 178.699219 47.722656 178.988281 47.371094 179.242188 46.992188 C 179.496094 46.613281 179.710938 46.210938 179.882812 45.789062 C 180.058594 45.367188 180.191406 44.933594 180.28125 44.484375 C 180.367188 44.035156 180.414062 43.585938 180.414062 43.128906 C 180.414062 42.671875 180.367188 42.21875 180.28125 41.769531 C 180.191406 41.324219 180.058594 40.886719 179.882812 40.464844 C 179.710938 40.042969 179.496094 39.644531 179.242188 39.261719 C 178.988281 38.882812 178.699219 38.53125 178.375 38.207031 C 178.054688 37.886719 177.703125 37.597656 177.320312 37.34375 C 176.941406 37.089844 176.542969 36.875 176.121094 36.699219 C 175.699219 36.527344 175.261719 36.394531 174.816406 36.304688 C 174.367188 36.214844 173.914062 36.171875 173.457031 36.171875 C 173 36.171875 172.546875 36.214844 172.101562 36.304688 C 171.652344 36.394531 171.21875 36.527344 170.796875 36.699219 C 170.375 36.875 169.972656 37.089844 169.59375 37.34375 C 169.214844 37.597656 168.863281 37.886719 168.539062 38.207031 C 168.214844 38.53125 167.925781 38.882812 167.675781 39.261719 C 167.421875 39.644531 167.207031 40.042969 167.03125 40.464844 C 166.855469 40.886719 166.722656 41.324219 166.636719 41.769531 C 166.546875 42.21875 166.5 42.671875 166.5 43.128906 C 166.503906 43.585938 166.546875 44.035156 166.636719 44.484375 C 166.726562 44.933594 166.859375 45.367188 167.035156 45.789062 C 167.207031 46.210938 167.421875 46.609375 167.675781 46.988281 C 167.929688 47.371094 168.21875 47.722656 168.542969 48.042969 C 168.863281 48.367188 169.214844 48.65625 169.59375 48.910156 C 169.972656 49.164062 170.375 49.375 170.796875 49.550781 C 171.21875 49.726562 171.652344 49.859375 172.101562 49.949219 C 172.550781 50.039062 173 50.082031 173.457031 50.082031 Z M 173.457031 38.953125 C 173.730469 38.953125 174.003906 38.980469 174.273438 39.035156 C 174.539062 39.085938 174.800781 39.167969 175.054688 39.273438 C 175.308594 39.375 175.546875 39.503906 175.777344 39.65625 C 176.003906 39.808594 176.214844 39.984375 176.410156 40.175781 C 176.601562 40.371094 176.777344 40.582031 176.929688 40.808594 C 177.082031 41.035156 177.207031 41.277344 177.3125 41.53125 C 177.417969 41.785156 177.496094 42.042969 177.550781 42.3125 C 177.605469 42.582031 177.632812 42.851562 177.632812 43.128906 C 177.632812 43.402344 177.605469 43.671875 177.550781 43.941406 C 177.496094 44.210938 177.417969 44.472656 177.3125 44.726562 C 177.207031 44.976562 177.082031 45.21875 176.929688 45.445312 C 176.777344 45.675781 176.601562 45.886719 176.410156 46.078125 C 176.214844 46.273438 176.003906 46.445312 175.777344 46.597656 C 175.546875 46.75 175.308594 46.878906 175.054688 46.984375 C 174.800781 47.089844 174.539062 47.167969 174.273438 47.222656 C 174.003906 47.273438 173.730469 47.300781 173.457031 47.300781 C 173.183594 47.300781 172.914062 47.273438 172.644531 47.222656 C 172.375 47.167969 172.113281 47.089844 171.859375 46.984375 C 171.605469 46.878906 171.367188 46.75 171.140625 46.597656 C 170.910156 46.445312 170.699219 46.273438 170.507812 46.078125 C 170.3125 45.886719 170.140625 45.675781 169.988281 45.445312 C 169.835938 45.21875 169.707031 44.976562 169.601562 44.726562 C 169.496094 44.472656 169.417969 44.210938 169.363281 43.941406 C 169.3125 43.671875 169.285156 43.402344 169.285156 43.128906 C 169.285156 42.851562 169.3125 42.582031 169.363281 42.3125 C 169.417969 42.042969 169.496094 41.785156 169.601562 41.53125 C 169.707031 41.277344 169.835938 41.035156 169.988281 40.808594 C 170.140625 40.582031 170.3125 40.371094 170.507812 40.175781 C 170.699219 39.984375 170.910156 39.808594 171.140625 39.65625 C 171.367188 39.503906 171.605469 39.375 171.859375 39.273438 C 172.113281 39.167969 172.375 39.085938 172.644531 39.035156 C 172.914062 38.980469 173.183594 38.953125 173.457031 38.953125 Z M 173.457031 38.953125 " fill-opacity="1" fill-rule="nonzero"/><path fill="#e4279e" d="M 137.285156 37.5625 C 138.109375 37.5625 138.921875 37.484375 139.730469 37.320312 C 140.535156 37.160156 141.316406 36.925781 142.078125 36.609375 C 142.835938 36.296875 143.558594 35.910156 144.242188 35.453125 C 144.925781 34.996094 145.558594 34.476562 146.140625 33.894531 C 146.722656 33.3125 147.238281 32.679688 147.695312 31.996094 C 148.152344 31.3125 148.539062 30.59375 148.855469 29.832031 C 149.167969 29.074219 149.40625 28.289062 149.566406 27.484375 C 149.726562 26.679688 149.808594 25.863281 149.808594 25.042969 C 149.808594 24.21875 149.726562 23.40625 149.566406 22.597656 C 149.40625 21.792969 149.167969 21.011719 148.855469 20.25 C 148.539062 19.492188 148.152344 18.769531 147.695312 18.085938 C 147.238281 17.402344 146.722656 16.769531 146.140625 16.1875 C 145.558594 15.605469 144.925781 15.085938 144.242188 14.632812 C 143.558594 14.175781 142.835938 13.789062 142.078125 13.472656 C 141.316406 13.160156 140.535156 12.921875 139.730469 12.761719 C 138.921875 12.601562 138.109375 12.519531 137.285156 12.519531 C 136.464844 12.519531 135.648438 12.601562 134.84375 12.761719 C 134.035156 12.921875 133.253906 13.160156 132.496094 13.472656 C 131.734375 13.789062 131.011719 14.175781 130.328125 14.632812 C 129.644531 15.085938 129.015625 15.605469 128.433594 16.1875 C 127.851562 16.769531 127.332031 17.402344 126.875 18.085938 C 126.417969 18.769531 126.03125 19.492188 125.71875 20.25 C 125.402344 21.011719 125.167969 21.792969 125.003906 22.597656 C 124.84375 23.40625 124.765625 24.21875 124.765625 25.042969 C 124.765625 25.863281 124.847656 26.675781 125.007812 27.484375 C 125.167969 28.289062 125.40625 29.070312 125.722656 29.832031 C 126.035156 30.589844 126.421875 31.3125 126.878906 31.996094 C 127.335938 32.679688 127.855469 33.308594 128.4375 33.890625 C 129.019531 34.472656 129.648438 34.992188 130.332031 35.449219 C 131.015625 35.90625 131.738281 36.289062 132.496094 36.605469 C 133.257812 36.921875 134.039062 37.160156 134.84375 37.320312 C 135.648438 37.480469 136.464844 37.5625 137.285156 37.5625 Z M 137.285156 15.304688 C 137.925781 15.304688 138.558594 15.367188 139.1875 15.492188 C 139.8125 15.613281 140.421875 15.800781 141.011719 16.042969 C 141.605469 16.289062 142.164062 16.589844 142.695312 16.945312 C 143.226562 17.300781 143.71875 17.703125 144.171875 18.15625 C 144.625 18.609375 145.027344 19.101562 145.382812 19.632812 C 145.738281 20.164062 146.039062 20.722656 146.285156 21.316406 C 146.527344 21.90625 146.710938 22.515625 146.835938 23.140625 C 146.960938 23.769531 147.023438 24.402344 147.023438 25.042969 C 147.023438 25.679688 146.960938 26.316406 146.835938 26.941406 C 146.710938 27.570312 146.527344 28.179688 146.285156 28.769531 C 146.039062 29.359375 145.738281 29.921875 145.382812 30.453125 C 145.027344 30.984375 144.625 31.476562 144.171875 31.929688 C 143.71875 32.378906 143.226562 32.785156 142.695312 33.140625 C 142.164062 33.496094 141.605469 33.792969 141.011719 34.039062 C 140.421875 34.285156 139.8125 34.46875 139.1875 34.59375 C 138.558594 34.71875 137.925781 34.78125 137.285156 34.78125 C 136.648438 34.78125 136.011719 34.71875 135.386719 34.59375 C 134.757812 34.46875 134.148438 34.285156 133.558594 34.039062 C 132.96875 33.792969 132.40625 33.496094 131.875 33.140625 C 131.34375 32.785156 130.851562 32.378906 130.398438 31.929688 C 129.949219 31.476562 129.542969 30.984375 129.1875 30.453125 C 128.832031 29.921875 128.535156 29.359375 128.289062 28.769531 C 128.042969 28.179688 127.859375 27.570312 127.734375 26.941406 C 127.609375 26.316406 127.546875 25.679688 127.546875 25.042969 C 127.546875 24.402344 127.613281 23.769531 127.738281 23.144531 C 127.863281 22.515625 128.046875 21.90625 128.292969 21.316406 C 128.535156 20.726562 128.835938 20.164062 129.191406 19.632812 C 129.546875 19.101562 129.953125 18.609375 130.402344 18.160156 C 130.855469 17.707031 131.347656 17.304688 131.878906 16.949219 C 132.410156 16.59375 132.96875 16.292969 133.5625 16.046875 C 134.152344 15.800781 134.761719 15.617188 135.386719 15.492188 C 136.015625 15.367188 136.648438 15.304688 137.285156 15.304688 Z M 137.285156 15.304688 " fill-opacity="1" fill-rule="nonzero"/><path fill="#e4279e" d="M 148.414062 62.605469 L 151.199219 62.605469 L 151.199219 65.386719 L 148.414062 65.386719 Z M 148.414062 62.605469 " fill-opacity="1" fill-rule="nonzero"/><g fill="#e4279e" fill-opacity="1"><g transform="translate(12.650008, 129.482812)"><g><path d="M 22.15625 0.59375 C 22.15625 -7.132812 22.101562 -12.28125 22 -14.84375 C 21.9375 -16.21875 21.835938 -17.195312 21.703125 -17.78125 C 21.566406 -18.363281 21.304688 -18.753906 20.921875 -18.953125 C 20.535156 -19.148438 19.894531 -19.25 19 -19.25 L 12 -19.25 C 13.226562 -12.851562 13.84375 -9.085938 13.84375 -7.953125 C 13.84375 -7.421875 13.757812 -6.1875 13.59375 -4.25 L 13.09375 0 L 1.75 0 L 2.203125 -8.34375 L 7.40625 -8.34375 C 6.769531 -11.144531 5.785156 -14.796875 4.453125 -19.296875 C 4.148438 -19.367188 3.164062 -19.632812 1.5 -20.09375 C 1.726562 -23.164062 2.175781 -26.066406 2.84375 -28.796875 L 6.25 -29.40625 L 7.15625 -28.40625 C 7.445312 -28.03125 7.71875 -27.800781 7.96875 -27.71875 C 8.21875 -27.632812 8.675781 -27.59375 9.34375 -27.59375 L 20.84375 -27.59375 C 22.914062 -27.59375 24.523438 -27.25 25.671875 -26.5625 C 26.828125 -25.882812 27.644531 -24.769531 28.125 -23.21875 C 28.601562 -21.675781 28.84375 -19.519531 28.84375 -16.75 C 28.84375 -10.476562 28.660156 -5.046875 28.296875 -0.453125 L 24.15625 0.59375 Z M 22.15625 0.59375 "/></g></g></g><g fill="#e4279e" fill-opacity="1"><g transform="translate(43.995156, 129.482812)"><g><path d="M 6.75 -14.34375 C 6.75 -15.675781 6.710938 -16.566406 6.640625 -17.015625 C 6.578125 -17.472656 6.425781 -17.816406 6.1875 -18.046875 C 5.957031 -18.285156 5.460938 -18.601562 4.703125 -19 L 0.796875 -20.84375 C 1.367188 -24.007812 2.019531 -26.546875 2.75 -28.453125 L 4.203125 -29.046875 C 6.960938 -27.984375 8.925781 -27.117188 10.09375 -26.453125 C 11.5 -25.710938 12.46875 -24.769531 13 -23.625 C 13.53125 -22.476562 13.796875 -20.835938 13.796875 -18.703125 C 13.796875 -16.171875 13.582031 -10.070312 13.15625 -0.40625 L 8.703125 0.65625 L 6.75 0.65625 Z M 6.75 -14.34375 "/></g></g></g><g fill="#e4279e" fill-opacity="1"><g transform="translate(60.192653, 129.482812)"><g><path d="M 13.453125 -2.796875 C 13.453125 -7.660156 13.535156 -13.144531 13.703125 -19.25 L 4.453125 -19.25 C 3.921875 -19.25 2.738281 -19.53125 0.90625 -20.09375 C 1.101562 -22.863281 1.550781 -25.765625 2.25 -28.796875 L 5.65625 -29.40625 L 6.546875 -28.40625 C 6.847656 -28.03125 7.125 -27.800781 7.375 -27.71875 C 7.625 -27.632812 8.082031 -27.59375 8.75 -27.59375 L 25.5 -27.59375 L 24.203125 -19.25 L 20.15625 -19.25 L 20.65625 -0.40625 L 15.40625 0.59375 L 13.453125 0.59375 Z M 13.453125 -2.796875 "/></g></g></g><g fill="#e4279e" fill-opacity="1"><g transform="translate(86.538576, 129.482812)"><g><path d="M 2 -1.90625 C 2.269531 -3.96875 2.953125 -7.945312 4.046875 -13.84375 C 4.316406 -15.113281 4.519531 -16.179688 4.65625 -17.046875 C 4.75 -17.648438 4.796875 -18.101562 4.796875 -18.40625 C 4.796875 -18.664062 4.726562 -18.867188 4.59375 -19.015625 C 4.46875 -19.171875 4.15625 -19.398438 3.65625 -19.703125 L 1.90625 -20.75 C 2.164062 -23.582031 2.664062 -26.195312 3.40625 -28.59375 L 4.546875 -28.953125 L 6.796875 -28.09375 C 8.097656 -27.59375 8.984375 -27.285156 9.453125 -27.171875 C 9.921875 -27.054688 10.40625 -27 10.90625 -27 C 11.363281 -27 12.5625 -27.132812 14.5 -27.40625 C 14.832031 -27.4375 15.53125 -27.515625 16.59375 -27.640625 C 17.664062 -27.773438 18.484375 -27.84375 19.046875 -27.84375 C 20.910156 -27.84375 22.492188 -27.484375 23.796875 -26.765625 C 25.097656 -26.054688 26.015625 -25.019531 26.546875 -23.65625 C 26.984375 -22.582031 27.265625 -21.296875 27.390625 -19.796875 C 27.523438 -18.296875 27.59375 -16.363281 27.59375 -14 C 27.59375 -11.164062 27.546875 -8.613281 27.453125 -6.34375 L 26.90625 0 L 13.34375 0 L 13.703125 -8.34375 L 21.59375 -8.34375 C 21.59375 -10.050781 21.476562 -12.300781 21.25 -15.09375 C 21.144531 -16.394531 20.96875 -17.363281 20.71875 -18 C 20.46875 -18.632812 20.066406 -19.082031 19.515625 -19.34375 C 18.972656 -19.613281 18.148438 -19.75 17.046875 -19.75 C 15.484375 -19.75 13.550781 -19.648438 11.25 -19.453125 C 11.050781 -17.515625 10.875 -15.671875 10.71875 -13.921875 C 10.570312 -12.171875 10.429688 -10.664062 10.296875 -9.40625 L 9.5 -0.546875 C 7.601562 -0.046875 5.90625 0.25 4.40625 0.34375 L 2.046875 0.34375 Z M 2 -1.90625 "/></g></g></g><g fill="#e4279e" fill-opacity="1"><g transform="translate(116.8339, 129.482812)"><g><path d="M 6.75 -14.34375 C 6.75 -15.675781 6.710938 -16.566406 6.640625 -17.015625 C 6.578125 -17.472656 6.425781 -17.816406 6.1875 -18.046875 C 5.957031 -18.285156 5.460938 -18.601562 4.703125 -19 L 0.796875 -20.84375 C 1.367188 -24.007812 2.019531 -26.546875 2.75 -28.453125 L 4.203125 -29.046875 C 6.960938 -27.984375 8.925781 -27.117188 10.09375 -26.453125 C 11.5 -25.710938 12.46875 -24.769531 13 -23.625 C 13.53125 -22.476562 13.796875 -20.835938 13.796875 -18.703125 C 13.796875 -16.171875 13.582031 -10.070312 13.15625 -0.40625 L 8.703125 0.65625 L 6.75 0.65625 Z M 6.75 -14.34375 "/></g></g></g><g fill="#e4279e" fill-opacity="1"><g transform="translate(133.031397, 129.482812)"><g><path d="M 3.40625 0.453125 C 3.238281 -1.316406 3.15625 -2.882812 3.15625 -4.25 C 3.15625 -5.945312 3.238281 -7.414062 3.40625 -8.65625 C 6.632812 -10.382812 9.296875 -11.941406 11.390625 -13.328125 C 13.492188 -14.710938 14.878906 -15.800781 15.546875 -16.59375 C 15.578125 -17.394531 15.550781 -17.976562 15.46875 -18.34375 C 15.382812 -18.71875 15.21875 -18.96875 14.96875 -19.09375 C 14.71875 -19.226562 14.3125 -19.296875 13.75 -19.296875 C 8.78125 -19.296875 5.878906 -19.347656 5.046875 -19.453125 C 3.710938 -19.585938 2.753906 -20.0625 2.171875 -20.875 C 1.585938 -21.6875 1.226562 -23.046875 1.09375 -24.953125 C 1.03125 -26.148438 1 -27.332031 1 -28.5 C 1 -31.664062 1.082031 -34.25 1.25 -36.25 C 2.21875 -36.613281 3.347656 -36.9375 4.640625 -37.21875 C 5.941406 -37.507812 6.894531 -37.65625 7.5 -37.65625 C 7.632812 -36.851562 7.816406 -35.019531 8.046875 -32.15625 L 8.203125 -30.09375 C 8.265625 -29.363281 8.351562 -28.847656 8.46875 -28.546875 C 8.59375 -28.242188 8.796875 -28.039062 9.078125 -27.9375 C 9.359375 -27.84375 9.847656 -27.78125 10.546875 -27.75 L 12.5 -27.703125 C 13.4375 -27.703125 14.703125 -27.664062 16.296875 -27.59375 C 18.160156 -27.5 19.566406 -26.867188 20.515625 -25.703125 C 21.472656 -24.535156 21.953125 -22.867188 21.953125 -20.703125 C 21.953125 -13.835938 16.285156 -6.785156 4.953125 0.453125 Z M 3.40625 0.453125 "/></g></g></g><g fill="#e4279e" fill-opacity="1"><g transform="translate(156.477765, 129.482812)"><g/></g></g><g fill="#e4279e" fill-opacity="1"><g transform="translate(166.776165, 129.482812)"><g><path d="M 21.5 0.65625 C 21.46875 -0.144531 21.453125 -1.832031 21.453125 -4.40625 C 21.378906 -9.738281 21.296875 -13.300781 21.203125 -15.09375 C 21.128906 -16.226562 20.96875 -17.085938 20.71875 -17.671875 C 20.46875 -18.253906 20.066406 -18.660156 19.515625 -18.890625 C 18.972656 -19.128906 18.1875 -19.25 17.15625 -19.25 L 10.59375 -19.25 L 10.65625 -0.40625 L 5.5 0.5 L 3.59375 0.5 C 3.664062 -3.632812 3.816406 -9.035156 4.046875 -15.703125 L 4.09375 -17.34375 C 4.09375 -18.113281 4.035156 -18.625 3.921875 -18.875 C 3.804688 -19.125 3.53125 -19.445312 3.09375 -19.84375 L 2 -20.84375 C 2.132812 -21.84375 2.347656 -22.882812 2.640625 -23.96875 C 2.941406 -25.050781 3.410156 -26.476562 4.046875 -28.25 L 5.65625 -28.703125 L 7.703125 -27.90625 C 8.035156 -27.769531 8.410156 -27.679688 8.828125 -27.640625 C 9.242188 -27.609375 10.300781 -27.59375 12 -27.59375 L 19 -27.59375 C 21.4375 -27.59375 23.28125 -27.25 24.53125 -26.5625 C 25.78125 -25.882812 26.65625 -24.726562 27.15625 -23.09375 C 27.65625 -21.46875 27.90625 -19.070312 27.90625 -15.90625 C 27.90625 -13.632812 27.851562 -11.015625 27.75 -8.046875 C 27.644531 -5.078125 27.507812 -2.53125 27.34375 -0.40625 L 23.453125 0.65625 Z M 21.5 0.65625 "/></g></g></g><g fill="#e4279e" fill-opacity="1"><g transform="translate(197.371428, 129.482812)"><g><path d="M 6.75 -14.34375 C 6.75 -15.675781 6.710938 -16.566406 6.640625 -17.015625 C 6.578125 -17.472656 6.425781 -17.816406 6.1875 -18.046875 C 5.957031 -18.285156 5.460938 -18.601562 4.703125 -19 L 0.796875 -20.84375 C 1.367188 -24.007812 2.019531 -26.546875 2.75 -28.453125 L 4.203125 -29.046875 C 6.960938 -27.984375 8.925781 -27.117188 10.09375 -26.453125 C 11.5 -25.710938 12.46875 -24.769531 13 -23.625 C 13.53125 -22.476562 13.796875 -20.835938 13.796875 -18.703125 C 13.796875 -16.171875 13.582031 -10.070312 13.15625 -0.40625 L 8.703125 0.65625 L 6.75 0.65625 Z M 6.75 -14.34375 "/></g></g></g><g fill="#e4279e" fill-opacity="1"><g transform="translate(213.768922, 129.482812)"><g><path d="M 22.15625 0.59375 C 22.15625 -7.132812 22.101562 -12.28125 22 -14.84375 C 21.9375 -16.21875 21.835938 -17.195312 21.703125 -17.78125 C 21.566406 -18.363281 21.304688 -18.753906 20.921875 -18.953125 C 20.535156 -19.148438 19.894531 -19.25 19 -19.25 L 12 -19.25 C 13.226562 -12.851562 13.84375 -9.085938 13.84375 -7.953125 C 13.84375 -7.421875 13.757812 -6.1875 13.59375 -4.25 L 13.09375 0 L 1.75 0 L 2.203125 -8.34375 L 7.40625 -8.34375 C 6.769531 -11.144531 5.785156 -14.796875 4.453125 -19.296875 C 4.148438 -19.367188 3.164062 -19.632812 1.5 -20.09375 C 1.726562 -23.164062 2.175781 -26.066406 2.84375 -28.796875 L 6.25 -29.40625 L 7.15625 -28.40625 C 7.445312 -28.03125 7.71875 -27.800781 7.96875 -27.71875 C 8.21875 -27.632812 8.675781 -27.59375 9.34375 -27.59375 L 20.84375 -27.59375 C 22.914062 -27.59375 24.523438 -27.25 25.671875 -26.5625 C 26.828125 -25.882812 27.644531 -24.769531 28.125 -23.21875 C 28.601562 -21.675781 28.84375 -19.519531 28.84375 -16.75 C 28.84375 -10.476562 28.660156 -5.046875 28.296875 -0.453125 L 24.15625 0.59375 Z M 22.15625 0.59375 "/></g></g></g><g fill="#e4279e" fill-opacity="1"><g transform="translate(245.114059, 129.482812)"><g><path d="M 3.203125 -9 L 4.953125 -15.90625 C 5.179688 -16.632812 5.296875 -17.25 5.296875 -17.75 C 5.296875 -18.050781 5.1875 -18.328125 4.96875 -18.578125 C 4.757812 -18.828125 4.320312 -19.164062 3.65625 -19.59375 L 0.5 -21.703125 C 1.300781 -24.003906 2.382812 -26.367188 3.75 -28.796875 L 4.84375 -29.15625 C 5.25 -28.945312 5.550781 -28.78125 5.75 -28.65625 C 6.882812 -28.082031 7.832031 -27.5625 8.59375 -27.09375 C 10.257812 -26.09375 11.425781 -25.132812 12.09375 -24.21875 C 12.757812 -23.300781 13.09375 -22.195312 13.09375 -20.90625 C 13.09375 -19.601562 12.828125 -18.203125 12.296875 -16.703125 C 11.628906 -14.503906 10.796875 -12.171875 9.796875 -9.703125 L 4.59375 -8.453125 Z M 3.203125 -9 "/></g></g></g><g fill="#e4279e" fill-opacity="1"><g transform="translate(259.661788, 129.482812)"><g><path d="M 2.15625 -8.09375 L 18.703125 -8.09375 C 18.734375 -10.46875 18.648438 -13.050781 18.453125 -15.84375 C 18.378906 -16.84375 18.257812 -17.582031 18.09375 -18.0625 C 17.925781 -18.550781 17.644531 -18.910156 17.25 -19.140625 C 16.851562 -19.378906 16.203125 -19.582031 15.296875 -19.75 C 12.703125 -20.1875 10.632812 -20.488281 9.09375 -20.65625 L 9.15625 -19.65625 C 9.1875 -18.820312 9.265625 -18.285156 9.390625 -18.046875 C 9.523438 -17.816406 9.84375 -17.582031 10.34375 -17.34375 L 12.40625 -16.5 C 12.269531 -15.5625 12.054688 -14.457031 11.765625 -13.1875 C 11.484375 -11.925781 11.175781 -10.78125 10.84375 -9.75 C 8.582031 -10.382812 6.914062 -10.941406 5.84375 -11.421875 C 4.78125 -11.910156 4.03125 -12.46875 3.59375 -13.09375 C 3.164062 -13.726562 2.898438 -14.628906 2.796875 -15.796875 C 2.734375 -16.734375 2.816406 -18.21875 3.046875 -20.25 C 3.285156 -22.28125 3.65625 -25 4.15625 -28.40625 L 6.5 -29 C 10.5625 -28.632812 14.226562 -28.1875 17.5 -27.65625 C 19.601562 -27.28125 21.160156 -26.703125 22.171875 -25.921875 C 23.191406 -25.140625 23.898438 -23.941406 24.296875 -22.328125 C 24.703125 -20.710938 24.90625 -18.335938 24.90625 -15.203125 C 24.90625 -12.796875 24.820312 -10.082031 24.65625 -7.0625 C 24.488281 -4.050781 24.300781 -1.695312 24.09375 0 L 1.75 0 Z M 2.15625 -8.09375 "/></g></g></g><g fill="#e4279e" fill-opacity="1"><g transform="translate(63.011201, 162.882691)"><g><path d="M 7.453125 0.734375 C 7.421875 -2.722656 7.394531 -5.109375 7.375 -6.421875 C 7.351562 -7.023438 7.21875 -7.445312 6.96875 -7.6875 C 6.726562 -7.9375 6.269531 -8.125 5.59375 -8.25 L 3.59375 -8.625 C 3.53125 -7.894531 3.5 -7.4375 3.5 -7.25 C 3.5 -7.019531 3.523438 -6.863281 3.578125 -6.78125 C 3.640625 -6.707031 3.769531 -6.628906 3.96875 -6.546875 L 5.078125 -6 C 4.984375 -4.957031 4.773438 -3.914062 4.453125 -2.875 C 3.441406 -3.1875 2.675781 -3.46875 2.15625 -3.71875 C 1.644531 -3.976562 1.28125 -4.28125 1.0625 -4.625 C 0.851562 -4.96875 0.75 -5.414062 0.75 -5.96875 C 0.75 -6.582031 0.863281 -7.476562 1.09375 -8.65625 C 1.332031 -9.832031 1.59375 -10.941406 1.875 -11.984375 L 2.734375 -12.1875 C 3.765625 -12.070312 5.117188 -11.835938 6.796875 -11.484375 C 7.929688 -11.242188 8.738281 -10.882812 9.21875 -10.40625 C 9.695312 -9.9375 9.96875 -9.207031 10.03125 -8.21875 C 10.09375 -7.632812 10.125 -6.265625 10.125 -4.109375 C 10.125 -1.203125 10.085938 1.078125 10.015625 2.734375 L 8.234375 3.09375 L 7.453125 3.09375 Z M 7.453125 0.734375 "/></g></g></g><g fill="#e4279e" fill-opacity="1"><g transform="translate(74.183243, 162.882691)"><g><path d="M 1.421875 0.1875 C 1.359375 -0.550781 1.328125 -1.207031 1.328125 -1.78125 C 1.328125 -2.5 1.359375 -3.117188 1.421875 -3.640625 C 2.785156 -4.359375 3.90625 -5.007812 4.78125 -5.59375 C 5.664062 -6.175781 6.25 -6.632812 6.53125 -6.96875 C 6.539062 -7.300781 6.53125 -7.546875 6.5 -7.703125 C 6.46875 -7.859375 6.394531 -7.960938 6.28125 -8.015625 C 6.175781 -8.078125 6.007812 -8.109375 5.78125 -8.109375 C 3.6875 -8.109375 2.46875 -8.128906 2.125 -8.171875 C 1.5625 -8.222656 1.15625 -8.421875 0.90625 -8.765625 C 0.664062 -9.109375 0.519531 -9.679688 0.46875 -10.484375 C 0.4375 -10.984375 0.421875 -11.476562 0.421875 -11.96875 C 0.421875 -13.300781 0.457031 -14.382812 0.53125 -15.21875 C 0.9375 -15.375 1.410156 -15.507812 1.953125 -15.625 C 2.492188 -15.75 2.894531 -15.8125 3.15625 -15.8125 C 3.207031 -15.476562 3.28125 -14.707031 3.375 -13.5 L 3.4375 -12.640625 C 3.46875 -12.335938 3.507812 -12.117188 3.5625 -11.984375 C 3.613281 -11.859375 3.695312 -11.773438 3.8125 -11.734375 C 3.925781 -11.691406 4.132812 -11.664062 4.4375 -11.65625 L 5.25 -11.640625 C 5.644531 -11.640625 6.175781 -11.625 6.84375 -11.59375 C 7.625 -11.550781 8.210938 -11.285156 8.609375 -10.796875 C 9.015625 -10.304688 9.21875 -9.601562 9.21875 -8.6875 C 9.21875 -5.8125 6.835938 -2.851562 2.078125 0.1875 Z M 1.421875 0.1875 "/></g></g></g><g fill="#e4279e" fill-opacity="1"><g transform="translate(84.13728, 162.882691)"><g><path d="M 8.796875 -11.671875 C 9.523438 -11.390625 10.03125 -11.039062 10.3125 -10.625 C 10.59375 -10.21875 10.734375 -9.644531 10.734375 -8.90625 C 10.734375 -8.21875 10.570312 -7.128906 10.25 -5.640625 C 9.925781 -4.160156 9.601562 -3.035156 9.28125 -2.265625 C 8.582031 -1.640625 7.46875 -0.972656 5.9375 -0.265625 C 4.414062 0.441406 2.816406 1.023438 1.140625 1.484375 L 0.3125 1.484375 L 0.3125 -1.84375 C 1.613281 -2.226562 2.671875 -2.570312 3.484375 -2.875 L 2.140625 -7.40625 C 2.046875 -7.75 1.941406 -7.984375 1.828125 -8.109375 C 1.710938 -8.242188 1.429688 -8.445312 0.984375 -8.71875 L 0.359375 -9.109375 C 0.691406 -10.160156 1.078125 -11.117188 1.515625 -11.984375 L 2.09375 -12.140625 C 2.5 -11.972656 2.816406 -11.828125 3.046875 -11.703125 C 3.671875 -11.390625 4.117188 -11.019531 4.390625 -10.59375 C 4.671875 -10.175781 4.894531 -9.53125 5.0625 -8.65625 C 5.238281 -7.726562 5.523438 -6.101562 5.921875 -3.78125 C 6.703125 -4.113281 7.222656 -4.539062 7.484375 -5.0625 C 7.753906 -5.582031 7.90625 -6.351562 7.9375 -7.375 C 7.9375 -7.71875 7.90625 -7.945312 7.84375 -8.0625 C 7.78125 -8.1875 7.625 -8.3125 7.375 -8.4375 L 6.15625 -9.046875 C 6.570312 -10.285156 6.945312 -11.296875 7.28125 -12.078125 L 7.75 -12.078125 C 8.164062 -11.929688 8.515625 -11.796875 8.796875 -11.671875 Z M 8.796875 -11.671875 "/></g></g></g><g fill="#e4279e" fill-opacity="1"><g transform="translate(95.64532, 162.882691)"><g><path d="M 0.84375 -0.796875 C 0.957031 -1.660156 1.242188 -3.332031 1.703125 -5.8125 C 1.816406 -6.34375 1.898438 -6.789062 1.953125 -7.15625 C 1.992188 -7.40625 2.015625 -7.597656 2.015625 -7.734375 C 2.015625 -7.835938 1.984375 -7.921875 1.921875 -7.984375 C 1.867188 -8.046875 1.738281 -8.144531 1.53125 -8.28125 L 0.796875 -8.71875 C 0.910156 -9.90625 1.117188 -11.003906 1.421875 -12.015625 L 1.90625 -12.15625 L 2.859375 -11.796875 C 3.398438 -11.585938 3.769531 -11.457031 3.96875 -11.40625 C 4.164062 -11.363281 4.367188 -11.34375 4.578125 -11.34375 C 4.773438 -11.34375 5.28125 -11.398438 6.09375 -11.515625 C 6.226562 -11.523438 6.519531 -11.554688 6.96875 -11.609375 C 7.414062 -11.671875 7.757812 -11.703125 8 -11.703125 C 8.78125 -11.703125 9.441406 -11.550781 9.984375 -11.25 C 10.535156 -10.945312 10.925781 -10.507812 11.15625 -9.9375 C 11.332031 -9.488281 11.445312 -8.945312 11.5 -8.3125 C 11.5625 -7.6875 11.59375 -6.875 11.59375 -5.875 C 11.59375 -4.6875 11.570312 -3.617188 11.53125 -2.671875 L 11.296875 0 L 5.609375 0 L 5.75 -3.5 L 9.078125 -3.5 C 9.078125 -4.21875 9.023438 -5.164062 8.921875 -6.34375 C 8.878906 -6.882812 8.804688 -7.285156 8.703125 -7.546875 C 8.597656 -7.816406 8.429688 -8.007812 8.203125 -8.125 C 7.972656 -8.238281 7.625 -8.296875 7.15625 -8.296875 C 6.5 -8.296875 5.6875 -8.253906 4.71875 -8.171875 C 4.632812 -7.359375 4.5625 -6.582031 4.5 -5.84375 C 4.4375 -5.113281 4.378906 -4.484375 4.328125 -3.953125 L 3.984375 -0.234375 C 3.191406 -0.0234375 2.476562 0.0976562 1.84375 0.140625 L 0.859375 0.140625 Z M 0.84375 -0.796875 "/></g></g></g><g fill="#e4279e" fill-opacity="1"><g transform="translate(108.266367, 162.882691)"><g><path d="M 9.015625 0.25 C 9.015625 -0.269531 9.003906 -0.695312 8.984375 -1.03125 C 8.984375 -3.34375 8.953125 -5.109375 8.890625 -6.328125 C 8.859375 -6.796875 8.789062 -7.15625 8.6875 -7.40625 C 8.582031 -7.664062 8.414062 -7.84375 8.1875 -7.9375 C 7.96875 -8.03125 7.640625 -8.078125 7.203125 -8.078125 L 2.4375 -8.078125 C 2.207031 -8.078125 1.707031 -8.195312 0.9375 -8.4375 C 1.039062 -9.726562 1.234375 -10.945312 1.515625 -12.09375 L 2.9375 -12.34375 L 3.3125 -11.921875 C 3.4375 -11.773438 3.550781 -11.679688 3.65625 -11.640625 C 3.769531 -11.609375 3.960938 -11.59375 4.234375 -11.59375 L 8.015625 -11.59375 C 9.046875 -11.59375 9.820312 -11.445312 10.34375 -11.15625 C 10.863281 -10.875 11.226562 -10.382812 11.4375 -9.6875 C 11.65625 -9 11.765625 -7.988281 11.765625 -6.65625 C 11.765625 -5.71875 11.742188 -4.625 11.703125 -3.375 C 11.660156 -2.132812 11.601562 -1.066406 11.53125 -0.171875 L 9.890625 0.25 Z M 1.390625 -5.734375 L 3.53125 -6.125 L 4.390625 -6.15625 L 4.375 -0.171875 L 2.15625 0.25 L 1.28125 0.25 Z M 1.390625 -5.734375 "/></g></g></g><g fill="#e4279e" fill-opacity="1"><g transform="translate(121.160425, 162.882691)"><g/></g></g><g fill="#e4279e" fill-opacity="1"><g transform="translate(125.48644, 162.882691)"><g><path d="M 10.640625 -9.109375 C 10.640625 -8.660156 10.535156 -8.171875 10.328125 -7.640625 C 9.992188 -6.734375 9.484375 -5.550781 8.796875 -4.09375 L 9.8125 -2.75 C 9.707031 -1.757812 9.585938 -0.84375 9.453125 0 L 0.75 0 L 1.03125 -3.5 L 6.109375 -3.46875 C 4.328125 -5.09375 2.90625 -6.460938 1.84375 -7.578125 C 1.4375 -8.023438 0.976562 -8.820312 0.46875 -9.96875 C 0.875 -10.8125 1.3125 -11.503906 1.78125 -12.046875 L 2.640625 -12.1875 L 5.96875 -7.875 L 7.203125 -6.15625 C 7.554688 -7.351562 7.734375 -8.007812 7.734375 -8.125 C 7.734375 -8.238281 7.703125 -8.328125 7.640625 -8.390625 C 7.585938 -8.460938 7.476562 -8.554688 7.3125 -8.671875 L 5.984375 -9.578125 C 6.515625 -10.765625 7 -11.632812 7.4375 -12.1875 L 7.921875 -12.1875 L 9.03125 -11.515625 C 9.59375 -11.171875 10 -10.804688 10.25 -10.421875 C 10.507812 -10.035156 10.640625 -9.597656 10.640625 -9.109375 Z M 10.640625 -9.109375 "/></g></g></g><g fill="#e4279e" fill-opacity="1"><g transform="translate(137.078481, 162.882691)"><g><path d="M 1.421875 0.1875 C 1.359375 -0.550781 1.328125 -1.207031 1.328125 -1.78125 C 1.328125 -2.5 1.359375 -3.117188 1.421875 -3.640625 C 2.785156 -4.359375 3.90625 -5.007812 4.78125 -5.59375 C 5.664062 -6.175781 6.25 -6.632812 6.53125 -6.96875 C 6.539062 -7.300781 6.53125 -7.546875 6.5 -7.703125 C 6.46875 -7.859375 6.394531 -7.960938 6.28125 -8.015625 C 6.175781 -8.078125 6.007812 -8.109375 5.78125 -8.109375 C 3.6875 -8.109375 2.46875 -8.128906 2.125 -8.171875 C 1.5625 -8.222656 1.15625 -8.421875 0.90625 -8.765625 C 0.664062 -9.109375 0.519531 -9.679688 0.46875 -10.484375 C 0.4375 -10.984375 0.421875 -11.476562 0.421875 -11.96875 C 0.421875 -13.300781 0.457031 -14.382812 0.53125 -15.21875 C 0.9375 -15.375 1.410156 -15.507812 1.953125 -15.625 C 2.492188 -15.75 2.894531 -15.8125 3.15625 -15.8125 C 3.207031 -15.476562 3.28125 -14.707031 3.375 -13.5 L 3.4375 -12.640625 C 3.46875 -12.335938 3.507812 -12.117188 3.5625 -11.984375 C 3.613281 -11.859375 3.695312 -11.773438 3.8125 -11.734375 C 3.925781 -11.691406 4.132812 -11.664062 4.4375 -11.65625 L 5.25 -11.640625 C 5.644531 -11.640625 6.175781 -11.625 6.84375 -11.59375 C 7.625 -11.550781 8.210938 -11.285156 8.609375 -10.796875 C 9.015625 -10.304688 9.21875 -9.601562 9.21875 -8.6875 C 9.21875 -5.8125 6.835938 -2.851562 2.078125 0.1875 Z M 1.421875 0.1875 "/></g></g></g><g fill="#e4279e" fill-opacity="1"><g transform="translate(146.927517, 162.882691)"><g><path d="M 9.015625 0.25 C 9.015625 -0.269531 9.003906 -0.695312 8.984375 -1.03125 C 8.984375 -3.34375 8.953125 -5.109375 8.890625 -6.328125 C 8.859375 -6.796875 8.789062 -7.15625 8.6875 -7.40625 C 8.582031 -7.664062 8.414062 -7.84375 8.1875 -7.9375 C 7.96875 -8.03125 7.640625 -8.078125 7.203125 -8.078125 L 2.4375 -8.078125 C 2.207031 -8.078125 1.707031 -8.195312 0.9375 -8.4375 C 1.039062 -9.726562 1.234375 -10.945312 1.515625 -12.09375 L 2.9375 -12.34375 L 3.3125 -11.921875 C 3.4375 -11.773438 3.550781 -11.679688 3.65625 -11.640625 C 3.769531 -11.609375 3.960938 -11.59375 4.234375 -11.59375 L 8.015625 -11.59375 C 9.046875 -11.59375 9.820312 -11.445312 10.34375 -11.15625 C 10.863281 -10.875 11.226562 -10.382812 11.4375 -9.6875 C 11.65625 -9 11.765625 -7.988281 11.765625 -6.65625 C 11.765625 -5.71875 11.742188 -4.625 11.703125 -3.375 C 11.660156 -2.132812 11.601562 -1.066406 11.53125 -0.171875 L 9.890625 0.25 Z M 1.390625 -5.734375 L 3.53125 -6.125 L 4.390625 -6.15625 L 4.375 -0.171875 L 2.15625 0.25 L 1.28125 0.25 Z M 1.390625 -5.734375 "/></g></g></g><g fill="#e4279e" fill-opacity="1"><g transform="translate(159.821575, 162.882691)"><g><path d="M 0.78125 -3.5 L 6.46875 -3.5 L 6.46875 -4.984375 C 6.46875 -5.359375 6.460938 -5.710938 6.453125 -6.046875 C 6.421875 -6.546875 6.375 -6.929688 6.3125 -7.203125 C 6.25 -7.472656 6.113281 -7.6875 5.90625 -7.84375 C 5.707031 -8 5.390625 -8.078125 4.953125 -8.078125 L 2.421875 -8.078125 C 2.191406 -8.078125 1.691406 -8.195312 0.921875 -8.4375 C 1.023438 -9.726562 1.210938 -10.945312 1.484375 -12.09375 L 2.921875 -12.34375 L 3.296875 -11.921875 C 3.421875 -11.773438 3.535156 -11.679688 3.640625 -11.640625 C 3.742188 -11.609375 3.9375 -11.59375 4.21875 -11.59375 L 5.65625 -11.59375 C 6.570312 -11.59375 7.28125 -11.457031 7.78125 -11.1875 C 8.28125 -10.925781 8.632812 -10.488281 8.84375 -9.875 C 9.050781 -9.257812 9.15625 -8.375 9.15625 -7.21875 C 9.15625 -6.34375 9.097656 -5.101562 8.984375 -3.5 L 10.453125 -3.5 L 10.265625 0 L 0.59375 0 Z M 0.78125 -3.5 "/></g></g></g><g fill="#e4279e" fill-opacity="1"><g transform="translate(170.657619, 162.882691)"><g/></g></g><g fill="#e4279e" fill-opacity="1"><g transform="translate(174.983634, 162.882691)"><g><path d="M 6.515625 0.25 C 6.515625 -0.414062 6.503906 -0.988281 6.484375 -1.46875 C 6.484375 -3.8125 6.460938 -5.429688 6.421875 -6.328125 C 6.410156 -7.003906 6.300781 -7.460938 6.09375 -7.703125 C 5.882812 -7.953125 5.515625 -8.078125 4.984375 -8.078125 L 2.015625 -8.078125 C 1.796875 -8.078125 1.300781 -8.195312 0.53125 -8.4375 C 0.625 -9.726562 0.8125 -10.945312 1.09375 -12.09375 L 2.515625 -12.34375 L 2.890625 -11.921875 C 3.023438 -11.773438 3.144531 -11.679688 3.25 -11.640625 C 3.351562 -11.609375 3.546875 -11.59375 3.828125 -11.59375 L 5.625 -11.59375 C 6.59375 -11.59375 7.335938 -11.460938 7.859375 -11.203125 C 8.390625 -10.941406 8.757812 -10.492188 8.96875 -9.859375 C 9.1875 -9.234375 9.304688 -8.34375 9.328125 -7.1875 C 9.328125 -6.1875 9.296875 -5 9.234375 -3.625 C 9.179688 -2.257812 9.113281 -1.109375 9.03125 -0.171875 L 7.40625 0.25 Z M 6.515625 0.25 "/></g></g></g><g fill="#e4279e" fill-opacity="1"><g transform="translate(185.35768, 162.882691)"><g><path d="M 9.296875 0.25 C 9.296875 -3 9.273438 -5.160156 9.234375 -6.234375 C 9.210938 -6.804688 9.171875 -7.210938 9.109375 -7.453125 C 9.054688 -7.703125 8.945312 -7.867188 8.78125 -7.953125 C 8.625 -8.035156 8.359375 -8.078125 7.984375 -8.078125 L 5.046875 -8.078125 C 5.554688 -5.390625 5.8125 -3.8125 5.8125 -3.34375 C 5.8125 -3.113281 5.78125 -2.59375 5.71875 -1.78125 L 5.5 0 L 0.734375 0 L 0.921875 -3.5 L 3.109375 -3.5 C 2.835938 -4.675781 2.425781 -6.210938 1.875 -8.109375 C 1.75 -8.128906 1.332031 -8.238281 0.625 -8.4375 C 0.726562 -9.726562 0.921875 -10.945312 1.203125 -12.09375 L 2.625 -12.34375 L 3 -11.921875 C 3.125 -11.773438 3.238281 -11.679688 3.34375 -11.640625 C 3.445312 -11.609375 3.640625 -11.59375 3.921875 -11.59375 L 8.75 -11.59375 C 9.625 -11.59375 10.300781 -11.445312 10.78125 -11.15625 C 11.269531 -10.875 11.613281 -10.40625 11.8125 -9.75 C 12.007812 -9.101562 12.109375 -8.195312 12.109375 -7.03125 C 12.109375 -4.40625 12.035156 -2.125 11.890625 -0.1875 L 10.140625 0.25 Z M 9.296875 0.25 "/></g></g></g><g fill="#e4279e" fill-opacity="1"><g transform="translate(198.524736, 162.882691)"><g><path d="M 4.078125 -6.0625 L 4.21875 -0.203125 L 2 0.140625 L 1.03125 0.140625 L 1.03125 -1.046875 C 1.144531 -3.234375 1.316406 -5.179688 1.546875 -6.890625 C 1.609375 -7.234375 1.640625 -7.519531 1.640625 -7.75 C 1.640625 -7.925781 1.609375 -8.078125 1.546875 -8.203125 C 1.492188 -8.335938 1.390625 -8.507812 1.234375 -8.71875 L 0.796875 -9.328125 C 1.273438 -10.566406 1.679688 -11.453125 2.015625 -11.984375 L 2.875 -12.109375 L 4.515625 -10.390625 L 8.71875 -6.03125 C 9 -7.175781 9.140625 -7.835938 9.140625 -8.015625 C 9.140625 -8.128906 9.109375 -8.222656 9.046875 -8.296875 C 8.992188 -8.367188 8.882812 -8.457031 8.71875 -8.5625 L 7.34375 -9.46875 C 7.363281 -9.625 7.554688 -10.035156 7.921875 -10.703125 C 8.285156 -11.378906 8.5625 -11.847656 8.75 -12.109375 L 9.359375 -12.109375 C 9.492188 -12.054688 9.835938 -11.867188 10.390625 -11.546875 C 10.992188 -11.210938 11.425781 -10.84375 11.6875 -10.4375 C 11.957031 -10.039062 12.09375 -9.585938 12.09375 -9.078125 C 12.09375 -8.304688 11.554688 -6.671875 10.484375 -4.171875 L 11.890625 -2.75 C 11.535156 -1.695312 11.140625 -0.703125 10.703125 0.234375 L 9.90625 0.234375 Z M 4.078125 -6.0625 "/></g></g></g><g fill="#e4279e" fill-opacity="1"><g transform="translate(211.418793, 162.882691)"><g/></g></g><g fill="#e4279e" fill-opacity="1"><g transform="translate(215.744809, 162.882691)"><g><path d="M 9.296875 0.25 C 9.296875 -3 9.273438 -5.160156 9.234375 -6.234375 C 9.210938 -6.804688 9.171875 -7.210938 9.109375 -7.453125 C 9.054688 -7.703125 8.945312 -7.867188 8.78125 -7.953125 C 8.625 -8.035156 8.359375 -8.078125 7.984375 -8.078125 L 5.046875 -8.078125 C 5.554688 -5.390625 5.8125 -3.8125 5.8125 -3.34375 C 5.8125 -3.113281 5.78125 -2.59375 5.71875 -1.78125 L 5.5 0 L 0.734375 0 L 0.921875 -3.5 L 3.109375 -3.5 C 2.835938 -4.675781 2.425781 -6.210938 1.875 -8.109375 C 1.75 -8.128906 1.332031 -8.238281 0.625 -8.4375 C 0.726562 -9.726562 0.921875 -10.945312 1.203125 -12.09375 L 2.625 -12.34375 L 3 -11.921875 C 3.125 -11.773438 3.238281 -11.679688 3.34375 -11.640625 C 3.445312 -11.609375 3.640625 -11.59375 3.921875 -11.59375 L 8.75 -11.59375 C 9.625 -11.59375 10.300781 -11.445312 10.78125 -11.15625 C 11.269531 -10.875 11.613281 -10.40625 11.8125 -9.75 C 12.007812 -9.101562 12.109375 -8.195312 12.109375 -7.03125 C 12.109375 -4.40625 12.035156 -2.125 11.890625 -0.1875 L 10.140625 0.25 Z M 9.296875 0.25 "/></g></g></g><g fill="#e4279e" fill-opacity="1"><g transform="translate(228.911865, 162.882691)"><g><path d="M 4.078125 -6.0625 L 4.21875 -0.203125 L 2 0.140625 L 1.03125 0.140625 L 1.03125 -1.046875 C 1.144531 -3.234375 1.316406 -5.179688 1.546875 -6.890625 C 1.609375 -7.234375 1.640625 -7.519531 1.640625 -7.75 C 1.640625 -7.925781 1.609375 -8.078125 1.546875 -8.203125 C 1.492188 -8.335938 1.390625 -8.507812 1.234375 -8.71875 L 0.796875 -9.328125 C 1.273438 -10.566406 1.679688 -11.453125 2.015625 -11.984375 L 2.875 -12.109375 L 4.515625 -10.390625 L 8.71875 -6.03125 C 9 -7.175781 9.140625 -7.835938 9.140625 -8.015625 C 9.140625 -8.128906 9.109375 -8.222656 9.046875 -8.296875 C 8.992188 -8.367188 8.882812 -8.457031 8.71875 -8.5625 L 7.34375 -9.46875 C 7.363281 -9.625 7.554688 -10.035156 7.921875 -10.703125 C 8.285156 -11.378906 8.5625 -11.847656 8.75 -12.109375 L 9.359375 -12.109375 C 9.492188 -12.054688 9.835938 -11.867188 10.390625 -11.546875 C 10.992188 -11.210938 11.425781 -10.84375 11.6875 -10.4375 C 11.957031 -10.039062 12.09375 -9.585938 12.09375 -9.078125 C 12.09375 -8.304688 11.554688 -6.671875 10.484375 -4.171875 L 11.890625 -2.75 C 11.535156 -1.695312 11.140625 -0.703125 10.703125 0.234375 L 9.90625 0.234375 Z M 4.078125 -6.0625 "/></g></g></g><g fill="#e4279e" fill-opacity="1"><g transform="translate(241.910922, 162.882691)"><g><path d="M 2.828125 -6.03125 C 2.828125 -6.582031 2.8125 -6.953125 2.78125 -7.140625 C 2.757812 -7.335938 2.695312 -7.484375 2.59375 -7.578125 C 2.5 -7.679688 2.289062 -7.816406 1.96875 -7.984375 L 0.34375 -8.75 C 0.570312 -10.082031 0.84375 -11.148438 1.15625 -11.953125 L 1.765625 -12.203125 C 2.921875 -11.753906 3.742188 -11.390625 4.234375 -11.109375 C 4.828125 -10.796875 5.234375 -10.398438 5.453125 -9.921875 C 5.679688 -9.441406 5.796875 -8.753906 5.796875 -7.859375 C 5.796875 -6.796875 5.703125 -4.234375 5.515625 -0.171875 L 3.65625 0.265625 L 2.828125 0.265625 Z M 2.828125 -6.03125 "/></g></g></g></svg>