<svg width="833" height="621" viewBox="0 0 833 621" fill="none" xmlns="http://www.w3.org/2000/svg">
<g clip-path="url(#clip0_518_1690)">
<mask id="mask0_518_1690" style="mask-type:luminance" maskUnits="userSpaceOnUse" x="222" y="153" width="377" height="246">
<path d="M598.853 153.866H222.294V398.055H598.853V153.866Z" fill="white"/>
</mask>
<g mask="url(#mask0_518_1690)">
<mask id="mask1_518_1690" style="mask-type:luminance" maskUnits="userSpaceOnUse" x="222" y="153" width="377" height="246">
<path d="M598.853 153.866H222.294V398.055H598.853V153.866Z" fill="white"/>
</mask>
<g mask="url(#mask1_518_1690)">
<path d="M359.561 309.441C347.879 328.477 337.376 344.033 328.035 356.094L355.408 380.288L339.638 394.212C320.813 376.807 295.331 354.808 263.224 328.231C260.057 343.788 257.746 354.519 256.308 360.442C253.577 372.632 250.701 383.306 247.679 392.478H222.294C226.205 382.382 230.89 367.23 236.384 347.039C240.004 333.923 242.896 323.017 245.061 314.308C239.131 309.325 234.284 305.671 230.535 303.345L246.823 289.941C271.788 308.401 293.23 325.631 311.182 341.651L329.36 314.668L313.38 304.227L327.179 289.782L359.577 309.455L359.561 309.441Z" fill="#E5249E"/>
<path d="M475.822 310.307C475.822 313.441 474.723 318.67 472.542 325.979C464.673 352.44 445.622 374.957 415.34 393.533L402.463 378.727C424.938 364.804 440.338 347.731 448.66 327.538C449.677 325.098 450.194 322.613 450.194 320.056C450.194 317.731 449.418 315.623 447.883 313.702C446.349 311.78 444.184 310.827 441.403 310.827H389.794C388 310.827 386.901 310.495 386.481 309.816C386.287 309.512 386.287 309.209 386.287 309.094C386.287 295.79 386.433 292.858 386.433 292.858C386.627 289.074 387.079 280.653 381.327 276.017C379.824 274.818 378.273 274.154 377.19 273.778C380.713 272.406 384.251 271.049 387.774 269.676C390.279 270.168 393.381 270.601 396.935 270.658C401.104 270.745 404.691 270.326 407.488 269.806C409.814 271.222 412.156 272.637 414.484 274.053C413.272 274.457 412.352 274.991 411.641 275.541C405.322 280.394 409.023 291.414 409.233 292.021H460.099C463.235 292.021 465.965 292.642 468.277 293.884C470.344 294.996 471.556 296.297 472.089 296.903C476.566 301.814 476 308.559 475.806 310.307H475.822Z" fill="#E5249E"/>
<path d="M598.853 374.728C598.853 384.939 593.004 390.501 581.289 391.44L497.49 398.055L495.746 379.595L566.244 374.02C572.223 373.558 575.228 371.348 575.228 367.405V325.791C575.228 320.448 573.031 317.198 568.636 316.043L545.982 309.774H544.22C540.117 309.774 537.029 311.233 534.978 314.122L527.933 324.218C526.914 325.734 526.399 327.236 526.399 328.739C526.399 330.833 527.416 332.393 529.468 333.433L542.637 340.395L530.776 355.894L502.726 340.958C500.108 339.571 498.816 336.842 498.816 332.797C498.816 329.909 499.624 327.353 501.223 325.156L526.237 289.899C528.417 286.894 531.02 285.378 534.073 285.378C534.946 285.378 553.335 290.477 589.238 300.674C592.163 301.483 594.49 303.259 596.251 305.975C597.997 308.705 598.869 311.449 598.869 314.222V374.699L598.853 374.728Z" fill="#E5249E"/>
<path fill-rule="evenodd" clip-rule="evenodd" d="M441.211 152.82L443.01 163.456C444.517 172.354 446.018 181.248 447.52 190.141L447.539 190.252C448.802 197.733 450.065 205.214 451.331 212.697L512.195 186.054L504.034 196.305C498.652 203.065 493.331 209.754 488.01 216.443C484.039 221.434 480.068 226.425 476.071 231.447L547.402 232.083L534.008 238.003C525.297 241.853 516.583 245.699 507.869 249.544L507.84 249.558C500.436 252.825 493.032 256.093 485.631 259.363C486.057 259.858 486.483 260.354 486.908 260.85C491.148 265.788 495.394 270.735 499.629 275.68L507.171 284.488L495.548 280.612C483.608 276.631 465.252 272.018 442.531 272.089C427.812 272.131 415.25 274.134 405.589 276.377L403.795 270.198C413.912 267.849 427.076 265.749 442.507 265.705C460.095 265.651 475.182 268.272 486.901 271.325C485.015 269.128 483.13 266.932 481.244 264.735C479.936 263.212 478.629 261.689 477.322 260.167L474.676 257.084L478.572 255.362C487.282 251.511 495.997 247.665 504.71 243.82L504.767 243.794C508.992 241.93 513.217 240.066 517.442 238.2L462.324 237.709L466.29 232.727C471.556 226.112 476.875 219.426 482.194 212.74C484.819 209.441 487.444 206.141 490.062 202.85L445.729 222.257L445.001 217.954C443.493 209.043 441.988 200.135 440.484 191.228L440.466 191.12C439.561 185.763 438.657 180.406 437.752 175.048C429.813 190.662 421.872 206.276 413.918 221.891L411.474 226.69L407.854 222.528C401.732 215.492 395.616 208.46 389.499 201.428C384.368 195.531 379.239 189.633 374.107 183.734L372.6 228.061L316.979 206.424L339.622 238.808L283.294 238.33C286.351 239.594 289.409 240.859 292.467 242.124L292.486 242.132C300.555 245.47 308.625 248.807 316.691 252.149L322.138 254.406L300.902 268.513C311.545 266.729 323.842 265.384 337.498 265.142C358.076 264.775 375.615 267.021 389.012 269.604L387.507 275.845C374.532 273.344 357.556 271.17 337.641 271.525C316.835 271.895 299.286 274.907 286.107 278.061L268.049 282.384L308.241 255.685C310.058 256.437 311.874 257.189 313.69 257.941L308.241 255.685C301.986 253.096 295.728 250.507 289.47 247.919L289.455 247.913C281.385 244.574 273.314 241.236 265.246 237.893L250.211 231.665L326.662 232.313L298.729 192.362L365.785 218.448L367.573 165.828L373.658 172.821C380.827 181.062 387.992 189.3 395.158 197.537C400.061 203.173 404.963 208.808 409.867 214.445C409.052 216.045 408.237 217.645 407.422 219.244L409.867 214.445L413.488 218.608C412.281 217.22 411.074 215.833 409.867 214.445C418.644 197.209 427.406 179.972 436.17 162.734L441.211 152.82Z" fill="#E5249E"/>
<path fill-rule="evenodd" clip-rule="evenodd" d="M436.08 186.929L436.686 190.897C438.528 202.968 440.353 215.052 442.178 227.136C447.608 224.845 453.044 222.558 458.48 220.269C462.702 218.492 466.924 216.715 471.146 214.935L475.291 213.188L472.849 216.656C469.852 220.913 466.858 225.174 463.864 229.436L463.842 229.467C461.264 233.137 458.684 236.808 456.102 240.476L501.563 241.082L496.544 243.28C492.799 244.92 489.052 246.562 485.303 248.205C479.123 250.912 472.941 253.621 466.758 256.326L476.766 266.05L473.606 265.978C442.289 265.257 426.611 267.685 418.176 270.329C418.11 270.35 418.041 270.372 417.966 270.396C416.197 270.958 411.863 272.335 405.918 272.975C395.208 274.129 386.106 272.159 382.038 271.258H382.035C377.66 270.279 374.392 269.173 373.071 268.726C372.883 268.663 372.735 268.612 372.628 268.578L372.619 268.575C364.508 265.882 348.992 263.292 316.642 264.316L312.107 264.459L328.993 253.927C326.608 252.94 324.223 251.953 321.838 250.967C316.178 248.626 310.522 246.286 304.866 243.941L299.242 241.609L305.441 241.658C312.64 241.716 319.84 241.777 327.038 241.838H327.041C333.438 241.893 339.834 241.947 346.23 242C343.7 238.27 341.17 234.542 338.64 230.814L338.613 230.776C335.67 226.441 332.727 222.105 329.783 217.766L327.672 214.654L331.437 216.038C339.394 218.963 347.338 221.881 355.282 224.8C362.484 227.445 369.685 230.091 376.897 232.742C377.08 227.361 377.267 221.955 377.455 216.549C377.66 210.633 377.865 204.718 378.065 198.837L378.173 195.674L380.433 198.109C386.263 204.389 392.099 210.673 397.934 216.958C402.617 222.001 407.3 227.045 411.98 232.086C419.369 218.247 426.761 204.395 434.152 190.544L436.08 186.929ZM434.638 195.19C427.59 208.4 420.542 221.609 413.494 234.806L412.593 236.494L411.257 235.054C406.145 229.549 401.03 224.04 395.915 218.531C390.82 213.044 385.725 207.556 380.633 202.072C380.467 206.933 380.299 211.779 380.131 216.625C379.924 222.589 379.717 228.552 379.513 234.543L379.454 236.271L377.667 235.613C369.87 232.747 362.07 229.882 354.27 227.016C347.573 224.556 340.877 222.096 334.183 219.636C336.425 222.94 338.668 226.243 340.91 229.546L340.93 229.575C343.875 233.914 346.82 238.253 349.765 242.596L351.011 244.432L348.609 244.413C341.414 244.356 334.22 244.294 327.026 244.232H327.012C321.882 244.188 316.753 244.145 311.624 244.103C315.402 245.667 319.18 247.23 322.962 248.794C326.05 250.072 329.141 251.35 332.233 252.63L334.348 253.506L321.049 261.801C350.512 261.141 365.355 263.611 373.546 266.329C373.548 266.33 373.549 266.33 373.551 266.331L373.086 267.453L373.542 266.327C373.543 266.328 373.544 266.328 373.546 266.329C373.663 266.367 373.821 266.42 374.015 266.486C375.354 266.939 378.475 267.994 382.682 268.934L382.36 270.096L382.685 268.935C386.697 269.824 395.4 271.696 405.598 270.598C411.246 269.99 415.354 268.685 417.078 268.137C417.152 268.115 417.22 268.093 417.286 268.072L417.288 268.071C425.874 265.379 441.151 263.025 470.526 263.521L462.358 255.585L463.97 254.88C470.692 251.941 477.412 248.996 484.13 246.053C486.203 245.144 488.277 244.236 490.35 243.327L451.299 242.807L452.568 241.004C455.566 236.746 458.56 232.485 461.554 228.224L461.575 228.193C463.765 225.077 465.954 221.961 468.145 218.846C465.303 220.043 462.461 221.239 459.621 222.435C453.633 224.955 447.648 227.474 441.668 229.999L440.014 230.697L439.77 229.077C438.063 217.777 436.358 206.478 434.638 195.19Z" fill="#E5249E"/>
<path fill-rule="evenodd" clip-rule="evenodd" d="M283.102 205.656L283.566 206.034C285.794 207.853 288.027 209.668 290.261 211.485L290.264 211.487C292.497 213.302 294.731 215.119 296.961 216.939L301.433 220.589L295.657 218.965C290.484 217.51 285.279 216.044 280.074 214.578C274.926 213.129 269.78 211.679 264.665 210.241L258.974 208.641L264.884 207.913C267.816 207.552 270.748 207.187 273.681 206.823C276.613 206.458 279.547 206.093 282.481 205.732L283.102 205.656ZM271.147 209.555C274.396 210.469 277.638 211.382 280.88 212.295C284.141 213.214 287.402 214.132 290.669 215.052C289.933 214.453 289.197 213.855 288.461 213.256L288.459 213.255C286.381 211.565 284.301 209.874 282.224 208.18C279.5 208.516 276.775 208.855 274.049 209.194L274.048 209.194C273.081 209.314 272.114 209.435 271.147 209.555Z" fill="#E5249E"/>
<path fill-rule="evenodd" clip-rule="evenodd" d="M501.453 161.869L497.787 164.822C493.247 168.48 488.702 172.141 484.158 175.801C479.711 179.384 475.264 182.966 470.82 186.546L464.008 192.033L468.782 185.033C470.964 181.834 473.148 178.634 475.334 175.435L475.352 175.408C477.531 172.217 479.71 169.027 481.886 165.837L482.19 165.391L483.061 165.233C487.582 164.414 492.103 163.594 496.621 162.761L501.453 161.869ZM483.867 167.53C481.792 170.572 479.714 173.615 477.636 176.656L477.619 176.683C477.029 177.546 476.439 178.409 475.849 179.272C478.018 177.526 480.187 175.779 482.356 174.032C485.683 171.351 489.011 168.67 492.338 165.99C489.513 166.506 486.689 167.018 483.867 167.53Z" fill="#E5249E"/>
<path fill-rule="evenodd" clip-rule="evenodd" d="M531.489 259.701L526.838 262.644C523.69 264.635 520.542 266.627 517.395 268.618L516.63 269.102L515.86 268.624C512.322 266.43 508.769 264.235 505.23 262.055L501.731 259.897L505.981 259.872C509.583 259.85 513.121 259.825 516.659 259.799C520.161 259.774 523.662 259.75 527.228 259.728L531.489 259.701ZM510.244 262.238C512.367 263.549 514.493 264.864 516.615 266.18C518.737 264.836 520.861 263.493 522.984 262.149C520.895 262.164 518.79 262.178 516.686 262.193C514.533 262.208 512.38 262.224 510.244 262.238Z" fill="#E5249E"/>
</g>
</g>
</g>
<path d="M214.262 427.728H225.398C228.534 427.728 230.891 428.368 232.47 429.648C234.07 430.907 234.87 432.965 234.87 435.824V445.136C234.87 445.371 234.784 445.573 234.614 445.744C234.443 445.915 234.24 446 234.006 446H228.597C228.363 446 228.16 445.925 227.99 445.776C227.819 445.605 227.734 445.403 227.734 445.168V435.728C227.734 434.128 226.944 433.328 225.366 433.328H223.126V445.136C223.126 445.371 223.04 445.573 222.87 445.744C222.699 445.915 222.496 446 222.262 446H214.262C214.027 446 213.824 445.915 213.654 445.744C213.483 445.573 213.398 445.371 213.398 445.136V441.584C213.398 441.349 213.483 441.147 213.654 440.976C213.824 440.805 214.027 440.72 214.262 440.72H215.99V433.328H214.262C214.027 433.328 213.824 433.243 213.654 433.072C213.483 432.901 213.398 432.699 213.398 432.464V428.592C213.398 428.357 213.483 428.155 213.654 427.984C213.824 427.813 214.027 427.728 214.262 427.728ZM245.049 428.592V437.456C245.049 437.691 244.963 437.893 244.793 438.064C244.622 438.235 244.419 438.32 244.185 438.32H238.457C238.222 438.32 238.019 438.235 237.849 438.064C237.678 437.893 237.593 437.691 237.593 437.456V428.592C237.593 428.357 237.678 428.155 237.849 427.984C238.019 427.813 238.222 427.728 238.457 427.728H244.185C244.419 427.728 244.622 427.813 244.793 427.984C244.963 428.155 245.049 428.357 245.049 428.592ZM248.168 427.728H252.712C255.954 427.728 258.397 428.336 260.04 429.552C261.682 430.768 262.504 432.859 262.504 435.824V440.4H263.56C263.794 440.4 263.997 440.485 264.168 440.656C264.338 440.827 264.424 441.029 264.424 441.264V445.136C264.424 445.371 264.338 445.573 264.168 445.744C263.997 445.915 263.794 446 263.56 446H247.848C247.613 446 247.41 445.915 247.24 445.744C247.069 445.573 246.984 445.371 246.984 445.136V441.264C246.984 441.029 247.069 440.827 247.24 440.656C247.41 440.485 247.613 440.4 247.848 440.4H255.048V435.728C255.048 434.128 254.258 433.328 252.68 433.328H248.168C247.933 433.328 247.73 433.243 247.56 433.072C247.389 432.901 247.304 432.699 247.304 432.464V428.592C247.304 428.357 247.389 428.155 247.56 427.984C247.73 427.813 247.933 427.728 248.168 427.728ZM273.799 428.592V437.456C273.799 437.691 273.713 437.893 273.543 438.064C273.372 438.235 273.169 438.32 272.935 438.32H267.207C266.972 438.32 266.769 438.235 266.599 438.064C266.428 437.893 266.343 437.691 266.343 437.456V428.592C266.343 428.357 266.428 428.155 266.599 427.984C266.769 427.813 266.972 427.728 267.207 427.728H272.935C273.169 427.728 273.372 427.813 273.543 427.984C273.713 428.155 273.799 428.357 273.799 428.592ZM285.942 427.408H286.038C289.046 427.408 291.371 428.133 293.014 429.584C294.656 431.035 295.478 433.008 295.478 435.504V438.128C295.478 440.645 294.646 442.64 292.982 444.112C291.339 445.584 288.992 446.32 285.942 446.32C282.912 446.32 280.587 445.584 278.966 444.112C277.344 442.64 276.534 440.603 276.534 438V428.592C276.534 428.357 276.619 428.155 276.79 427.984C276.96 427.813 277.163 427.728 277.398 427.728H282.454C282.688 427.728 282.891 427.813 283.062 427.984C283.232 428.155 283.318 428.357 283.318 428.592V438.096C283.318 439.632 284.214 440.4 286.006 440.4C287.798 440.4 288.694 439.643 288.694 438.128V435.408C288.694 434.64 288.448 434.053 287.958 433.648C287.467 433.221 286.816 433.008 286.006 433.008H285.942C285.707 433.008 285.504 432.923 285.334 432.752C285.163 432.581 285.078 432.379 285.078 432.144V428.272C285.078 428.037 285.163 427.835 285.334 427.664C285.504 427.493 285.707 427.408 285.942 427.408ZM310.546 438V433.328H299.058C298.823 433.328 298.62 433.243 298.45 433.072C298.279 432.901 298.194 432.699 298.194 432.464V428.592C298.194 428.357 298.279 428.155 298.45 427.984C298.62 427.813 298.823 427.728 299.058 427.728H316.786C317.02 427.728 317.223 427.813 317.394 427.984C317.564 428.155 317.65 428.357 317.65 428.592V437.904C317.65 440.443 316.86 442.48 315.282 444.016C313.724 445.552 311.474 446.32 308.53 446.32H308.114C307.879 446.32 307.676 446.235 307.506 446.064C307.335 445.893 307.25 445.691 307.25 445.456V441.264C307.25 441.029 307.335 440.827 307.506 440.656C307.676 440.485 307.879 440.4 308.114 440.4H308.498C309.095 440.4 309.586 440.208 309.97 439.824C310.354 439.44 310.546 438.832 310.546 438ZM305.138 435.472V451.248C305.138 451.483 305.052 451.685 304.882 451.856C304.711 452.027 304.508 452.112 304.274 452.112H299.058C298.823 452.112 298.62 452.027 298.45 451.856C298.279 451.685 298.194 451.483 298.194 451.248V435.472C298.194 435.237 298.279 435.035 298.45 434.864C298.62 434.693 298.823 434.608 299.058 434.608H304.274C304.508 434.608 304.711 434.693 304.882 434.864C305.052 435.035 305.138 435.237 305.138 435.472ZM320.598 427.728H325.974C329.174 427.728 331.552 428.336 333.11 429.552C334.667 430.747 335.446 432.837 335.446 435.824V445.136C335.446 445.371 335.36 445.573 335.19 445.744C335.019 445.915 334.816 446 334.582 446H329.174C328.939 446 328.736 445.925 328.566 445.776C328.395 445.605 328.31 445.403 328.31 445.168V435.728C328.31 434.128 327.52 433.328 325.942 433.328H320.598C320.363 433.328 320.16 433.243 319.99 433.072C319.819 432.901 319.734 432.699 319.734 432.464V428.592C319.734 428.357 319.819 428.155 319.99 427.984C320.16 427.813 320.363 427.728 320.598 427.728ZM347.411 427.408H347.507C350.515 427.408 352.84 428.133 354.483 429.584C356.125 431.035 356.947 433.008 356.947 435.504V438.128C356.947 440.645 356.115 442.64 354.451 444.112C352.808 445.584 350.461 446.32 347.411 446.32C344.381 446.32 342.056 445.584 340.435 444.112C338.813 442.64 338.003 440.603 338.003 438V428.592C338.003 428.357 338.088 428.155 338.259 427.984C338.429 427.813 338.632 427.728 338.867 427.728H343.923C344.157 427.728 344.36 427.813 344.531 427.984C344.701 428.155 344.786 428.357 344.786 428.592V438.096C344.786 439.632 345.683 440.4 347.475 440.4C349.267 440.4 350.163 439.643 350.163 438.128V435.408C350.163 434.64 349.917 434.053 349.427 433.648C348.936 433.221 348.285 433.008 347.475 433.008H347.411C347.176 433.008 346.973 432.923 346.803 432.752C346.632 432.581 346.547 432.379 346.547 432.144V428.272C346.547 428.037 346.632 427.835 346.803 427.664C346.973 427.493 347.176 427.408 347.411 427.408ZM370.223 446H359.727C359.492 446 359.289 445.915 359.118 445.744C358.948 445.573 358.863 445.371 358.863 445.136V440.944C358.863 440.709 358.948 440.507 359.118 440.336C359.289 440.165 359.492 440.08 359.727 440.08H363.631V435.728C363.631 434.875 363.439 434.267 363.055 433.904C362.671 433.52 362.073 433.328 361.263 433.328H359.759C359.524 433.328 359.321 433.243 359.151 433.072C358.98 432.901 358.895 432.699 358.895 432.464V428.272C358.895 428.037 358.98 427.835 359.151 427.664C359.321 427.493 359.524 427.408 359.759 427.408H361.295C364.601 427.408 367.055 428.059 368.655 429.36C370.276 430.661 371.087 432.816 371.087 435.824V445.136C371.087 445.371 371.001 445.573 370.831 445.744C370.66 445.915 370.457 446 370.223 446ZM381.267 428.592V437.456C381.267 437.691 381.182 437.893 381.011 438.064C380.841 438.235 380.638 438.32 380.403 438.32H374.675C374.441 438.32 374.238 438.235 374.067 438.064C373.897 437.893 373.811 437.691 373.811 437.456V428.592C373.811 428.357 373.897 428.155 374.067 427.984C374.238 427.813 374.441 427.728 374.675 427.728H380.403C380.638 427.728 380.841 427.813 381.011 427.984C381.182 428.155 381.267 428.357 381.267 428.592ZM389.763 441.52V445.072C389.763 445.349 389.677 445.573 389.507 445.744C389.336 445.915 389.133 446 388.899 446H384.451C384.216 446 384.013 445.904 383.843 445.712C383.672 445.52 383.587 445.307 383.587 445.072V441.648C383.587 439.557 383.8 437.915 384.227 436.72C384.653 435.525 385.443 434.459 386.595 433.52L383.618 428.784C383.555 428.656 383.523 428.517 383.523 428.368C383.523 428.219 383.587 428.08 383.715 427.952C383.864 427.803 384.035 427.728 384.227 427.728H389.571C390.083 427.728 390.531 427.995 390.915 428.528L394.403 433.968C394.595 433.627 394.691 433.04 394.691 432.208V428.656C394.691 428.379 394.776 428.155 394.947 427.984C395.117 427.813 395.32 427.728 395.555 427.728H400.323C400.557 427.728 400.76 427.824 400.931 428.016C401.101 428.208 401.187 428.421 401.187 428.656V432.336C401.187 435.643 400.099 438.021 397.923 439.472L401.475 444.944C401.539 445.051 401.571 445.189 401.571 445.36C401.571 445.509 401.496 445.659 401.347 445.808C401.219 445.936 401.059 446 400.867 446H395.267C394.691 446 394.253 445.755 393.955 445.264L389.923 438.864C389.816 439.291 389.763 440.176 389.763 441.52ZM420.236 445.136C420.236 445.371 420.151 445.573 419.98 445.744C419.809 445.915 419.607 446 419.372 446H413.964C413.729 446 413.527 445.915 413.356 445.744C413.185 445.573 413.1 445.371 413.1 445.136V435.472C413.1 435.237 413.185 435.035 413.356 434.864C413.527 434.693 413.729 434.608 413.964 434.608H419.372C419.607 434.608 419.809 434.693 419.98 434.864C420.151 435.035 420.236 435.237 420.236 435.472V445.136ZM413.964 427.728H422.188C425.324 427.728 427.681 428.368 429.26 429.648C430.86 430.907 431.66 432.965 431.66 435.824V445.136C431.66 445.371 431.575 445.573 431.404 445.744C431.233 445.915 431.031 446 430.796 446H425.388C425.153 446 424.951 445.925 424.78 445.776C424.609 445.605 424.524 445.403 424.524 445.168V435.728C424.524 434.128 423.735 433.328 422.156 433.328H413.964C413.729 433.328 413.527 433.243 413.356 433.072C413.185 432.901 413.1 432.699 413.1 432.464V428.592C413.1 428.357 413.185 428.155 413.356 427.984C413.527 427.813 413.729 427.728 413.964 427.728ZM448.934 433.328H447.238V445.136C447.238 445.371 447.152 445.573 446.982 445.744C446.811 445.915 446.608 446 446.374 446H440.71C440.475 446 440.272 445.915 440.102 445.744C439.931 445.573 439.846 445.371 439.846 445.136V433.328H434.278C434.043 433.328 433.84 433.243 433.67 433.072C433.499 432.901 433.414 432.699 433.414 432.464V428.592C433.414 428.357 433.499 428.155 433.67 427.984C433.84 427.813 434.043 427.728 434.278 427.728H448.934C449.168 427.728 449.371 427.813 449.542 427.984C449.712 428.155 449.798 428.357 449.798 428.592V432.464C449.798 432.699 449.712 432.901 449.542 433.072C449.371 433.243 449.168 433.328 448.934 433.328ZM459.486 428.592V437.456C459.486 437.691 459.401 437.893 459.23 438.064C459.059 438.235 458.857 438.32 458.622 438.32H452.894C452.659 438.32 452.457 438.235 452.286 438.064C452.115 437.893 452.03 437.691 452.03 437.456V428.592C452.03 428.357 452.115 428.155 452.286 427.984C452.457 427.813 452.659 427.728 452.894 427.728H458.622C458.857 427.728 459.059 427.813 459.23 427.984C459.401 428.155 459.486 428.357 459.486 428.592ZM462.509 427.728H472.653C475.789 427.728 478.147 428.368 479.725 429.648C481.325 430.907 482.125 432.965 482.125 435.824V445.136C482.125 445.371 482.04 445.573 481.869 445.744C481.699 445.915 481.496 446 481.261 446H473.293C473.059 446 472.856 445.915 472.685 445.744C472.515 445.573 472.429 445.371 472.429 445.136V441.584C472.429 441.349 472.515 441.147 472.685 440.976C472.856 440.805 473.059 440.72 473.293 440.72H474.989V435.728C474.989 434.128 474.2 433.328 472.621 433.328H471.597L468.173 445.2C468.003 445.733 467.608 446 466.989 446H462.093C461.88 446 461.688 445.936 461.517 445.808C461.347 445.659 461.261 445.52 461.261 445.392C461.261 445.264 461.283 445.136 461.325 445.008L464.877 433.328H462.509C462.275 433.328 462.072 433.243 461.901 433.072C461.731 432.901 461.645 432.699 461.645 432.464V428.592C461.645 428.357 461.731 428.155 461.901 427.984C462.072 427.813 462.275 427.728 462.509 427.728ZM492.811 438V433.648H485.067C484.832 433.648 484.629 433.563 484.459 433.392C484.288 433.221 484.203 433.019 484.203 432.784V424.176C484.203 423.941 484.288 423.739 484.459 423.568C484.629 423.397 484.832 423.312 485.067 423.312H489.963C490.197 423.312 490.4 423.397 490.571 423.568C490.741 423.739 490.827 423.941 490.827 424.176V427.728H499.371C499.605 427.728 499.808 427.813 499.979 427.984C500.149 428.155 500.235 428.357 500.235 428.592V437.904C500.235 440.421 499.403 442.459 497.739 444.016C496.075 445.552 493.76 446.32 490.795 446.32H489.739C489.504 446.32 489.301 446.235 489.131 446.064C488.96 445.893 488.875 445.691 488.875 445.456V441.264C488.875 441.029 488.96 440.827 489.131 440.656C489.301 440.485 489.504 440.4 489.739 440.4H490.763C491.36 440.4 491.851 440.208 492.235 439.824C492.619 439.44 492.811 438.832 492.811 438ZM513.433 427.728H521.817C525.017 427.728 527.395 428.336 528.953 429.552C530.51 430.747 531.289 432.837 531.289 435.824V445.136C531.289 445.371 531.203 445.573 531.033 445.744C530.862 445.915 530.659 446 530.425 446H525.017C524.782 446 524.579 445.925 524.409 445.776C524.238 445.605 524.153 445.403 524.153 445.168V435.728C524.153 434.128 523.363 433.328 521.785 433.328H519.705V445.136C519.705 445.371 519.619 445.573 519.449 445.744C519.278 445.915 519.075 446 518.841 446H513.433C513.198 446 512.995 445.915 512.825 445.744C512.654 445.573 512.569 445.371 512.569 445.136V428.592C512.569 428.357 512.654 428.155 512.825 427.984C512.995 427.813 513.198 427.728 513.433 427.728ZM541.935 428.592V445.136C541.935 445.371 541.849 445.573 541.679 445.744C541.508 445.915 541.305 446 541.071 446H535.343C535.108 446 534.905 445.915 534.735 445.744C534.564 445.573 534.479 445.371 534.479 445.136V428.592C534.479 428.357 534.564 428.155 534.735 427.984C534.905 427.813 535.108 427.728 535.343 427.728H541.071C541.305 427.728 541.508 427.813 541.679 427.984C541.849 428.155 541.935 428.357 541.935 428.592ZM545.512 427.728H556.648C559.784 427.728 562.141 428.368 563.72 429.648C565.32 430.907 566.12 432.965 566.12 435.824V445.136C566.12 445.371 566.034 445.573 565.864 445.744C565.693 445.915 565.49 446 565.256 446H559.847C559.613 446 559.41 445.925 559.24 445.776C559.069 445.605 558.984 445.403 558.984 445.168V435.728C558.984 434.128 558.194 433.328 556.616 433.328H554.376V445.136C554.376 445.371 554.29 445.573 554.12 445.744C553.949 445.915 553.746 446 553.512 446H545.512C545.277 446 545.074 445.915 544.904 445.744C544.733 445.573 544.648 445.371 544.648 445.136V441.584C544.648 441.349 544.733 441.147 544.904 440.976C545.074 440.805 545.277 440.72 545.512 440.72H547.24V433.328H545.512C545.277 433.328 545.074 433.243 544.904 433.072C544.733 432.901 544.648 432.699 544.648 432.464V428.592C544.648 428.357 544.733 428.155 544.904 427.984C545.074 427.813 545.277 427.728 545.512 427.728ZM576.299 428.592V437.456C576.299 437.691 576.213 437.893 576.043 438.064C575.872 438.235 575.669 438.32 575.435 438.32H569.707C569.472 438.32 569.269 438.235 569.099 438.064C568.928 437.893 568.843 437.691 568.843 437.456V428.592C568.843 428.357 568.928 428.155 569.099 427.984C569.269 427.813 569.472 427.728 569.707 427.728H575.435C575.669 427.728 575.872 427.813 576.043 427.984C576.213 428.155 576.299 428.357 576.299 428.592ZM586.266 439.312H586.01C582.703 439.312 580.612 438.267 579.738 436.176C579.375 435.301 579.194 434.224 579.194 432.944V428.592C579.194 428.357 579.279 428.155 579.45 427.984C579.62 427.813 579.823 427.728 580.058 427.728H588.634C591.578 427.728 593.775 428.4 595.226 429.744C596.698 431.088 597.434 432.955 597.434 435.344V437.584C597.434 440.165 596.698 442.213 595.226 443.728C593.754 445.243 591.556 446 588.634 446H580.058C579.823 446 579.62 445.915 579.45 445.744C579.279 445.573 579.194 445.371 579.194 445.136V441.104C579.194 440.869 579.279 440.667 579.45 440.496C579.62 440.325 579.823 440.24 580.058 440.24H588.602C590.287 440.24 591.13 439.355 591.13 437.584V435.248C591.13 433.648 590.287 432.848 588.602 432.848H584.986V433.072C584.986 433.776 585.338 434.128 586.042 434.128H586.266C586.5 434.128 586.703 434.213 586.874 434.384C587.044 434.555 587.13 434.757 587.13 434.992V438.448C587.13 438.683 587.044 438.885 586.874 439.056C586.703 439.227 586.5 439.312 586.266 439.312Z" fill="#E5249E"/>
<g filter="url(#filter0_g_518_1690)">
<path d="M210.49 486.278C210.49 486.278 207.286 508.719 200.043 520.798C187.482 541.747 148.218 555.815 148.218 555.815C136.518 560.076 117.042 562.409 117.042 562.409M117.042 562.409L157 585M117.042 562.409L142.03 525.535" stroke="#F4DDE8" stroke-width="18"/>
</g>
<g filter="url(#filter1_g_518_1690)">
<path d="M360.056 145.374C360.056 145.374 339.784 104.548 319.615 90.4584C300.521 77.12 286.594 67.2643 262.951 68.7853C243.82 70.016 223.513 77.0384 217.89 88.2612C214.019 95.9864 214.407 102.537 219.895 109.245C224.715 115.138 239.664 129.737 251.812 129.905C258.882 130.002 264.895 128.618 268.266 122.394C272.376 114.805 255.526 93.6942 246.627 88.473C237.728 83.2518 215.526 81.7544 195.713 82.1983C173.946 82.6858 141.3 94.1835 141.3 94.1835M141.3 94.1835L173.846 54.7093M141.3 94.1835L178.229 119.696" stroke="#F4DDE8" stroke-width="18"/>
</g>
<g filter="url(#filter2_g_518_1690)">
<path d="M568.262 222.821C568.262 222.821 579.916 183.228 591.86 162.874C601.56 146.342 637.678 182.46 635.579 162.874C634.752 155.148 635.579 127.548 641.525 121.252C647.471 114.957 658.925 117.248 669.856 113.908C694.953 106.239 731.875 88.0397 731.875 88.0397M731.875 88.0397L681.5 70M731.875 88.0397L710.5 133" stroke="#F4DDE8" stroke-width="18"/>
</g>
<g filter="url(#filter3_g_518_1690)">
<path d="M179.081 326.329C179.081 326.329 158.956 329.445 142.581 334.829C129.281 339.201 116.046 303.073 108.081 314.829C104.94 319.466 91.8927 329.507 85.537 330.083C79.1812 330.659 74.9113 329.785 67.0811 326.329C49.1031 318.393 18.1917 304.588 18.1917 304.588M18.1917 304.588L38.629 338.85M18.1917 304.588L51.4907 290.273" stroke="#F4DDE8" stroke-width="18"/>
</g>
<g filter="url(#filter4_g_518_1690)">
<path d="M645.718 381.772C659.122 399.164 666.972 434.617 682.768 434.329C698.564 434.042 730.062 378.039 741.932 385.218C753.803 392.398 773.838 489.839 778.695 504.409C780.992 511.302 791.82 595.24 791.82 595.24M791.82 595.24L808.564 532.842M791.82 595.24L756.293 543.756" stroke="#F4DDE8" stroke-width="18"/>
</g>
<defs>
<filter id="filter0_g_518_1690" x="99.6367" y="480.522" width="124.242" height="116.793" filterUnits="userSpaceOnUse" color-interpolation-filters="sRGB">
<feFlood flood-opacity="0" result="BackgroundImageFix"/>
<feBlend mode="normal" in="SourceGraphic" in2="BackgroundImageFix" result="shape"/>
<feTurbulence type="fractalNoise" baseFrequency="0.31545740365982056 0.31545740365982056" numOctaves="3" seed="1501" />
<feDisplacementMap in="shape" scale="8.9600000381469727" xChannelSelector="R" yChannelSelector="G" result="displacedImage" width="100%" height="100%" />
<feMerge result="effect1_texture_518_1690">
<feMergeNode in="displacedImage"/>
</feMerge>
</filter>
<filter id="filter1_g_518_1690" x="123.642" y="44.5039" width="248.954" height="109.355" filterUnits="userSpaceOnUse" color-interpolation-filters="sRGB">
<feFlood flood-opacity="0" result="BackgroundImageFix"/>
<feBlend mode="normal" in="SourceGraphic" in2="BackgroundImageFix" result="shape"/>
<feTurbulence type="fractalNoise" baseFrequency="0.31545740365982056 0.31545740365982056" numOctaves="3" seed="1501" />
<feDisplacementMap in="shape" scale="8.9600000381469727" xChannelSelector="R" yChannelSelector="G" result="displacedImage" width="100%" height="100%" />
<feMerge result="effect1_texture_518_1690">
<feMergeNode in="displacedImage"/>
</feMerge>
</filter>
<filter id="filter2_g_518_1690" x="555.149" y="57.0469" width="193.605" height="172.796" filterUnits="userSpaceOnUse" color-interpolation-filters="sRGB">
<feFlood flood-opacity="0" result="BackgroundImageFix"/>
<feBlend mode="normal" in="SourceGraphic" in2="BackgroundImageFix" result="shape"/>
<feTurbulence type="fractalNoise" baseFrequency="0.31545740365982056 0.31545740365982056" numOctaves="3" seed="1501" />
<feDisplacementMap in="shape" scale="8.9600000381469727" xChannelSelector="R" yChannelSelector="G" result="displacedImage" width="100%" height="100%" />
<feMerge result="effect1_texture_518_1690">
<feMergeNode in="displacedImage"/>
</feMerge>
</filter>
<filter id="filter3_g_518_1690" x="0.720073" y="277.525" width="184.22" height="71.1665" filterUnits="userSpaceOnUse" color-interpolation-filters="sRGB">
<feFlood flood-opacity="0" result="BackgroundImageFix"/>
<feBlend mode="normal" in="SourceGraphic" in2="BackgroundImageFix" result="shape"/>
<feTurbulence type="fractalNoise" baseFrequency="0.31545740365982056 0.31545740365982056" numOctaves="3" seed="1501" />
<feDisplacementMap in="shape" scale="8.9600000381469727" xChannelSelector="R" yChannelSelector="G" result="displacedImage" width="100%" height="100%" />
<feMerge result="effect1_texture_518_1690">
<feMergeNode in="displacedImage"/>
</feMerge>
</filter>
<filter id="filter4_g_518_1690" x="634.11" y="371.102" width="187.627" height="249.751" filterUnits="userSpaceOnUse" color-interpolation-filters="sRGB">
<feFlood flood-opacity="0" result="BackgroundImageFix"/>
<feBlend mode="normal" in="SourceGraphic" in2="BackgroundImageFix" result="shape"/>
<feTurbulence type="fractalNoise" baseFrequency="0.31545740365982056 0.31545740365982056" numOctaves="3" seed="1501" />
<feDisplacementMap in="shape" scale="8.9600000381469727" xChannelSelector="R" yChannelSelector="G" result="displacedImage" width="100%" height="100%" />
<feMerge result="effect1_texture_518_1690">
<feMergeNode in="displacedImage"/>
</feMerge>
</filter>
<clipPath id="clip0_518_1690">
<rect width="376.559" height="244.188" fill="white" transform="translate(222.294 153.866)"/>
</clipPath>
</defs>
</svg>
