<svg xmlns="http://www.w3.org/2000/svg" xmlns:xlink="http://www.w3.org/1999/xlink" width="187" zoomAndPan="magnify" viewBox="0 0 140.25 177.000001" height="236" preserveAspectRatio="xMidYMid meet" version="1.0"><defs><g/><clipPath id="0d5a25bd24"><path d="M 22.207031 0 L 118.414062 0 L 118.414062 103.664062 L 22.207031 103.664062 Z M 22.207031 0 " clip-rule="nonzero"/></clipPath></defs><path fill="#e4279e" d="M 52.320312 54.089844 C 52.636719 53.972656 52.933594 53.824219 53.21875 53.648438 C 53.503906 53.472656 53.769531 53.269531 54.015625 53.039062 C 54.261719 52.8125 54.484375 52.5625 54.679688 52.289062 C 54.875 52.019531 55.042969 51.730469 55.183594 51.425781 C 55.324219 51.121094 55.429688 50.804688 55.507812 50.476562 C 55.585938 50.152344 55.632812 49.820312 55.644531 49.484375 C 55.65625 49.152344 55.636719 48.816406 55.582031 48.488281 C 55.53125 48.15625 55.445312 47.832031 55.328125 47.519531 L 54.078125 44.152344 C 53.960938 43.835938 53.8125 43.535156 53.636719 43.25 C 53.460938 42.964844 53.257812 42.699219 53.03125 42.453125 C 52.800781 42.207031 52.550781 41.988281 52.28125 41.789062 C 52.007812 41.59375 51.71875 41.425781 51.414062 41.285156 C 51.109375 41.144531 50.792969 41.039062 50.464844 40.960938 C 50.140625 40.882812 49.808594 40.835938 49.472656 40.824219 C 49.136719 40.8125 48.804688 40.832031 48.472656 40.886719 C 48.140625 40.9375 47.820312 41.023438 47.503906 41.140625 L 36.691406 45.164062 C 36.378906 45.28125 36.078125 45.425781 35.792969 45.605469 C 35.507812 45.78125 35.242188 45.980469 34.996094 46.210938 C 34.75 46.4375 34.527344 46.6875 34.332031 46.960938 C 34.136719 47.234375 33.96875 47.523438 33.828125 47.828125 C 33.6875 48.132812 33.582031 48.445312 33.503906 48.773438 C 33.425781 49.101562 33.378906 49.429688 33.367188 49.765625 C 33.355469 50.101562 33.375 50.433594 33.429688 50.765625 C 33.480469 51.097656 33.566406 51.417969 33.683594 51.734375 L 34.933594 55.101562 C 35.050781 55.414062 35.199219 55.714844 35.375 56 C 35.554688 56.285156 35.757812 56.550781 35.984375 56.796875 C 36.214844 57.042969 36.464844 57.261719 36.734375 57.457031 C 37.007812 57.652344 37.296875 57.820312 37.601562 57.960938 C 37.90625 58.101562 38.222656 58.210938 38.546875 58.289062 C 38.875 58.363281 39.203125 58.410156 39.539062 58.421875 C 39.875 58.433594 40.207031 58.414062 40.539062 58.363281 C 40.871094 58.308594 41.191406 58.226562 41.507812 58.109375 Z M 37.546875 54.128906 L 36.296875 50.761719 C 36.1875 50.472656 36.140625 50.175781 36.152344 49.867188 C 36.164062 49.5625 36.234375 49.265625 36.363281 48.988281 C 36.488281 48.707031 36.667969 48.460938 36.894531 48.253906 C 37.117188 48.042969 37.375 47.882812 37.664062 47.777344 L 48.476562 43.753906 C 48.765625 43.648438 49.0625 43.601562 49.371094 43.613281 C 49.679688 43.621094 49.972656 43.691406 50.253906 43.820312 C 50.53125 43.949219 50.777344 44.125 50.988281 44.351562 C 51.199219 44.578125 51.355469 44.832031 51.464844 45.121094 L 52.714844 48.488281 C 52.824219 48.777344 52.871094 49.074219 52.859375 49.382812 C 52.847656 49.691406 52.777344 49.984375 52.648438 50.265625 C 52.523438 50.546875 52.34375 50.789062 52.121094 51 C 51.894531 51.210938 51.636719 51.367188 51.347656 51.476562 L 40.535156 55.496094 C 40.246094 55.605469 39.949219 55.652344 39.640625 55.640625 C 39.332031 55.628906 39.039062 55.558594 38.757812 55.429688 C 38.480469 55.304688 38.234375 55.125 38.023438 54.902344 C 37.8125 54.675781 37.65625 54.417969 37.546875 54.128906 Z M 37.546875 54.128906 " fill-opacity="1" fill-rule="nonzero"/><path fill="#e4279e" d="M 45.972656 62.074219 C 40.523438 60.199219 38.101562 68.59375 44.230469 69.027344 C 48.144531 69.109375 49.847656 63.648438 45.972656 62.074219 Z M 45.304688 65.621094 C 44.878906 66.574219 42.933594 66.367188 43.472656 65.214844 C 43.859375 64.300781 45.828125 64.410156 45.304688 65.621094 Z M 45.304688 65.621094 " fill-opacity="1" fill-rule="nonzero"/><g clip-path="url(#0d5a25bd24)"><path fill="#e4279e" d="M 116.609375 63.0625 L 110.761719 63.0625 L 110.761719 59.457031 C 110.761719 59.273438 110.726562 59.09375 110.65625 58.925781 C 110.585938 58.753906 110.484375 58.601562 110.355469 58.472656 C 110.222656 58.34375 110.074219 58.242188 109.902344 58.171875 C 109.730469 58.101562 109.554688 58.0625 109.371094 58.0625 L 88.222656 58.0625 C 88.714844 57.75 89.144531 57.363281 89.503906 56.902344 C 89.867188 56.441406 90.140625 55.933594 90.328125 55.382812 C 90.515625 54.828125 90.605469 54.257812 90.597656 53.671875 C 90.589844 53.085938 90.484375 52.519531 90.28125 51.972656 L 89.144531 48.90625 L 93.148438 47.414062 C 93.359375 47.910156 93.679688 48.316406 94.117188 48.628906 C 94.550781 48.945312 95.035156 49.125 95.570312 49.167969 L 112.894531 50.8125 C 113.289062 50.859375 113.679688 50.855469 114.074219 50.804688 C 114.464844 50.753906 114.847656 50.65625 115.214844 50.507812 C 115.585938 50.363281 115.929688 50.175781 116.253906 49.945312 C 116.574219 49.710938 116.863281 49.445312 117.117188 49.140625 C 117.375 48.839844 117.589844 48.511719 117.765625 48.15625 C 117.9375 47.796875 118.066406 47.425781 118.148438 47.039062 C 118.230469 46.652344 118.265625 46.257812 118.25 45.863281 C 118.238281 45.464844 118.175781 45.078125 118.0625 44.699219 L 107.25 15.628906 C 106.984375 14.925781 106.558594 14.332031 105.984375 13.851562 C 105.40625 13.367188 104.746094 13.058594 104.007812 12.917969 C 103.15625 12.746094 102.316406 12.789062 101.488281 13.050781 C 100.660156 13.308594 99.945312 13.75 99.339844 14.375 L 87.308594 26.9375 C 86.929688 27.320312 86.679688 27.773438 86.554688 28.296875 C 86.429688 28.820312 86.449219 29.335938 86.617188 29.847656 L 82.613281 31.335938 L 81.476562 28.273438 C 81.355469 27.960938 81.207031 27.660156 81.03125 27.375 C 80.851562 27.089844 80.648438 26.828125 80.417969 26.582031 C 80.191406 26.335938 79.9375 26.117188 79.667969 25.921875 C 79.394531 25.726562 79.105469 25.558594 78.800781 25.417969 C 78.496094 25.277344 78.179688 25.167969 77.851562 25.09375 C 77.527344 25.015625 77.195312 24.96875 76.859375 24.957031 C 76.523438 24.941406 76.191406 24.960938 75.859375 25.015625 C 75.527344 25.066406 75.203125 25.152344 74.890625 25.265625 L 59.132812 31.132812 L 56.9375 25.238281 L 59.96875 24.109375 C 60.347656 23.949219 60.683594 23.726562 60.972656 23.4375 C 61.265625 23.148438 61.492188 22.816406 61.65625 22.4375 C 61.816406 22.0625 61.90625 21.667969 61.914062 21.257812 C 61.925781 20.847656 61.859375 20.449219 61.714844 20.066406 C 61.574219 19.679688 61.363281 19.335938 61.085938 19.03125 C 60.8125 18.730469 60.488281 18.488281 60.117188 18.308594 C 59.75 18.128906 59.359375 18.027344 58.949219 18 C 58.539062 17.972656 58.140625 18.019531 57.75 18.148438 L 45.367188 22.75 L 47.058594 19.035156 C 47.472656 18.125 48.148438 17.496094 49.085938 17.144531 L 71.285156 8.890625 C 71.5625 9.925781 72.171875 10.871094 73.363281 10.476562 L 82.277344 7.160156 C 82.9375 6.878906 83.46875 6.441406 83.871094 5.84375 C 84.273438 5.25 84.480469 4.59375 84.496094 3.875 C 84.511719 3.15625 84.328125 2.492188 83.953125 1.878906 C 83.574219 1.269531 83.0625 0.808594 82.414062 0.5 C 81.542969 0.0976562 80.660156 0.0664062 79.761719 0.402344 L 70.847656 3.71875 C 69.671875 4.203125 69.859375 5.332031 70.3125 6.277344 L 48.113281 14.53125 C 47.316406 14.832031 46.605469 15.269531 45.984375 15.851562 C 45.359375 16.429688 44.875 17.109375 44.519531 17.882812 L 41.6875 24.121094 L 27.328125 29.460938 C 26.925781 29.101562 26.457031 28.875 25.925781 28.773438 C 25.394531 28.675781 24.875 28.71875 24.367188 28.90625 C 23.972656 29.023438 23.621094 29.214844 23.308594 29.480469 C 22.996094 29.746094 22.746094 30.058594 22.5625 30.425781 C 22.378906 30.792969 22.277344 31.179688 22.253906 31.589844 C 22.230469 31.996094 22.285156 32.394531 22.425781 32.78125 L 23.667969 36.113281 C 23.796875 36.421875 23.972656 36.699219 24.191406 36.949219 C 24.414062 37.199219 24.667969 37.410156 24.957031 37.578125 C 25.246094 37.746094 25.554688 37.863281 25.878906 37.929688 C 26.207031 37.996094 26.535156 38.011719 26.867188 37.972656 C 27.199219 37.933594 27.515625 37.84375 27.816406 37.703125 C 28.117188 37.558594 28.390625 37.375 28.632812 37.144531 C 28.875 36.914062 29.074219 36.652344 29.230469 36.359375 C 29.386719 36.0625 29.492188 35.75 29.550781 35.421875 L 38.585938 32.0625 L 40.78125 37.964844 L 29.132812 42.300781 C 28.816406 42.417969 28.515625 42.5625 28.230469 42.738281 C 27.945312 42.914062 27.675781 43.117188 27.429688 43.34375 C 27.183594 43.574219 26.960938 43.824219 26.765625 44.09375 C 26.566406 44.367188 26.398438 44.65625 26.257812 44.960938 C 26.117188 45.265625 26.007812 45.582031 25.929688 45.90625 C 25.851562 46.234375 25.808594 46.566406 25.792969 46.902344 C 25.78125 47.238281 25.800781 47.570312 25.855469 47.902344 C 25.90625 48.234375 25.992188 48.554688 26.109375 48.871094 L 34.921875 72.570312 C 35.15625 73.203125 35.507812 73.769531 35.96875 74.261719 C 36.429688 74.757812 36.96875 75.144531 37.585938 75.421875 C 38.199219 75.707031 38.847656 75.859375 39.523438 75.882812 C 40.199219 75.90625 40.851562 75.796875 41.484375 75.558594 L 53.273438 71.167969 L 53.273438 96.933594 C 53.273438 97.117188 53.308594 97.292969 53.378906 97.464844 C 53.449219 97.636719 53.550781 97.785156 53.683594 97.917969 C 53.8125 98.046875 53.964844 98.148438 54.132812 98.21875 C 54.304688 98.289062 54.484375 98.324219 54.667969 98.324219 L 60.515625 98.324219 L 60.515625 101.921875 C 60.515625 102.105469 60.550781 102.28125 60.621094 102.453125 C 60.691406 102.625 60.792969 102.773438 60.925781 102.90625 C 61.054688 103.035156 61.207031 103.136719 61.375 103.207031 C 61.546875 103.277344 61.726562 103.3125 61.910156 103.3125 L 116.609375 103.3125 C 116.792969 103.3125 116.96875 103.277344 117.140625 103.207031 C 117.3125 103.136719 117.460938 103.035156 117.59375 102.90625 C 117.722656 102.773438 117.824219 102.625 117.894531 102.453125 C 117.964844 102.28125 118 102.105469 118 101.921875 L 118 64.457031 C 118 64.273438 117.964844 64.09375 117.894531 63.925781 C 117.824219 63.753906 117.722656 63.601562 117.59375 63.472656 C 117.460938 63.339844 117.3125 63.242188 117.140625 63.167969 C 116.96875 63.097656 116.792969 63.0625 116.609375 63.0625 Z M 80.734375 3.015625 C 81.59375 2.6875 82.175781 4.234375 81.304688 4.550781 L 73.695312 7.378906 L 73.125 5.84375 Z M 58.722656 20.757812 C 58.992188 20.660156 59.097656 20.925781 59.160156 21.136719 C 59.191406 21.210938 59.191406 21.28125 59.160156 21.355469 C 59.125 21.425781 59.070312 21.472656 58.996094 21.496094 L 29.492188 32.46875 L 29.21875 31.730469 Z M 26.691406 35.167969 C 26.566406 35.210938 26.351562 35.332031 26.277344 35.144531 L 25.039062 31.808594 C 25.015625 31.710938 25.046875 31.636719 25.136719 31.59375 C 25.261719 31.546875 25.484375 31.425781 25.554688 31.617188 L 26.792969 34.953125 C 26.816406 35.050781 26.785156 35.121094 26.691406 35.167969 Z M 54.328125 26.207031 L 56.519531 32.105469 L 43.390625 36.988281 L 41.199219 31.089844 Z M 79.386719 88.382812 L 89.339844 78.121094 L 106.09375 95.539062 L 72.449219 95.539062 Z M 107.976562 64.414062 C 108.042969 64.480469 107.929688 93.390625 107.976562 93.472656 L 90.351562 75.148438 C 90.21875 75.011719 90.066406 74.90625 89.894531 74.832031 C 89.71875 74.757812 89.539062 74.71875 89.347656 74.71875 C 89.160156 74.71875 88.976562 74.757812 88.804688 74.828125 C 88.628906 74.902344 88.476562 75.007812 88.34375 75.144531 L 78.363281 85.4375 L 71.757812 79 C 71.542969 78.792969 71.289062 78.667969 70.996094 78.625 C 70.699219 78.578125 70.417969 78.625 70.152344 78.757812 L 56.0625 85.917969 C 56.0625 80.113281 56.0625 66.46875 56.0625 60.851562 C 62.03125 60.84375 74.695312 60.855469 80.738281 60.851562 L 107.976562 60.851562 Z M 53.273438 62.679688 C 52.558594 62.535156 52.671875 61.597656 53.273438 61.324219 Z M 65.105469 58.0625 L 58.816406 41.148438 C 58.773438 41.042969 58.777344 40.941406 58.828125 40.835938 C 58.882812 40.714844 58.972656 40.632812 59.101562 40.585938 L 73.40625 35.265625 C 73.527344 35.222656 73.644531 35.226562 73.761719 35.28125 C 73.875 35.335938 73.957031 35.425781 73.996094 35.550781 L 80.273438 52.414062 C 80.316406 52.535156 80.308594 52.65625 80.257812 52.773438 C 80.207031 52.890625 80.121094 52.976562 80 53.027344 L 66.4375 58.0625 Z M 101.355469 16.304688 C 101.457031 16.175781 101.574219 16.066406 101.707031 15.96875 C 101.835938 15.871094 101.976562 15.789062 102.125 15.726562 C 102.277344 15.664062 102.429688 15.621094 102.59375 15.59375 C 102.753906 15.570312 102.914062 15.566406 103.074219 15.578125 C 103.238281 15.59375 103.394531 15.628906 103.550781 15.679688 C 103.703125 15.734375 103.847656 15.804688 103.984375 15.894531 C 104.121094 15.984375 104.242188 16.085938 104.355469 16.207031 C 104.464844 16.324219 104.558594 16.457031 104.640625 16.597656 L 115.449219 45.667969 C 115.847656 47.101562 114.550781 48.105469 113.160156 48.039062 L 109.84375 47.71875 L 99.054688 18.707031 Z M 96.914062 20.941406 L 106.757812 47.417969 L 95.710938 46.351562 L 89.320312 28.867188 Z M 87.574219 32.464844 L 92.164062 44.808594 L 88.171875 46.292969 L 83.585938 33.949219 Z M 40.503906 72.949219 C 40.21875 73.054688 39.921875 73.101562 39.617188 73.089844 C 39.308594 73.074219 39.019531 73.007812 38.738281 72.878906 C 38.460938 72.753906 38.21875 72.578125 38.007812 72.355469 C 37.796875 72.132812 37.640625 71.878906 37.53125 71.59375 L 28.71875 47.898438 C 28.613281 47.609375 28.5625 47.308594 28.574219 47 C 28.585938 46.695312 28.65625 46.398438 28.785156 46.121094 C 28.914062 45.839844 29.09375 45.597656 29.320312 45.386719 C 29.546875 45.179688 29.804688 45.023438 30.09375 44.917969 L 56.667969 35.023438 L 58.800781 34.230469 L 75.855469 27.878906 C 76.144531 27.769531 76.445312 27.71875 76.753906 27.730469 C 77.066406 27.738281 77.363281 27.808594 77.644531 27.9375 C 77.925781 28.066406 78.171875 28.242188 78.386719 28.46875 C 78.597656 28.695312 78.753906 28.957031 78.863281 29.246094 L 80.476562 33.582031 C 80.515625 33.617188 86 48.550781 86.054688 48.589844 L 87.671875 52.9375 C 87.777344 53.226562 87.824219 53.527344 87.808594 53.832031 C 87.796875 54.140625 87.726562 54.433594 87.601562 54.714844 C 87.472656 54.992188 87.292969 55.238281 87.070312 55.449219 C 86.84375 55.65625 86.585938 55.816406 86.300781 55.925781 L 80.539062 58.0625 L 74.441406 58.0625 L 80.972656 55.636719 C 81.375 55.484375 81.734375 55.261719 82.050781 54.96875 C 82.363281 54.671875 82.613281 54.328125 82.792969 53.9375 C 82.96875 53.546875 83.070312 53.132812 83.085938 52.703125 C 83.101562 52.273438 83.035156 51.855469 82.886719 51.449219 L 76.601562 34.5625 C 76.449219 34.160156 76.226562 33.800781 75.929688 33.488281 C 75.636719 33.175781 75.292969 32.929688 74.902344 32.75 C 74.507812 32.574219 74.097656 32.476562 73.667969 32.460938 C 73.238281 32.445312 72.820312 32.511719 72.417969 32.660156 L 58.136719 37.972656 C 57.277344 38.289062 56.664062 38.859375 56.285156 39.691406 C 55.914062 40.5 55.890625 41.316406 56.210938 42.144531 L 62.128906 58.0625 L 54.667969 58.0625 C 54.386719 58.070312 54.128906 58.15625 53.902344 58.324219 C 53.421875 58.328125 52.960938 58.414062 52.515625 58.582031 C 52.175781 58.691406 51.863281 58.847656 51.570312 59.046875 C 51.277344 59.25 51.019531 59.492188 50.800781 59.769531 C 50.578125 60.046875 50.40625 60.351562 50.273438 60.683594 C 50.144531 61.011719 50.066406 61.355469 50.039062 61.710938 C 50.011719 62.0625 50.035156 62.414062 50.109375 62.761719 C 50.1875 63.109375 50.3125 63.4375 50.488281 63.746094 C 50.660156 64.054688 50.875 64.332031 51.132812 64.578125 C 51.390625 64.824219 51.675781 65.027344 51.996094 65.1875 C 52.402344 65.367188 52.828125 65.472656 53.273438 65.5 L 53.273438 68.195312 Z M 56.0625 89.042969 L 70.527344 81.695312 L 76.421875 87.4375 L 68.566406 95.539062 L 61.9375 95.539062 C 61.867188 95.558594 56.132812 95.523438 56.0625 95.539062 Z M 115.214844 100.527344 L 63.304688 100.527344 L 63.304688 98.324219 L 109.347656 98.324219 C 109.53125 98.324219 109.707031 98.285156 109.878906 98.214844 C 110.046875 98.144531 110.199219 98.046875 110.328125 97.917969 C 110.460938 97.789062 110.566406 97.640625 110.640625 97.472656 C 110.714844 97.304688 110.753906 97.128906 110.761719 96.945312 C 110.777344 96.9375 110.753906 65.859375 110.761719 65.851562 L 115.214844 65.851562 Z M 115.214844 100.527344 " fill-opacity="1" fill-rule="nonzero"/></g><path fill="#e4279e" d="M 77.621094 62.089844 C 77.085938 62.09375 76.558594 62.152344 76.035156 62.257812 C 75.511719 62.367188 75.003906 62.527344 74.507812 62.734375 C 74.015625 62.941406 73.550781 63.195312 73.105469 63.496094 C 72.664062 63.796875 72.253906 64.136719 71.875 64.515625 C 71.5 64.894531 71.164062 65.308594 70.867188 65.753906 C 70.574219 66.199219 70.324219 66.671875 70.121094 67.164062 C 69.914062 67.660156 69.761719 68.167969 69.660156 68.695312 C 69.554688 69.21875 69.503906 69.75 69.503906 70.285156 C 69.503906 70.820312 69.554688 71.347656 69.660156 71.875 C 69.761719 72.398438 69.914062 72.90625 70.121094 73.402344 C 70.324219 73.898438 70.574219 74.367188 70.867188 74.8125 C 71.164062 75.257812 71.5 75.671875 71.875 76.050781 C 72.253906 76.433594 72.664062 76.773438 73.105469 77.070312 C 73.550781 77.371094 74.015625 77.625 74.507812 77.832031 C 75.003906 78.042969 75.511719 78.199219 76.035156 78.308594 C 76.558594 78.417969 77.085938 78.472656 77.621094 78.476562 C 78.15625 78.472656 78.6875 78.417969 79.210938 78.308594 C 79.734375 78.199219 80.242188 78.042969 80.734375 77.832031 C 81.226562 77.625 81.695312 77.371094 82.140625 77.070312 C 82.582031 76.773438 82.992188 76.433594 83.367188 76.050781 C 83.746094 75.671875 84.082031 75.257812 84.375 74.8125 C 84.671875 74.367188 84.921875 73.898438 85.125 73.402344 C 85.328125 72.90625 85.484375 72.398438 85.585938 71.875 C 85.691406 71.347656 85.742188 70.820312 85.742188 70.285156 C 85.742188 69.75 85.691406 69.21875 85.585938 68.695312 C 85.484375 68.167969 85.328125 67.660156 85.125 67.164062 C 84.921875 66.671875 84.671875 66.199219 84.375 65.753906 C 84.082031 65.308594 83.746094 64.894531 83.367188 64.515625 C 82.992188 64.136719 82.582031 63.796875 82.140625 63.496094 C 81.695312 63.195312 81.226562 62.941406 80.734375 62.734375 C 80.242188 62.527344 79.734375 62.367188 79.210938 62.257812 C 78.6875 62.152344 78.15625 62.09375 77.621094 62.089844 Z M 77.621094 75.691406 C 77.269531 75.6875 76.921875 75.648438 76.578125 75.578125 C 76.230469 75.503906 75.898438 75.398438 75.574219 75.261719 C 75.246094 75.125 74.941406 74.957031 74.648438 74.757812 C 74.355469 74.558594 74.085938 74.335938 73.839844 74.085938 C 73.589844 73.835938 73.371094 73.5625 73.175781 73.269531 C 72.980469 72.972656 72.816406 72.664062 72.683594 72.339844 C 72.550781 72.011719 72.449219 71.675781 72.378906 71.332031 C 72.3125 70.984375 72.277344 70.636719 72.277344 70.285156 C 72.277344 69.929688 72.3125 69.582031 72.378906 69.238281 C 72.449219 68.890625 72.550781 68.554688 72.683594 68.230469 C 72.816406 67.902344 72.980469 67.59375 73.175781 67.300781 C 73.371094 67.003906 73.589844 66.734375 73.839844 66.480469 C 74.085938 66.230469 74.355469 66.007812 74.648438 65.808594 C 74.941406 65.613281 75.246094 65.445312 75.574219 65.304688 C 75.898438 65.167969 76.230469 65.0625 76.578125 64.992188 C 76.921875 64.917969 77.269531 64.878906 77.621094 64.875 C 77.976562 64.878906 78.324219 64.917969 78.667969 64.992188 C 79.011719 65.0625 79.347656 65.167969 79.671875 65.304688 C 79.996094 65.445312 80.304688 65.609375 80.597656 65.808594 C 80.886719 66.007812 81.160156 66.230469 81.40625 66.480469 C 81.652344 66.734375 81.875 67.003906 82.070312 67.300781 C 82.265625 67.59375 82.429688 67.902344 82.5625 68.230469 C 82.695312 68.554688 82.796875 68.890625 82.867188 69.238281 C 82.933594 69.582031 82.96875 69.929688 82.96875 70.285156 C 82.96875 70.636719 82.933594 70.984375 82.867188 71.332031 C 82.796875 71.675781 82.695312 72.011719 82.5625 72.339844 C 82.429688 72.664062 82.265625 72.976562 82.070312 73.269531 C 81.875 73.5625 81.652344 73.835938 81.40625 74.085938 C 81.15625 74.335938 80.886719 74.558594 80.597656 74.757812 C 80.304688 74.957031 79.996094 75.125 79.671875 75.261719 C 79.347656 75.398438 79.011719 75.503906 78.667969 75.578125 C 78.324219 75.648438 77.976562 75.6875 77.621094 75.691406 Z M 77.621094 75.691406 " fill-opacity="1" fill-rule="nonzero"/><g fill="#e4279e" fill-opacity="1"><g transform="translate(12.600005, 149.05812)"><g><path d="M 4.171875 -15.71875 L 4.171875 -17.203125 C 4.171875 -18.066406 4.117188 -18.617188 4.015625 -18.859375 C 3.921875 -19.109375 3.660156 -19.4375 3.234375 -19.84375 L 2.1875 -20.828125 C 2.320312 -21.796875 2.519531 -22.789062 2.78125 -23.8125 C 3.050781 -24.84375 3.515625 -26.300781 4.171875 -28.1875 L 5.765625 -28.640625 L 7.8125 -27.84375 C 8.132812 -27.707031 8.578125 -27.628906 9.140625 -27.609375 C 9.710938 -27.597656 10.707031 -27.59375 12.125 -27.59375 L 20.78125 -27.59375 C 23.03125 -27.59375 24.757812 -27.269531 25.96875 -26.625 C 27.1875 -25.976562 28.039062 -24.890625 28.53125 -23.359375 C 29.03125 -21.835938 29.28125 -19.671875 29.28125 -16.859375 C 29.28125 -14.335938 29.238281 -11.316406 29.15625 -7.796875 C 29.070312 -4.285156 28.96875 -1.6875 28.84375 0 L 3.984375 0 Z M 23.171875 -8.296875 L 23.171875 -10 C 23.171875 -12.082031 23.117188 -13.769531 23.015625 -15.0625 C 22.921875 -16.257812 22.773438 -17.144531 22.578125 -17.71875 C 22.378906 -18.300781 22.046875 -18.695312 21.578125 -18.90625 C 21.109375 -19.125 20.378906 -19.253906 19.390625 -19.296875 L 10.484375 -19.296875 L 10.984375 -8.296875 Z M 23.171875 -8.296875 "/></g></g></g><g fill="#e4279e" fill-opacity="1"><g transform="translate(44.465012, 149.05812)"><g><path d="M 6.71875 -14.265625 C 6.71875 -15.597656 6.679688 -16.484375 6.609375 -16.921875 C 6.546875 -17.367188 6.394531 -17.707031 6.15625 -17.9375 C 5.925781 -18.175781 5.429688 -18.492188 4.671875 -18.890625 L 0.796875 -20.734375 C 1.359375 -23.878906 2.003906 -26.398438 2.734375 -28.296875 L 4.171875 -28.890625 C 6.921875 -27.828125 8.878906 -26.960938 10.046875 -26.296875 C 11.429688 -25.566406 12.390625 -24.628906 12.921875 -23.484375 C 13.453125 -22.347656 13.71875 -20.71875 13.71875 -18.59375 C 13.71875 -16.070312 13.503906 -10.003906 13.078125 -0.390625 L 8.65625 0.640625 L 6.71875 0.640625 Z M 6.71875 -14.265625 "/></g></g></g><g fill="#e4279e" fill-opacity="1"><g transform="translate(60.571512, 149.05812)"><g><path d="M 3.375 0.453125 C 3.207031 -1.304688 3.125 -2.863281 3.125 -4.21875 C 3.125 -5.914062 3.207031 -7.375 3.375 -8.59375 C 6.59375 -10.320312 9.242188 -11.875 11.328125 -13.25 C 13.421875 -14.625 14.800781 -15.707031 15.46875 -16.5 C 15.5 -17.300781 15.472656 -17.882812 15.390625 -18.25 C 15.304688 -18.613281 15.140625 -18.859375 14.890625 -18.984375 C 14.640625 -19.117188 14.234375 -19.1875 13.671875 -19.1875 C 8.734375 -19.1875 5.847656 -19.238281 5.015625 -19.34375 C 3.691406 -19.476562 2.738281 -19.945312 2.15625 -20.75 C 1.582031 -21.5625 1.226562 -22.914062 1.09375 -24.8125 C 1.03125 -26 1 -27.175781 1 -28.34375 C 1 -31.488281 1.082031 -34.054688 1.25 -36.046875 C 2.207031 -36.410156 3.332031 -36.734375 4.625 -37.015625 C 5.914062 -37.296875 6.859375 -37.4375 7.453125 -37.4375 C 7.585938 -36.644531 7.769531 -34.820312 8 -31.96875 L 8.15625 -29.9375 C 8.21875 -29.207031 8.304688 -28.691406 8.421875 -28.390625 C 8.535156 -28.085938 8.734375 -27.882812 9.015625 -27.78125 C 9.304688 -27.6875 9.796875 -27.625 10.484375 -27.59375 L 12.4375 -27.546875 C 13.363281 -27.546875 14.617188 -27.507812 16.203125 -27.4375 C 18.066406 -27.34375 19.46875 -26.710938 20.40625 -25.546875 C 21.351562 -24.390625 21.828125 -22.734375 21.828125 -20.578125 C 21.828125 -13.753906 16.191406 -6.742188 4.921875 0.453125 Z M 3.375 0.453125 "/></g></g></g><g fill="#e4279e" fill-opacity="1"><g transform="translate(84.631866, 149.05812)"><g><path d="M 3.1875 -8.953125 L 4.921875 -15.8125 C 5.148438 -16.539062 5.265625 -17.15625 5.265625 -17.65625 C 5.265625 -17.945312 5.15625 -18.21875 4.9375 -18.46875 C 4.726562 -18.71875 4.289062 -19.054688 3.625 -19.484375 L 0.5 -21.578125 C 1.289062 -23.867188 2.367188 -26.222656 3.734375 -28.640625 L 4.828125 -28.984375 C 5.222656 -28.785156 5.519531 -28.617188 5.71875 -28.484375 C 6.84375 -27.921875 7.785156 -27.410156 8.546875 -26.953125 C 10.203125 -25.953125 11.363281 -24.992188 12.03125 -24.078125 C 12.695312 -23.171875 13.03125 -22.070312 13.03125 -20.78125 C 13.03125 -19.488281 12.765625 -18.097656 12.234375 -16.609375 C 11.566406 -14.421875 10.738281 -12.097656 9.75 -9.640625 L 4.578125 -8.40625 Z M 3.1875 -8.953125 "/></g></g></g><g fill="#e4279e" fill-opacity="1"><g transform="translate(99.694441, 149.05812)"><g><path d="M 25.203125 -21.578125 C 25.203125 -20.515625 24.957031 -19.351562 24.46875 -18.09375 C 23.664062 -15.9375 22.453125 -13.132812 20.828125 -9.6875 L 23.21875 -6.515625 C 22.988281 -4.160156 22.707031 -1.988281 22.375 0 L 1.796875 0 L 2.4375 -8.296875 L 14.46875 -8.203125 C 10.257812 -12.046875 6.894531 -15.296875 4.375 -17.953125 C 3.414062 -19.015625 2.320312 -20.898438 1.09375 -23.609375 C 2.050781 -25.597656 3.09375 -27.238281 4.21875 -28.53125 L 6.265625 -28.84375 L 14.125 -18.640625 L 17.046875 -14.5625 C 17.878906 -17.414062 18.296875 -18.972656 18.296875 -19.234375 C 18.296875 -19.503906 18.226562 -19.722656 18.09375 -19.890625 C 17.96875 -20.054688 17.703125 -20.269531 17.296875 -20.53125 L 14.171875 -22.671875 C 15.429688 -25.484375 16.570312 -27.539062 17.59375 -28.84375 L 18.75 -28.84375 L 21.375 -27.25 C 22.707031 -26.445312 23.675781 -25.585938 24.28125 -24.671875 C 24.894531 -23.765625 25.203125 -22.734375 25.203125 -21.578125 Z M 25.203125 -21.578125 "/></g></g></g></svg>