<svg width="612" height="338" viewBox="0 0 612 338" fill="none" xmlns="http://www.w3.org/2000/svg">
<path d="M207.729 0C209.562 0 211.145 0.666665 212.479 2C213.812 3.33334 214.479 4.91667 214.479 6.75V31.5C214.479 33.1569 215.822 34.5 217.479 34.5H281.229C283.062 34.5 284.645 35.1667 285.979 36.5C287.312 37.8333 287.979 39.4167 287.979 41.25V114C287.979 133.667 289.979 305.583 276.979 317.75C263.979 329.75 224.34 338 201.174 338H192.924C191.09 338 189.507 337.333 188.174 336C186.84 334.667 186.174 333.083 186.174 331.25V299.95C186.502 299.418 186.829 298.885 187.157 298.353C193.022 303.233 205.041 309.015 210.851 313.947C209.322 306.866 207.322 298.478 205.216 291.481C206.453 291.367 207.847 291.217 209.327 291.037C217.911 293.26 228.754 295.341 235.707 297.059C234.231 293.802 232.036 289.311 229.839 284.595C230.185 282.013 230.432 276.613 230.602 269.264C237.226 270.489 244.027 271.757 250.192 272.494C246.754 265.841 242.888 259.188 239.021 253.047C246.754 253.047 252.83 252.977 258.906 252.977C254.524 246.947 249.131 237.047 244.706 231.041C245.718 229.486 251.331 226.002 252.83 224.9C258.906 219.271 264.982 214.665 270.506 209.035C264.654 209.015 256.039 208.547 250.192 208.523C250.329 208.086 250.052 206.395 250.192 205.965C247.19 206.071 244.624 205.787 241.63 205.965C241.634 163.518 241.596 137.801 241.63 95.3496C237.747 94.4301 233.862 93.5138 229.979 92.5967V92.5C229.979 90.8431 189.831 80.75 188.174 80.75L169.5 77C168.824 77 168.178 77.42 167.566 77.8828C166.451 77.6192 165.334 77.3566 164.219 77.0928C163.957 77.0193 163.696 76.9945 163.436 77.001C162.965 76.0885 162.729 75.0888 162.729 74V6.75C162.729 4.91667 163.395 3.33334 164.729 2C166.062 0.666665 167.645 0 169.479 0H207.729ZM49.75 34.5C53.25 34.5 56.25 36.0833 58.75 39.25L71.2236 91.8311C71.8447 94.4483 75.1434 94.8945 76.3477 92.4893C81.4116 82.3725 89.75 64.3361 89.75 59.25V41.75C89.75 39.5833 90.4167 37.8333 91.75 36.5C93.0833 35.1667 94.6667 34.5 96.5 34.5H133.75C135.583 34.5 137.167 35.25 138.5 36.75C139.833 38.25 140.5 39.9167 140.5 41.75V60.25C140.5 65.5266 138.583 73.8661 135.435 83.5254C118.704 87.4636 101.972 91.3954 85.2471 95.3496C85.2642 137.722 85.2123 162.697 85.2764 205.069C84.4652 205.239 83.6354 205.333 82.8115 205.254C80.1724 205.057 77.5288 204.941 74.8896 204.814C74.9963 205.146 75.2056 205.805 75.3125 206.138C69.4911 206.153 63.6651 206.117 57.8438 206.156C61.7103 210.058 69.996 220.806 72.7578 223.877C73.8626 225.105 76.0725 226.947 77.7295 228.482C76.6248 231.553 72.2056 243.324 69.9961 247.93H86.5674C85.4626 253.048 82.148 268.4 80.8154 274.577C89.3024 274.952 97.8027 275.049 106.294 275.321C103.889 283.654 101.434 291.975 99.0332 300.312C106.328 296.813 113.567 293.211 120.896 289.775C120.874 297.523 120.909 305.267 120.879 313.015C126.722 308.142 132.533 303.23 138.359 298.337C139.073 299.496 139.786 300.655 140.5 301.814V329.25C140.5 331.083 139.833 332.667 138.5 334C137.167 335.333 135.583 336 133.75 336H17.25C15.4167 336 13.8333 335.333 12.5 334C11.1667 332.667 10.5 331.083 10.5 329.25V297.75C10.5 295.917 11.1667 294.333 12.5 293C13.8333 291.667 15.4167 291 17.25 291H72.9473C74.9627 291 76.4048 289.052 75.8164 287.124L1.25 43C0.41667 41.8333 0 40.5833 0 39.25C0 37.9167 0.5 36.8333 1.5 36C2.66667 35 4 34.5 5.5 34.5H49.75ZM360.83 99C362.663 99 364.247 99.6667 365.58 101C366.913 102.333 367.58 103.917 367.58 105.75V326.75C367.58 328.583 366.913 330.167 365.58 331.5C364.247 332.833 362.663 333.5 360.83 333.5H318.58C316.747 333.5 315.163 332.833 313.83 331.5C312.497 330.167 311.83 328.583 311.83 326.75V105.75C311.83 103.917 312.497 102.333 313.83 101C315.163 99.6667 316.747 99 318.58 99H360.83ZM382.83 34.5C407.33 34.5 425.747 39.5 438.08 49.5C450.58 59.3333 456.83 75.4167 456.83 97.75V326.75C456.83 328.583 456.163 330.167 454.83 331.5C453.497 332.833 451.913 333.5 450.08 333.5H407.83C405.997 333.5 404.413 332.917 403.08 331.75C401.747 330.417 401.08 328.833 401.08 327V97C401.08 84.5 394.913 78.25 382.58 78.25H318.58C316.747 78.25 315.163 77.5833 313.83 76.25C312.497 74.9167 311.83 73.3333 311.83 71.5V41.25C311.83 39.4167 312.497 37.8333 313.83 36.5C315.163 35.1667 316.747 34.5 318.58 34.5H382.83ZM517.781 34.5C543.115 34.5 562.198 39.25 575.031 48.75C587.865 58.25 594.281 74.5833 594.281 97.75L596.743 286.789C596.765 288.43 598.101 289.75 599.742 289.75H605.031C606.865 289.75 608.448 290.417 609.781 291.75C611.115 293.083 611.781 294.667 611.781 296.5V326.75C611.781 328.583 611.115 330.167 609.781 331.5C608.448 332.833 606.865 333.5 605.031 333.5H482.281C480.448 333.5 478.865 332.833 477.531 331.5C476.198 330.167 475.531 328.583 475.531 326.75V296.5C475.531 294.667 476.198 293.083 477.531 291.75C478.865 290.417 480.448 289.75 482.281 289.75H535.492C537.164 289.75 538.514 288.383 538.492 286.711L536.031 97C536.031 84.5 529.865 78.25 517.531 78.25H482.281C480.448 78.25 478.865 77.5833 477.531 76.25C476.198 74.9167 475.531 73.3333 475.531 71.5V41.25C475.531 39.4167 476.198 37.8333 477.531 36.5C478.865 35.1667 480.448 34.5 482.281 34.5H517.781Z" fill="#FF4500"/>
<path d="M150.901 193.052C155.107 188.177 159.23 183.233 163.388 178.322C167.54 183.239 171.663 188.18 175.871 193.052C183.424 190.184 191.03 187.444 198.601 184.627C194.958 190.039 191.298 195.442 187.651 200.851C186.31 202.966 184.654 204.917 183.686 207.218C188.348 207.201 193.011 207.198 197.674 207.218C195.109 209.069 192.595 210.979 190.033 212.832C189.254 212.808 188.471 212.797 187.695 212.785C189.96 211.118 192.308 209.552 194.57 207.883C189.935 207.874 185.301 207.886 180.666 207.877C185.124 201.323 189.541 194.745 193.98 188.18C187.727 190.49 181.458 192.764 175.228 195.125C171.24 190.499 167.331 185.813 163.388 181.154C159.438 185.81 155.526 190.493 151.548 195.128C145.27 192.753 138.961 190.451 132.66 188.138C137.222 194.71 141.737 201.311 146.317 207.871C141.655 207.895 136.992 207.865 132.332 207.886C134.115 209.241 135.916 210.575 137.67 211.966C136.951 211.981 136.216 212.103 135.506 211.993C133.314 210.448 131.203 208.796 129.045 207.209C133.673 207.204 138.298 207.207 142.926 207.209C142.712 206.86 142.5 206.513 142.289 206.166C142.44 206.16 142.743 206.145 142.895 206.139C137.863 198.977 132.948 191.741 127.947 184.562C135.607 187.373 143.273 190.17 150.901 193.052Z" fill="#FF4500"/>
<path d="M91.3574 216.376C94.4743 216.358 97.5912 216.373 100.711 216.37C101.579 219.279 102.431 222.189 103.32 225.092C99.3295 222.192 95.3103 219.321 91.3574 216.376Z" fill="#FF4500"/>
<path d="M226.211 216.382C229.356 216.359 232.505 216.368 235.653 216.376C231.64 219.295 227.621 222.21 223.611 225.128C224.482 222.216 225.362 219.303 226.211 216.382Z" fill="#FF4500"/>
<path d="M220.685 229.018C220.827 228.76 220.972 228.502 221.12 228.25C223.723 231.88 226.332 235.51 228.925 239.148C224.54 238.398 220.161 237.597 215.773 236.847C217.656 241.696 219.48 246.562 221.379 251.405C215.189 251.556 209.003 251.776 202.813 251.885C204.289 257.597 206.053 263.246 207.621 268.94C202.605 266.437 197.548 264.005 192.538 261.488C192.491 266.956 192.529 272.425 192.522 277.89C188.689 274.607 184.84 271.345 181.023 268.05C175.174 277.703 169.341 287.368 163.495 297.027C157.615 287.389 151.801 277.712 145.961 268.056C142.125 271.333 138.282 274.604 134.456 277.89C134.459 272.422 134.449 266.956 134.459 261.488C129.421 263.979 124.373 266.455 119.332 268.937C120.966 263.255 122.61 257.573 124.209 251.882C118 251.773 111.795 251.574 105.59 251.39C107.501 246.553 109.306 241.684 111.199 236.841C106.81 237.597 102.432 238.407 98.0371 239.136C100.646 235.524 103.22 231.889 105.836 228.277C105.924 228.458 106.107 228.819 106.198 229C108.265 229.67 110.366 230.563 112.609 230.332C117.751 229.662 122.925 229.24 128.08 228.671C126.932 231.749 125.805 234.831 124.651 237.906C126.222 237.909 127.793 237.924 129.367 237.912C129.777 237.956 130.137 237.752 130.496 237.603C131.203 237.6 131.913 237.615 132.623 237.627C129.749 246.295 126.903 254.969 124.017 263.632C128.623 261.422 133.222 259.204 137.828 257.001C138.008 261.342 138.033 265.69 138.222 270.031C141.882 267.054 145.403 263.928 149.122 261.022C153.845 268.786 158.615 276.526 163.372 284.275C168.114 276.499 172.9 268.75 177.648 260.978C181.272 264.002 184.903 267.018 188.513 270.061C188.645 265.702 188.781 261.342 188.885 256.983C193.488 259.219 198.112 261.408 202.715 263.638C199.766 254.818 196.895 245.975 193.936 237.158C197.286 237.081 200.807 236.678 203.674 234.922C204.318 234.549 204.34 233.799 204.274 233.17C205.182 232.826 206.141 232.562 206.977 232.073C207.851 231.444 208.403 230.522 209.082 229.727C211.829 229.828 214.593 230.797 217.325 230.083C218.467 229.795 219.562 229.365 220.685 229.018Z" fill="#FF4500"/>
<path d="M160.039 104.331C160.762 104.183 161.5 103.857 162.248 104.07C181.303 108.652 200.367 113.192 219.422 117.78C219.396 149.66 219.415 181.539 219.412 213.415C221.624 213.282 223.835 213.14 226.053 213.06C225.949 213.383 225.845 213.709 225.744 214.038C230.063 214.056 234.385 214.032 238.707 214.047C233.82 217.615 228.917 221.158 224.028 224.72C222.92 225.547 221.658 226.253 220.911 227.422C224.179 231.932 227.409 236.464 230.646 240.992C225.889 240.117 221.119 239.322 216.361 238.456C218.106 243.112 219.911 247.747 221.693 252.391C215.421 252.626 209.147 252.741 202.875 252.931C204.689 259.182 206.459 265.449 208.263 271.706C202.887 269.058 197.509 266.409 192.133 263.764C192.13 269.603 192.146 275.442 192.123 281.282C187.833 277.578 183.52 273.891 179.189 270.226C173.173 280.149 167.207 290.095 161.159 300C155.165 290.065 149.162 280.137 143.149 270.214C138.846 273.889 134.555 277.578 130.24 281.237C130.262 275.419 130.236 269.603 130.252 263.785C124.839 266.365 119.491 269.07 114.103 271.697C115.876 265.437 117.69 259.188 119.466 252.931C113.194 252.726 106.916 252.652 100.648 252.371C102.487 247.747 104.207 243.083 106.024 238.45C101.254 239.316 96.4742 240.126 91.7042 240.986C94.9157 236.481 98.1746 232.003 101.358 227.481C100.979 226.508 99.9571 225.909 99.121 225.289C93.9725 221.547 88.805 217.828 83.6816 214.056C87.9816 214.026 92.2847 214.056 96.5846 214.044C96.5057 213.795 96.3512 213.3 96.2723 213.051C98.2219 213.146 100.175 213.232 102.124 213.38C102.733 213.439 103.345 213.368 103.945 213.24C103.897 181.42 103.935 149.6 103.923 117.78C122.624 113.284 141.338 108.827 160.039 104.331ZM109.891 122.605C109.869 123.907 109.85 125.206 109.86 126.505C110.481 126.505 111.103 126.508 111.727 126.508C111.724 125.526 111.721 124.544 111.727 123.563C127.971 118.21 144.212 112.848 160.459 107.507C143.575 112.451 126.763 117.617 109.891 122.605ZM162.607 107.846C167.715 109.346 172.718 111.149 177.791 112.751C188.801 116.351 199.808 119.954 210.812 123.578C210.803 124.553 210.803 125.529 210.803 126.508C211.402 126.505 212.005 126.505 212.61 126.508C212.607 125.206 212.617 123.907 212.601 122.608C197.102 118.029 181.628 113.37 166.138 108.765C164.97 108.424 163.819 108.018 162.607 107.846ZM158.929 109.42C158.951 116.538 158.954 123.652 158.929 130.766C159.21 130.772 159.771 130.781 160.052 130.787C160.046 123.533 160.049 116.28 160.049 109.029C159.768 109.127 159.21 109.322 158.929 109.42ZM162.169 130.775C162.541 130.775 162.913 130.775 163.289 130.775C163.298 123.67 163.223 116.558 163.33 109.453C162.945 109.308 162.56 109.159 162.178 109.017C162.169 116.271 162.188 123.521 162.169 130.775ZM112.97 124.877C112.996 155.042 113.021 185.204 113.027 215.367C114.232 215.367 115.441 215.373 116.649 215.349C118.98 193.443 121.413 171.542 123.734 149.633C120.952 147.311 118.207 144.95 115.441 142.613C115.431 139.325 115.434 136.039 115.437 132.753C116.393 132.279 117.28 131.674 118.28 131.294C120.999 131.235 123.722 131.291 126.441 131.273C126.441 133.222 126.448 135.17 126.438 137.118C125.974 137.376 125.517 137.64 125.069 137.925C128.082 137.952 131.095 137.943 134.107 137.955C134.111 136.184 134.088 134.414 134.123 132.643C135.335 132.169 136.357 131.069 137.764 131.208C140.212 131.22 142.66 131.211 145.108 131.214C145.095 133.165 145.124 135.117 145.092 137.068C144.502 137.376 143.925 137.705 143.348 138.038C147.446 138.014 151.544 138.07 155.639 138.058C155.642 136.282 155.645 134.509 155.639 132.735C156.244 132.397 156.85 132.062 157.459 131.73C157.478 124.45 157.459 117.169 157.472 109.889C142.638 114.892 127.807 119.892 112.97 124.877ZM164.759 109.883C164.762 117 164.762 124.117 164.759 131.235C165.396 131.238 166.034 131.238 166.671 131.244C166.655 133.26 166.674 135.28 166.658 137.296C166.185 137.557 165.712 137.818 165.248 138.088C169.557 138.112 173.867 138.073 178.179 138.052C178.183 136.264 178.173 134.476 178.186 132.691C179.416 132.178 180.476 131.069 181.921 131.232C184.331 131.247 186.745 131.229 189.155 131.244C189.139 133.201 189.148 135.158 189.148 137.115C188.625 137.388 188.104 137.664 187.59 137.94C190.281 138.094 192.985 137.919 195.682 137.96C195.679 136.205 195.669 134.452 195.685 132.7C196.603 132.24 197.468 131.688 198.411 131.276C201.162 131.181 203.922 131.267 206.679 131.238C206.673 135.048 206.686 138.856 206.673 142.667C204.216 145.253 201.768 147.845 199.319 150.436C201.61 171.673 203.935 192.903 206.194 214.139C207.197 214.204 208.2 214.267 209.206 214.299C209.153 200.34 209.254 186.376 209.222 172.414C209.251 156.578 209.216 140.745 209.266 124.912C194.433 119.897 179.59 114.906 164.759 109.883ZM107.14 117.845C106.273 118.053 105.396 118.243 104.554 118.53C104.61 121.19 104.566 123.851 104.579 126.511C105.194 126.505 105.809 126.502 106.424 126.496C106.402 124.052 106.412 121.609 106.427 119.165C116.643 116.268 126.914 113.533 137.114 110.586C127.123 113.003 117.132 115.431 107.14 117.845ZM185.644 110.773C195.881 113.584 206.137 116.339 216.361 119.186C216.314 121.623 216.371 124.064 216.264 126.502C216.538 126.505 217.087 126.508 217.362 126.508C217.352 123.821 217.368 121.131 217.352 118.444C206.771 115.938 196.247 113.207 185.644 110.773ZM107.219 120.221C107.188 122.311 107.219 124.402 107.178 126.493C107.778 126.502 108.374 126.505 108.973 126.514C108.967 124.856 108.983 123.201 108.964 121.546C118.334 118.338 127.766 115.301 137.12 112.054C127.154 114.776 117.198 117.531 107.219 120.221ZM185.546 112.288C194.799 115.298 204.004 118.447 213.226 121.546C213.222 123.198 213.254 124.853 213.251 126.508C213.857 126.505 214.462 126.505 215.071 126.502C215.112 124.405 214.986 122.311 214.999 120.218C206.067 117.816 197.155 115.345 188.237 112.911C187.35 112.665 186.464 112.407 185.546 112.288ZM104.579 128.239C104.613 145.822 104.585 163.405 104.595 180.987C104.563 191.74 104.746 202.49 104.613 213.243C105.26 213.246 105.907 213.246 106.554 213.243C106.443 184.911 106.506 156.575 106.497 128.239C105.856 128.237 105.216 128.239 104.579 128.239ZM107.21 128.18C107.163 156.537 107.238 184.89 107.197 213.246C107.834 213.249 108.472 213.249 109.109 213.252C109.109 184.917 109.106 156.584 109.103 128.248C108.469 128.219 107.841 128.195 107.21 128.18ZM109.841 128.237C109.831 156.575 109.876 184.914 109.857 213.252C110.494 213.249 111.131 213.249 111.772 213.246C111.759 184.911 111.762 156.575 111.768 128.239C111.125 128.239 110.481 128.237 109.841 128.237ZM210.812 128.48C210.778 156.925 210.737 185.37 210.759 213.816C211.38 213.816 212.005 213.816 212.629 213.816C212.588 185.37 212.623 156.925 212.604 128.48C212.005 128.48 211.408 128.48 210.812 128.48ZM213.226 128.483C213.194 156.928 213.248 185.37 213.197 213.816C213.819 213.81 214.443 213.798 215.068 213.795C215.144 185.359 215.087 156.919 215.115 128.48C214.484 128.48 213.853 128.48 213.226 128.483ZM215.879 128.474C215.86 156.919 215.888 185.364 215.866 213.81C216.488 213.813 217.115 213.816 217.74 213.816C217.731 185.379 217.737 156.94 217.74 128.5C217.119 128.486 216.497 128.48 215.879 128.474ZM116.576 133.008C116.579 134.429 116.579 135.852 116.576 137.275C118.58 137.284 120.583 137.287 122.586 137.272C122.561 135.849 122.57 134.426 122.577 133.002C120.577 132.999 118.576 132.99 116.576 133.008ZM135.275 132.889C135.281 134.328 135.284 135.766 135.271 137.207C137.272 137.207 139.272 137.21 141.272 137.204C141.266 135.766 141.269 134.328 141.269 132.889C139.272 132.886 137.272 132.886 135.275 132.889ZM156.825 132.889C156.828 134.328 156.828 135.766 156.822 137.207C158.815 137.207 160.809 137.207 162.803 137.207C162.797 135.766 162.8 134.328 162.8 132.889C160.809 132.886 158.815 132.886 156.825 132.889ZM179.325 132.886C179.321 134.328 179.325 135.766 179.321 137.207C181.322 137.207 183.318 137.207 185.319 137.207C185.309 135.769 185.309 134.328 185.322 132.889C183.322 132.884 181.322 132.889 179.325 132.886ZM196.837 132.889C196.846 134.328 196.849 135.766 196.837 137.207C198.837 137.21 200.837 137.207 202.837 137.207C202.831 135.766 202.834 134.328 202.834 132.886C200.834 132.886 198.837 132.886 196.837 132.889ZM116.491 138.634C116.491 139.597 116.491 140.561 116.494 141.528C145.272 141.522 174.053 141.522 202.831 141.528C202.834 140.561 202.834 139.597 202.834 138.631C174.053 138.634 145.272 138.631 116.491 138.634ZM125.886 149.182C125.706 150.866 125.539 152.554 125.318 154.235C129.353 154.271 133.385 154.247 137.417 154.25C137.407 152.557 137.401 150.866 137.42 149.179C133.574 149.173 129.729 149.164 125.886 149.182ZM138.83 154.25C153.768 154.256 168.702 154.25 183.637 154.253C183.637 152.56 183.631 150.866 183.64 149.173C168.702 149.173 153.768 149.173 138.83 149.173C138.839 150.866 138.836 152.56 138.83 154.25ZM185.025 149.176C185.028 150.866 185.025 152.56 185.025 154.25C189.032 154.253 193.038 154.259 197.045 154.247C196.874 152.554 196.663 150.866 196.499 149.173C192.672 149.173 188.849 149.17 185.025 149.176ZM125.192 155.62C124.914 157.865 124.719 160.116 124.435 162.361C136.429 162.361 148.421 162.361 160.415 162.361C160.434 160.116 160.405 157.871 160.431 155.623C148.686 155.614 136.937 155.623 125.192 155.62ZM161.98 155.632C161.995 157.874 161.98 160.116 161.986 162.361C173.968 162.364 185.95 162.358 197.931 162.364C197.707 160.116 197.436 157.871 197.203 155.623C185.464 155.623 173.722 155.608 161.98 155.632ZM124.299 163.675C124.059 165.917 123.798 168.156 123.574 170.4C128.186 170.403 132.801 170.4 137.414 170.4C137.426 168.158 137.363 165.917 137.451 163.678C133.069 163.657 128.684 163.666 124.299 163.675ZM138.833 170.403C153.768 170.397 168.702 170.4 183.637 170.4C183.637 168.156 183.631 165.911 183.64 163.666C168.702 163.669 153.768 163.669 138.83 163.666C138.839 165.911 138.833 168.156 138.833 170.403ZM185.025 163.669C185.025 165.911 185.025 168.156 185.025 170.4C189.625 170.403 194.228 170.397 198.827 170.4C198.572 168.156 198.326 165.914 198.086 163.666C193.732 163.669 189.379 163.666 185.025 163.669ZM123.422 171.679C123.182 173.923 122.93 176.165 122.684 178.41C134.88 178.413 147.08 178.404 159.279 178.413C159.655 177.98 160.03 177.547 160.409 177.114C160.412 175.302 160.393 173.493 160.418 171.682C148.086 171.673 135.754 171.679 123.422 171.679ZM161.967 171.679C161.977 173.577 161.961 175.477 161.977 177.378C162.283 177.722 162.585 178.069 162.888 178.416C175.163 178.401 187.435 178.413 199.711 178.41C199.452 176.168 199.196 173.926 198.979 171.682C186.644 171.67 174.305 171.679 161.967 171.679ZM148.597 192.431C140.969 189.549 133.303 186.752 125.643 183.941C130.643 191.121 135.559 198.356 140.59 205.518C140.439 205.524 140.136 205.539 139.985 205.545C140.196 205.892 140.407 206.239 140.622 206.589C135.994 206.586 131.369 206.583 126.741 206.589C128.899 208.175 131.009 209.827 133.202 211.372C133.912 211.482 134.647 211.36 135.366 211.345C133.612 209.955 131.811 208.62 130.028 207.265C134.688 207.244 139.351 207.274 144.013 207.25C139.433 200.69 134.918 194.089 130.356 187.517C136.656 189.831 142.966 192.132 149.244 194.507C153.222 189.872 157.134 185.19 161.084 180.534C165.027 185.192 168.936 189.878 172.924 194.504C179.154 192.144 185.423 189.869 191.675 187.559C187.237 194.125 182.82 200.702 178.362 207.256C182.997 207.265 187.631 207.253 192.265 207.262C190.003 208.932 187.656 210.497 185.391 212.164C186.167 212.176 186.95 212.188 187.729 212.211C190.291 210.358 192.805 208.448 195.37 206.598C190.707 206.577 186.044 206.58 181.381 206.598C182.35 204.296 184.006 202.345 185.347 200.231C188.994 194.822 192.653 189.418 196.297 184.006C188.726 186.824 181.12 189.564 173.567 192.431C169.359 187.559 165.235 182.618 161.084 177.702C156.926 182.612 152.802 187.556 148.597 192.431ZM121.794 186.453C123.29 186.453 124.788 186.459 126.287 186.45C125.265 185.018 124.261 183.573 123.283 182.114C126.946 183.508 130.637 184.831 134.309 186.21C135.284 186.622 136.376 186.411 137.41 186.45C137.391 184.208 137.395 181.966 137.407 179.724C132.451 179.721 127.495 179.724 122.536 179.724C122.296 181.966 122.053 184.211 121.794 186.453ZM138.811 186.456C143.376 186.45 147.941 186.462 152.506 186.45C154.405 184.205 156.282 181.945 158.21 179.724C151.746 179.718 145.282 179.73 138.814 179.718C138.814 181.963 138.821 184.208 138.811 186.456ZM163.951 179.724C165.879 181.948 167.756 184.211 169.662 186.453C174.315 186.456 178.968 186.456 183.621 186.453C183.615 184.211 183.615 181.966 183.621 179.724C177.063 179.721 170.507 179.721 163.951 179.724ZM185.013 179.721C185.013 181.966 185.016 184.208 185.009 186.453C185.927 186.417 186.899 186.595 187.77 186.239C190.508 185.21 193.262 184.214 196.004 183.188C196.748 182.921 197.48 182.544 198.307 182.601C197.521 183.923 196.613 185.175 195.748 186.453C197.363 186.456 198.982 186.456 200.597 186.453C200.316 184.211 200.111 181.963 199.843 179.721C194.9 179.724 189.956 179.724 185.013 179.721ZM150.124 197.289C145.644 195.631 141.161 193.97 136.675 192.325C140.631 198.015 144.559 203.721 148.493 209.421C151.048 209.462 153.601 209.439 156.153 209.445C153.342 207.001 150.503 204.581 147.67 202.158C147.392 201.885 147.013 201.571 147.13 201.147C147.237 200.334 148.43 200.005 149.026 200.575C152.071 203.172 155.105 205.788 158.147 208.395C158.503 208.671 158.752 209.035 158.938 209.43C159.317 209.439 159.692 209.451 160.071 209.462C160.074 203.825 160.052 198.187 160.081 192.553C160.021 191.379 162.049 191.174 162.26 192.328C162.333 198.057 162.264 203.789 162.292 209.519C162.56 209.51 163.093 209.486 163.361 209.474C163.655 209.077 163.895 208.632 164.302 208.321C167.355 205.755 170.33 203.107 173.394 200.551C174.182 199.777 175.757 200.764 175.11 201.737C172.195 204.394 169.116 206.891 166.153 209.501C168.712 209.495 171.27 209.516 173.829 209.522C177.738 203.816 181.593 198.078 185.445 192.336C180.974 193.985 176.507 195.628 172.043 197.289C168.384 192.971 164.718 188.656 161.084 184.321C157.437 188.647 153.777 192.965 150.124 197.289ZM121.624 187.853C121.425 190.086 121.163 192.31 120.902 194.534C124.558 194.54 128.211 194.54 131.864 194.534C130.429 192.503 129.028 190.447 127.618 188.401C127.385 188.143 127.208 187.66 126.744 187.79C125.037 187.805 123.328 187.731 121.624 187.853ZM138.675 187.787C141.874 189.027 145.108 190.186 148.329 191.373C149.339 190.181 150.364 189.003 151.339 187.79C147.118 187.79 142.897 187.793 138.675 187.787ZM170.826 187.79C171.788 189.009 172.826 190.175 173.823 191.373C177.053 190.189 180.29 189.021 183.495 187.784C179.274 187.796 175.05 187.787 170.826 187.79ZM194.619 188.146C193.174 190.275 191.748 192.414 190.294 194.54C194.019 194.531 197.745 194.546 201.471 194.531C201.219 192.283 200.991 190.035 200.717 187.79C199.077 187.793 197.436 187.79 195.796 187.784C195.379 187.817 194.802 187.678 194.619 188.146ZM120.775 195.871C120.526 197.992 120.302 200.115 120.075 202.238C125.779 202.25 131.486 202.253 137.193 202.238C135.678 200.13 134.256 197.968 132.744 195.859C128.754 195.889 124.763 195.859 120.775 195.871ZM189.347 195.904C187.972 198.039 186.527 200.136 185.088 202.235C190.833 202.256 196.581 202.247 202.326 202.241C202.077 200.118 201.85 197.995 201.619 195.871C197.528 195.889 193.439 195.83 189.347 195.904ZM119.64 203.946C119.378 206.699 119.062 209.445 118.826 212.2C123.018 212.205 127.208 212.2 131.401 212.203C128.11 209.774 124.845 207.312 121.558 204.878C126.867 204.848 132.177 204.881 137.483 204.86C137.332 204.632 137.029 204.175 136.877 203.946C131.129 203.944 125.384 203.946 119.64 203.946ZM185.148 203.944C184.934 204.246 184.722 204.551 184.514 204.86C189.865 204.881 195.215 204.848 200.566 204.875C197.272 207.327 193.963 209.762 190.66 212.203C194.96 212.203 199.263 212.2 203.563 212.203C203.276 209.451 203.001 206.701 202.723 203.949C196.865 203.938 191.007 203.952 185.148 203.944ZM137.013 209.575C137.77 210.156 138.54 210.726 139.287 211.316C140.36 212.401 142.07 211.553 143.439 211.74C144.313 211.007 145.19 210.281 146.089 209.578C143.064 209.545 140.038 209.551 137.013 209.575ZM179.041 209.548C180.113 210.18 181.009 211.061 181.454 212.194C182.457 211.162 183.738 210.429 184.908 209.578C182.953 209.537 180.997 209.578 179.041 209.548ZM145.332 213.208C142.54 213.377 139.748 213.498 136.953 213.561C136.675 214.127 136.423 214.699 136.167 215.278C143.906 215.77 151.651 216.141 159.386 216.642C159.418 218.759 159.576 220.874 159.614 222.994C160.642 222.994 161.674 222.994 162.705 222.997C162.781 220.883 162.879 218.771 162.923 216.66C172.198 216.043 181.489 215.571 190.773 215.026C192.571 214.886 194.392 214.958 196.171 214.631C190.732 214.628 185.29 214.388 179.848 214.317C179.873 213.931 179.899 213.543 179.924 213.16C168.393 213.154 156.863 213.19 145.332 213.208ZM119.387 214.24C124.018 214.664 128.669 214.88 133.316 215.079C133.407 214.676 133.498 214.275 133.593 213.875C128.855 213.81 124.123 214.139 119.387 214.24ZM89.0542 215.755C93.0071 218.7 97.0263 221.571 101.017 224.471C100.127 221.568 99.2756 218.658 98.4081 215.749C95.288 215.752 92.1711 215.737 89.0542 215.755ZM223.904 215.761C223.056 218.682 222.176 221.594 221.305 224.507C225.315 221.588 229.334 218.673 233.347 215.755C230.198 215.746 227.05 215.737 223.904 215.761ZM100.228 215.933C100.986 218.516 101.765 221.096 102.528 223.676C102.809 224.693 103.528 225.524 104.266 226.283C108.081 223.101 111.977 220.008 115.784 216.823C110.601 216.529 105.412 216.259 100.228 215.933ZM206.5 216.826C210.371 219.954 214.197 223.133 218.068 226.259C218.803 225.521 219.513 224.699 219.788 223.7C220.567 221.111 221.321 218.516 222.109 215.93C216.907 216.262 211.702 216.523 206.5 216.826ZM202.206 216.974C201.865 220.316 201.512 223.658 201.203 227.003C204.777 227.371 208.361 227.677 211.923 228.154C213.106 228.296 214.292 228.065 215.434 227.78C213.894 226.36 212.191 225.106 210.591 223.747C207.777 221.508 205.083 219.139 202.206 216.974ZM117.57 218.976C114.024 221.932 110.355 224.767 106.882 227.801C107.999 228.038 109.147 228.291 110.302 228.163C113.901 227.689 117.526 227.374 121.141 227.001C120.791 223.661 120.463 220.319 120.129 216.977C119.22 217.579 118.406 218.291 117.57 218.976ZM123.116 217.238C123.454 220.378 123.753 223.522 124.072 226.665C129.173 226.173 134.278 225.672 139.369 225.082C134.77 222.635 130.195 220.144 125.612 217.671C124.883 217.182 123.952 217.324 123.116 217.238ZM131.426 217.704C135.508 219.928 139.609 222.122 143.698 224.337C144.275 224.732 145.007 224.504 145.66 224.477C149.329 224.074 153.004 223.75 156.67 223.317C156.604 221.924 156.563 220.527 156.519 219.133C148.152 218.647 139.789 218.19 131.426 217.704ZM182.943 225.061C188.025 225.696 193.136 226.155 198.234 226.671C198.591 223.531 198.868 220.384 199.2 217.244C198.506 217.321 197.755 217.208 197.105 217.475C192.366 219.975 187.704 222.603 182.943 225.061ZM165.791 219.142C165.765 220.536 165.709 221.929 165.649 223.323C169.785 223.75 173.924 224.251 178.069 224.56C182.404 222.386 186.631 219.987 190.906 217.692C182.536 218.214 174.16 218.632 165.791 219.142ZM156.055 226.084C151.891 226.517 147.723 226.929 143.562 227.374C143.417 227.763 143.272 228.151 143.127 228.54C157.14 228.362 171.16 228.264 185.17 228.021C177.776 227.244 170.371 226.526 162.977 225.737C160.661 225.491 158.352 225.856 156.055 226.084ZM218.377 228.4C217.254 228.747 216.16 229.177 215.018 229.465C212.286 230.18 209.522 229.21 206.774 229.109C206.096 229.904 205.544 230.826 204.67 231.455C203.834 231.944 202.875 232.208 201.966 232.552C202.033 233.181 202.01 233.931 201.367 234.305C198.499 236.06 194.978 236.464 191.628 236.541C194.587 245.357 197.458 254.2 200.408 263.02C195.805 260.79 191.18 258.601 186.577 256.365C186.473 260.725 186.338 265.084 186.205 269.443C182.596 266.401 178.965 263.385 175.34 260.36C170.592 268.132 165.806 275.881 161.065 283.657C156.307 275.908 151.537 268.168 146.815 260.404C143.095 263.31 139.575 266.436 135.915 269.414C135.726 265.072 135.701 260.725 135.521 256.383C130.915 258.586 126.315 260.805 121.709 263.014C124.596 254.352 127.441 245.677 130.315 237.009C129.606 236.997 128.896 236.982 128.189 236.985C127.829 237.134 127.47 237.338 127.06 237.294C125.485 237.306 123.914 237.291 122.343 237.288C123.498 234.213 124.624 231.132 125.772 228.053C120.618 228.623 115.444 229.044 110.302 229.714C108.058 229.945 105.957 229.053 103.891 228.382C103.8 228.202 103.617 227.84 103.528 227.659C100.913 231.271 98.3387 234.907 95.7297 238.519C100.124 237.789 104.503 236.98 108.891 236.223C106.998 241.066 105.194 245.935 103.282 250.772C109.488 250.956 115.693 251.155 121.902 251.264C120.302 256.955 118.658 262.637 117.024 268.319C122.066 265.837 127.113 263.361 132.151 260.87C132.142 266.338 132.151 271.804 132.148 277.272C135.975 273.986 139.817 270.715 143.654 267.438C149.493 277.094 155.307 286.771 161.188 296.409C167.034 286.75 172.867 277.085 178.716 267.433C182.533 270.727 186.382 273.989 190.215 277.272C190.221 271.807 190.183 266.338 190.231 260.87C195.24 263.388 200.297 265.819 205.313 268.322C203.746 262.628 201.982 256.979 200.506 251.267C206.695 251.158 212.882 250.938 219.071 250.787C217.172 245.944 215.349 241.078 213.465 236.229C217.854 236.98 222.232 237.78 226.618 238.53C224.024 234.892 221.415 231.262 218.813 227.632C218.664 227.884 218.519 228.142 218.377 228.4ZM131.808 228.566C131.3 228.685 130.561 228.498 130.303 229.062C132.918 229.109 135.536 229.059 138.155 229.088C138.319 228.688 138.483 228.288 138.647 227.887C136.363 228.086 134.088 228.356 131.808 228.566ZM140.12 228.092C138.928 231.129 137.827 234.198 136.641 237.238C137.256 237.24 137.874 237.24 138.492 237.243C139.581 234.195 140.66 231.143 141.764 228.101C141.215 228.098 140.669 228.095 140.12 228.092ZM124.697 235.781C125.306 235.773 125.918 235.767 126.53 235.758C127.306 233.468 128.101 231.185 128.918 228.91C128.363 228.937 127.81 228.97 127.255 229.002C126.328 231.235 125.571 233.528 124.697 235.781ZM142.676 229.868C142.363 230.702 142.067 231.538 141.764 232.371C159.043 232.371 176.321 232.371 193.603 232.371C196.262 232.365 198.912 231.914 201.414 231.066C202.32 230.74 203.313 230.53 204.055 229.901C200.891 229.675 197.739 229.145 194.559 229.263C177.264 229.474 159.97 229.675 142.676 229.868ZM129.946 230.393C129.356 232.08 128.76 233.765 128.129 235.44C128.76 235.458 129.391 235.473 130.022 235.488C130.754 233.786 131.464 232.078 132.218 230.384C131.461 230.381 130.703 230.384 129.946 230.393ZM131.05 235.497C131.669 235.509 132.29 235.52 132.909 235.526C133.631 233.809 134.357 232.092 135.114 230.39C134.476 230.384 133.839 230.378 133.205 230.369C132.454 232.066 131.785 233.795 131.05 235.497ZM136.076 230.378C135.369 232.116 134.615 233.836 133.946 235.586C134.536 235.601 135.126 235.615 135.719 235.639C136.486 233.919 137.06 232.128 137.786 230.393C137.215 230.384 136.647 230.381 136.076 230.378ZM200.291 233.107C198.212 233.634 196.067 233.961 193.909 233.946C176.343 233.946 158.778 233.946 141.215 233.949C141.064 234.337 140.918 234.726 140.77 235.114C155.755 235.052 170.74 235.04 185.726 234.99C190.593 234.752 195.915 235.648 200.291 233.107ZM140.499 236.638C140.24 237.35 139.982 238.065 139.713 238.777C137.899 238.747 136.085 238.783 134.271 238.753C134.483 238.213 134.697 237.673 134.909 237.137C133.959 237.107 133.009 237.092 132.06 237.083C129.558 244.702 127.015 252.308 124.523 259.93C128.732 257.887 132.968 255.891 137.174 253.844C137.262 257.898 137.388 261.952 137.502 266.006C140.739 263.305 143.982 260.606 147.212 257.892C151.815 265.431 156.43 272.963 161.068 280.481C165.674 272.945 170.299 265.419 174.921 257.892C178.129 260.624 181.385 263.305 184.618 266.009C184.694 261.955 184.864 257.901 184.953 253.847C189.161 255.882 193.376 257.907 197.597 259.921C195.061 252.234 192.515 244.551 189.975 236.864C187.915 236.739 185.858 236.532 183.795 236.517C169.362 236.555 154.932 236.603 140.499 236.638Z" fill="#FF4500"/>
</svg>
