<svg width="91" height="64" viewBox="0 0 91 64" fill="none" xmlns="http://www.w3.org/2000/svg">
<g opacity="0.8">
<g clip-path="url(#clip0_441_5839)">
<path fill-rule="evenodd" clip-rule="evenodd" d="M52.8207 4.20703L52.9928 5.47846C53.5166 9.34598 54.0357 13.2177 54.5545 17.0893C56.0988 16.3553 57.6445 15.6223 59.1905 14.8892C60.3912 14.3198 61.592 13.7503 62.7925 13.1802L65.5296 11.9579L64.8474 13.8281C63.9949 15.1921 63.4675 15.6854 62.616 17.0508L61.9391 18.2677C61.2057 19.4437 59.2486 20.188 58.5145 21.3634L72.9206 21.7998L70.7602 22.6246C69.6951 23.1501 67.9202 25.6097 66.4848 24.7246C64.7276 25.5921 65.0351 26.1503 63.2769 27.0167L64.8474 31.2256H63.9713C55.0651 30.9947 50.1277 30.081 47.729 30.9282C47.7103 30.9348 47.6903 30.942 47.669 30.9496C47.1661 31.1296 45.9334 31.5707 44.243 31.7756C41.1973 32.1454 38.6088 31.5145 37.452 31.2256L37.4513 31.2255C36.2068 30.9121 35.2774 30.5578 34.9016 30.4145C34.8484 30.3941 34.8063 30.3781 34.7759 30.367L34.7735 30.3661C32.4667 29.5033 29.3071 29.6786 20.1077 30.0065L17.4274 30.3661L22.367 25.673C21.6885 25.3567 21.0103 25.0406 20.3322 24.7246C18.7226 23.9745 17.1141 23.2249 15.5058 22.4734L13.9062 21.726L15.6693 21.742C17.7166 21.7605 19.7639 21.7801 21.811 21.7998L21.8118 21.7998C23.6309 21.8173 25.45 21.8348 27.269 21.8514C26.5494 20.6564 25.8298 19.4621 25.1101 18.2677L25.1027 18.2555C24.2657 16.8664 23.4287 15.4773 22.5917 14.087L21.9915 13.09L23.0618 13.5333C25.3246 14.4706 27.5838 15.4056 29.8431 16.3407C31.891 17.1884 33.939 18.036 35.9897 18.8853C36.042 17.1613 36.0953 15.4292 36.1486 13.6971C36.2069 11.8018 36.2653 9.90651 36.3222 8.02227L36.3528 7.00899L36.9955 7.78895C38.6536 9.8012 40.313 11.8147 41.9724 13.8281C43.3041 15.444 44.6359 17.0599 45.9669 18.6751C48.0683 14.2412 50.1702 9.80322 52.2722 5.36514L52.8207 4.20703ZM52.4106 6.85388C50.4061 11.0862 48.4016 15.3183 46.3975 19.5465L46.1411 20.0873L45.7611 19.6262C44.3075 17.8622 42.8529 16.0972 41.3982 14.3321C41.3819 14.3122 41.3655 14.2924 41.3492 14.2726C39.9167 12.5344 38.4841 10.7961 37.0524 9.05876C37.0052 10.6124 36.9575 12.1613 36.9098 13.71C36.9097 13.7139 36.9096 13.7177 36.9095 13.7216C36.8507 15.6323 36.7918 17.5429 36.7339 19.4622L36.7172 20.0159L36.2087 19.8053C34.0014 18.8911 31.7929 17.977 29.5844 17.0629C29.5747 17.0589 29.5649 17.0548 29.5552 17.0508C27.6509 16.2626 25.7465 15.4744 23.8429 14.6861C24.4805 15.7449 25.1182 16.8031 25.7559 17.8614L25.7615 17.8708L25.7617 17.8712C26.5992 19.2611 27.4368 20.6511 28.2743 22.0422L28.6286 22.6308L27.9454 22.6246C25.9045 22.6062 23.8635 22.5866 21.8227 22.567C21.8176 22.5669 21.8125 22.5669 21.8074 22.5668L21.8037 22.5668C21.8015 22.5668 21.7993 22.5668 21.797 22.5667C20.3404 22.5527 18.8839 22.5388 17.4274 22.5252C18.5018 23.0265 19.5764 23.5273 20.6517 24.0284C20.6569 24.0308 20.662 24.0332 20.6672 24.0356C21.5404 24.4426 22.4141 24.8497 23.2884 25.2575L23.8899 25.538L20.6672 29.5338C29.046 29.3221 32.7076 28.7756 35.037 29.6465C35.0374 29.6466 35.0379 29.6468 35.0384 29.647L34.9059 30.0065L35.036 29.6461L35.037 29.6465C35.0703 29.6587 35.115 29.6757 35.1705 29.6968C35.5513 29.8419 36.4384 30.1798 37.6351 30.4811L37.5436 30.8534L37.6358 30.4813C38.777 30.7663 41.2519 31.3662 44.152 31.0141C45.758 30.8194 46.9264 30.4014 47.4166 30.2259C47.4375 30.2185 47.4571 30.2114 47.4756 30.2049L47.4765 30.2045C49.9181 29.3421 54.2626 28.588 62.616 28.7468L60.2935 26.2041L60.752 25.9783C62.6598 25.0383 64.5675 24.0966 66.4742 23.1553C66.4778 23.1535 66.4813 23.1518 66.4848 23.15C67.0746 22.8589 67.6642 22.5678 68.2538 22.2768L57.1483 22.11L57.5093 21.5324C58.3602 20.1709 59.21 18.8082 60.0599 17.4454C60.0615 17.4428 60.0631 17.4403 60.0647 17.4377L60.0708 17.4279C60.0712 17.4273 60.0715 17.4268 60.0719 17.4262C60.6941 16.4285 61.3163 15.4306 61.9391 14.4332C61.1309 14.8167 60.3228 15.1999 59.5149 15.583C57.8122 16.3905 56.1103 17.1976 54.4093 18.0065L53.9392 18.2301L53.8696 17.711C53.3845 14.0906 52.8993 10.4706 52.4106 6.85388Z" fill="#FFCC00"/>
<path d="M52.4106 6.85388C50.4061 11.0862 48.4016 15.3183 46.3975 19.5465L46.1411 20.0873L45.7611 19.6262C44.3075 17.8622 42.8529 16.0972 41.3982 14.3321L41.3492 14.2726C39.9167 12.5344 38.4841 10.7961 37.0524 9.05876C37.0052 10.6124 36.9575 12.1613 36.9098 13.71L36.9095 13.7216C36.8507 15.6323 36.7918 17.5429 36.7339 19.4622L36.7172 20.0159L36.2087 19.8053C34.0014 18.8911 31.7929 17.977 29.5844 17.0629L29.5552 17.0508C27.6509 16.2626 25.7465 15.4744 23.8429 14.6861C24.4805 15.7449 25.1182 16.8031 25.7559 17.8614L25.7615 17.8708L25.7617 17.8712C26.5992 19.2611 27.4368 20.6511 28.2743 22.0422L28.6286 22.6308L27.9454 22.6246C25.9045 22.6062 23.8635 22.5866 21.8227 22.567L21.8074 22.5668L21.8037 22.5668L21.797 22.5667C20.3404 22.5527 18.8839 22.5388 17.4274 22.5252C18.5018 23.0265 19.5764 23.5273 20.6517 24.0284L20.6672 24.0356C21.5404 24.4426 22.4141 24.8497 23.2884 25.2575L23.8899 25.538L20.6672 29.5338C29.046 29.3221 32.7076 28.7756 35.037 29.6465C35.0703 29.6587 35.115 29.6757 35.1705 29.6968C35.5513 29.8419 36.4384 30.1798 37.6351 30.4811L37.5436 30.8534L37.6358 30.4813C38.777 30.7663 41.2519 31.3662 44.152 31.0141C45.758 30.8194 46.9264 30.4014 47.4166 30.2259L47.4756 30.2049L47.4765 30.2045C49.9181 29.3421 54.2626 28.588 62.616 28.7468L60.2935 26.2041L60.752 25.9783C62.6598 25.0383 64.5675 24.0966 66.4742 23.1553L66.4848 23.15C67.0746 22.8589 67.6642 22.5678 68.2538 22.2768L57.1483 22.11L57.5093 21.5324C58.3602 20.1709 59.21 18.8082 60.0599 17.4454L60.0647 17.4377L60.0708 17.4279L60.0719 17.4262C60.6941 16.4285 61.3163 15.4306 61.9391 14.4332C61.1309 14.8167 60.3228 15.1999 59.5149 15.583C57.8122 16.3905 56.1103 17.1976 54.4093 18.0065L53.9392 18.2301L53.8696 17.711C53.3845 14.0906 52.8993 10.4706 52.4106 6.85388Z" fill="#FFCC00"/>
<mask id="mask0_441_5839" style="mask-type:luminance" maskUnits="userSpaceOnUse" x="0" y="0" width="91" height="64">
<path d="M91.0005 0H0.261719V64H91.0005V0Z" fill="white"/>
</mask>
<g mask="url(#mask0_441_5839)">
<path d="M33.3387 40.7753C30.5236 45.7647 27.9927 49.8418 25.7421 53.0029L32.338 59.344L28.5378 62.9932C24.0016 58.4316 17.8613 52.6658 10.1245 45.7002C9.36132 49.7774 8.8045 52.5901 8.45797 54.1424C7.79992 57.3374 7.10687 60.135 6.37872 62.5389H0.261719C1.204 59.8928 2.33317 55.9214 3.65703 50.6295C4.52922 47.1919 5.22621 44.3337 5.74793 42.051C4.31896 40.745 3.15085 39.7872 2.24751 39.1777L6.17234 35.6647C12.1881 40.5027 17.3551 45.0188 21.681 49.2173L26.0614 42.1455L22.2105 39.4087L25.5358 35.623L33.3426 40.7791L33.3387 40.7753Z" fill="#D9D9D9"/>
<path d="M61.3531 41.0025C61.3531 41.824 61.0882 43.1943 60.5627 45.1101C58.6666 52.0451 54.0759 57.9469 46.779 62.8155L43.6758 58.935C49.0917 55.2857 52.8026 50.8111 54.8079 45.5188C55.053 44.8792 55.1777 44.2279 55.1777 43.5578C55.1777 42.9483 54.9906 42.3958 54.6208 41.8921C54.251 41.3887 53.7293 41.1388 53.0593 41.1388H40.6231C40.1908 41.1388 39.9261 41.0517 39.8248 40.8738C39.7781 40.7943 39.7781 40.7148 39.7781 40.6845C39.7781 37.198 39.8132 36.4295 39.8132 36.4295C39.8599 35.4376 39.9689 33.2306 38.5827 32.0154C38.2206 31.7012 37.8468 31.5271 37.5859 31.4286C38.4348 31.069 39.2875 30.7132 40.1363 30.3535C40.7399 30.4822 41.4874 30.5958 42.344 30.6109C43.3485 30.6337 44.2129 30.5238 44.8868 30.3876C45.4471 30.7586 46.0118 31.1296 46.5726 31.5006C46.2806 31.6066 46.0587 31.7466 45.8875 31.8905C44.3647 33.1624 45.2566 36.0509 45.3074 36.2099H57.5644C58.32 36.2099 58.978 36.3727 59.5349 36.6983C60.0333 36.9897 60.3253 37.3304 60.4535 37.4894C61.5324 38.7765 61.3961 40.5444 61.3492 41.0025H61.3531Z" fill="#D9D9D9"/>
<path d="M91 57.8867C91 60.563 89.5903 62.0208 86.7675 62.2668L66.5744 64.0006L66.1543 59.1625L83.1422 57.701C84.5829 57.5801 85.3071 57.0008 85.3071 55.9676V45.0608C85.3071 43.6603 84.7777 42.8087 83.7185 42.5058L78.2595 40.8627H77.8351C76.8464 40.8627 76.1024 41.2451 75.6079 42.0022L73.9105 44.6483C73.665 45.0457 73.5407 45.4394 73.5407 45.8334C73.5407 46.3822 73.7858 46.7909 74.2804 47.0636L77.4536 48.8882L74.5956 52.9504L67.8362 49.0359C67.2053 48.6724 66.894 47.9571 66.894 46.8971C66.894 46.14 67.0888 45.4699 67.4741 44.8943L73.5016 35.6537C74.0271 34.8662 74.6541 34.4688 75.3899 34.4688C75.6002 34.4688 80.0313 35.8051 88.6829 38.4777C89.3877 38.6897 89.9485 39.1554 90.373 39.867C90.7935 40.5826 91.0038 41.3018 91.0038 42.0285V57.8792L91 57.8867Z" fill="#D9D9D9"/>
<path fill-rule="evenodd" clip-rule="evenodd" d="M53.0131 -0.273438L53.4468 2.51405C53.8097 4.84614 54.1716 7.17726 54.5335 9.50822L54.538 9.53725C54.8424 11.498 55.1468 13.4586 55.4517 15.4198L70.1182 8.43698L68.1516 11.1236C66.8545 12.8954 65.5724 14.6484 64.2901 16.4016C63.3333 17.7098 62.3765 19.018 61.4134 20.3342L78.6018 20.5008L75.3741 22.0524C73.2752 23.0614 71.1753 24.0695 69.0757 25.0774L69.0687 25.0807C67.2845 25.9372 65.5004 26.7936 63.7171 27.6506C63.8197 27.7806 63.9223 27.9106 64.0249 28.0406C65.0464 29.3348 66.0695 30.6311 67.0901 31.9273L68.9074 34.2356L66.1068 33.2199C63.2294 32.1764 58.8063 30.9676 53.3314 30.9861C49.7846 30.9972 46.7572 31.522 44.4294 32.1101L43.997 30.4906C46.4348 29.8748 49.6072 29.3245 53.3254 29.3129C57.5637 29.2986 61.1991 29.9859 64.0229 30.786C63.5686 30.2101 63.1141 29.6343 62.6599 29.0588C62.3447 28.6595 62.0297 28.2603 61.7148 27.8613L61.0772 27.0532L62.016 26.6019C64.1149 25.5929 66.2148 24.5849 68.3144 23.5769L68.3281 23.5704C69.3463 23.0816 70.3644 22.5929 71.3823 22.1041L58.1006 21.9754L59.0564 20.6696C60.3255 18.9359 61.6071 17.1836 62.8889 15.4311C63.5213 14.5664 64.1538 13.7017 64.7848 12.8391L54.1018 17.9254L53.9263 16.7978C53.5629 14.4622 53.2005 12.1276 52.838 9.79308L52.8336 9.76458C52.6156 8.36055 52.3977 6.95658 52.1795 5.55242C50.2666 9.64465 48.353 13.7371 46.4365 17.8295L45.8475 19.0873L44.975 17.9964C43.5001 16.1525 42.0261 14.3094 40.5522 12.4665C39.316 10.9207 38.0798 9.37495 36.8431 7.82879L36.48 19.4466L23.0773 13.7757L28.5335 22.2633L14.9601 22.138C15.6969 22.4695 16.4336 22.801 17.1705 23.1325L17.1752 23.1346C19.1195 24.0093 21.064 24.8842 23.0076 25.76L24.3204 26.3515L19.2031 30.0488C21.7678 29.5813 24.731 29.2289 28.0218 29.1654C32.9804 29.0692 37.2065 29.6579 40.4347 30.3348L40.0722 31.9705C36.9458 31.3149 32.855 30.7452 28.056 30.8383C23.0423 30.9351 18.8136 31.7245 15.6379 32.5514L11.2865 33.6843L20.9716 26.6867C21.4093 26.8838 21.847 27.081 22.2846 27.2782L20.9716 26.6867C19.4643 26.0079 17.9564 25.3296 16.4484 24.6511L16.4448 24.6495C14.5002 23.7747 12.5552 22.8996 10.6112 22.0237L6.98828 20.3912L25.4105 20.5612L18.6794 10.0903L34.8377 16.9271L35.2688 3.13576L36.7348 4.96853C38.4625 7.12853 40.1892 9.28755 41.916 11.4466C43.0972 12.9236 44.2785 14.4007 45.4601 15.878C45.2638 16.2973 45.0675 16.7166 44.8711 17.1359L45.4601 15.878L46.3327 16.969C46.0418 16.6053 45.7509 16.2417 45.4601 15.878C47.575 11.3605 49.6867 6.84288 51.7985 2.32501L53.0131 -0.273438Z" fill="#D9D9D9"/>
<path fill-rule="evenodd" clip-rule="evenodd" d="M51.7767 8.66602L51.9226 9.70608C52.3663 12.8698 52.8062 16.037 53.2458 19.2041C54.5544 18.6037 55.8641 18.004 57.1741 17.4043C58.1915 16.9385 59.209 16.4727 60.2263 16.0063L61.2251 15.5484L60.6367 16.4573C59.9144 17.5731 59.193 18.6899 58.4714 19.8068L58.4663 19.8149C57.8449 20.7768 57.2234 21.7389 56.6013 22.7005L67.5557 22.8593L66.3465 23.4352C65.444 23.8651 64.5409 24.2954 63.6376 24.726C62.1486 25.4356 60.6588 26.1456 59.1691 26.8544L61.5805 29.4031L60.8191 29.384C53.2725 29.1951 49.4948 29.8316 47.4623 30.5247C47.4464 30.5301 47.4295 30.536 47.4115 30.5422C46.9853 30.6894 45.9408 31.0503 44.5084 31.2179C41.9277 31.5204 39.7343 31.0043 38.7541 30.768L38.7535 30.7679C37.699 30.5116 36.9115 30.2217 36.5931 30.1044C36.548 30.0878 36.5123 30.0747 36.4865 30.0656L36.4845 30.0649C34.5299 29.3591 30.7909 28.6803 22.9957 28.9486L21.9029 28.9862L25.9719 26.2258C25.397 25.967 24.8223 25.7085 24.2477 25.45C22.8839 24.8364 21.5209 24.2231 20.1581 23.6084L18.8027 22.9971L20.2967 23.0101C22.0314 23.0252 23.7662 23.0413 25.5008 23.0574L25.5015 23.0574C27.0429 23.0717 28.5843 23.086 30.1256 23.0996C29.5158 22.1221 28.9061 21.1451 28.2963 20.1681L28.29 20.1581C27.5808 19.0218 26.8715 17.8854 26.1623 16.7481L25.6537 15.9325L26.5607 16.2952C28.4781 17.0619 30.3924 17.8268 32.3067 18.5917C34.042 19.2851 35.7774 19.9785 37.515 20.6733C37.5593 19.263 37.6045 17.8461 37.6497 16.4292C37.6991 14.8787 37.7485 13.3284 37.7968 11.787L37.8227 10.9581L38.3673 11.5961C39.7723 13.2422 41.1784 14.8893 42.5844 16.5363C43.7129 17.8582 44.8413 19.18 45.9691 20.5013C47.7498 16.8743 49.5308 13.2439 51.3119 9.61338L51.7767 8.66602ZM51.4292 10.8312C49.7307 14.2934 48.0322 17.7553 46.334 21.2141L46.1168 21.6565L45.7948 21.2793C44.5631 19.8363 43.3305 18.3925 42.0979 16.9486C40.8702 15.5105 39.6425 14.0723 38.4155 12.6349C38.3754 13.909 38.3349 15.1791 38.2944 16.4492C38.2446 18.0122 38.1947 19.5751 38.1456 21.1452L38.1315 21.5981L37.7006 21.4258C35.8221 20.6747 33.9425 19.9237 32.0628 19.1726C30.4492 18.5278 28.8355 17.8831 27.2225 17.2382C27.7628 18.1043 28.3031 18.97 28.8434 19.8357L28.8482 19.8434C29.5579 20.9805 30.2677 22.1176 30.9774 23.2557L31.2777 23.7372L30.6988 23.7321C28.9651 23.717 27.2314 23.7009 25.4978 23.6849L25.4946 23.6848C24.2585 23.6734 23.0224 23.6619 21.7864 23.6508C22.6968 24.0609 23.6073 24.4705 24.5184 24.8805C25.2627 25.2153 26.0074 25.5503 26.7527 25.8859L27.2624 26.1154L24.0575 28.2896C31.1572 28.1164 34.734 28.7638 36.7077 29.4762C36.7081 29.4763 36.7086 29.4765 36.709 29.4766L36.5967 29.7707L36.7069 29.4759C36.7072 29.476 36.7075 29.4761 36.7077 29.4762C36.736 29.4862 36.7739 29.5001 36.8209 29.5174C37.1435 29.636 37.8953 29.9125 38.9093 30.159L38.8317 30.4635L38.9099 30.1591C39.8768 30.3923 41.9739 30.883 44.4313 30.595C45.7922 30.4357 46.7822 30.0937 47.1976 29.9502C47.2153 29.9441 47.2319 29.9384 47.2475 29.933L47.2483 29.9327C49.3172 29.2272 52.9985 28.6104 60.0767 28.7403L58.1087 26.6603L58.4972 26.4755C60.1168 25.7052 61.7362 24.9334 63.3549 24.1619C63.8547 23.9238 64.3543 23.6857 64.8539 23.4476L55.4437 23.3112L55.7496 22.8387C56.472 21.7228 57.1934 20.606 57.9149 19.4891L57.9201 19.481C58.4476 18.6644 58.9752 17.8477 59.5031 17.0313C58.8183 17.345 58.1336 17.6585 57.449 17.9719C56.0062 18.6325 54.5641 19.2927 53.1228 19.9544L52.7244 20.1373L52.6655 19.7126C52.2544 16.7511 51.8433 13.7898 51.4292 10.8312Z" fill="#D9D9D9"/>
<path fill-rule="evenodd" clip-rule="evenodd" d="M14.9136 13.5742L15.0253 13.6733C15.5623 14.1501 16.1004 14.6259 16.6388 15.102L16.6394 15.1026C17.1775 15.5784 17.7158 16.0545 18.2531 16.5315L19.3308 17.4881L17.939 17.0625C16.6924 16.6813 15.4381 16.297 14.1839 15.9128C12.9436 15.5329 11.7034 15.1529 10.4709 14.776L9.09961 14.3566L10.5236 14.1659C11.2301 14.0713 11.9366 13.9758 12.6433 13.8802C13.3499 13.7846 14.057 13.6889 14.7639 13.5943L14.9136 13.5742ZM12.0328 14.5962C12.8152 14.8357 13.596 15.0749 14.3769 15.3141C14.3773 15.3142 14.3777 15.3144 14.3782 15.3145C15.164 15.5552 15.9498 15.796 16.737 16.037C16.5596 15.8801 16.3823 15.7232 16.2048 15.5663L16.2046 15.566C15.7037 15.1231 15.2025 14.6799 14.7021 14.2359C14.0456 14.324 13.389 14.4128 12.7322 14.5016L12.7319 14.5017C12.4989 14.5332 12.2659 14.5647 12.0328 14.5962Z" fill="#D9D9D9"/>
<path fill-rule="evenodd" clip-rule="evenodd" d="M67.531 2.09766L66.6475 2.87162C65.5533 3.83027 64.4584 4.78965 63.3634 5.74903C62.2918 6.68799 61.2201 7.62695 60.1492 8.56522L58.5078 10.0032L59.658 8.16877C60.1838 7.33013 60.7104 6.4915 61.237 5.653L61.2414 5.64598C61.7665 4.80978 62.2916 3.9737 62.8158 3.13764L62.8891 3.02073L63.0989 2.97935C64.1884 2.76449 65.2777 2.54967 66.3665 2.33125L67.531 2.09766ZM63.2932 3.58125C62.7933 4.37837 62.2927 5.17548 61.7922 5.97249C61.7921 5.97273 61.7919 5.97298 61.7918 5.97322L61.7875 5.98008C61.6454 6.20634 61.5033 6.4326 61.3612 6.65884C61.8837 6.20109 62.4063 5.74319 62.9289 5.28529C63.7308 4.58263 64.5328 3.87995 65.3343 3.17774C64.6537 3.31291 63.9733 3.44713 63.2932 3.58125Z" fill="#D9D9D9"/>
<path fill-rule="evenodd" clip-rule="evenodd" d="M74.7683 27.7402L73.6477 28.5113C72.8891 29.0333 72.1306 29.5552 71.3724 30.0772L71.1879 30.2042L71.0022 30.0789C70.1498 29.5037 69.2935 28.9285 68.4409 28.357L67.5977 27.7917L68.6217 27.7849C69.4898 27.7792 70.3423 27.7725 71.1951 27.7659C72.0386 27.7594 72.8824 27.7528 73.7418 27.7471L74.7683 27.7402ZM69.6489 28.4052C70.1607 28.7488 70.673 29.0934 71.1842 29.4381C71.6957 29.086 72.2073 28.7339 72.719 28.3818C72.2156 28.3855 71.7085 28.3894 71.2013 28.3933C70.6826 28.3974 70.1639 28.4014 69.6489 28.4052Z" fill="#D9D9D9"/>
</g>
<path fill-rule="evenodd" clip-rule="evenodd" d="M51.6556 8.63672L51.8015 9.67678C52.2453 12.8405 52.6851 16.0077 53.1247 19.1748C54.4333 18.5744 55.743 17.9747 57.053 17.375C58.0704 16.9092 59.0879 16.4434 60.1052 15.977L61.104 15.5191L60.5156 16.428C59.7933 17.5438 59.0719 18.6606 58.3504 19.7775L58.3452 19.7856C57.7238 20.7475 57.1023 21.7096 56.4802 22.6712L67.4346 22.83L66.2254 23.4059C65.3229 23.8358 64.4198 24.2661 63.5165 24.6967C62.0276 25.4063 60.5377 26.1163 59.048 26.8251L61.4594 29.3738L60.698 29.3547C53.1514 29.1658 49.3737 29.8024 47.3412 30.4954C47.3254 30.5008 47.3084 30.5067 47.2904 30.5129C46.8642 30.6601 45.8197 31.021 44.3873 31.1886C41.8066 31.4911 39.6132 30.975 38.633 30.7387L38.6324 30.7386C37.5779 30.4823 36.7904 30.1924 36.472 30.0751C36.4269 30.0585 36.3912 30.0454 36.3654 30.0363L36.3634 30.0356C34.4088 29.3298 30.6698 28.651 22.8747 28.9193L21.7818 28.9569L25.8508 26.1965C25.2759 25.9377 24.7012 25.6792 24.1267 25.4207C22.7628 24.8071 21.3998 24.1939 20.037 23.5791L18.6816 22.9678L20.1756 22.9808C21.9103 22.9959 23.6451 23.012 25.3797 23.0281L25.3804 23.0281C26.9218 23.0424 28.4632 23.0567 30.0045 23.0703C29.3947 22.0928 28.785 21.1158 28.1752 20.1388L28.1689 20.1288C27.4597 18.9925 26.7505 17.8561 26.0412 16.7188L25.5326 15.9032L26.4396 16.2659C28.357 17.0326 30.2713 17.7975 32.1856 18.5624C33.9209 19.2558 35.6563 19.9492 37.394 20.644C37.4382 19.2337 37.4834 17.8168 37.5286 16.3999C37.578 14.8494 37.6275 13.2991 37.6757 11.7577L37.7016 10.9288L38.2462 11.5668C39.6512 13.2129 41.0573 14.86 42.4633 16.507C43.5918 17.8289 44.7202 19.1507 45.848 20.472C47.6287 16.845 49.4097 13.2146 51.1908 9.58408L51.6556 8.63672ZM51.3081 10.8019C49.6096 14.2641 47.9111 17.726 46.2129 21.1848L45.9957 21.6272L45.6737 21.25C44.442 19.807 43.2094 18.3632 41.9768 16.9193C41.963 16.9031 41.9491 16.8869 41.9353 16.8707C40.7215 15.4488 39.5076 14.0268 38.2944 12.6056C38.2544 13.8765 38.214 15.1435 38.1736 16.4104C38.1735 16.4136 38.1734 16.4167 38.1733 16.4199C38.1235 17.9829 38.0736 19.5458 38.0245 21.1159L38.0104 21.5688L37.5795 21.3965C35.7092 20.6487 33.8378 19.9009 31.9664 19.1532C31.9582 19.1499 31.95 19.1466 31.9417 19.1433C30.3281 18.4985 28.7144 17.8538 27.1014 17.2089C27.6417 18.075 28.182 18.9407 28.7224 19.8064L28.7271 19.8141L28.7273 19.8144C29.437 20.9514 30.1466 22.0884 30.8563 23.2264L31.1566 23.7079L30.5777 23.7028C28.8483 23.6878 27.1189 23.6717 25.3896 23.6557C25.3853 23.6556 25.381 23.6556 25.3767 23.6556L25.3735 23.6555C25.3716 23.6555 25.3698 23.6555 25.3679 23.6555C24.1336 23.644 22.8994 23.6326 21.6653 23.6215C22.5757 24.0316 23.4863 24.4412 24.3974 24.8512C24.4017 24.8531 24.4061 24.8551 24.4105 24.8571C25.1504 25.19 25.8907 25.523 26.6316 25.8566L27.1413 26.0861L23.9364 28.2603C31.0361 28.0871 34.6129 28.7345 36.5867 29.4469C36.5871 29.447 36.5875 29.4472 36.5879 29.4473L36.4756 29.7415L36.5858 29.4466C36.5861 29.4467 36.5864 29.4468 36.5867 29.4469C36.6149 29.4569 36.6528 29.4708 36.6998 29.4881C37.0224 29.6068 37.7742 29.8832 38.7882 30.1297L38.7106 30.4342L38.7888 30.1298C39.7557 30.363 41.8528 30.8537 44.3102 30.5657C45.6711 30.4064 46.6611 30.0644 47.0765 29.9209C47.0942 29.9148 47.1108 29.9091 47.1264 29.9037L47.1272 29.9034C49.1961 29.1979 52.8774 28.5811 59.9556 28.711L57.9876 26.631L58.3761 26.4462C59.9927 25.6773 61.6092 24.9069 63.2249 24.1369C63.2279 24.1355 63.2308 24.1341 63.2338 24.1327C63.7336 23.8945 64.2332 23.6564 64.7328 23.4183L55.3226 23.2819L55.6285 22.8094C56.3495 21.6956 57.0696 20.5809 57.7897 19.4661C57.7911 19.464 57.7924 19.4619 57.7938 19.4598L57.799 19.4517C57.7993 19.4513 57.7995 19.4509 57.7998 19.4504C58.3271 18.6342 58.8543 17.818 59.382 17.002C58.6972 17.3157 58.0125 17.6292 57.3279 17.9426C55.8851 18.6032 54.443 19.2634 53.0017 19.9251L52.6034 20.108L52.5444 19.6833C52.1333 16.7218 51.7222 13.7605 51.3081 10.8019Z" fill="#F44C0E"/>
<path d="M51.3081 10.8019C49.6096 14.2641 47.9111 17.726 46.2129 21.1848L45.9957 21.6272L45.6737 21.25C44.442 19.807 43.2094 18.3632 41.9768 16.9193L41.9353 16.8707C40.7215 15.4488 39.5076 14.0268 38.2944 12.6056C38.2544 13.8765 38.214 15.1435 38.1736 16.4104L38.1733 16.4199C38.1235 17.9829 38.0736 19.5458 38.0245 21.1159L38.0104 21.5688L37.5795 21.3965C35.7092 20.6487 33.8378 19.9009 31.9664 19.1532L31.9417 19.1433C30.3281 18.4985 28.7144 17.8538 27.1014 17.2089C27.6417 18.075 28.182 18.9407 28.7224 19.8064L28.7271 19.8141L28.7273 19.8144C29.437 20.9514 30.1466 22.0884 30.8563 23.2264L31.1566 23.7079L30.5777 23.7028C28.8483 23.6878 27.1189 23.6717 25.3896 23.6557L25.3767 23.6556L25.3735 23.6555L25.3679 23.6555C24.1336 23.644 22.8994 23.6326 21.6653 23.6215C22.5757 24.0316 23.4863 24.4412 24.3974 24.8512L24.4105 24.8571C25.1504 25.19 25.8907 25.523 26.6316 25.8566L27.1413 26.0861L23.9364 28.2603C31.0361 28.0871 34.6129 28.7345 36.5867 29.4469C36.6149 29.4569 36.6528 29.4708 36.6998 29.4881C37.0224 29.6068 37.7742 29.8832 38.7882 30.1297L38.7106 30.4342L38.7888 30.1298C39.7557 30.363 41.8528 30.8537 44.3102 30.5657C45.6711 30.4064 46.6611 30.0644 47.0765 29.9209L47.1264 29.9037L47.1272 29.9034C49.1961 29.1979 52.8774 28.5811 59.9556 28.711L57.9876 26.631L58.3761 26.4462C59.9927 25.6773 61.6092 24.9069 63.2249 24.1369L63.2338 24.1327C63.7336 23.8945 64.2332 23.6564 64.7328 23.4183L55.3226 23.2819L55.6285 22.8094C56.3495 21.6956 57.0696 20.5809 57.7897 19.4661L57.7938 19.4598L57.799 19.4517L57.7998 19.4504C58.3271 18.6342 58.8543 17.818 59.382 17.002C58.6972 17.3157 58.0125 17.6292 57.3279 17.9426C55.8851 18.6032 54.443 19.2634 53.0017 19.9251L52.6034 20.108L52.5444 19.6833C52.1333 16.7218 51.7222 13.7605 51.3081 10.8019Z" fill="#F44C0E"/>
</g>
</g>
<defs>
<clipPath id="clip0_441_5839">
<rect width="90.7388" height="64" fill="white" transform="translate(0.261719)"/>
</clipPath>
</defs>
</svg>
