<svg width="34" height="22" viewBox="0 0 34 22" fill="none" xmlns="http://www.w3.org/2000/svg">
<mask id="path-1-inside-1_423_3820" fill="white">
<path d="M19.4062 11.5312C19.4062 7.59375 20.2917 4.6875 22.0625 2.8125C23.8542 0.9375 26.3958 0 29.6875 0V3.78125C28.7292 3.78125 27.875 3.875 27.125 4.0625C26.3958 4.25 25.7708 4.59375 25.25 5.09375C24.75 5.59375 24.3646 6.27083 24.0938 7.125C23.8229 7.97917 23.6667 9.0625 23.625 10.375H29.5625V18.5H19.4062V11.5312ZM0.96875 11.5312C0.96875 7.59375 1.85417 4.6875 3.625 2.8125C5.41667 0.9375 7.95833 0 11.25 0V3.78125C10.2917 3.78125 9.4375 3.875 8.6875 4.0625C7.95833 4.25 7.33333 4.59375 6.8125 5.09375C6.3125 5.59375 5.92708 6.27083 5.65625 7.125C5.38542 7.97917 5.22917 9.0625 5.1875 10.375H11.125V18.5H0.96875V11.5312ZM26.1562 8.25C26.2604 7.47917 26.5625 6.91667 27.0625 6.5625C27.5833 6.1875 28.4583 6 29.6875 6H31.8125V1.75H33.0625V7.1875H29.5625C29.0833 7.1875 28.6667 7.20833 28.3125 7.25C27.9792 7.29167 27.6875 7.36458 27.4375 7.46875C27.1875 7.55208 26.9583 7.65625 26.75 7.78125C26.5625 7.90625 26.3646 8.0625 26.1562 8.25ZM7.71875 8.25C7.82292 7.47917 8.125 6.91667 8.625 6.5625C9.14583 6.1875 10.0208 6 11.25 6H13.375V1.75H14.625V7.1875H11.125C10.6458 7.1875 10.2292 7.20833 9.875 7.25C9.54167 7.29167 9.25 7.36458 9 7.46875C8.75 7.55208 8.52083 7.65625 8.3125 7.78125C8.125 7.90625 7.92708 8.0625 7.71875 8.25ZM21.2812 20.6875H31.8125V11.5312H33.0625V21.875H21.2812V20.6875ZM2.84375 20.6875H13.375V11.5312H14.625V21.875H2.84375V20.6875Z"/>
</mask>
<path d="M19.4062 11.5312C19.4062 7.59375 20.2917 4.6875 22.0625 2.8125C23.8542 0.9375 26.3958 0 29.6875 0V3.78125C28.7292 3.78125 27.875 3.875 27.125 4.0625C26.3958 4.25 25.7708 4.59375 25.25 5.09375C24.75 5.59375 24.3646 6.27083 24.0938 7.125C23.8229 7.97917 23.6667 9.0625 23.625 10.375H29.5625V18.5H19.4062V11.5312ZM0.96875 11.5312C0.96875 7.59375 1.85417 4.6875 3.625 2.8125C5.41667 0.9375 7.95833 0 11.25 0V3.78125C10.2917 3.78125 9.4375 3.875 8.6875 4.0625C7.95833 4.25 7.33333 4.59375 6.8125 5.09375C6.3125 5.59375 5.92708 6.27083 5.65625 7.125C5.38542 7.97917 5.22917 9.0625 5.1875 10.375H11.125V18.5H0.96875V11.5312ZM26.1562 8.25C26.2604 7.47917 26.5625 6.91667 27.0625 6.5625C27.5833 6.1875 28.4583 6 29.6875 6H31.8125V1.75H33.0625V7.1875H29.5625C29.0833 7.1875 28.6667 7.20833 28.3125 7.25C27.9792 7.29167 27.6875 7.36458 27.4375 7.46875C27.1875 7.55208 26.9583 7.65625 26.75 7.78125C26.5625 7.90625 26.3646 8.0625 26.1562 8.25ZM7.71875 8.25C7.82292 7.47917 8.125 6.91667 8.625 6.5625C9.14583 6.1875 10.0208 6 11.25 6H13.375V1.75H14.625V7.1875H11.125C10.6458 7.1875 10.2292 7.20833 9.875 7.25C9.54167 7.29167 9.25 7.36458 9 7.46875C8.75 7.55208 8.52083 7.65625 8.3125 7.78125C8.125 7.90625 7.92708 8.0625 7.71875 8.25ZM21.2812 20.6875H31.8125V11.5312H33.0625V21.875H21.2812V20.6875ZM2.84375 20.6875H13.375V11.5312H14.625V21.875H2.84375V20.6875Z" fill="#D9D9D9"/>
<path d="M22.0625 2.8125L21.3395 2.12163L21.3355 2.12588L22.0625 2.8125ZM29.6875 0H30.6875V-1H29.6875V0ZM29.6875 3.78125V4.78125H30.6875V3.78125H29.6875ZM27.125 4.0625L26.8825 3.09233L26.876 3.09401L27.125 4.0625ZM25.25 5.09375L24.5575 4.37236L24.5501 4.37943L24.5429 4.38664L25.25 5.09375ZM23.625 10.375L22.6255 10.3433L22.5928 11.375H23.625V10.375ZM29.5625 10.375H30.5625V9.375H29.5625V10.375ZM29.5625 18.5V19.5H30.5625V18.5H29.5625ZM19.4062 18.5H18.4062V19.5H19.4062V18.5ZM3.625 2.8125L2.902 2.12163L2.89799 2.12588L3.625 2.8125ZM11.25 0H12.25V-1H11.25V0ZM11.25 3.78125V4.78125H12.25V3.78125H11.25ZM8.6875 4.0625L8.44496 3.09233L8.43846 3.09401L8.6875 4.0625ZM6.8125 5.09375L6.11997 4.37236L6.11261 4.37943L6.10539 4.38664L6.8125 5.09375ZM5.1875 10.375L4.188 10.3433L4.15525 11.375H5.1875V10.375ZM11.125 10.375H12.125V9.375H11.125V10.375ZM11.125 18.5V19.5H12.125V18.5H11.125ZM0.96875 18.5H-0.03125V19.5H0.96875V18.5ZM26.1562 8.25L25.1653 8.11608L24.8005 10.8156L26.8252 8.99329L26.1562 8.25ZM27.0625 6.5625L27.6405 7.37855L27.6468 7.37403L27.0625 6.5625ZM31.8125 6V7H32.8125V6H31.8125ZM31.8125 1.75V0.75H30.8125V1.75H31.8125ZM33.0625 1.75H34.0625V0.75H33.0625V1.75ZM33.0625 7.1875V8.1875H34.0625V7.1875H33.0625ZM28.3125 7.25L28.1957 6.25682L28.1885 6.25772L28.3125 7.25ZM27.4375 7.46875L27.7537 8.41743L27.7884 8.40588L27.8221 8.39183L27.4375 7.46875ZM26.75 7.78125L26.2355 6.92376L26.2151 6.936L26.1953 6.9492L26.75 7.78125ZM7.71875 8.25L6.72776 8.11608L6.36296 10.8156L8.38771 8.99329L7.71875 8.25ZM8.625 6.5625L9.20304 7.37855L9.2093 7.37403L8.625 6.5625ZM13.375 6V7H14.375V6H13.375ZM13.375 1.75V0.75H12.375V1.75H13.375ZM14.625 1.75H15.625V0.75H14.625V1.75ZM14.625 7.1875V8.1875H15.625V7.1875H14.625ZM9.875 7.25L9.75816 6.25682L9.75097 6.25772L9.875 7.25ZM9 7.46875L9.31623 8.41743L9.35089 8.40588L9.38461 8.39183L9 7.46875ZM8.3125 7.78125L7.798 6.92376L7.7776 6.936L7.7578 6.9492L8.3125 7.78125ZM21.2812 20.6875V19.6875H20.2812V20.6875H21.2812ZM31.8125 20.6875V21.6875H32.8125V20.6875H31.8125ZM31.8125 11.5312V10.5312H30.8125V11.5312H31.8125ZM33.0625 11.5312H34.0625V10.5312H33.0625V11.5312ZM33.0625 21.875V22.875H34.0625V21.875H33.0625ZM21.2812 21.875H20.2812V22.875H21.2812V21.875ZM2.84375 20.6875V19.6875H1.84375V20.6875H2.84375ZM13.375 20.6875V21.6875H14.375V20.6875H13.375ZM13.375 11.5312V10.5312H12.375V11.5312H13.375ZM14.625 11.5312H15.625V10.5312H14.625V11.5312ZM14.625 21.875V22.875H15.625V21.875H14.625ZM2.84375 21.875H1.84375V22.875H2.84375V21.875ZM19.4062 11.5312H20.4062C20.4062 7.71824 21.2669 5.1113 22.7895 3.49912L22.0625 2.8125L21.3355 2.12588C19.3164 4.2637 18.4062 7.46926 18.4062 11.5312H19.4062ZM22.0625 2.8125L22.7855 3.50336C24.3407 1.87578 26.5911 1 29.6875 1V0V-1C26.2006 -1 23.3676 -0.000778198 21.3395 2.12164L22.0625 2.8125ZM29.6875 0H28.6875V3.78125H29.6875H30.6875V0H29.6875ZM29.6875 3.78125V2.78125C28.666 2.78125 27.728 2.88097 26.8825 3.09236L27.125 4.0625L27.3675 5.03264C28.022 4.86903 28.7923 4.78125 29.6875 4.78125V3.78125ZM27.125 4.0625L26.876 3.09401C25.9876 3.32245 25.2078 3.74802 24.5575 4.37236L25.25 5.09375L25.9425 5.81514C26.3338 5.43948 26.8041 5.17755 27.374 5.03099L27.125 4.0625ZM25.25 5.09375L24.5429 4.38664C23.9034 5.02617 23.4472 5.85567 23.1405 6.82276L24.0938 7.125L25.047 7.42724C25.282 6.686 25.5966 6.16133 25.9571 5.80086L25.25 5.09375ZM24.0938 7.125L23.1405 6.82276C22.8323 7.79492 22.6689 8.9774 22.6255 10.3433L23.625 10.375L24.6245 10.4067C24.6645 9.1476 24.8136 8.16341 25.047 7.42724L24.0938 7.125ZM23.625 10.375V11.375H29.5625V10.375V9.375H23.625V10.375ZM29.5625 10.375H28.5625V18.5H29.5625H30.5625V10.375H29.5625ZM29.5625 18.5V17.5H19.4062V18.5V19.5H29.5625V18.5ZM19.4062 18.5H20.4062V11.5312H19.4062H18.4062V18.5H19.4062ZM0.96875 11.5312H1.96875C1.96875 7.71824 2.8294 5.1113 4.35201 3.49912L3.625 2.8125L2.89799 2.12588C0.878929 4.2637 -0.03125 7.46926 -0.03125 11.5312H0.96875ZM3.625 2.8125L4.34799 3.50336C5.90323 1.87578 8.1536 1 11.25 1V0V-1C7.76307 -1 4.9301 -0.000778198 2.90201 2.12164L3.625 2.8125ZM11.25 0H10.25V3.78125H11.25H12.25V0H11.25ZM11.25 3.78125V2.78125C10.2285 2.78125 9.29053 2.88097 8.44496 3.09236L8.6875 4.0625L8.93004 5.03264C9.58447 4.86903 10.3548 4.78125 11.25 4.78125V3.78125ZM8.6875 4.0625L8.43846 3.09401C7.55008 3.32245 6.77032 3.74802 6.11997 4.37236L6.8125 5.09375L7.50503 5.81514C7.89634 5.43948 8.36658 5.17755 8.93654 5.03099L8.6875 4.0625ZM6.8125 5.09375L6.10539 4.38664C5.46587 5.02617 5.00966 5.85567 4.70302 6.82276L5.65625 7.125L6.60948 7.42724C6.84451 6.686 7.15913 6.16133 7.51961 5.80086L6.8125 5.09375ZM5.65625 7.125L4.70302 6.82276C4.39477 7.79492 4.23137 8.9774 4.188 10.3433L5.1875 10.375L6.187 10.4067C6.22697 9.1476 6.37606 8.16341 6.60948 7.42724L5.65625 7.125ZM5.1875 10.375V11.375H11.125V10.375V9.375H5.1875V10.375ZM11.125 10.375H10.125V18.5H11.125H12.125V10.375H11.125ZM11.125 18.5V17.5H0.96875V18.5V19.5H11.125V18.5ZM0.96875 18.5H1.96875V11.5312H0.96875H-0.03125V18.5H0.96875ZM26.1562 8.25L27.1472 8.38392C27.2249 7.8092 27.4243 7.53166 27.6405 7.37852L27.0625 6.5625L26.4845 5.74648C25.7007 6.30167 25.2959 7.14914 25.1653 8.11608L26.1562 8.25ZM27.0625 6.5625L27.6468 7.37403C27.9008 7.19113 28.5048 7 29.6875 7V6V5C28.4119 5 27.2658 5.18387 26.4782 5.75097L27.0625 6.5625ZM29.6875 6V7H31.8125V6V5H29.6875V6ZM31.8125 6H32.8125V1.75H31.8125H30.8125V6H31.8125ZM31.8125 1.75V2.75H33.0625V1.75V0.75H31.8125V1.75ZM33.0625 1.75H32.0625V7.1875H33.0625H34.0625V1.75H33.0625ZM33.0625 7.1875V6.1875H29.5625V7.1875V8.1875H33.0625V7.1875ZM29.5625 7.1875V6.1875C29.0566 6.1875 28.5992 6.20938 28.1957 6.25685L28.3125 7.25L28.4293 8.24315C28.7342 8.20729 29.1101 8.1875 29.5625 8.1875V7.1875ZM28.3125 7.25L28.1885 6.25772C27.7861 6.30802 27.4034 6.39963 27.0529 6.54567L27.4375 7.46875L27.8221 8.39183C27.9716 8.32953 28.1723 8.27531 28.4365 8.24228L28.3125 7.25ZM27.4375 7.46875L27.1213 6.52007C26.8078 6.62454 26.5114 6.75821 26.2355 6.92376L26.75 7.78125L27.2645 8.63874C27.4052 8.55429 27.5672 8.47962 27.7537 8.41743L27.4375 7.46875ZM26.75 7.78125L26.1953 6.9492C25.9593 7.10651 25.7233 7.29433 25.4873 7.50671L26.1562 8.25L26.8252 8.99329C27.0059 8.83067 27.1657 8.70599 27.3047 8.6133L26.75 7.78125ZM7.71875 8.25L8.70974 8.38392C8.78741 7.8092 8.98682 7.53166 9.20302 7.37852L8.625 6.5625L8.04698 5.74648C7.26318 6.30167 6.85843 7.14914 6.72776 8.11608L7.71875 8.25ZM8.625 6.5625L9.2093 7.37403C9.46334 7.19113 10.0673 7 11.25 7V6V5C9.97437 5 8.82833 5.18387 8.0407 5.75097L8.625 6.5625ZM11.25 6V7H13.375V6V5H11.25V6ZM13.375 6H14.375V1.75H13.375H12.375V6H13.375ZM13.375 1.75V2.75H14.625V1.75V0.75H13.375V1.75ZM14.625 1.75H13.625V7.1875H14.625H15.625V1.75H14.625ZM14.625 7.1875V6.1875H11.125V7.1875V8.1875H14.625V7.1875ZM11.125 7.1875V6.1875C10.6191 6.1875 10.1617 6.20938 9.75816 6.25685L9.875 7.25L9.99184 8.24315C10.2967 8.20729 10.6726 8.1875 11.125 8.1875V7.1875ZM9.875 7.25L9.75097 6.25772C9.34858 6.30802 8.96588 6.39963 8.61539 6.54567L9 7.46875L9.38461 8.39183C9.53412 8.32953 9.73476 8.27531 9.99903 8.24228L9.875 7.25ZM9 7.46875L8.68377 6.52007C8.37034 6.62454 8.07393 6.75821 7.798 6.92376L8.3125 7.78125L8.827 8.63874C8.96774 8.55429 9.12966 8.47962 9.31623 8.41743L9 7.46875ZM8.3125 7.78125L7.7578 6.9492C7.52183 7.10651 7.28576 7.29433 7.04979 7.50671L7.71875 8.25L8.38771 8.99329C8.56841 8.83067 8.72817 8.70599 8.8672 8.6133L8.3125 7.78125ZM21.2812 20.6875V21.6875H31.8125V20.6875V19.6875H21.2812V20.6875ZM31.8125 20.6875H32.8125V11.5312H31.8125H30.8125V20.6875H31.8125ZM31.8125 11.5312V12.5312H33.0625V11.5312V10.5312H31.8125V11.5312ZM33.0625 11.5312H32.0625V21.875H33.0625H34.0625V11.5312H33.0625ZM33.0625 21.875V20.875H21.2812V21.875V22.875H33.0625V21.875ZM21.2812 21.875H22.2812V20.6875H21.2812H20.2812V21.875H21.2812ZM2.84375 20.6875V21.6875H13.375V20.6875V19.6875H2.84375V20.6875ZM13.375 20.6875H14.375V11.5312H13.375H12.375V20.6875H13.375ZM13.375 11.5312V12.5312H14.625V11.5312V10.5312H13.375V11.5312ZM14.625 11.5312H13.625V21.875H14.625H15.625V11.5312H14.625ZM14.625 21.875V20.875H2.84375V21.875V22.875H14.625V21.875ZM2.84375 21.875H3.84375V20.6875H2.84375H1.84375V21.875H2.84375Z" fill="#F44C0E" mask="url(#path-1-inside-1_423_3820)"/>
</svg>
